<svg xmlns="http://www.w3.org/2000/svg" xmlns:xlink="http://www.w3.org/1999/xlink" width="500" zoomAndPan="magnify" viewBox="0 0 375 374.999991" height="500" preserveAspectRatio="xMidYMid meet" version="1.2"><defs><clipPath id="d3f0ec82c8"><path d="M 12.882812 12.882812 L 362.117188 12.882812 L 362.117188 362.117188 L 12.882812 362.117188 Z M 12.882812 12.882812 "/></clipPath><clipPath id="e4a531dabe"><path d="M 187.5 12.882812 C 91.0625 12.882812 12.882812 91.0625 12.882812 187.5 C 12.882812 283.9375 91.0625 362.117188 187.5 362.117188 C 283.9375 362.117188 362.117188 283.9375 362.117188 187.5 C 362.117188 91.0625 283.9375 12.882812 187.5 12.882812 Z M 187.5 12.882812 "/></clipPath><clipPath id="af47173e09"><path d="M 118.121094 155.046875 L 166.207031 155.046875 L 166.207031 203.132812 L 118.121094 203.132812 Z M 118.121094 155.046875 "/></clipPath><clipPath id="a7ce438250"><path d="M 142.164062 155.046875 C 128.886719 155.046875 118.121094 165.8125 118.121094 179.089844 C 118.121094 192.367188 128.886719 203.132812 142.164062 203.132812 C 155.441406 203.132812 166.207031 192.367188 166.207031 179.089844 C 166.207031 165.8125 155.441406 155.046875 142.164062 155.046875 Z M 142.164062 155.046875 "/></clipPath><clipPath id="8922420d5c"><path d="M 119.976562 98 L 254.976562 98 L 254.976562 259 L 119.976562 259 Z M 119.976562 98 "/></clipPath><clipPath id="bb63fec3b7"><path d="M 139.898438 140.203125 L 235.101562 140.203125 L 235.101562 155.046875 L 139.898438 155.046875 Z M 139.898438 140.203125 "/></clipPath><clipPath id="6dcb0b5d2e"><path d="M 167 115.101562 L 208 115.101562 L 208 151.851562 L 167 151.851562 Z M 167 115.101562 "/></clipPath></defs><g id="df18ad29c3"><g clip-rule="nonzero" clip-path="url(#d3f0ec82c8)"><g clip-rule="nonzero" clip-path="url(#e4a531dabe)"><path style=" stroke:none;fill-rule:nonzero;fill:#002060;fill-opacity:1;" d="M 12.882812 12.882812 L 362.117188 12.882812 L 362.117188 362.117188 L 12.882812 362.117188 Z M 12.882812 12.882812 "/></g></g><g clip-rule="nonzero" clip-path="url(#af47173e09)"><g clip-rule="nonzero" clip-path="url(#a7ce438250)"><path style=" stroke:none;fill-rule:nonzero;fill:#002060;fill-opacity:1;" d="M 118.121094 155.046875 L 166.207031 155.046875 L 166.207031 203.132812 L 118.121094 203.132812 Z M 118.121094 155.046875 "/></g></g><path style=" stroke:none;fill-rule:nonzero;fill:#ffffff;fill-opacity:1;" d="M 187.472656 208.304688 C 168.886719 208.304688 153.703125 223.441406 153.703125 242.027344 C 153.703125 260.617188 168.886719 275.777344 187.472656 275.777344 C 206.0625 275.777344 221.222656 260.617188 221.222656 242.027344 C 221.222656 223.441406 206.0625 208.304688 187.472656 208.304688 Z M 187.386719 223.507812 C 188.417969 223.484375 189.472656 223.878906 190.394531 224.714844 L 201.535156 235.460938 C 203.226562 237.085938 203.269531 239.742188 201.644531 241.4375 C 200.019531 243.082031 197.359375 243.128906 195.691406 241.523438 L 191.691406 237.679688 L 191.691406 256.308594 C 191.714844 258.660156 189.800781 260.550781 187.472656 260.550781 C 185.144531 260.550781 183.253906 258.640625 183.253906 256.308594 L 183.253906 237.679688 L 179.277344 241.523438 C 177.609375 243.148438 174.925781 243.105469 173.300781 241.4375 C 171.675781 239.742188 171.71875 237.085938 173.390625 235.460938 L 184.550781 224.714844 C 185.363281 223.945312 186.375 223.527344 187.386719 223.507812 Z M 187.386719 223.507812 "/><g clip-rule="nonzero" clip-path="url(#8922420d5c)"><path style=" stroke:none;fill-rule:nonzero;fill:#ffffff;fill-opacity:1;" d="M 130.523438 98.601562 C 124.746094 98.601562 119.976562 103.367188 119.976562 109.148438 L 119.976562 248.355469 C 119.976562 254.136719 124.746094 258.902344 130.523438 258.902344 L 145.289062 258.902344 C 147.617188 258.902344 149.507812 257.011719 149.507812 254.683594 C 149.507812 252.355469 147.617188 250.464844 145.289062 250.464844 L 130.523438 250.464844 C 129.269531 250.464844 128.414062 249.609375 128.414062 248.355469 L 128.414062 109.148438 C 128.414062 107.894531 129.269531 107.039062 130.523438 107.039062 L 217.003906 107.039062 L 217.003906 130.238281 C 217.003906 136.019531 221.769531 140.785156 227.546875 140.785156 L 246.53125 140.785156 L 246.53125 248.355469 C 246.53125 249.609375 245.675781 250.464844 244.421875 250.464844 L 229.65625 250.464844 C 227.328125 250.464844 225.4375 252.355469 225.4375 254.683594 C 225.4375 257.011719 227.328125 258.902344 229.65625 258.902344 L 244.421875 258.902344 C 250.199219 258.902344 254.96875 254.136719 254.96875 248.355469 L 254.96875 135.292969 C 254.96875 134.214844 254.574219 133.207031 253.847656 132.414062 C 241.894531 119.582031 233.480469 110.574219 223.484375 99.941406 C 222.691406 99.085938 221.574219 98.601562 220.40625 98.601562 Z M 130.523438 98.601562 "/></g><path style=" stroke:none;fill-rule:nonzero;fill:#ffffff;fill-opacity:1;" d="M 153.484375 145.027344 C 151.175781 145.027344 149.285156 146.894531 149.285156 149.222656 C 149.285156 151.550781 151.175781 153.417969 153.484375 153.417969 L 200.152344 153.417969 C 202.457031 153.417969 204.347656 151.550781 204.347656 149.222656 C 204.347656 146.894531 202.457031 145.027344 200.152344 145.027344 Z M 153.484375 145.027344 "/><path style=" stroke:none;fill-rule:nonzero;fill:#ffffff;fill-opacity:1;" d="M 153.484375 166.097656 C 151.175781 166.117188 149.285156 167.984375 149.285156 170.316406 C 149.285156 172.644531 151.15625 174.535156 153.484375 174.535156 L 221.441406 174.535156 C 223.792969 174.554688 225.679688 172.644531 225.679688 170.316406 C 225.660156 167.964844 223.769531 166.097656 221.441406 166.097656 Z M 153.484375 166.097656 "/><path style=" stroke:none;fill-rule:nonzero;fill:#ffffff;fill-opacity:1;" d="M 153.484375 187.1875 C 151.15625 187.1875 149.285156 189.078125 149.285156 191.40625 C 149.285156 193.734375 151.175781 195.605469 153.484375 195.625 L 200.152344 195.625 C 202.457031 195.605469 204.347656 193.734375 204.347656 191.40625 C 204.347656 189.078125 202.480469 187.1875 200.152344 187.1875 Z M 153.484375 187.1875 "/><g clip-rule="nonzero" clip-path="url(#bb63fec3b7)"><path style=" stroke:none;fill-rule:nonzero;fill:#002060;fill-opacity:1;" d="M 139.898438 140.203125 L 235.109375 140.203125 L 235.109375 155.046875 L 139.898438 155.046875 Z M 139.898438 140.203125 "/></g><g clip-rule="nonzero" clip-path="url(#6dcb0b5d2e)"><path style=" stroke:none;fill-rule:nonzero;fill:#ffffff;fill-opacity:1;" d="M 184.636719 117.210938 L 167.59375 146.734375 C 166.375 148.839844 167.894531 151.476562 170.328125 151.476562 L 204.421875 151.476562 C 206.855469 151.476562 208.375 148.839844 207.160156 146.734375 L 190.113281 117.210938 C 188.894531 115.101562 185.855469 115.101562 184.636719 117.210938 Z M 184.636719 117.210938 "/></g><path style=" stroke:none;fill-rule:nonzero;fill:#002060;fill-opacity:1;" d="M 186.519531 138.683594 L 188.230469 138.683594 C 188.863281 138.683594 189.390625 138.109375 189.390625 137.425781 L 189.953125 128.488281 C 189.953125 127.464844 189.277344 126.605469 188.472656 126.605469 L 186.28125 126.605469 C 185.472656 126.605469 184.796875 127.464844 184.796875 128.488281 L 185.359375 137.425781 C 185.359375 138.109375 185.890625 138.683594 186.519531 138.683594 Z M 186.519531 138.683594 "/><path style=" stroke:none;fill-rule:nonzero;fill:#002060;fill-opacity:1;" d="M 187.476562 140.632812 C 185.84375 140.632812 184.875 141.882812 184.875 143.03125 C 184.875 144.382812 185.84375 145.632812 187.476562 145.632812 C 188.90625 145.632812 189.875 144.382812 189.875 143.03125 C 189.875 141.882812 188.90625 140.632812 187.476562 140.632812 Z M 187.476562 140.632812 "/></g></svg>