<svg xmlns="http://www.w3.org/2000/svg" xmlns:xlink="http://www.w3.org/1999/xlink" width="500" zoomAndPan="magnify" viewBox="0 0 375 374.999991" height="500" preserveAspectRatio="xMidYMid meet" version="1.2"><defs><clipPath id="a117b39f77"><path d="M 70 69.816406 L 305 69.816406 L 305 305.316406 L 70 305.316406 Z M 70 69.816406 "/></clipPath><clipPath id="c5693403f1"><path d="M 12.882812 12.882812 L 362.117188 12.882812 L 362.117188 362.117188 L 12.882812 362.117188 Z M 12.882812 12.882812 "/></clipPath><clipPath id="5f3c17ee7d"><path d="M 187.5 12.882812 C 91.0625 12.882812 12.882812 91.0625 12.882812 187.5 C 12.882812 283.9375 91.0625 362.117188 187.5 362.117188 C 283.9375 362.117188 362.117188 283.9375 362.117188 187.5 C 362.117188 91.0625 283.9375 12.882812 187.5 12.882812 Z M 187.5 12.882812 "/></clipPath><clipPath id="cfbaae9f04"><path d="M 104.140625 132 L 270 132 L 270 266 L 104.140625 266 Z M 104.140625 132 "/></clipPath></defs><g id="484d2cd1de"><g clip-rule="nonzero" clip-path="url(#a117b39f77)"><path style=" stroke:none;fill-rule:evenodd;fill:#ffffff;fill-opacity:1;" d="M 93.191406 187.496094 C 93.191406 167.027344 99.554688 147.691406 111.628906 131.367188 L 116.910156 139.863281 C 108.253906 152.671875 103.34375 167.355469 102.53125 182.878906 L 113.792969 182.878906 C 116.335938 182.878906 118.398438 184.945312 118.398438 187.496094 C 118.398438 190.042969 116.335938 192.109375 113.792969 192.109375 L 102.53125 192.109375 C 104.847656 235.457031 139.628906 270.304688 182.894531 272.628906 L 182.894531 261.347656 C 182.894531 258.796875 184.957031 256.730469 187.5 256.730469 C 190.042969 256.730469 192.105469 258.796875 192.105469 261.347656 L 192.105469 272.628906 C 207.597656 271.816406 222.253906 266.894531 235.039062 258.222656 L 243.519531 263.511719 C 227.222656 275.609375 207.925781 281.984375 187.5 281.984375 C 135.5 281.984375 93.191406 239.597656 93.191406 187.496094 Z M 263.367188 243.621094 L 258.089844 235.125 C 266.746094 222.316406 271.65625 207.632812 272.46875 192.109375 L 261.207031 192.109375 C 258.664062 192.109375 256.601562 190.042969 256.601562 187.496094 C 256.601562 184.945312 258.664062 182.878906 261.207031 182.878906 L 272.46875 182.878906 C 270.148438 139.53125 235.367188 104.683594 192.105469 102.359375 L 192.105469 113.640625 C 192.105469 116.191406 190.042969 118.257812 187.5 118.257812 C 184.957031 118.257812 182.894531 116.191406 182.894531 113.640625 L 182.894531 102.359375 C 167.402344 103.171875 152.746094 108.09375 139.960938 116.765625 L 131.480469 111.476562 C 147.773438 99.378906 167.074219 93.003906 187.5 93.003906 C 239.5 93.003906 281.804688 135.390625 281.804688 187.496094 C 281.804688 207.960938 275.441406 227.296875 263.367188 243.621094 Z M 129.320312 121 L 123.089844 117.113281 Z M 164.285156 142.808594 L 206.085938 168.875 L 214.824219 182.941406 L 266.683594 266.425781 C 266.683594 266.425781 266.683594 266.425781 266.683594 266.429688 L 253.863281 245.789062 C 253.863281 245.785156 253.859375 245.785156 253.859375 245.78125 L 267.351562 267.503906 L 168.914062 206.117188 L 120.667969 128.449219 L 120.980469 128.949219 L 107.644531 107.484375 L 108.722656 108.15625 Z M 70.050781 187.496094 C 70.050781 218.925781 82.265625 248.480469 104.449219 270.707031 C 126.632812 292.933594 156.128906 305.175781 187.5 305.175781 C 215.839844 305.175781 242.980469 295.011719 264.328125 276.488281 L 279.289062 285.820312 C 280.039062 286.285156 280.882812 286.515625 281.71875 286.515625 C 282.910156 286.515625 284.089844 286.054688 284.976562 285.164062 C 286.492188 283.644531 286.761719 281.285156 285.632812 279.460938 L 276.320312 264.472656 C 294.804688 243.085938 304.949219 215.890625 304.949219 187.496094 C 304.949219 156.0625 292.730469 126.507812 270.546875 104.28125 C 248.367188 82.054688 218.871094 69.816406 187.5 69.816406 C 159.15625 69.816406 132.015625 79.976562 110.671875 98.5 L 95.710938 89.171875 C 93.894531 88.035156 91.535156 88.308594 90.019531 89.824219 C 88.507812 91.34375 88.234375 93.703125 89.367188 95.527344 L 98.675781 110.515625 C 80.195312 131.902344 70.050781 159.097656 70.050781 187.496094 Z M 197.386719 177.609375 C 202.832031 183.066406 202.832031 191.945312 197.386719 197.402344 C 194.664062 200.132812 191.085938 201.496094 187.507812 201.496094 C 183.929688 201.496094 180.355469 200.132812 177.628906 197.402344 C 174.992188 194.761719 173.539062 191.246094 173.539062 187.507812 C 173.539062 183.769531 174.992188 180.253906 177.628906 177.609375 C 183.078125 172.152344 191.941406 172.152344 197.386719 177.609375 "/></g><g clip-rule="nonzero" clip-path="url(#c5693403f1)"><g clip-rule="nonzero" clip-path="url(#5f3c17ee7d)"><path style=" stroke:none;fill-rule:nonzero;fill:#002060;fill-opacity:1;" d="M 12.882812 12.882812 L 362.117188 12.882812 L 362.117188 362.117188 L 12.882812 362.117188 Z M 12.882812 12.882812 "/></g></g><g clip-rule="nonzero" clip-path="url(#cfbaae9f04)"><path style=" stroke:none;fill-rule:nonzero;fill:#ffffff;fill-opacity:1;" d="M 267.921875 192.625 C 265.722656 189.476562 261.984375 187.671875 257.671875 187.671875 L 251.335938 187.671875 L 251.335938 169.628906 C 251.335938 161.335938 244.589844 154.585938 236.296875 154.585938 L 231.546875 154.585938 L 231.546875 165.191406 L 236.296875 165.191406 C 238.742188 165.191406 240.730469 167.183594 240.730469 169.628906 L 240.730469 187.671875 L 143.550781 187.671875 C 136 187.671875 128.074219 193.230469 125.496094 200.324219 L 114.746094 229.949219 L 114.746094 147.304688 C 114.746094 144.898438 116.777344 142.863281 119.183594 142.863281 L 160.84375 142.863281 C 163.292969 142.863281 165.285156 144.855469 165.285156 147.304688 L 165.285156 165.191406 L 187.234375 165.191406 L 187.234375 154.585938 L 175.890625 154.585938 L 175.890625 147.304688 C 175.890625 139.011719 169.140625 132.257812 160.84375 132.257812 L 119.183594 132.257812 C 110.886719 132.257812 104.140625 139.011719 104.140625 147.304688 L 104.140625 250.371094 C 104.140625 258.667969 110.886719 265.417969 119.183594 265.417969 L 236.296875 265.417969 C 242.476562 265.417969 247.78125 261.671875 250.09375 256.332031 L 250.101562 256.335938 L 250.117188 256.300781 C 250.164062 256.1875 250.195312 256.070312 250.234375 255.960938 L 269.078125 203.941406 C 270.546875 199.894531 270.128906 195.769531 267.921875 192.625 Z M 267.921875 192.625 "/></g><path style=" stroke:none;fill-rule:nonzero;fill:#ffffff;fill-opacity:1;" d="M 231.671875 139.273438 L 225.246094 129.976562 C 223.519531 127.472656 220.699219 123.386719 218.953125 120.882812 L 212.53125 111.585938 C 210.796875 109.089844 207.976562 109.089844 206.242188 111.59375 L 199.804688 120.882812 C 198.082031 123.386719 195.253906 127.472656 193.523438 129.976562 L 187.09375 139.273438 C 185.371094 141.769531 186.441406 143.8125 189.480469 143.8125 L 197.828125 143.8125 L 197.828125 169.082031 C 197.828125 172.121094 200.316406 174.613281 203.347656 174.613281 L 215.398438 174.613281 C 218.445312 174.613281 220.925781 172.121094 220.925781 169.082031 L 220.925781 143.8125 L 229.273438 143.8125 C 232.332031 143.8125 233.398438 141.765625 231.671875 139.273438 Z M 231.671875 139.273438 "/></g></svg>