<svg xmlns="http://www.w3.org/2000/svg" xmlns:xlink="http://www.w3.org/1999/xlink" width="500" zoomAndPan="magnify" viewBox="0 0 375 374.999991" height="500" preserveAspectRatio="xMidYMid meet" version="1.2"><defs><clipPath id="cc253c0544"><path d="M 12.882812 12.882812 L 362.117188 12.882812 L 362.117188 362.117188 L 12.882812 362.117188 Z M 12.882812 12.882812 "/></clipPath><clipPath id="66e767706c"><path d="M 187.5 12.882812 C 91.0625 12.882812 12.882812 91.0625 12.882812 187.5 C 12.882812 283.9375 91.0625 362.117188 187.5 362.117188 C 283.9375 362.117188 362.117188 283.9375 362.117188 187.5 C 362.117188 91.0625 283.9375 12.882812 187.5 12.882812 Z M 187.5 12.882812 "/></clipPath><clipPath id="a635b8bb8c"><path d="M 193 105 L 277.796875 105 L 277.796875 244 L 193 244 Z M 193 105 "/></clipPath><clipPath id="19424ae299"><path d="M 97.046875 94.847656 L 201 94.847656 L 201 228 L 97.046875 228 Z M 97.046875 94.847656 "/></clipPath></defs><g id="147a3d878b"><g clip-rule="nonzero" clip-path="url(#cc253c0544)"><g clip-rule="nonzero" clip-path="url(#66e767706c)"><path style=" stroke:none;fill-rule:nonzero;fill:#ffffff;fill-opacity:1;" d="M 12.882812 12.882812 L 362.117188 12.882812 L 362.117188 362.117188 L 12.882812 362.117188 Z M 12.882812 12.882812 "/></g></g><g clip-rule="nonzero" clip-path="url(#a635b8bb8c)"><path style=" stroke:none;fill-rule:nonzero;fill:#002060;fill-opacity:1;" d="M 195.085938 131.949219 C 224.007812 136.949219 246.074219 162.238281 246.074219 192.601562 C 246.074219 198.75 245.148438 204.671875 243.484375 210.300781 L 231.449219 204.414062 L 240.929688 243.664062 L 277.699219 226.925781 L 266.960938 221.707031 C 270.253906 212.375 271.957031 202.597656 271.957031 192.566406 C 271.957031 180.753906 269.664062 169.3125 265.070312 158.535156 C 260.664062 148.132812 254.371094 138.761719 246.335938 130.765625 C 238.300781 122.730469 228.96875 116.433594 218.5625 112.027344 C 210.566406 108.660156 202.234375 106.511719 193.644531 105.621094 L 210.230469 117.324219 Z M 195.085938 131.949219 "/></g><path style=" stroke:none;fill-rule:nonzero;fill:#002060;fill-opacity:1;" d="M 231.523438 232.296875 C 220.230469 245.625 203.34375 254.140625 184.535156 254.140625 C 166.761719 254.140625 150.726562 246.589844 139.472656 234.480469 L 150.578125 227.074219 L 111.960938 215.375 L 107.8125 255.550781 L 117.773438 248.921875 C 119.363281 250.808594 121.03125 252.625 122.773438 254.363281 C 130.808594 262.398438 140.136719 268.695312 150.542969 273.101562 C 161.316406 277.65625 172.757812 279.988281 184.570312 279.988281 C 196.382812 279.988281 207.824219 277.691406 218.601562 273.101562 C 229.003906 268.695312 238.375 262.398438 246.371094 254.363281 C 249.519531 251.21875 252.371094 247.886719 254.960938 244.367188 L 236.484375 252.773438 Z M 231.523438 232.296875 "/><g clip-rule="nonzero" clip-path="url(#19424ae299)"><path style=" stroke:none;fill-rule:nonzero;fill:#002060;fill-opacity:1;" d="M 122.992188 192.601562 C 122.992188 163.683594 143.0625 139.355469 169.984375 132.800781 L 171.019531 146.167969 L 200.125 118.136719 L 167.09375 94.847656 L 168.019531 106.734375 C 162.023438 107.882812 156.207031 109.660156 150.542969 112.027344 C 140.136719 116.433594 130.769531 122.730469 122.773438 130.765625 C 114.738281 138.800781 108.441406 148.132812 104.035156 158.535156 C 99.445312 169.347656 97.148438 180.789062 97.148438 192.601562 C 97.148438 204.414062 99.445312 215.855469 104.035156 226.628906 C 104.109375 226.816406 104.183594 226.964844 104.257812 227.148438 L 106.367188 206.96875 L 126.511719 213.078125 C 124.253906 206.636719 122.992188 199.75 122.992188 192.601562 Z M 122.992188 192.601562 "/></g><g style="fill:#002060;fill-opacity:1;"><g transform="translate(154.728539, 204.1209)"><path style="stroke:none" d="M 24.25 0 L 18.921875 0 L 16.828125 -5.46875 L 7.1875 -5.46875 L 5.1875 0 L 0 0 L 9.40625 -24.140625 L 14.5625 -24.140625 Z M 8.671875 -9.546875 L 15.28125 -9.546875 L 11.9375 -18.515625 Z M 8.671875 -9.546875 "/></g></g><g style="fill:#002060;fill-opacity:1;"><g transform="translate(179.069884, 204.1209)"><path style="stroke:none" d="M 7.453125 -4.078125 L 19.59375 -4.078125 L 19.59375 0 L 2.59375 0 L 2.59375 -24.140625 L 7.453125 -24.140625 Z M 7.453125 -4.078125 "/></g></g><g style="fill:#002060;fill-opacity:1;"><g transform="translate(199.669006, 204.1209)"><path style="stroke:none" d="M 7.453125 -4.078125 L 19.59375 -4.078125 L 19.59375 0 L 2.59375 0 L 2.59375 -24.140625 L 7.453125 -24.140625 Z M 7.453125 -4.078125 "/></g></g></g></svg>