<svg xmlns="http://www.w3.org/2000/svg" xmlns:xlink="http://www.w3.org/1999/xlink" width="500" zoomAndPan="magnify" viewBox="0 0 375 374.999991" height="500" preserveAspectRatio="xMidYMid meet" version="1.2"><defs><clipPath id="3a9a386fdc"><path d="M 70 69.816406 L 305 69.816406 L 305 305.316406 L 70 305.316406 Z M 70 69.816406 "/></clipPath><clipPath id="60ef1ba348"><path d="M 12.882812 12.882812 L 362.117188 12.882812 L 362.117188 362.117188 L 12.882812 362.117188 Z M 12.882812 12.882812 "/></clipPath><clipPath id="2c0d391816"><path d="M 187.5 12.882812 C 91.0625 12.882812 12.882812 91.0625 12.882812 187.5 C 12.882812 283.9375 91.0625 362.117188 187.5 362.117188 C 283.9375 362.117188 362.117188 283.9375 362.117188 187.5 C 362.117188 91.0625 283.9375 12.882812 187.5 12.882812 Z M 187.5 12.882812 "/></clipPath><clipPath id="6c847b98ec"><path d="M 96.851562 97.078125 L 278 97.078125 L 278 277.828125 L 96.851562 277.828125 Z M 96.851562 97.078125 "/></clipPath><clipPath id="7174669e0e"><path d="M 182.214844 190 L 221.964844 190 L 221.964844 220.5 L 182.214844 220.5 Z M 182.214844 190 "/></clipPath></defs><g id="2c0ae3f2cd"><g clip-rule="nonzero" clip-path="url(#3a9a386fdc)"><path style=" stroke:none;fill-rule:evenodd;fill:#ffffff;fill-opacity:1;" d="M 93.191406 187.496094 C 93.191406 167.027344 99.554688 147.691406 111.628906 131.367188 L 116.910156 139.863281 C 108.253906 152.671875 103.34375 167.355469 102.53125 182.878906 L 113.792969 182.878906 C 116.335938 182.878906 118.398438 184.945312 118.398438 187.496094 C 118.398438 190.042969 116.335938 192.109375 113.792969 192.109375 L 102.53125 192.109375 C 104.847656 235.457031 139.628906 270.304688 182.894531 272.628906 L 182.894531 261.347656 C 182.894531 258.796875 184.957031 256.730469 187.5 256.730469 C 190.042969 256.730469 192.105469 258.796875 192.105469 261.347656 L 192.105469 272.628906 C 207.597656 271.816406 222.253906 266.894531 235.039062 258.222656 L 243.519531 263.511719 C 227.222656 275.609375 207.925781 281.984375 187.5 281.984375 C 135.5 281.984375 93.191406 239.597656 93.191406 187.496094 Z M 263.367188 243.621094 L 258.089844 235.125 C 266.746094 222.316406 271.65625 207.632812 272.46875 192.109375 L 261.207031 192.109375 C 258.664062 192.109375 256.601562 190.042969 256.601562 187.496094 C 256.601562 184.945312 258.664062 182.878906 261.207031 182.878906 L 272.46875 182.878906 C 270.148438 139.53125 235.367188 104.683594 192.105469 102.359375 L 192.105469 113.640625 C 192.105469 116.191406 190.042969 118.257812 187.5 118.257812 C 184.957031 118.257812 182.894531 116.191406 182.894531 113.640625 L 182.894531 102.359375 C 167.402344 103.171875 152.746094 108.09375 139.960938 116.765625 L 131.480469 111.476562 C 147.773438 99.378906 167.074219 93.003906 187.5 93.003906 C 239.5 93.003906 281.804688 135.390625 281.804688 187.496094 C 281.804688 207.960938 275.441406 227.296875 263.367188 243.621094 Z M 129.320312 121 L 123.089844 117.113281 Z M 164.285156 142.808594 L 206.085938 168.875 L 214.824219 182.941406 L 266.683594 266.425781 C 266.683594 266.425781 266.683594 266.425781 266.683594 266.429688 L 253.863281 245.789062 C 253.863281 245.785156 253.859375 245.785156 253.859375 245.78125 L 267.351562 267.503906 L 168.914062 206.117188 L 120.667969 128.449219 L 120.980469 128.949219 L 107.644531 107.484375 L 108.722656 108.15625 Z M 70.050781 187.496094 C 70.050781 218.925781 82.265625 248.480469 104.449219 270.707031 C 126.632812 292.933594 156.128906 305.175781 187.5 305.175781 C 215.839844 305.175781 242.980469 295.011719 264.328125 276.488281 L 279.289062 285.820312 C 280.039062 286.285156 280.882812 286.515625 281.71875 286.515625 C 282.910156 286.515625 284.089844 286.054688 284.976562 285.164062 C 286.492188 283.644531 286.761719 281.285156 285.632812 279.460938 L 276.320312 264.472656 C 294.804688 243.085938 304.949219 215.890625 304.949219 187.496094 C 304.949219 156.0625 292.730469 126.507812 270.546875 104.28125 C 248.367188 82.054688 218.871094 69.816406 187.5 69.816406 C 159.15625 69.816406 132.015625 79.976562 110.671875 98.5 L 95.710938 89.171875 C 93.894531 88.035156 91.535156 88.308594 90.019531 89.824219 C 88.507812 91.34375 88.234375 93.703125 89.367188 95.527344 L 98.675781 110.515625 C 80.195312 131.902344 70.050781 159.097656 70.050781 187.496094 Z M 197.386719 177.609375 C 202.832031 183.066406 202.832031 191.945312 197.386719 197.402344 C 194.664062 200.132812 191.085938 201.496094 187.507812 201.496094 C 183.929688 201.496094 180.355469 200.132812 177.628906 197.402344 C 174.992188 194.761719 173.539062 191.246094 173.539062 187.507812 C 173.539062 183.769531 174.992188 180.253906 177.628906 177.609375 C 183.078125 172.152344 191.941406 172.152344 197.386719 177.609375 "/></g><g clip-rule="nonzero" clip-path="url(#60ef1ba348)"><g clip-rule="nonzero" clip-path="url(#2c0d391816)"><path style=" stroke:none;fill-rule:nonzero;fill:#ffffff;fill-opacity:1;" d="M 12.882812 12.882812 L 362.117188 12.882812 L 362.117188 362.117188 L 12.882812 362.117188 Z M 12.882812 12.882812 "/></g></g><g clip-rule="nonzero" clip-path="url(#6c847b98ec)"><path style=" stroke:none;fill-rule:evenodd;fill:#002060;fill-opacity:1;" d="M 135.949219 97.078125 L 223.269531 97.078125 L 223.269531 115.273438 C 223.269531 116.9375 224.617188 118.285156 226.28125 118.285156 L 244.472656 118.285156 L 244.472656 184.121094 C 241.671875 178.339844 237.710938 173.226562 232.894531 169.082031 L 232.894531 134.4375 C 232.894531 131.804688 231.886719 129.378906 230.027344 127.515625 L 214.039062 111.527344 C 212.175781 109.664062 209.75 108.660156 207.117188 108.660156 L 132.183594 108.660156 L 132.183594 100.84375 C 132.183594 98.769531 133.875 97.078125 135.949219 97.078125 Z M 202.507812 163.839844 C 180.09375 163.839844 161.921875 182.011719 161.921875 204.425781 C 161.921875 226.839844 180.09375 245.011719 202.507812 245.011719 C 212.511719 245.011719 221.863281 241.382812 229.191406 235.003906 L 241.648438 247.089844 L 240.894531 247.863281 C 239.484375 249.316406 239.519531 251.667969 240.976562 253.078125 L 263.261719 274.707031 C 264.71875 276.121094 267.066406 276.085938 268.480469 274.628906 L 276.527344 266.335938 C 277.941406 264.878906 277.902344 262.53125 276.449219 261.117188 L 254.160156 239.492188 C 252.703125 238.078125 250.355469 238.113281 248.941406 239.570312 L 248.777344 239.742188 L 236.058594 227.398438 C 235.964844 227.507812 243.09375 217.226562 243.09375 204.425781 C 243.09375 182.011719 224.925781 163.839844 202.507812 163.839844 Z M 202.507812 175.609375 C 186.59375 175.609375 173.695312 188.511719 173.695312 204.425781 C 173.695312 220.339844 186.59375 233.242188 202.507812 233.242188 C 218.421875 233.242188 231.324219 220.339844 231.324219 204.425781 C 231.324219 188.511719 218.421875 175.609375 202.507812 175.609375 Z M 100.738281 132.292969 C 98.664062 132.292969 96.972656 133.984375 96.972656 136.058594 L 96.972656 274.0625 C 96.972656 276.136719 98.664062 277.828125 100.738281 277.828125 L 205.496094 277.828125 C 207.570312 277.828125 209.261719 276.136719 209.261719 274.0625 L 209.261719 250.546875 C 207.058594 250.867188 204.804688 251.035156 202.507812 251.035156 C 195.582031 251.035156 189.003906 249.523438 183.09375 246.808594 L 113.617188 246.808594 C 111.957031 246.808594 110.605469 245.460938 110.605469 243.796875 C 110.605469 242.132812 111.957031 240.785156 113.617188 240.785156 L 173.347656 240.785156 C 169.957031 238.058594 166.953125 234.871094 164.433594 231.3125 L 113.617188 231.3125 C 111.957031 231.3125 110.605469 229.964844 110.605469 228.300781 C 110.605469 226.636719 111.957031 225.289062 113.617188 225.289062 L 160.824219 225.289062 C 159.324219 222.300781 158.136719 219.132812 157.304688 215.820312 L 113.617188 215.820312 C 111.957031 215.820312 110.605469 214.472656 110.605469 212.808594 C 110.605469 211.144531 111.957031 209.792969 113.617188 209.792969 L 156.207031 209.792969 C 156.007812 208.03125 155.898438 206.242188 155.898438 204.425781 C 155.898438 203.042969 155.960938 201.675781 156.082031 200.324219 L 113.617188 200.324219 C 111.957031 200.324219 110.605469 198.976562 110.605469 197.3125 C 110.605469 195.648438 111.957031 194.300781 113.617188 194.300781 L 157.003906 194.300781 C 157.738281 191 158.820312 187.828125 160.210938 184.832031 L 113.617188 184.832031 C 111.957031 184.832031 110.605469 183.480469 110.605469 181.820312 C 110.605469 180.15625 111.957031 178.804688 113.617188 178.804688 L 163.570312 178.804688 C 165.890625 175.289062 168.671875 172.101562 171.832031 169.335938 L 113.617188 169.335938 C 111.957031 169.335938 110.605469 167.988281 110.605469 166.324219 C 110.605469 164.660156 111.957031 163.3125 113.617188 163.3125 L 180.535156 163.3125 C 187.082031 159.804688 194.5625 157.8125 202.507812 157.8125 C 204.804688 157.8125 207.058594 157.984375 209.261719 158.304688 L 209.261719 153.496094 L 191.070312 153.496094 C 189.40625 153.496094 188.054688 152.148438 188.054688 150.484375 L 188.054688 132.289062 L 100.738281 132.289062 Z M 194.082031 135.304688 L 194.082031 147.472656 L 206.25 147.472656 Z M 113.617188 153.84375 L 156.683594 153.84375 C 158.347656 153.84375 159.695312 152.492188 159.695312 150.832031 C 159.695312 149.167969 158.347656 147.816406 156.683594 147.816406 L 113.617188 147.816406 C 111.957031 147.816406 110.605469 149.167969 110.605469 150.832031 C 110.605469 152.492188 111.957031 153.84375 113.617188 153.84375 Z M 113.617188 262.304688 C 111.957031 262.304688 110.605469 260.953125 110.605469 259.289062 C 110.605469 257.625 111.957031 256.277344 113.617188 256.277344 L 192.617188 256.277344 C 194.277344 256.277344 195.628906 257.625 195.628906 259.289062 C 195.628906 260.953125 194.277344 262.304688 192.617188 262.304688 Z M 118.34375 114.6875 C 116.269531 114.6875 114.578125 116.378906 114.578125 118.453125 L 114.578125 126.265625 L 189.507812 126.265625 C 192.144531 126.265625 194.570312 127.273438 196.433594 129.132812 L 212.417969 145.121094 C 214.28125 146.984375 215.285156 149.410156 215.285156 152.042969 L 215.285156 159.589844 C 219.410156 160.761719 223.296875 162.488281 226.867188 164.683594 L 226.867188 135.890625 L 208.675781 135.890625 C 207.011719 135.890625 205.660156 134.542969 205.660156 132.878906 L 205.660156 114.6875 Z M 226.867188 244.167969 L 226.867188 256.457031 C 226.867188 258.53125 225.175781 260.222656 223.101562 260.222656 L 215.285156 260.222656 L 215.285156 249.261719 C 219.410156 248.089844 223.296875 246.363281 226.867188 244.167969 Z M 211.6875 117.699219 L 211.6875 129.867188 L 223.855469 129.867188 Z M 229.292969 100.09375 L 229.292969 112.261719 L 241.460938 112.261719 Z M 229.292969 100.09375 "/></g><g clip-rule="nonzero" clip-path="url(#7174669e0e)"><path style=" stroke:none;fill-rule:nonzero;fill:#002060;fill-opacity:1;" d="M 220.597656 190.996094 C 219.351562 189.75 217.332031 189.75 216.085938 190.996094 L 195.839844 211.238281 L 187.976562 203.375 C 186.730469 202.128906 184.710938 202.128906 183.464844 203.375 C 182.21875 204.621094 182.21875 206.640625 183.464844 207.886719 L 193.585938 218.011719 L 195.839844 220.265625 L 198.097656 218.011719 L 220.597656 195.511719 C 221.84375 194.261719 221.84375 192.242188 220.597656 190.996094 "/></g></g></svg>