<svg xmlns="http://www.w3.org/2000/svg" xmlns:xlink="http://www.w3.org/1999/xlink" width="500" zoomAndPan="magnify"
    viewBox="0 0 375 374.999991" height="500" preserveAspectRatio="xMidYMid meet" version="1.0">
    <defs>
        <clipPath id="6ffe5eccdc">
            <path
                d="M 12.882812 12.882812 L 362.117188 12.882812 L 362.117188 362.117188 L 12.882812 362.117188 Z M 12.882812 12.882812 "
                clip-rule="nonzero" />
        </clipPath>
        <clipPath id="e2147e7ea4">
            <path
                d="M 187.5 12.882812 C 91.0625 12.882812 12.882812 91.0625 12.882812 187.5 C 12.882812 283.9375 91.0625 362.117188 187.5 362.117188 C 283.9375 362.117188 362.117188 283.9375 362.117188 187.5 C 362.117188 91.0625 283.9375 12.882812 187.5 12.882812 Z M 187.5 12.882812 "
                clip-rule="nonzero" />
        </clipPath>
        <clipPath id="c687143afb">
            <path
                d="M 0.882812 0.882812 L 350.117188 0.882812 L 350.117188 350.117188 L 0.882812 350.117188 Z M 0.882812 0.882812 "
                clip-rule="nonzero" />
        </clipPath>
        <clipPath id="2e418ba843">
            <path
                d="M 175.5 0.882812 C 79.0625 0.882812 0.882812 79.0625 0.882812 175.5 C 0.882812 271.9375 79.0625 350.117188 175.5 350.117188 C 271.9375 350.117188 350.117188 271.9375 350.117188 175.5 C 350.117188 79.0625 271.9375 0.882812 175.5 0.882812 Z M 175.5 0.882812 "
                clip-rule="nonzero" />
        </clipPath>
        <clipPath id="db757f4763">
            <rect x="0" width="351" y="0" height="351" />
        </clipPath>
        <clipPath id="e417a64f6d">
            <path
                d="M 114.148438 101.664062 L 260 101.664062 L 260 273.414062 L 114.148438 273.414062 Z M 114.148438 101.664062 "
                clip-rule="nonzero" />
        </clipPath>
    </defs>
    <rect x="-37.5" width="450" fill="#ffffff" y="-37.499999" height="449.999989" fill-opacity="0" />
    <rect x="-37.5" width="450" fill="#d9d9d9" y="-37.499999" height="449.999989" fill-opacity="0" />
    <g clip-path="url(#6ffe5eccdc)">
        <g clip-path="url(#e2147e7ea4)">
            <g transform="matrix(1, 0, 0, 1, 12, 12)">
                <g clip-path="url(#db757f4763)">
                    <g clip-path="url(#c687143afb)">
                        <g clip-path="url(#2e418ba843)">
                            <path fill="#ffffff"
                                d="M 0.882812 0.882812 L 350.117188 0.882812 L 350.117188 350.117188 L 0.882812 350.117188 Z M 0.882812 0.882812 "
                                fill-opacity="1" fill-rule="nonzero" />
                        </g>
                    </g>
                </g>
            </g>
        </g>
    </g>
    <g clip-path="url(#e417a64f6d)">
        <path fill="#002060"
            d="M 259.03125 243.839844 C 254.429688 235.75 249.824219 227.660156 245.21875 219.574219 C 241.621094 213.25 238.023438 206.910156 234.375 200.496094 C 235.050781 200.148438 235.652344 199.703125 236.1875 199.164062 C 236.71875 198.625 237.15625 198.015625 237.496094 197.335938 C 237.835938 196.660156 238.0625 195.945312 238.175781 195.195312 C 238.289062 194.445312 238.285156 193.695312 238.160156 192.945312 C 237.632812 188.277344 237.074219 183.617188 236.476562 178.96875 C 236.414062 178.65625 236.429688 178.351562 236.523438 178.046875 C 236.617188 177.746094 236.777344 177.484375 237.007812 177.265625 C 240.246094 173.917969 243.449219 170.539062 246.664062 167.167969 C 247.011719 166.84375 247.324219 166.484375 247.597656 166.097656 C 247.871094 165.710938 248.105469 165.296875 248.296875 164.863281 C 248.488281 164.425781 248.632812 163.976562 248.730469 163.511719 C 248.828125 163.046875 248.882812 162.574219 248.882812 162.101562 C 248.886719 161.625 248.84375 161.152344 248.75 160.6875 C 248.65625 160.21875 248.519531 159.769531 248.335938 159.328125 C 248.148438 158.890625 247.921875 158.476562 247.652344 158.085938 C 247.382812 157.691406 247.078125 157.332031 246.734375 157.003906 C 243.625 153.636719 240.523438 150.261719 237.378906 146.929688 C 237.082031 146.644531 236.871094 146.308594 236.75 145.914062 C 236.628906 145.523438 236.613281 145.128906 236.699219 144.726562 C 237.394531 140.085938 238.046875 135.4375 238.65625 130.785156 C 238.738281 130.324219 238.777344 129.863281 238.769531 129.394531 C 238.761719 128.929688 238.703125 128.464844 238.601562 128.011719 C 238.5 127.554688 238.351562 127.113281 238.15625 126.6875 C 237.964844 126.261719 237.730469 125.859375 237.457031 125.484375 C 237.179688 125.105469 236.871094 124.757812 236.527344 124.445312 C 236.179688 124.128906 235.804688 123.851562 235.40625 123.613281 C 235.003906 123.375 234.582031 123.179688 234.140625 123.027344 C 233.699219 122.875 233.246094 122.769531 232.78125 122.710938 C 228.179688 121.804688 223.582031 120.863281 218.972656 120 C 218.636719 119.953125 218.335938 119.832031 218.066406 119.628906 C 217.796875 119.429688 217.59375 119.175781 217.457031 118.871094 C 215.136719 114.53125 212.796875 110.207031 210.433594 105.894531 C 210.15625 105.3125 209.796875 104.78125 209.355469 104.308594 C 208.910156 103.839844 208.40625 103.445312 207.839844 103.128906 C 207.277344 102.816406 206.675781 102.59375 206.042969 102.464844 C 205.40625 102.339844 204.765625 102.3125 204.125 102.382812 C 202.960938 102.5 201.851562 102.808594 200.792969 103.308594 C 196.648438 105.171875 192.542969 107.109375 188.4375 109.050781 C 188.160156 109.203125 187.863281 109.277344 187.542969 109.273438 C 187.226562 109.269531 186.929688 109.1875 186.65625 109.03125 C 182.417969 106.925781 178.160156 104.871094 173.914062 102.792969 C 173.515625 102.554688 173.097656 102.363281 172.660156 102.214844 C 172.222656 102.066406 171.773438 101.964844 171.3125 101.910156 C 170.851562 101.855469 170.390625 101.851562 169.929688 101.894531 C 169.46875 101.9375 169.015625 102.027344 168.574219 102.164062 C 168.132812 102.304688 167.710938 102.488281 167.304688 102.714844 C 166.902344 102.945312 166.527344 103.210938 166.179688 103.519531 C 165.832031 103.824219 165.523438 104.164062 165.246094 104.539062 C 164.972656 104.910156 164.738281 105.308594 164.546875 105.730469 C 162.222656 109.894531 159.933594 114.085938 157.578125 118.222656 C 157.273438 118.730469 156.835938 119.058594 156.265625 119.214844 C 151.582031 120.097656 146.882812 120.910156 142.1875 121.726562 C 141.71875 121.789062 141.261719 121.894531 140.816406 122.046875 C 140.371094 122.203125 139.945312 122.398438 139.539062 122.640625 C 139.136719 122.878906 138.757812 123.15625 138.410156 123.472656 C 138.058594 123.789062 137.746094 124.136719 137.46875 124.519531 C 137.1875 124.898438 136.949219 125.300781 136.753906 125.730469 C 136.558594 126.160156 136.40625 126.601562 136.300781 127.0625 C 136.191406 127.519531 136.132812 127.984375 136.121094 128.457031 C 136.109375 128.925781 136.144531 129.394531 136.226562 129.859375 C 136.824219 134.550781 137.339844 139.253906 137.929688 143.949219 C 137.984375 144.28125 137.957031 144.605469 137.847656 144.925781 C 137.738281 145.242188 137.558594 145.515625 137.3125 145.742188 C 134.148438 149.011719 131.121094 152.40625 127.867188 155.574219 C 127.507812 155.910156 127.1875 156.28125 126.902344 156.6875 C 126.621094 157.089844 126.378906 157.515625 126.183594 157.96875 C 125.988281 158.421875 125.839844 158.890625 125.738281 159.371094 C 125.636719 159.855469 125.582031 160.339844 125.582031 160.835938 C 125.578125 161.328125 125.625 161.816406 125.722656 162.300781 C 125.816406 162.78125 125.960938 163.25 126.152344 163.707031 C 126.34375 164.160156 126.582031 164.589844 126.859375 164.996094 C 127.140625 165.402344 127.457031 165.777344 127.8125 166.117188 C 131.015625 169.398438 134.050781 172.832031 137.183594 176.175781 C 137.417969 176.390625 137.585938 176.644531 137.6875 176.945312 C 137.789062 177.246094 137.808594 177.550781 137.75 177.859375 C 137.050781 182.578125 136.429688 187.304688 135.75 192.023438 C 135.617188 192.742188 135.597656 193.460938 135.691406 194.183594 C 135.785156 194.90625 135.988281 195.597656 136.300781 196.257812 C 136.613281 196.914062 137.019531 197.507812 137.519531 198.039062 C 138.023438 198.566406 138.589844 199.007812 139.230469 199.355469 C 139.480469 199.503906 139.722656 199.664062 139.996094 199.832031 C 139.792969 200.21875 139.625 200.550781 139.445312 200.878906 C 131.347656 215.226562 123.308594 229.609375 115.109375 243.90625 C 114.726562 244.484375 114.523438 245.121094 114.503906 245.816406 C 114.484375 246.507812 114.652344 247.15625 115.003906 247.753906 C 115.351562 248.351562 115.835938 248.8125 116.453125 249.136719 C 117.066406 249.457031 117.71875 249.589844 118.414062 249.539062 C 126.789062 249.390625 135.164062 249.507812 143.542969 249.464844 C 143.949219 249.425781 144.328125 249.507812 144.679688 249.71875 C 145.03125 249.925781 145.289062 250.21875 145.449219 250.59375 C 149.230469 257.253906 153.039062 263.898438 156.878906 270.523438 C 156.996094 270.839844 157.160156 271.132812 157.371094 271.402344 C 157.578125 271.671875 157.824219 271.902344 158.105469 272.09375 C 158.382812 272.289062 158.6875 272.433594 159.011719 272.535156 C 159.335938 272.636719 159.667969 272.6875 160.007812 272.6875 C 160.347656 272.683594 160.679688 272.632812 161.003906 272.53125 C 161.328125 272.425781 161.632812 272.277344 161.910156 272.082031 C 162.1875 271.890625 162.429688 271.65625 162.640625 271.386719 C 162.847656 271.117188 163.007812 270.824219 163.128906 270.503906 C 170.867188 257.289062 178.605469 244.078125 186.351562 230.867188 C 186.546875 230.527344 186.769531 230.207031 187.050781 229.769531 C 187.34375 230.253906 187.558594 230.597656 187.765625 230.949219 C 195.453125 244.238281 203.140625 257.53125 210.824219 270.824219 C 211.097656 271.503906 211.53125 272.058594 212.132812 272.480469 C 212.730469 272.902344 213.394531 273.128906 214.128906 273.160156 C 214.859375 273.117188 215.519531 272.878906 216.105469 272.445312 C 216.695312 272.011719 217.117188 271.449219 217.371094 270.765625 C 221.128906 264.003906 224.9375 257.273438 228.691406 250.515625 C 228.835938 250.167969 229.066406 249.898438 229.386719 249.707031 C 229.707031 249.515625 230.050781 249.4375 230.421875 249.46875 C 238.835938 249.511719 247.25 249.496094 255.664062 249.492188 C 259.226562 249.488281 260.769531 246.890625 259.03125 243.839844 Z M 132.910156 162.105469 C 132.664062 161.832031 132.429688 161.542969 132.132812 161.203125 C 132.402344 160.902344 132.636719 160.625 132.890625 160.355469 C 136.078125 157.015625 139.242188 153.644531 142.464844 150.339844 C 143.328125 149.503906 143.945312 148.511719 144.3125 147.367188 C 144.679688 146.222656 144.753906 145.058594 144.539062 143.875 C 143.894531 139.300781 143.441406 134.703125 142.835938 130.128906 C 142.6875 129.03125 142.953125 128.640625 144.066406 128.457031 C 148.734375 127.699219 153.382812 126.835938 158.042969 126.027344 C 159.15625 125.855469 160.171875 125.441406 161.085938 124.777344 C 162 124.117188 162.710938 123.28125 163.21875 122.277344 C 165.414062 118.257812 167.65625 114.265625 169.882812 110.261719 C 170.105469 109.839844 170.359375 109.421875 170.644531 108.925781 C 171.46875 109.316406 172.242188 109.679688 173.007812 110.054688 C 176.816406 111.914062 180.636719 113.757812 184.433594 115.640625 C 185.398438 116.144531 186.425781 116.398438 187.511719 116.40625 C 188.601562 116.414062 189.628906 116.167969 190.601562 115.675781 C 195.257812 113.503906 199.9375 111.382812 204.753906 109.179688 C 206.464844 112.410156 208.121094 115.519531 209.769531 118.632812 C 210.542969 120.089844 211.289062 121.570312 212.089844 123.011719 C 212.5625 123.945312 213.222656 124.726562 214.070312 125.347656 C 214.914062 125.964844 215.855469 126.363281 216.890625 126.535156 C 221.761719 127.421875 226.605469 128.4375 231.472656 129.398438 C 231.65625 129.433594 231.832031 129.496094 232.152344 129.589844 C 231.960938 130.992188 231.78125 132.386719 231.585938 133.78125 C 231.039062 137.644531 230.457031 141.503906 229.945312 145.375 C 229.804688 146.359375 229.890625 147.324219 230.199219 148.269531 C 230.507812 149.214844 231.011719 150.042969 231.707031 150.753906 C 234.980469 154.277344 238.246094 157.804688 241.503906 161.339844 C 241.753906 161.609375 241.996094 161.894531 242.292969 162.230469 L 234.75 170.027344 C 233.703125 171.105469 232.671875 172.195312 231.609375 173.257812 C 230.832031 173.996094 230.265625 174.871094 229.917969 175.886719 C 229.570312 176.898438 229.476562 177.9375 229.636719 178.996094 C 230.222656 183.730469 230.777344 188.464844 231.34375 193.199219 C 231.390625 193.601562 231.417969 194.007812 231.46875 194.535156 C 229.210938 194.917969 226.996094 195.292969 224.785156 195.664062 C 221.972656 196.132812 219.136719 196.566406 216.34375 197.070312 C 215.285156 197.246094 214.324219 197.648438 213.460938 198.28125 C 212.59375 198.914062 211.914062 199.707031 211.425781 200.660156 C 209.144531 204.800781 206.851562 208.9375 204.550781 213.070312 C 204.367188 213.394531 204.175781 213.714844 203.941406 214.109375 C 203.628906 213.976562 203.324219 213.871094 203.039062 213.726562 C 198.746094 211.640625 194.464844 209.5625 190.195312 207.449219 C 189.214844 206.933594 188.167969 206.671875 187.0625 206.664062 C 185.953125 206.660156 184.90625 206.910156 183.917969 207.417969 C 179.585938 209.484375 175.230469 211.515625 170.886719 213.558594 C 170.554688 213.714844 170.207031 213.855469 169.808594 214.035156 C 168.410156 211.402344 167.054688 208.859375 165.703125 206.308594 C 164.664062 204.355469 163.640625 202.390625 162.597656 200.4375 C 162.109375 199.421875 161.410156 198.582031 160.496094 197.917969 C 159.585938 197.253906 158.570312 196.847656 157.457031 196.691406 C 152.605469 195.890625 147.78125 194.933594 142.945312 194.03125 C 142.695312 193.984375 142.449219 193.890625 142.078125 193.78125 C 142.359375 191.730469 142.632812 189.695312 142.914062 187.664062 C 143.367188 184.5 143.820312 181.339844 144.25 178.175781 C 144.410156 177.15625 144.335938 176.15625 144.023438 175.175781 C 143.710938 174.191406 143.199219 173.332031 142.480469 172.589844 C 139.277344 169.105469 136.089844 165.613281 132.910156 162.105469 Z M 249.203125 242.761719 C 242.144531 242.761719 235.085938 242.785156 228.027344 242.746094 C 227.644531 242.71875 227.265625 242.746094 226.890625 242.832031 C 226.515625 242.917969 226.160156 243.058594 225.828125 243.25 C 225.492188 243.441406 225.195312 243.679688 224.933594 243.960938 C 224.671875 244.242188 224.457031 244.554688 224.289062 244.902344 C 221.164062 250.546875 217.964844 256.160156 214.800781 261.785156 C 214.601562 262.136719 214.390625 262.480469 214.058594 263.046875 L 192.285156 225.265625 C 191.699219 224.449219 190.972656 223.796875 190.101562 223.300781 C 189.230469 222.804688 188.296875 222.515625 187.296875 222.433594 C 186.132812 222.414062 185.027344 222.671875 183.988281 223.203125 C 182.949219 223.734375 182.097656 224.476562 181.425781 225.429688 C 170.667969 243.996094 166.464844 251.40625 165.164062 253.851562 C 164.804688 254.527344 163.082031 257.480469 160.785156 261.460938 C 160.605469 261.777344 160.398438 262.078125 160.132812 262.503906 C 158.066406 258.9375 156.070312 255.5 154.085938 252.066406 C 152.695312 249.664062 151.285156 247.269531 149.914062 244.855469 C 149.746094 244.515625 149.53125 244.210938 149.273438 243.9375 C 149.015625 243.664062 148.722656 243.433594 148.398438 243.246094 C 148.070312 243.058594 147.726562 242.921875 147.359375 242.835938 C 146.992188 242.75 146.621094 242.71875 146.246094 242.742188 C 139.148438 242.785156 132.050781 242.761719 124.953125 242.757812 L 123.523438 242.757812 C 123.75 242.320312 123.886719 242.003906 124.058594 241.699219 C 131.457031 228.597656 138.851562 215.492188 146.246094 202.382812 C 146.304688 202.21875 146.394531 202.074219 146.511719 201.949219 C 146.628906 201.820312 146.765625 201.722656 146.921875 201.648438 C 147.078125 201.578125 147.242188 201.539062 147.417969 201.53125 C 147.589844 201.523438 147.757812 201.550781 147.917969 201.613281 C 150.457031 202.128906 153.019531 202.496094 155.558594 203.015625 C 156.125 203.164062 156.5625 203.484375 156.871094 203.980469 C 159.191406 208.144531 161.457031 212.339844 163.71875 216.53125 C 163.90625 216.964844 164.136719 217.371094 164.410156 217.757812 C 164.683594 218.140625 164.992188 218.492188 165.339844 218.8125 C 165.6875 219.132812 166.0625 219.414062 166.46875 219.65625 C 166.875 219.898438 167.300781 220.09375 167.746094 220.246094 C 168.191406 220.402344 168.648438 220.507812 169.117188 220.5625 C 169.585938 220.621094 170.054688 220.628906 170.523438 220.589844 C 170.996094 220.550781 171.457031 220.460938 171.90625 220.324219 C 172.359375 220.1875 172.792969 220.007812 173.207031 219.78125 C 175.382812 218.910156 177.511719 217.929688 179.589844 216.84375 C 181.339844 215.828125 183.253906 215.125 185.011719 214.113281 C 185.539062 213.789062 186.113281 213.621094 186.734375 213.617188 C 187.160156 213.617188 187.566406 213.707031 187.953125 213.890625 C 192.085938 215.941406 196.285156 217.863281 200.375 220.007812 C 200.800781 220.234375 201.246094 220.421875 201.707031 220.5625 C 202.167969 220.699219 202.640625 220.792969 203.121094 220.839844 C 203.601562 220.882812 204.082031 220.882812 204.5625 220.832031 C 205.039062 220.78125 205.511719 220.683594 205.972656 220.535156 C 206.429688 220.390625 206.871094 220.203125 207.292969 219.96875 C 207.71875 219.734375 208.113281 219.460938 208.480469 219.148438 C 208.847656 218.835938 209.179688 218.488281 209.476562 218.109375 C 209.773438 217.730469 210.03125 217.324219 210.246094 216.890625 C 212.324219 212.773438 214.714844 208.8125 216.914062 204.757812 C 217.066406 204.4375 217.285156 204.171875 217.574219 203.964844 C 217.859375 203.757812 218.179688 203.636719 218.53125 203.597656 C 221.242188 203.144531 223.929688 202.660156 226.613281 202.121094 C 226.757812 202.066406 226.910156 202.039062 227.0625 202.042969 C 227.21875 202.050781 227.363281 202.082031 227.503906 202.148438 C 227.644531 202.210938 227.769531 202.296875 227.875 202.410156 C 227.980469 202.523438 228.0625 202.652344 228.113281 202.796875 C 234.742188 214.523438 241.390625 226.242188 248.058594 237.949219 C 248.925781 239.476562 249.789062 241.007812 250.785156 242.769531 Z M 186.859375 195.359375 C 187.96875 195.367188 189.074219 195.316406 190.179688 195.214844 C 191.28125 195.113281 192.378906 194.957031 193.46875 194.75 C 194.554688 194.539062 195.632812 194.277344 196.695312 193.960938 C 197.757812 193.644531 198.800781 193.277344 199.828125 192.859375 C 200.855469 192.441406 201.859375 191.972656 202.839844 191.457031 C 203.820312 190.9375 204.773438 190.375 205.695312 189.765625 C 206.621094 189.152344 207.515625 188.5 208.375 187.800781 C 209.234375 187.101562 210.0625 186.363281 210.847656 185.582031 C 211.636719 184.804688 212.382812 183.984375 213.09375 183.132812 C 213.800781 182.28125 214.464844 181.394531 215.085938 180.476562 C 215.707031 179.558594 216.277344 178.609375 216.808594 177.636719 C 217.335938 176.660156 217.8125 175.660156 218.242188 174.640625 C 218.671875 173.617188 219.050781 172.578125 219.375 171.519531 C 219.703125 170.457031 219.976562 169.386719 220.199219 168.300781 C 220.421875 167.214844 220.585938 166.117188 220.703125 165.015625 C 220.816406 163.914062 220.875 162.808594 220.878906 161.699219 C 220.882812 160.589844 220.835938 159.484375 220.730469 158.382812 C 220.628906 157.277344 220.46875 156.179688 220.257812 155.09375 C 220.046875 154.003906 219.78125 152.929688 219.464844 151.867188 C 219.148438 150.804688 218.78125 149.761719 218.359375 148.734375 C 217.941406 147.710938 217.46875 146.707031 216.953125 145.726562 C 216.433594 144.746094 215.867188 143.796875 215.253906 142.871094 C 214.644531 141.945312 213.988281 141.054688 213.289062 140.195312 C 212.585938 139.335938 211.847656 138.511719 211.066406 137.726562 C 210.285156 136.9375 209.46875 136.191406 208.613281 135.484375 C 207.757812 134.78125 206.871094 134.117188 205.953125 133.496094 C 205.035156 132.878906 204.085938 132.304688 203.109375 131.78125 C 202.132812 131.253906 201.132812 130.777344 200.113281 130.351562 C 199.089844 129.921875 198.046875 129.546875 196.988281 129.21875 C 195.929688 128.894531 194.855469 128.621094 193.769531 128.402344 C 192.683594 128.183594 191.585938 128.015625 190.484375 127.90625 C 189.382812 127.792969 188.277344 127.734375 187.167969 127.730469 C 186.058594 127.726562 184.953125 127.78125 183.851562 127.886719 C 182.746094 127.988281 181.652344 128.148438 180.5625 128.363281 C 179.476562 128.574219 178.398438 128.84375 177.339844 129.160156 C 176.277344 129.480469 175.234375 129.851562 174.207031 130.269531 C 173.183594 130.691406 172.179688 131.164062 171.203125 131.683594 C 170.222656 132.203125 169.273438 132.769531 168.347656 133.382812 C 167.425781 133.996094 166.535156 134.65625 165.675781 135.355469 C 164.816406 136.058594 163.996094 136.800781 163.210938 137.582031 C 162.425781 138.363281 161.679688 139.183594 160.972656 140.039062 C 160.269531 140.894531 159.605469 141.78125 158.988281 142.703125 C 158.371094 143.621094 157.800781 144.570312 157.277344 145.546875 C 156.75 146.523438 156.277344 147.523438 155.851562 148.546875 C 155.421875 149.570312 155.050781 150.613281 154.726562 151.671875 C 154.402344 152.734375 154.128906 153.804688 153.914062 154.894531 C 153.695312 155.980469 153.53125 157.074219 153.417969 158.179688 C 153.308594 159.28125 153.253906 160.386719 153.25 161.496094 C 153.253906 162.597656 153.308594 163.699219 153.417969 164.796875 C 153.527344 165.894531 153.6875 166.984375 153.902344 168.066406 C 154.117188 169.148438 154.386719 170.21875 154.707031 171.273438 C 155.023438 172.332031 155.394531 173.371094 155.816406 174.390625 C 156.238281 175.410156 156.707031 176.40625 157.226562 177.378906 C 157.742188 178.355469 158.308594 179.300781 158.917969 180.21875 C 159.527344 181.140625 160.183594 182.027344 160.878906 182.882812 C 161.578125 183.734375 162.316406 184.554688 163.09375 185.339844 C 163.871094 186.121094 164.683594 186.863281 165.53125 187.570312 C 166.382812 188.273438 167.265625 188.933594 168.179688 189.550781 C 169.09375 190.167969 170.035156 190.738281 171.007812 191.265625 C 171.976562 191.792969 172.96875 192.269531 173.984375 192.695312 C 175.003906 193.125 176.039062 193.503906 177.089844 193.832031 C 178.144531 194.160156 179.210938 194.433594 180.292969 194.65625 C 181.375 194.882812 182.460938 195.050781 183.558594 195.167969 C 184.65625 195.285156 185.757812 195.347656 186.859375 195.359375 Z M 187.117188 134.453125 C 188.003906 134.453125 188.890625 134.5 189.773438 134.589844 C 190.65625 134.675781 191.53125 134.808594 192.402344 134.984375 C 193.273438 135.160156 194.132812 135.375 194.984375 135.636719 C 195.832031 135.894531 196.667969 136.195312 197.484375 136.539062 C 198.304688 136.878906 199.105469 137.261719 199.886719 137.679688 C 200.671875 138.101562 201.429688 138.558594 202.167969 139.054688 C 202.90625 139.546875 203.617188 140.078125 204.300781 140.644531 C 204.984375 141.207031 205.640625 141.804688 206.265625 142.433594 C 206.894531 143.0625 207.488281 143.722656 208.050781 144.410156 C 208.609375 145.097656 209.136719 145.8125 209.628906 146.550781 C 210.121094 147.289062 210.574219 148.050781 210.992188 148.835938 C 211.40625 149.621094 211.785156 150.421875 212.121094 151.246094 C 212.457031 152.066406 212.753906 152.902344 213.011719 153.753906 C 213.265625 154.601562 213.480469 155.464844 213.648438 156.335938 C 213.820312 157.207031 213.949219 158.082031 214.03125 158.96875 C 214.117188 159.851562 214.15625 160.738281 214.15625 161.625 C 214.152344 162.511719 214.105469 163.398438 214.015625 164.28125 C 213.925781 165.164062 213.792969 166.042969 213.617188 166.914062 C 213.441406 167.78125 213.222656 168.640625 212.960938 169.492188 C 212.703125 170.339844 212.402344 171.171875 212.058594 171.992188 C 211.714844 172.8125 211.332031 173.613281 210.914062 174.394531 C 210.492188 175.175781 210.03125 175.933594 209.535156 176.671875 C 209.042969 177.40625 208.511719 178.117188 207.945312 178.800781 C 207.378906 179.488281 206.78125 180.140625 206.152344 180.765625 C 205.519531 181.394531 204.863281 181.984375 204.171875 182.546875 C 203.484375 183.109375 202.769531 183.632812 202.03125 184.125 C 201.289062 184.613281 200.527344 185.066406 199.742188 185.484375 C 198.957031 185.898438 198.15625 186.273438 197.332031 186.609375 C 196.511719 186.949219 195.675781 187.242188 194.824219 187.496094 C 193.972656 187.75 193.113281 187.964844 192.242188 188.132812 C 191.371094 188.304688 190.492188 188.429688 189.609375 188.511719 C 188.726562 188.597656 187.839844 188.636719 186.949219 188.632812 C 186.0625 188.628906 185.175781 188.582031 184.292969 188.488281 C 183.410156 188.398438 182.535156 188.265625 181.664062 188.089844 C 180.792969 187.910156 179.933594 187.691406 179.085938 187.429688 C 178.238281 187.167969 177.402344 186.867188 176.585938 186.523438 C 175.765625 186.179688 174.96875 185.796875 174.1875 185.375 C 173.40625 184.953125 172.644531 184.492188 171.910156 183.996094 C 171.175781 183.5 170.464844 182.96875 169.78125 182.402344 C 169.097656 181.835938 168.441406 181.234375 167.816406 180.605469 C 167.191406 179.972656 166.601562 179.316406 166.039062 178.625 C 165.480469 177.9375 164.957031 177.222656 164.464844 176.480469 C 163.976562 175.738281 163.523438 174.976562 163.109375 174.191406 C 162.695312 173.40625 162.320312 172.601562 161.984375 171.78125 C 161.648438 170.960938 161.355469 170.121094 161.101562 169.273438 C 160.847656 168.421875 160.636719 167.558594 160.46875 166.6875 C 160.300781 165.816406 160.175781 164.9375 160.09375 164.054688 C 160.011719 163.167969 159.972656 162.285156 159.976562 161.394531 C 159.984375 160.511719 160.03125 159.628906 160.125 158.75 C 160.21875 157.871094 160.355469 156.996094 160.53125 156.128906 C 160.710938 155.261719 160.929688 154.40625 161.191406 153.5625 C 161.453125 152.71875 161.757812 151.886719 162.097656 151.070312 C 162.441406 150.253906 162.824219 149.457031 163.246094 148.679688 C 163.667969 147.902344 164.125 147.148438 164.621094 146.414062 C 165.113281 145.679688 165.644531 144.972656 166.207031 144.292969 C 166.773438 143.609375 167.367188 142.957031 167.996094 142.332031 C 168.625 141.710938 169.28125 141.121094 169.964844 140.558594 C 170.652344 140 171.363281 139.476562 172.101562 138.988281 C 172.835938 138.496094 173.597656 138.046875 174.375 137.628906 C 175.15625 137.214844 175.957031 136.839844 176.777344 136.5 C 177.59375 136.164062 178.425781 135.867188 179.273438 135.613281 C 180.121094 135.355469 180.976562 135.140625 181.84375 134.96875 C 182.714844 134.796875 183.585938 134.667969 184.46875 134.582031 C 185.347656 134.496094 186.230469 134.453125 187.117188 134.453125 Z M 171.796875 165.773438 C 171.609375 165.605469 171.441406 165.421875 171.289062 165.222656 C 171.140625 165.023438 171.011719 164.808594 170.902344 164.582031 C 170.796875 164.351562 170.714844 164.117188 170.65625 163.871094 C 170.597656 163.628906 170.566406 163.378906 170.558594 163.128906 C 170.550781 162.878906 170.570312 162.628906 170.613281 162.382812 C 170.65625 162.132812 170.726562 161.894531 170.816406 161.660156 C 170.910156 161.425781 171.027344 161.207031 171.164062 160.996094 C 171.304688 160.785156 171.460938 160.59375 171.640625 160.417969 C 171.820312 160.238281 172.015625 160.082031 172.226562 159.945312 C 172.433594 159.808594 172.65625 159.695312 172.890625 159.605469 C 173.125 159.511719 173.367188 159.445312 173.613281 159.40625 C 173.863281 159.363281 174.113281 159.347656 174.363281 159.355469 C 174.613281 159.367188 174.859375 159.398438 175.105469 159.460938 C 175.347656 159.519531 175.582031 159.605469 175.808594 159.714844 C 176.035156 159.824219 176.25 159.953125 176.449219 160.105469 C 176.648438 160.257812 176.832031 160.429688 176.996094 160.617188 C 178.578125 162.171875 180.105469 163.761719 181.753906 165.429688 L 191.671875 155.492188 C 193.449219 153.714844 195.21875 151.929688 197.003906 150.160156 C 197.167969 149.960938 197.351562 149.785156 197.550781 149.625 C 197.75 149.46875 197.964844 149.332031 198.195312 149.21875 C 198.421875 149.105469 198.660156 149.015625 198.910156 148.949219 C 199.15625 148.886719 199.40625 148.847656 199.664062 148.835938 C 199.917969 148.824219 200.171875 148.839844 200.425781 148.878906 C 200.675781 148.921875 200.921875 148.988281 201.160156 149.082031 C 201.398438 149.171875 201.625 149.289062 201.839844 149.425781 C 202.054688 149.566406 202.25 149.726562 202.433594 149.90625 C 202.613281 150.085938 202.773438 150.285156 202.914062 150.496094 C 203.054688 150.710938 203.171875 150.9375 203.261719 151.175781 C 203.355469 151.414062 203.421875 151.660156 203.464844 151.910156 C 203.507812 152.164062 203.523438 152.417969 203.511719 152.671875 C 203.5 152.929688 203.464844 153.179688 203.402344 153.425781 C 203.335938 153.675781 203.25 153.914062 203.136719 154.140625 C 203.023438 154.371094 202.886719 154.585938 202.730469 154.789062 C 202.574219 154.988281 202.394531 155.171875 202.199219 155.335938 C 196.328125 161.234375 190.4375 167.128906 184.535156 173.011719 C 184.367188 173.210938 184.175781 173.386719 183.96875 173.542969 C 183.761719 173.699219 183.539062 173.832031 183.300781 173.9375 C 183.0625 174.046875 182.816406 174.128906 182.5625 174.183594 C 182.308594 174.242188 182.050781 174.269531 181.792969 174.269531 C 181.53125 174.269531 181.273438 174.242188 181.019531 174.183594 C 180.765625 174.128906 180.519531 174.046875 180.28125 173.9375 C 180.046875 173.832031 179.824219 173.699219 179.613281 173.542969 C 179.40625 173.386719 179.21875 173.210938 179.046875 173.011719 C 176.613281 170.621094 174.199219 168.210938 171.796875 165.773438 Z M 171.796875 165.773438 "
            fill-opacity="1" fill-rule="nonzero" />
    </g>
</svg>