<svg xmlns="http://www.w3.org/2000/svg" xmlns:xlink="http://www.w3.org/1999/xlink" xmlns:xodm="http://www.corel.com/coreldraw/odm/2003" version="1.1" style="shape-rendering:geometricPrecision; text-rendering:geometricPrecision; image-rendering:optimizeQuality; fill-rule:evenodd; clip-rule:evenodd" viewBox="4436.89 2845.14 11569.31 13076.55">
 <defs>
  <style type="text/css">
   <![CDATA[
    .str0 {stroke:#FEFEFE;stroke-width:20;stroke-miterlimit:22.9256}
    .fil0 {fill:#FEFEFE}
   ]]>
  </style>
 </defs>
 <g id="Layer_x0020_1">
  <metadata id="CorelCorpID_0Corel-Layer"/>
  <path class="fil0 str0" d="M4446.89 7530.74l1740.67 6757.17 -1.62 -6459.7 -1739.05 -297.47zm2244.38 6698.94l-84.35 -8330.45 1967.87 732.24 -1883.52 7598.21zm7016.71 1682.01l-6979.06 0 3309.9 -13056.55 5957.38 3955.74 -2288.22 9100.81zm-4184.09 -4843.28c-47.73,344.21 -46.59,604.81 59.01,893.81l127.65 286.55c13.21,24.49 25.13,44.16 40.09,66.77 14.15,21.43 27.48,44.12 42.76,64.42 46.28,61.46 87,122.05 143.31,170.83 55.32,47.92 65.06,78.29 170.6,156.1 45.2,33.34 81.37,59.49 128.76,90.89 283.94,188.09 600.95,255.27 997.24,255.27 348.04,0 657.77,-116.81 936.77,-260.58 287.16,-147.98 608.23,-438.53 794.87,-707.23l77.68 -118.17c194.09,-324.93 316.9,-677.25 322.95,-1064.75 0.9,-57.19 -7.93,-150.89 0.81,-213.95 -53.88,33.03 -313.18,271.18 -398.96,345.72 -104.86,91.14 -49.48,35.32 -89.77,177.66 -89.75,316.98 -99.19,404.39 -325.88,712.46 -298.48,405.63 -819.19,674.9 -1339.98,674.9 -794.53,0 -1356.71,-645.67 -1241.3,-1477.91 55.79,-402.32 268.32,-750.18 571.09,-1016.08 430.91,-378.44 997.13,-519.27 1494.49,-371.48 183.07,54.4 267.69,129.18 313.49,141.88 35.83,-21.96 54.89,-52.92 87.7,-82.02 34.48,-30.59 62.24,-52.9 96.53,-84.03l179.31 -171.75c-488.35,-360.5 -1179.39,-418.03 -1819.47,-151.43 -425.95,177.41 -840.56,524.84 -1081.91,925.52 -117.24,194.65 -249.22,478.06 -287.84,756.6zm2017.41 87.08l-628.18 -723.05 -355.16 316.77c8.43,51.17 397.27,479.61 438.69,527.69 67.2,78.02 409.34,487.62 453.09,519.92l2827.08 -2478.17 -272.09 -321.93 -2463.43 2158.77z"/>
 </g>
</svg>