<svg xmlns="http://www.w3.org/2000/svg" xmlns:xlink="http://www.w3.org/1999/xlink" width="500" zoomAndPan="magnify" viewBox="0 0 375 374.999991" height="500" preserveAspectRatio="xMidYMid meet" version="1.2"><defs><clipPath id="3d4cb160ca"><path d="M 12.882812 12.882812 L 362.117188 12.882812 L 362.117188 362.117188 L 12.882812 362.117188 Z M 12.882812 12.882812 "/></clipPath><clipPath id="f1d18c277d"><path d="M 187.5 12.882812 C 91.0625 12.882812 12.882812 91.0625 12.882812 187.5 C 12.882812 283.9375 91.0625 362.117188 187.5 362.117188 C 283.9375 362.117188 362.117188 283.9375 362.117188 187.5 C 362.117188 91.0625 283.9375 12.882812 187.5 12.882812 Z M 187.5 12.882812 "/></clipPath><clipPath id="7086064bcc"><path d="M 99.394531 97.628906 L 280 97.628906 L 280 277.628906 L 99.394531 277.628906 Z M 99.394531 97.628906 "/></clipPath><clipPath id="18b9714a97"><path d="M 140 127 L 292.894531 127 L 292.894531 229 L 140 229 Z M 140 127 "/></clipPath></defs><g id="8f01b4c72b"><g clip-rule="nonzero" clip-path="url(#3d4cb160ca)"><g clip-rule="nonzero" clip-path="url(#f1d18c277d)"><path style=" stroke:none;fill-rule:nonzero;fill:#ffffff;fill-opacity:1;" d="M 12.882812 12.882812 L 362.117188 12.882812 L 362.117188 362.117188 L 12.882812 362.117188 Z M 12.882812 12.882812 "/></g></g><g clip-rule="nonzero" clip-path="url(#7086064bcc)"><path style=" stroke:none;fill-rule:nonzero;fill:#002060;fill-opacity:1;" d="M 189.261719 97.628906 C 214.054688 97.628906 236.558594 107.664062 252.824219 123.929688 C 255.261719 126.4375 257.625 129.089844 259.777344 131.8125 L 242.363281 145.5 C 240.714844 143.421875 238.992188 141.488281 237.128906 139.625 C 224.875 127.371094 207.964844 119.773438 189.261719 119.773438 C 170.554688 119.773438 153.644531 127.371094 141.390625 139.625 C 129.136719 151.878906 121.539062 168.792969 121.539062 187.496094 C 121.539062 206.199219 129.136719 223.113281 141.390625 235.367188 C 153.644531 247.621094 170.554688 255.21875 189.261719 255.21875 C 207.964844 255.21875 224.875 247.621094 237.128906 235.367188 C 249.386719 223.113281 256.980469 206.199219 256.980469 187.496094 C 256.980469 185.777344 256.910156 184.128906 256.839844 182.480469 L 276.761719 166.855469 C 278.265625 173.519531 279.125 180.402344 279.125 187.496094 C 279.125 212.289062 269.09375 234.792969 252.824219 251.058594 C 236.558594 267.328125 214.054688 277.359375 189.261719 277.359375 C 164.464844 277.359375 141.960938 267.328125 125.695312 251.058594 C 109.425781 234.792969 99.394531 212.289062 99.394531 187.496094 C 99.394531 162.699219 109.425781 140.199219 125.695312 123.929688 C 141.960938 107.664062 164.464844 97.628906 189.261719 97.628906 Z M 189.261719 97.628906 "/></g><g clip-rule="nonzero" clip-path="url(#18b9714a97)"><path style=" stroke:none;fill-rule:evenodd;fill:#002060;fill-opacity:1;" d="M 279.125 127.441406 L 292.742188 144.855469 L 185.675781 228.703125 L 185.320312 228.199219 L 183.457031 225.835938 L 172.0625 211.214844 L 172.203125 211.144531 L 140.027344 169.292969 L 157.511719 155.820312 L 189.617188 197.527344 Z M 279.125 127.441406 "/></g></g></svg>