<svg xmlns="http://www.w3.org/2000/svg" xmlns:xlink="http://www.w3.org/1999/xlink" width="500" zoomAndPan="magnify" viewBox="0 0 375 374.999991" height="500" preserveAspectRatio="xMidYMid meet" version="1.2"><defs><clipPath id="01ad227c63"><path d="M 12.882812 12.882812 L 362.117188 12.882812 L 362.117188 362.117188 L 12.882812 362.117188 Z M 12.882812 12.882812 "/></clipPath><clipPath id="8b755aee87"><path d="M 187.5 12.882812 C 91.0625 12.882812 12.882812 91.0625 12.882812 187.5 C 12.882812 283.9375 91.0625 362.117188 187.5 362.117188 C 283.9375 362.117188 362.117188 283.9375 362.117188 187.5 C 362.117188 91.0625 283.9375 12.882812 187.5 12.882812 Z M 187.5 12.882812 "/></clipPath><clipPath id="15293503f7"><path d="M 224 108.238281 L 266.488281 108.238281 L 266.488281 151 L 224 151 Z M 224 108.238281 "/></clipPath><clipPath id="1e516ed077"><path d="M 108.238281 224 L 151 224 L 151 266.488281 L 108.238281 266.488281 Z M 108.238281 224 "/></clipPath><clipPath id="e937117452"><path d="M 224 224 L 266.488281 224 L 266.488281 266.488281 L 224 266.488281 Z M 224 224 "/></clipPath><clipPath id="d745cd3da5"><path d="M 108.238281 108.238281 L 151 108.238281 L 151 151 L 108.238281 151 Z M 108.238281 108.238281 "/></clipPath></defs><g id="4d0330fe43"><g clip-rule="nonzero" clip-path="url(#01ad227c63)"><g clip-rule="nonzero" clip-path="url(#8b755aee87)"><path style=" stroke:none;fill-rule:nonzero;fill:#ffffff;fill-opacity:1;" d="M 12.882812 12.882812 L 362.117188 12.882812 L 362.117188 362.117188 L 12.882812 362.117188 Z M 12.882812 12.882812 "/></g></g><g clip-rule="nonzero" clip-path="url(#15293503f7)"><path style=" stroke:none;fill-rule:nonzero;fill:#002060;fill-opacity:1;" d="M 262.3125 108.238281 L 234.605469 108.238281 C 232.308594 108.238281 230.425781 110.121094 230.425781 112.417969 C 230.425781 114.714844 232.308594 116.597656 234.605469 116.597656 L 252.199219 116.597656 L 224.578125 144.257812 L 230.511719 150.195312 L 258.132812 122.53125 L 258.132812 140.125 C 258.132812 142.421875 260.011719 144.300781 262.3125 144.300781 C 264.609375 144.300781 266.488281 142.421875 266.488281 140.125 L 266.488281 112.417969 C 266.488281 110.121094 264.609375 108.238281 262.3125 108.238281 Z M 262.3125 108.238281 "/></g><g clip-rule="nonzero" clip-path="url(#1e516ed077)"><path style=" stroke:none;fill-rule:nonzero;fill:#002060;fill-opacity:1;" d="M 144.261719 224.578125 L 116.597656 252.199219 L 116.597656 234.605469 C 116.597656 232.308594 114.757812 230.425781 112.417969 230.425781 C 110.121094 230.425781 108.238281 232.308594 108.238281 234.605469 L 108.238281 262.308594 C 108.238281 264.609375 110.121094 266.488281 112.417969 266.488281 L 140.125 266.488281 C 142.421875 266.488281 144.300781 264.609375 144.300781 262.308594 C 144.300781 260.011719 142.421875 258.132812 140.125 258.132812 L 122.53125 258.132812 L 150.195312 230.511719 Z M 144.261719 224.578125 "/></g><g clip-rule="nonzero" clip-path="url(#e937117452)"><path style=" stroke:none;fill-rule:nonzero;fill:#002060;fill-opacity:1;" d="M 262.3125 230.425781 C 260.011719 230.425781 258.132812 232.308594 258.132812 234.605469 L 258.132812 252.199219 L 230.46875 224.578125 L 224.578125 230.46875 L 252.199219 258.132812 L 234.605469 258.132812 C 232.308594 258.132812 230.425781 260.011719 230.425781 262.308594 C 230.425781 264.609375 232.308594 266.488281 234.605469 266.488281 L 262.3125 266.488281 C 264.609375 266.488281 266.488281 264.609375 266.488281 262.308594 L 266.488281 234.605469 C 266.488281 232.308594 264.609375 230.425781 262.3125 230.425781 Z M 262.3125 230.425781 "/></g><g clip-rule="nonzero" clip-path="url(#d745cd3da5)"><path style=" stroke:none;fill-rule:nonzero;fill:#002060;fill-opacity:1;" d="M 112.417969 144.300781 C 114.757812 144.300781 116.597656 142.421875 116.597656 140.125 L 116.597656 122.53125 L 144.261719 150.195312 L 150.195312 144.257812 L 122.53125 116.597656 L 140.125 116.597656 C 142.421875 116.597656 144.300781 114.714844 144.300781 112.417969 C 144.300781 110.121094 142.421875 108.238281 140.125 108.238281 L 112.417969 108.238281 C 110.121094 108.238281 108.238281 110.121094 108.238281 112.417969 L 108.238281 140.125 C 108.238281 142.421875 110.121094 144.300781 112.417969 144.300781 Z M 112.417969 144.300781 "/></g><path style=" stroke:none;fill-rule:nonzero;fill:#002060;fill-opacity:1;" d="M 225.695312 211.738281 L 220.355469 204.585938 C 221.464844 201.90625 221.757812 201.195312 222.867188 198.515625 L 231.699219 197.234375 C 234.054688 196.890625 235.800781 194.871094 235.800781 192.492188 L 235.800781 182.246094 C 235.800781 179.863281 234.054688 177.84375 231.699219 177.503906 L 222.867188 176.214844 C 221.757812 173.542969 221.464844 172.828125 220.355469 170.152344 L 225.695312 162.996094 C 227.109375 161.089844 226.925781 158.429688 225.238281 156.742188 L 217.992188 149.5 C 216.308594 147.8125 213.644531 147.621094 211.738281 149.046875 L 204.589844 154.382812 C 201.910156 153.273438 201.191406 152.976562 198.519531 151.867188 L 197.230469 143.039062 C 196.894531 140.683594 194.871094 138.933594 192.496094 138.933594 L 182.246094 138.933594 C 179.867188 138.933594 177.84375 140.683594 177.503906 143.039062 L 176.222656 151.867188 C 173.539062 152.976562 172.824219 153.273438 170.148438 154.382812 L 162.996094 149.046875 C 161.085938 147.621094 158.425781 147.8125 156.742188 149.5 L 149.5 156.742188 C 147.816406 158.429688 147.625 161.089844 149.042969 162.996094 L 154.382812 170.152344 C 153.273438 172.828125 152.976562 173.542969 151.871094 176.214844 L 143.039062 177.503906 C 140.683594 177.84375 138.9375 179.863281 138.9375 182.246094 L 138.9375 192.492188 C 138.9375 194.871094 140.683594 196.890625 143.039062 197.234375 L 151.871094 198.515625 C 152.976562 201.195312 153.273438 201.90625 154.382812 204.585938 L 149.042969 211.738281 C 147.625 213.644531 147.816406 216.308594 149.5 217.988281 L 156.742188 225.234375 C 158.425781 226.917969 161.089844 227.113281 162.996094 225.6875 L 170.171875 220.335938 C 172.832031 221.441406 173.546875 221.738281 176.21875 222.84375 L 177.503906 231.699219 C 177.84375 234.050781 179.867188 235.800781 182.246094 235.800781 L 192.496094 235.800781 C 194.871094 235.800781 196.894531 234.050781 197.230469 231.699219 L 198.519531 222.867188 C 201.191406 221.757812 201.910156 221.460938 204.589844 220.351562 L 211.738281 225.6875 C 213.644531 227.113281 216.308594 226.921875 217.992188 225.234375 L 225.238281 217.988281 C 226.925781 216.308594 227.109375 213.644531 225.695312 211.738281 Z M 187.367188 208.734375 C 175.5625 208.734375 166.003906 199.167969 166.003906 187.367188 C 166.003906 175.5625 175.5625 165.996094 187.367188 165.996094 C 199.171875 165.996094 208.738281 175.5625 208.738281 187.367188 C 208.738281 199.167969 199.171875 208.734375 187.367188 208.734375 Z M 187.367188 208.734375 "/></g></svg>