<svg xmlns="http://www.w3.org/2000/svg" xmlns:xlink="http://www.w3.org/1999/xlink" width="500" zoomAndPan="magnify" viewBox="0 0 375 374.999991" height="500" preserveAspectRatio="xMidYMid meet" version="1.0"><defs><g/><clipPath id="61fa8eaf71"><path d="M 12.882812 12.882812 L 362.117188 12.882812 L 362.117188 362.117188 L 12.882812 362.117188 Z M 12.882812 12.882812 " clip-rule="nonzero"/></clipPath><clipPath id="5a60cf3f31"><path d="M 187.5 12.882812 C 91.0625 12.882812 12.882812 91.0625 12.882812 187.5 C 12.882812 283.9375 91.0625 362.117188 187.5 362.117188 C 283.9375 362.117188 362.117188 283.9375 362.117188 187.5 C 362.117188 91.0625 283.9375 12.882812 187.5 12.882812 Z M 187.5 12.882812 " clip-rule="nonzero"/></clipPath><clipPath id="d962455c6e"><path d="M 0.882812 0.882812 L 350.117188 0.882812 L 350.117188 350.117188 L 0.882812 350.117188 Z M 0.882812 0.882812 " clip-rule="nonzero"/></clipPath><clipPath id="dd8012e016"><path d="M 175.5 0.882812 C 79.0625 0.882812 0.882812 79.0625 0.882812 175.5 C 0.882812 271.9375 79.0625 350.117188 175.5 350.117188 C 271.9375 350.117188 350.117188 271.9375 350.117188 175.5 C 350.117188 79.0625 271.9375 0.882812 175.5 0.882812 Z M 175.5 0.882812 " clip-rule="nonzero"/></clipPath><clipPath id="5ddd16af72"><rect x="0" width="351" y="0" height="351"/></clipPath></defs><g clip-path="url(#61fa8eaf71)"><g clip-path="url(#5a60cf3f31)"><g transform="matrix(1, 0, 0, 1, 12, 12)"><g clip-path="url(#5ddd16af72)"><g clip-path="url(#d962455c6e)"><g clip-path="url(#dd8012e016)"><path fill="#002060" d="M 0.882812 0.882812 L 350.117188 0.882812 L 350.117188 350.117188 L 0.882812 350.117188 Z M 0.882812 0.882812 " fill-opacity="1" fill-rule="nonzero"/></g></g></g></g></g></g><g fill="#ffffff" fill-opacity="1"><g transform="translate(76.011838, 224.382934)"><g><path d="M 29.875 1.4375 C 24.28125 1.4375 18.921875 -0.160156 13.796875 -3.359375 C 11.234375 -4.960938 9.132812 -7.203125 7.5 -10.078125 C 5.863281 -12.960938 5.046875 -16.285156 5.046875 -20.046875 C 5.046875 -27.160156 7.40625 -32.957031 12.125 -37.4375 C 16.84375 -41.914062 22.519531 -44.515625 29.15625 -45.234375 C 24.675781 -46.441406 21.097656 -48.523438 18.421875 -51.484375 C 15.742188 -54.441406 14.40625 -58.203125 14.40625 -62.765625 C 14.40625 -69.640625 17.101562 -75.097656 22.5 -79.140625 C 27.894531 -83.179688 34.070312 -85.203125 41.03125 -85.203125 C 48 -85.203125 53.800781 -83.71875 58.4375 -80.75 C 63.082031 -77.789062 65.40625 -73.796875 65.40625 -68.765625 C 65.40625 -67.003906 65.101562 -65.28125 64.5 -63.59375 C 63.894531 -61.914062 63.273438 -60.71875 62.640625 -60 L 61.796875 -58.796875 C 59.234375 -58.796875 56.410156 -59.234375 53.328125 -60.109375 C 50.253906 -60.992188 48 -62.117188 46.5625 -63.484375 L 48 -75.84375 C 46.800781 -77.039062 44.78125 -77.640625 41.9375 -77.640625 C 39.101562 -77.640625 36.863281 -76.175781 35.21875 -73.25 C 33.582031 -70.332031 32.765625 -66.992188 32.765625 -63.234375 C 32.765625 -59.472656 33.203125 -56.632812 34.078125 -54.71875 C 34.960938 -52.800781 36.203125 -51.320312 37.796875 -50.28125 C 40.273438 -48.675781 43.195312 -47.554688 46.5625 -46.921875 L 45.59375 -40.3125 C 39.832031 -40.3125 34.832031 -38.613281 30.59375 -35.21875 C 26.351562 -31.820312 24.234375 -27.320312 24.234375 -21.71875 C 24.234375 -18.195312 25.375 -15.296875 27.65625 -13.015625 C 29.9375 -10.734375 32.878906 -9.59375 36.484375 -9.59375 C 43.035156 -9.59375 49.753906 -12.914062 56.640625 -19.5625 L 61.4375 -15.125 C 52.15625 -4.082031 41.632812 1.4375 29.875 1.4375 Z M 29.875 1.4375 "/></g></g></g><g fill="#ffffff" fill-opacity="1"><g transform="translate(137.805786, 224.382934)"><g><path d="M 41.046875 -8.15625 C 41.523438 -8.15625 43.125 -8.875 45.84375 -10.3125 L 47.046875 -10.921875 L 49.203125 -6.71875 C 48.554688 -6.082031 47.710938 -5.320312 46.671875 -4.4375 C 45.640625 -3.5625 43.625 -2.363281 40.625 -0.84375 C 37.625 0.675781 34.78125 1.4375 32.09375 1.4375 C 29.414062 1.4375 27.253906 0.738281 25.609375 -0.65625 C 23.972656 -2.0625 22.632812 -4.363281 21.59375 -7.5625 L 18.84375 -16.078125 C 12.84375 -9.597656 8.363281 -3.800781 5.40625 1.3125 C 4.84375 1.3125 3.457031 0.910156 1.25 0.109375 C -0.945312 -0.679688 -2.5625 -1.359375 -3.59375 -1.921875 C -1.28125 -6.003906 5.394531 -13.242188 16.4375 -23.640625 C 13.632812 -32.035156 11.394531 -37.914062 9.71875 -41.28125 C 9.394531 -41.914062 7.472656 -44.195312 3.953125 -48.125 L 4.3125 -49.5625 L 11.640625 -51.125 C 15.878906 -51.757812 19.640625 -52.15625 22.921875 -52.3125 C 24.597656 -50.957031 25.9375 -48.4375 26.9375 -44.75 C 27.9375 -41.070312 28.71875 -38.273438 29.28125 -36.359375 C 35.195312 -42.835938 39.078125 -48.28125 40.921875 -52.6875 C 43.160156 -52.363281 45.359375 -51.519531 47.515625 -50.15625 L 48.59375 -49.5625 C 45.800781 -44.28125 40.125 -37.359375 31.5625 -28.796875 C 32.4375 -25.753906 33.234375 -23.234375 33.953125 -21.234375 C 36.992188 -12.515625 39.359375 -8.15625 41.046875 -8.15625 Z M 41.046875 -8.15625 "/></g></g></g><g fill="#ffffff" fill-opacity="1"><g transform="translate(184.721193, 224.382934)"><g/></g></g><g fill="#ffffff" fill-opacity="1"><g transform="translate(208.718845, 224.382934)"><g><path d="M 28.4375 -45.71875 C 28.4375 -42.363281 27.351562 -36.582031 25.1875 -28.375 C 23.03125 -20.175781 21.953125 -14.816406 21.953125 -12.296875 C 21.953125 -9.773438 22.316406 -8.515625 23.046875 -8.515625 C 23.523438 -8.515625 25.363281 -9.273438 28.5625 -10.796875 L 30 -11.515625 L 32.046875 -7.3125 C 31.316406 -6.675781 30.351562 -5.878906 29.15625 -4.921875 C 27.957031 -3.960938 25.71875 -2.660156 22.4375 -1.015625 C 19.15625 0.617188 16.113281 1.4375 13.3125 1.4375 C 10.519531 1.4375 8.320312 0.578125 6.71875 -1.140625 C 5.113281 -2.859375 4.3125 -5.175781 4.3125 -8.09375 C 4.3125 -11.019531 5.3125 -16.222656 7.3125 -23.703125 C 9.3125 -31.179688 10.3125 -36.039062 10.3125 -38.28125 C 10.3125 -41.632812 9.273438 -44.796875 7.203125 -47.765625 L 6.125 -49.203125 L 6.234375 -50.765625 C 10.472656 -51.960938 17.351562 -52.5625 26.875 -52.5625 C 27.914062 -51.363281 28.4375 -49.082031 28.4375 -45.71875 Z M 14.75 -65.703125 C 13.15625 -67.265625 12.359375 -69.363281 12.359375 -72 C 12.359375 -74.632812 13.457031 -76.953125 15.65625 -78.953125 C 17.851562 -80.953125 20.390625 -81.953125 23.265625 -81.953125 C 26.148438 -81.953125 28.394531 -81.148438 30 -79.546875 C 31.601562 -77.953125 32.40625 -75.851562 32.40625 -73.25 C 32.40625 -70.65625 31.265625 -68.359375 28.984375 -66.359375 C 26.703125 -64.359375 24.160156 -63.359375 21.359375 -63.359375 C 18.554688 -63.359375 16.351562 -64.140625 14.75 -65.703125 Z M 14.75 -65.703125 "/></g></g></g><g fill="#ffffff" fill-opacity="1"><g transform="translate(241.355653, 224.382934)"><g><path d="M 39.359375 -49.6875 C 39.515625 -49.84375 39.957031 -50.878906 40.6875 -52.796875 C 44.4375 -52.796875 49.472656 -51.675781 55.796875 -49.4375 C 53.796875 -42.800781 52.195312 -35.863281 51 -28.625 C 49.800781 -21.382812 49.203125 -16.222656 49.203125 -13.140625 C 49.203125 -10.054688 49.519531 -8.515625 50.15625 -8.515625 C 50.632812 -8.515625 52.394531 -9.273438 55.4375 -10.796875 L 56.875 -11.515625 L 59.046875 -7.3125 C 58.316406 -6.675781 57.375 -5.878906 56.21875 -4.921875 C 55.0625 -3.960938 52.878906 -2.660156 49.671875 -1.015625 C 46.472656 0.617188 43.597656 1.4375 41.046875 1.4375 C 36.078125 1.4375 33.195312 -0.800781 32.40625 -5.28125 C 27.28125 -0.800781 22.65625 1.4375 18.53125 1.4375 C 14.414062 1.4375 10.9375 -0.160156 8.09375 -3.359375 C 5.257812 -6.554688 3.84375 -11.597656 3.84375 -18.484375 C 3.84375 -29.203125 6.039062 -37.660156 10.4375 -43.859375 C 14.84375 -50.054688 20.164062 -53.15625 26.40625 -53.15625 C 30.882812 -53.15625 35.203125 -52 39.359375 -49.6875 Z M 25.6875 -8.765625 C 27.601562 -8.765625 29.757812 -9.523438 32.15625 -11.046875 C 32.71875 -22.316406 34.597656 -33.472656 37.796875 -44.515625 C 35.398438 -45.554688 33.363281 -46.078125 31.6875 -46.078125 C 28.800781 -46.078125 26.335938 -43.253906 24.296875 -37.609375 C 22.253906 -31.972656 21.234375 -25.753906 21.234375 -18.953125 C 21.234375 -12.160156 22.71875 -8.765625 25.6875 -8.765625 Z M 25.6875 -8.765625 "/></g></g></g></svg>