<svg xmlns="http://www.w3.org/2000/svg" xmlns:xlink="http://www.w3.org/1999/xlink" width="500" zoomAndPan="magnify" viewBox="0 0 375 374.999991" height="500" preserveAspectRatio="xMidYMid meet" version="1.0"><defs><clipPath id="5e5b46bc85"><path d="M 12.882812 12.882812 L 362.117188 12.882812 L 362.117188 362.117188 L 12.882812 362.117188 Z M 12.882812 12.882812 " clip-rule="nonzero"/></clipPath><clipPath id="4d73380261"><path d="M 187.5 12.882812 C 91.0625 12.882812 12.882812 91.0625 12.882812 187.5 C 12.882812 283.9375 91.0625 362.117188 187.5 362.117188 C 283.9375 362.117188 362.117188 283.9375 362.117188 187.5 C 362.117188 91.0625 283.9375 12.882812 187.5 12.882812 Z M 187.5 12.882812 " clip-rule="nonzero"/></clipPath><clipPath id="fedc5813ef"><path d="M 0.882812 0.882812 L 350.117188 0.882812 L 350.117188 350.117188 L 0.882812 350.117188 Z M 0.882812 0.882812 " clip-rule="nonzero"/></clipPath><clipPath id="f99f2738c5"><path d="M 175.5 0.882812 C 79.0625 0.882812 0.882812 79.0625 0.882812 175.5 C 0.882812 271.9375 79.0625 350.117188 175.5 350.117188 C 271.9375 350.117188 350.117188 271.9375 350.117188 175.5 C 350.117188 79.0625 271.9375 0.882812 175.5 0.882812 Z M 175.5 0.882812 " clip-rule="nonzero"/></clipPath><clipPath id="4f1345a31c"><rect x="0" width="351" y="0" height="351"/></clipPath><clipPath id="1cd534c4c7"><path d="M 98 100.742188 L 277 100.742188 L 277 169 L 98 169 Z M 98 100.742188 " clip-rule="nonzero"/></clipPath><clipPath id="5edb111cb6"><path d="M 96.265625 260 L 278.515625 260 L 278.515625 273.992188 L 96.265625 273.992188 Z M 96.265625 260 " clip-rule="nonzero"/></clipPath></defs><g clip-path="url(#5e5b46bc85)"><g clip-path="url(#4d73380261)"><g transform="matrix(1, 0, 0, 1, 12, 12)"><g clip-path="url(#4f1345a31c)"><g clip-path="url(#fedc5813ef)"><g clip-path="url(#f99f2738c5)"><path fill="#ffffff" d="M 0.882812 0.882812 L 350.117188 0.882812 L 350.117188 350.117188 L 0.882812 350.117188 Z M 0.882812 0.882812 " fill-opacity="1" fill-rule="nonzero"/></g></g></g></g></g></g><path fill="#002060" d="M 130.144531 214.0625 L 244.84375 214.0625 L 244.84375 227.28125 L 130.144531 227.28125 Z M 130.144531 214.0625 " fill-opacity="1" fill-rule="nonzero"/><path fill="#002060" d="M 130.144531 246.476562 L 244.84375 246.476562 L 244.84375 257.894531 L 130.144531 257.894531 Z M 130.144531 246.476562 " fill-opacity="1" fill-rule="nonzero"/><g clip-path="url(#1cd534c4c7)"><path fill="#002060" d="M 187.496094 110.226562 C 187.78125 110.226562 188.066406 110.308594 188.3125 110.472656 L 276.945312 168.382812 L 276.945312 159.351562 L 187.496094 100.902344 L 98.046875 159.355469 L 98.046875 168.386719 L 186.675781 110.472656 C 186.925781 110.308594 187.210938 110.226562 187.496094 110.226562 Z M 187.496094 110.226562 " fill-opacity="1" fill-rule="nonzero"/></g><path fill="#002060" d="M 130.144531 230.273438 L 244.84375 230.273438 L 244.84375 243.488281 L 130.144531 243.488281 Z M 130.144531 230.273438 " fill-opacity="1" fill-rule="nonzero"/><path fill="#002060" d="M 268.027344 167.242188 L 106.964844 167.242188 L 106.964844 257.890625 L 127.15625 257.890625 L 127.15625 197.855469 L 123.300781 197.855469 C 122.476562 197.855469 121.804688 197.1875 121.804688 196.359375 L 121.804688 176.550781 C 121.804688 175.726562 122.476562 175.054688 123.300781 175.054688 L 251.691406 175.054688 C 252.515625 175.054688 253.1875 175.726562 253.1875 176.550781 L 253.1875 196.359375 C 253.1875 197.1875 252.515625 197.855469 251.691406 197.855469 L 247.835938 197.855469 L 247.835938 257.894531 L 268.027344 257.894531 Z M 268.027344 167.242188 " fill-opacity="1" fill-rule="nonzero"/><g clip-path="url(#5edb111cb6)"><path fill="#002060" d="M 269.523438 260.882812 L 96.265625 260.882812 L 96.265625 274.101562 L 278.726562 274.101562 L 278.726562 260.882812 Z M 269.523438 260.882812 " fill-opacity="1" fill-rule="nonzero"/></g><path fill="#002060" d="M 109.84375 164.25 L 265.148438 164.25 L 187.496094 113.511719 Z M 109.84375 164.25 " fill-opacity="1" fill-rule="nonzero"/><path fill="#002060" d="M 124.796875 178.046875 L 250.195312 178.046875 L 250.195312 194.863281 L 124.796875 194.863281 Z M 124.796875 178.046875 " fill-opacity="1" fill-rule="nonzero"/><path fill="#002060" d="M 130.144531 197.855469 L 244.84375 197.855469 L 244.84375 211.074219 L 130.144531 211.074219 Z M 130.144531 197.855469 " fill-opacity="1" fill-rule="nonzero"/></svg>