<svg xmlns="http://www.w3.org/2000/svg" xmlns:xlink="http://www.w3.org/1999/xlink" width="500" zoomAndPan="magnify" viewBox="0 0 375 374.999991" height="500" preserveAspectRatio="xMidYMid meet" version="1.0"><defs><clipPath id="f5ca223438"><path d="M 12.882812 12.882812 L 362.117188 12.882812 L 362.117188 362.117188 L 12.882812 362.117188 Z M 12.882812 12.882812 " clip-rule="nonzero"/></clipPath><clipPath id="5a181a1e48"><path d="M 187.5 12.882812 C 91.0625 12.882812 12.882812 91.0625 12.882812 187.5 C 12.882812 283.9375 91.0625 362.117188 187.5 362.117188 C 283.9375 362.117188 362.117188 283.9375 362.117188 187.5 C 362.117188 91.0625 283.9375 12.882812 187.5 12.882812 Z M 187.5 12.882812 " clip-rule="nonzero"/></clipPath><clipPath id="1695613404"><path d="M 0.882812 0.882812 L 350.117188 0.882812 L 350.117188 350.117188 L 0.882812 350.117188 Z M 0.882812 0.882812 " clip-rule="nonzero"/></clipPath><clipPath id="6760b71793"><path d="M 175.5 0.882812 C 79.0625 0.882812 0.882812 79.0625 0.882812 175.5 C 0.882812 271.9375 79.0625 350.117188 175.5 350.117188 C 271.9375 350.117188 350.117188 271.9375 350.117188 175.5 C 350.117188 79.0625 271.9375 0.882812 175.5 0.882812 Z M 175.5 0.882812 " clip-rule="nonzero"/></clipPath><clipPath id="ec1b24a8c3"><rect x="0" width="351" y="0" height="351"/></clipPath><clipPath id="7732f509ec"><path d="M 95 224 L 156 224 L 156 283.695312 L 95 283.695312 Z M 95 224 " clip-rule="nonzero"/></clipPath><clipPath id="8469d8e5c2"><path d="M 131 162 L 244 162 L 244 198.242188 L 131 198.242188 Z M 131 162 " clip-rule="nonzero"/></clipPath></defs><g clip-path="url(#f5ca223438)"><g clip-path="url(#5a181a1e48)"><g transform="matrix(1, 0, 0, 1, 12, 12)"><g clip-path="url(#ec1b24a8c3)"><g clip-path="url(#1695613404)"><g clip-path="url(#6760b71793)"><path fill="#ffffff" d="M 0.882812 0.882812 L 350.117188 0.882812 L 350.117188 350.117188 L 0.882812 350.117188 Z M 0.882812 0.882812 " fill-opacity="1" fill-rule="nonzero"/></g></g></g></g></g></g><g clip-path="url(#7732f509ec)"><path fill="#002060" d="M 154.53125 260.925781 C 154.53125 260.890625 154.496094 260.859375 154.464844 260.828125 L 119.769531 226.097656 C 119.707031 226.042969 119.644531 225.988281 119.578125 225.9375 C 119.324219 225.71875 119.054688 225.523438 118.765625 225.351562 C 118.476562 225.179688 118.175781 225.039062 117.863281 224.925781 C 117.546875 224.8125 117.222656 224.730469 116.894531 224.679688 C 116.5625 224.625 116.230469 224.605469 115.894531 224.613281 C 115.558594 224.625 115.230469 224.667969 114.902344 224.738281 C 114.574219 224.8125 114.257812 224.914062 113.953125 225.046875 C 113.644531 225.179688 113.351562 225.339844 113.074219 225.527344 C 112.796875 225.714844 112.539062 225.925781 112.300781 226.164062 L 96.949219 241.515625 C 96.132812 242.546875 95.800781 243.71875 95.953125 245.023438 C 96.085938 246.433594 96.652344 247.632812 97.65625 248.628906 L 130.617188 281.621094 C 131.667969 282.648438 132.921875 283.25 134.382812 283.421875 C 134.453125 283.449219 134.53125 283.460938 134.605469 283.453125 C 135.535156 283.535156 136.433594 283.414062 137.304688 283.09375 C 138.179688 282.769531 138.941406 282.28125 139.59375 281.621094 L 153.949219 267.359375 C 154.363281 266.953125 154.699219 266.488281 154.953125 265.964844 C 155.203125 265.441406 155.363281 264.890625 155.421875 264.3125 C 155.484375 263.734375 155.445312 263.164062 155.308594 262.597656 C 155.171875 262.03125 154.945312 261.507812 154.625 261.019531 Z M 135.28125 277.144531 C 135.007812 277.144531 134.734375 277.117188 134.464844 277.066406 C 134.195312 277.011719 133.933594 276.933594 133.679688 276.828125 C 133.429688 276.722656 133.1875 276.59375 132.957031 276.441406 C 132.730469 276.289062 132.519531 276.113281 132.324219 275.921875 C 132.128906 275.726562 131.957031 275.515625 131.804688 275.285156 C 131.652344 275.058594 131.523438 274.816406 131.417969 274.5625 C 131.3125 274.308594 131.234375 274.046875 131.179688 273.777344 C 131.125 273.507812 131.097656 273.234375 131.097656 272.960938 C 131.097656 272.6875 131.125 272.414062 131.179688 272.144531 C 131.234375 271.875 131.3125 271.613281 131.417969 271.359375 C 131.523438 271.105469 131.652344 270.867188 131.804688 270.636719 C 131.957031 270.410156 132.128906 270.195312 132.324219 270.003906 C 132.519531 269.808594 132.730469 269.636719 132.957031 269.484375 C 133.1875 269.328125 133.429688 269.199219 133.679688 269.097656 C 133.933594 268.992188 134.195312 268.910156 134.464844 268.859375 C 134.734375 268.804688 135.007812 268.777344 135.28125 268.777344 C 135.558594 268.777344 135.828125 268.804688 136.097656 268.859375 C 136.367188 268.910156 136.628906 268.992188 136.882812 269.097656 C 137.136719 269.199219 137.378906 269.328125 137.605469 269.484375 C 137.835938 269.636719 138.046875 269.808594 138.242188 270.003906 C 138.4375 270.195312 138.609375 270.410156 138.761719 270.636719 C 138.914062 270.867188 139.042969 271.105469 139.148438 271.359375 C 139.253906 271.613281 139.332031 271.875 139.386719 272.144531 C 139.441406 272.414062 139.46875 272.6875 139.46875 272.960938 C 139.46875 273.234375 139.441406 273.507812 139.386719 273.777344 C 139.332031 274.046875 139.253906 274.308594 139.148438 274.5625 C 139.042969 274.816406 138.914062 275.058594 138.761719 275.285156 C 138.609375 275.515625 138.4375 275.726562 138.242188 275.921875 C 138.046875 276.113281 137.835938 276.289062 137.605469 276.441406 C 137.378906 276.59375 137.136719 276.722656 136.882812 276.828125 C 136.628906 276.933594 136.367188 277.011719 136.097656 277.066406 C 135.828125 277.117188 135.558594 277.144531 135.28125 277.144531 Z M 135.28125 277.144531 " fill-opacity="1" fill-rule="nonzero"/></g><path fill="#002060" d="M 262.761719 185.574219 L 236.011719 211.675781 C 235.109375 212.5625 234.640625 213.632812 234.59375 214.894531 C 234.074219 229.554688 224.773438 230.046875 224.773438 230.046875 L 187.46875 230.046875 C 184.722656 229.445312 187.238281 226.996094 187.238281 226.996094 L 220.410156 226.386719 C 221.324219 226.371094 222.226562 226.25 223.109375 226.015625 C 223.996094 225.78125 224.839844 225.441406 225.640625 225 C 226.445312 224.558594 227.179688 224.027344 227.851562 223.40625 C 228.523438 222.785156 229.109375 222.089844 229.613281 221.324219 C 229.863281 220.984375 230.082031 220.621094 230.265625 220.242188 C 230.445312 219.859375 230.589844 219.460938 230.699219 219.054688 C 230.804688 218.644531 230.871094 218.226562 230.894531 217.804688 C 230.921875 217.382812 230.90625 216.960938 230.851562 216.542969 C 230.796875 216.121094 230.699219 215.710938 230.566406 215.308594 C 230.429688 214.910156 230.257812 214.523438 230.050781 214.15625 C 229.839844 213.789062 229.597656 213.445312 229.324219 213.121094 C 229.046875 212.800781 228.742188 212.507812 228.410156 212.246094 C 227.289062 211.183594 226.011719 210.355469 224.582031 209.765625 C 223.148438 209.179688 221.660156 208.867188 220.113281 208.835938 L 179.472656 207.777344 C 141.710938 189.921875 124.316406 224.613281 124.316406 224.613281 L 157.265625 257.4375 C 159.136719 255.179688 161.359375 253.335938 163.925781 251.914062 C 166.492188 250.492188 169.230469 249.585938 172.140625 249.199219 L 231.324219 248.324219 C 232.222656 248.3125 233.074219 248.109375 233.882812 247.714844 C 234.691406 247.320312 235.375 246.773438 235.9375 246.070312 L 274.4375 197.933594 C 279.011719 182.601562 262.761719 185.574219 262.761719 185.574219 Z M 262.761719 185.574219 " fill-opacity="1" fill-rule="nonzero"/><path fill="#002060" d="M 188.085938 189.246094 C 186.363281 189.445312 185.316406 188.71875 184.085938 187.5625 C 180.898438 184.566406 177.921875 181.21875 174.992188 177.976562 C 164.949219 166.859375 153.277344 151.8125 150.492188 136.824219 C 146.261719 114.023438 163.882812 92.839844 186.996094 92.195312 C 205.023438 91.742188 220.722656 105.113281 224.40625 122.574219 C 229.222656 145.40625 209.769531 168.078125 195.25 183.285156 C 193.394531 185.226562 190.84375 188.664062 188.085938 189.246094 Z M 187.160156 110.199219 C 177.492188 110.578125 169.796875 118.699219 170.265625 128.421875 C 170.714844 137.820312 178.730469 145.164062 188.117188 144.886719 C 197.527344 144.488281 205.382812 136.480469 204.925781 126.921875 C 204.488281 117.671875 196.554688 109.8125 187.160156 110.199219 Z M 187.160156 110.199219 " fill-opacity="1" fill-rule="nonzero"/><g clip-path="url(#8469d8e5c2)"><path fill="#002060" d="M 242.578125 189.433594 C 244.746094 193.226562 242.941406 197.445312 238.585938 198.128906 C 237.222656 198.34375 235.765625 198.246094 234.390625 198.246094 L 144.417969 198.246094 C 142.128906 198.246094 139.777344 198.371094 137.492188 198.25 C 133.734375 198.050781 130.246094 194.34375 131.976562 190.507812 C 132.679688 188.953125 133.953125 187.144531 134.859375 185.644531 L 145.113281 168.613281 C 146.808594 165.785156 147.738281 163.324219 151.417969 162.824219 C 153.109375 162.609375 157.074219 162.734375 158.726562 162.882812 C 159.730469 163.785156 160.660156 165.425781 161.46875 166.539062 C 166.667969 173.699219 173.085938 181.03125 179.328125 187.3125 C 180.558594 188.546875 181.761719 189.949219 183.144531 191.007812 C 189.117188 195.578125 194.164062 189.066406 197.828125 185.207031 C 204.671875 177.992188 210.578125 170.789062 216.507812 162.824219 C 218.210938 162.757812 223.121094 162.5625 224.609375 162.929688 C 228.070312 163.785156 230.085938 168.800781 231.890625 171.792969 Z M 242.578125 189.433594 " fill-opacity="1" fill-rule="nonzero"/></g></svg>