<svg xmlns="http://www.w3.org/2000/svg" xmlns:xlink="http://www.w3.org/1999/xlink" width="500" zoomAndPan="magnify" viewBox="0 0 375 374.999991" height="500" preserveAspectRatio="xMidYMid meet" version="1.0"><defs><clipPath id="becd12d7c9"><path d="M 12.882812 12.882812 L 362.117188 12.882812 L 362.117188 362.117188 L 12.882812 362.117188 Z M 12.882812 12.882812 " clip-rule="nonzero"/></clipPath><clipPath id="ca91961a84"><path d="M 187.5 12.882812 C 91.0625 12.882812 12.882812 91.0625 12.882812 187.5 C 12.882812 283.9375 91.0625 362.117188 187.5 362.117188 C 283.9375 362.117188 362.117188 283.9375 362.117188 187.5 C 362.117188 91.0625 283.9375 12.882812 187.5 12.882812 Z M 187.5 12.882812 " clip-rule="nonzero"/></clipPath><clipPath id="b17258e262"><path d="M 0.882812 0.882812 L 350.117188 0.882812 L 350.117188 350.117188 L 0.882812 350.117188 Z M 0.882812 0.882812 " clip-rule="nonzero"/></clipPath><clipPath id="4c0154c15c"><path d="M 175.5 0.882812 C 79.0625 0.882812 0.882812 79.0625 0.882812 175.5 C 0.882812 271.9375 79.0625 350.117188 175.5 350.117188 C 271.9375 350.117188 350.117188 271.9375 350.117188 175.5 C 350.117188 79.0625 271.9375 0.882812 175.5 0.882812 Z M 175.5 0.882812 " clip-rule="nonzero"/></clipPath><clipPath id="35f827cbb7"><rect x="0" width="351" y="0" height="351"/></clipPath><clipPath id="41d400579c"><path d="M 2 116 L 62 116 L 62 174.546875 L 2 174.546875 Z M 2 116 " clip-rule="nonzero"/></clipPath><clipPath id="0b0bf233d3"><path d="M 24.609375 0.238281 L 161 0.238281 L 161 85.609375 L 24.609375 85.609375 Z M 24.609375 0.238281 " clip-rule="nonzero"/></clipPath><clipPath id="adf593c0b4"><path d="M 51.605469 19.445312 L 112.9375 19.445312 L 112.9375 78.816406 L 51.605469 78.816406 Z M 51.605469 19.445312 " clip-rule="nonzero"/></clipPath><clipPath id="f6e1b99502"><rect x="0" width="184" y="0" height="177"/></clipPath></defs><g clip-path="url(#becd12d7c9)"><g clip-path="url(#ca91961a84)"><g transform="matrix(1, 0, 0, 1, 12, 12)"><g clip-path="url(#35f827cbb7)"><g clip-path="url(#b17258e262)"><g clip-path="url(#4c0154c15c)"><path fill="#ffffff" d="M 0.882812 0.882812 L 350.117188 0.882812 L 350.117188 350.117188 L 0.882812 350.117188 Z M 0.882812 0.882812 " fill-opacity="1" fill-rule="nonzero"/></g></g></g></g></g></g><g transform="matrix(1, 0, 0, 1, 94, 100)"><g clip-path="url(#f6e1b99502)"><g clip-path="url(#41d400579c)"><path fill="#002060" d="M 60.617188 152.234375 C 60.617188 152.203125 60.585938 152.171875 60.554688 152.140625 L 25.949219 117.503906 C 25.886719 117.445312 25.824219 117.390625 25.757812 117.34375 C 25.503906 117.121094 25.238281 116.925781 24.949219 116.757812 C 24.660156 116.585938 24.359375 116.445312 24.046875 116.332031 C 23.730469 116.21875 23.410156 116.136719 23.082031 116.085938 C 22.75 116.035156 22.417969 116.011719 22.085938 116.023438 C 21.75 116.035156 21.421875 116.074219 21.09375 116.148438 C 20.769531 116.21875 20.453125 116.320312 20.144531 116.453125 C 19.839844 116.585938 19.546875 116.746094 19.273438 116.933594 C 18.996094 117.121094 18.738281 117.332031 18.5 117.566406 L 3.191406 132.878906 C 2.375 133.910156 2.042969 135.074219 2.195312 136.378906 C 2.328125 137.78125 2.894531 138.980469 3.894531 139.972656 L 36.765625 172.878906 C 37.816406 173.902344 39.066406 174.5 40.523438 174.675781 C 40.59375 174.703125 40.671875 174.710938 40.746094 174.707031 C 41.671875 174.785156 42.570312 174.664062 43.4375 174.347656 C 44.308594 174.027344 45.070312 173.535156 45.722656 172.878906 L 60.039062 158.65625 C 60.453125 158.25 60.785156 157.785156 61.039062 157.261719 C 61.289062 156.742188 61.449219 156.191406 61.507812 155.613281 C 61.570312 155.039062 61.53125 154.46875 61.398438 153.90625 C 61.261719 153.339844 61.03125 152.816406 60.714844 152.332031 Z M 41.421875 168.414062 C 41.148438 168.414062 40.875 168.386719 40.609375 168.335938 C 40.339844 168.28125 40.078125 168.203125 39.824219 168.097656 C 39.570312 167.992188 39.332031 167.863281 39.101562 167.710938 C 38.875 167.558594 38.664062 167.386719 38.472656 167.191406 C 38.277344 167 38.105469 166.789062 37.953125 166.558594 C 37.800781 166.332031 37.671875 166.09375 37.566406 165.839844 C 37.460938 165.585938 37.382812 165.324219 37.328125 165.054688 C 37.277344 164.789062 37.25 164.515625 37.25 164.242188 C 37.25 163.96875 37.277344 163.695312 37.328125 163.429688 C 37.382812 163.160156 37.460938 162.898438 37.566406 162.644531 C 37.671875 162.390625 37.800781 162.152344 37.953125 161.921875 C 38.105469 161.695312 38.277344 161.484375 38.472656 161.292969 C 38.664062 161.097656 38.875 160.925781 39.101562 160.773438 C 39.332031 160.621094 39.570312 160.492188 39.824219 160.386719 C 40.078125 160.28125 40.339844 160.203125 40.609375 160.148438 C 40.875 160.09375 41.148438 160.070312 41.421875 160.070312 C 41.695312 160.070312 41.96875 160.09375 42.234375 160.148438 C 42.503906 160.203125 42.765625 160.28125 43.019531 160.386719 C 43.273438 160.492188 43.511719 160.621094 43.742188 160.773438 C 43.96875 160.925781 44.179688 161.097656 44.371094 161.292969 C 44.566406 161.484375 44.738281 161.695312 44.890625 161.921875 C 45.042969 162.152344 45.171875 162.390625 45.277344 162.644531 C 45.382812 162.898438 45.460938 163.160156 45.515625 163.429688 C 45.566406 163.695312 45.59375 163.96875 45.59375 164.242188 C 45.59375 164.515625 45.566406 164.789062 45.515625 165.054688 C 45.460938 165.324219 45.382812 165.585938 45.277344 165.839844 C 45.171875 166.09375 45.042969 166.332031 44.890625 166.558594 C 44.738281 166.789062 44.566406 167 44.371094 167.191406 C 44.179688 167.386719 43.96875 167.558594 43.742188 167.710938 C 43.511719 167.863281 43.273438 167.992188 43.019531 168.097656 C 42.765625 168.203125 42.503906 168.28125 42.234375 168.335938 C 41.96875 168.386719 41.695312 168.414062 41.421875 168.414062 Z M 41.421875 168.414062 " fill-opacity="1" fill-rule="nonzero"/></g><path fill="#002060" d="M 168.566406 77.085938 L 141.882812 103.117188 C 140.988281 104 140.515625 105.070312 140.472656 106.328125 C 139.953125 120.949219 130.679688 121.441406 130.679688 121.441406 L 93.46875 121.441406 C 90.730469 120.839844 93.242188 118.398438 93.242188 118.398438 L 126.324219 117.789062 C 127.238281 117.777344 128.136719 117.652344 129.019531 117.417969 C 129.902344 117.183594 130.742188 116.847656 131.542969 116.40625 C 132.34375 115.96875 133.078125 115.4375 133.75 114.816406 C 134.417969 114.195312 135.003906 113.503906 135.503906 112.738281 C 135.753906 112.402344 135.972656 112.039062 136.152344 111.660156 C 136.335938 111.277344 136.480469 110.882812 136.585938 110.476562 C 136.691406 110.066406 136.757812 109.652344 136.78125 109.230469 C 136.808594 108.808594 136.792969 108.390625 136.738281 107.96875 C 136.683594 107.550781 136.589844 107.144531 136.453125 106.742188 C 136.320312 106.34375 136.148438 105.957031 135.9375 105.589844 C 135.730469 105.222656 135.488281 104.878906 135.214844 104.558594 C 134.941406 104.238281 134.636719 103.949219 134.304688 103.6875 C 133.1875 102.625 131.914062 101.800781 130.484375 101.214844 C 129.058594 100.625 127.574219 100.316406 126.03125 100.285156 L 85.496094 99.226562 C 47.832031 81.421875 30.484375 116.019531 30.484375 116.019531 L 63.347656 148.757812 C 65.214844 146.503906 67.429688 144.667969 69.988281 143.25 C 72.550781 141.832031 75.28125 140.929688 78.183594 140.542969 L 137.210938 139.667969 C 138.105469 139.65625 138.957031 139.453125 139.761719 139.058594 C 140.566406 138.667969 141.25 138.121094 141.8125 137.421875 L 180.210938 89.410156 C 184.773438 74.117188 168.566406 77.085938 168.566406 77.085938 Z M 168.566406 77.085938 " fill-opacity="1" fill-rule="nonzero"/><g clip-path="url(#0b0bf233d3)"><path fill="#002060" d="M 154.945312 25.234375 C 154.53125 24.238281 153.558594 23.585938 152.480469 23.585938 L 138.25 23.585938 C 136.777344 23.585938 135.585938 24.78125 135.585938 26.253906 L 135.585938 36.078125 L 131.203125 36.078125 L 131.203125 21.398438 C 131.203125 19.925781 130.011719 18.730469 128.535156 18.730469 L 117.183594 18.730469 L 110.6875 11.921875 C 110.179688 11.394531 109.484375 11.09375 108.753906 11.09375 L 92.566406 11.09375 L 92.566406 6.464844 L 101.816406 6.464844 C 103.535156 6.464844 104.925781 5.070312 104.925781 3.355469 C 104.925781 1.632812 103.535156 0.238281 101.816406 0.238281 L 65.730469 0.238281 C 64.011719 0.238281 62.617188 1.632812 62.617188 3.355469 C 62.617188 5.070312 64.011719 6.464844 65.730469 6.464844 L 73.816406 6.464844 L 73.816406 11.09375 L 60.523438 11.09375 C 59.726562 11.09375 58.96875 11.453125 58.460938 12.070312 L 51.28125 20.8125 L 40.742188 20.8125 C 39.273438 20.8125 38.078125 22.007812 38.078125 23.476562 L 38.078125 37.070312 L 32.757812 37.070312 L 32.757812 23.476562 C 32.757812 21.269531 30.964844 19.476562 28.757812 19.476562 C 26.546875 19.476562 24.757812 21.269531 24.757812 23.476562 L 24.757812 62.34375 C 24.757812 64.554688 26.546875 66.34375 28.757812 66.34375 C 30.964844 66.34375 32.757812 64.554688 32.757812 62.34375 L 32.757812 46.683594 L 38.078125 46.683594 L 38.078125 69.285156 C 38.078125 70.75 39.265625 71.945312 40.734375 71.949219 L 59.6875 72.03125 L 77.3125 85.296875 C 77.769531 85.644531 78.332031 85.832031 78.914062 85.832031 L 126.105469 85.832031 C 127.574219 85.832031 128.773438 84.636719 128.773438 83.167969 L 128.804688 67.453125 L 136.992188 67.449219 L 136.988281 78.011719 C 136.988281 78.722656 137.273438 79.40625 137.773438 79.90625 C 138.277344 80.40625 138.976562 80.6875 139.671875 80.679688 L 152.496094 80.597656 C 153.585938 80.59375 154.558594 79.925781 154.957031 78.914062 C 162.246094 60.484375 162.246094 42.929688 154.945312 25.234375 " fill-opacity="1" fill-rule="nonzero"/></g><g clip-path="url(#adf593c0b4)"><path fill="#ffffff" d="M 68.480469 49.324219 C 66.058594 49.324219 64.097656 47.359375 64.097656 44.9375 C 64.097656 42.515625 66.058594 40.550781 68.480469 40.550781 C 70.902344 40.550781 72.867188 42.515625 72.867188 44.9375 C 72.867188 47.359375 70.902344 49.324219 68.480469 49.324219 Z M 84.753906 42.675781 L 83.871094 42.546875 C 82.621094 42.359375 81.570312 41.503906 81.136719 40.316406 C 81.007812 39.960938 80.863281 39.613281 80.703125 39.269531 C 80.167969 38.117188 80.300781 36.769531 81.054688 35.75 L 81.585938 35.03125 C 81.796875 34.75 81.765625 34.355469 81.519531 34.109375 L 79.3125 31.902344 C 79.0625 31.652344 78.667969 31.625 78.386719 31.832031 L 77.671875 32.363281 C 76.652344 33.121094 75.300781 33.25 74.148438 32.714844 C 73.808594 32.558594 73.460938 32.414062 73.105469 32.28125 C 71.914062 31.847656 71.0625 30.800781 70.875 29.546875 L 70.746094 28.667969 C 70.691406 28.320312 70.394531 28.0625 70.042969 28.0625 L 66.921875 28.0625 C 66.570312 28.0625 66.269531 28.320312 66.21875 28.667969 L 66.089844 29.546875 C 65.902344 30.800781 65.046875 31.847656 63.859375 32.28125 C 63.503906 32.414062 63.15625 32.558594 62.8125 32.714844 C 61.664062 33.25 60.3125 33.121094 59.292969 32.363281 L 58.578125 31.832031 C 58.292969 31.625 57.902344 31.652344 57.652344 31.902344 L 55.445312 34.109375 C 55.195312 34.355469 55.167969 34.75 55.375 35.03125 L 55.90625 35.75 C 56.664062 36.769531 56.792969 38.117188 56.257812 39.269531 C 56.101562 39.613281 55.957031 39.960938 55.828125 40.316406 C 55.390625 41.503906 54.34375 42.359375 53.089844 42.546875 L 52.210938 42.675781 C 51.863281 42.726562 51.605469 43.027344 51.605469 43.378906 L 51.605469 46.5 C 51.605469 46.851562 51.863281 47.148438 52.210938 47.199219 L 53.089844 47.332031 C 54.34375 47.515625 55.390625 48.371094 55.828125 49.558594 C 55.957031 49.917969 56.101562 50.265625 56.257812 50.605469 C 56.792969 51.757812 56.664062 53.109375 55.90625 54.128906 L 55.375 54.84375 C 55.167969 55.125 55.195312 55.519531 55.445312 55.769531 L 57.652344 57.976562 C 57.902344 58.222656 58.292969 58.253906 58.578125 58.042969 L 59.292969 57.511719 C 60.3125 56.757812 61.664062 56.625 62.8125 57.160156 C 63.15625 57.320312 63.503906 57.464844 63.859375 57.59375 C 65.046875 58.027344 65.902344 59.078125 66.089844 60.328125 L 66.21875 61.207031 C 66.269531 61.558594 66.570312 61.816406 66.921875 61.816406 L 70.042969 61.816406 C 70.394531 61.816406 70.691406 61.558594 70.746094 61.207031 L 70.875 60.328125 C 71.0625 59.078125 71.914062 58.027344 73.105469 57.59375 C 73.460938 57.464844 73.808594 57.320312 74.148438 57.160156 C 75.300781 56.625 76.652344 56.757812 77.671875 57.511719 L 78.386719 58.042969 C 78.667969 58.253906 79.0625 58.222656 79.3125 57.976562 L 81.519531 55.769531 C 81.765625 55.519531 81.796875 55.125 81.585938 54.84375 L 81.054688 54.128906 C 80.300781 53.109375 80.167969 51.757812 80.703125 50.605469 C 80.863281 50.265625 81.007812 49.917969 81.136719 49.558594 C 81.570312 48.371094 82.621094 47.515625 83.871094 47.332031 L 84.753906 47.199219 C 85.101562 47.148438 85.359375 46.851562 85.359375 46.5 L 85.359375 43.378906 C 85.359375 43.027344 85.101562 42.726562 84.753906 42.675781 Z M 96.074219 66.199219 C 93.652344 66.199219 91.691406 64.238281 91.691406 61.816406 C 91.691406 59.390625 93.652344 57.429688 96.074219 57.429688 C 98.496094 57.429688 100.460938 59.390625 100.460938 61.816406 C 100.460938 64.238281 98.496094 66.199219 96.074219 66.199219 Z M 112.347656 59.550781 L 111.464844 59.421875 C 110.214844 59.234375 109.164062 58.378906 108.730469 57.191406 C 108.601562 56.835938 108.457031 56.488281 108.296875 56.144531 C 107.761719 54.996094 107.894531 53.644531 108.652344 52.625 L 109.179688 51.910156 C 109.390625 51.625 109.359375 51.234375 109.113281 50.984375 L 106.90625 48.777344 C 106.65625 48.527344 106.265625 48.5 105.980469 48.710938 L 105.265625 49.238281 C 104.246094 49.996094 102.894531 50.128906 101.742188 49.59375 C 101.402344 49.433594 101.054688 49.289062 100.699219 49.160156 C 99.511719 48.726562 98.65625 47.675781 98.46875 46.421875 L 98.339844 45.542969 C 98.289062 45.195312 97.988281 44.9375 97.636719 44.9375 L 94.515625 44.9375 C 94.164062 44.9375 93.863281 45.195312 93.8125 45.542969 L 93.683594 46.421875 C 93.496094 47.675781 92.640625 48.726562 91.453125 49.160156 C 91.097656 49.289062 90.75 49.433594 90.40625 49.59375 C 89.257812 50.128906 87.90625 49.996094 86.886719 49.238281 L 86.171875 48.710938 C 85.886719 48.5 85.496094 48.527344 85.246094 48.777344 L 83.039062 50.984375 C 82.789062 51.234375 82.761719 51.625 82.972656 51.910156 L 83.5 52.625 C 84.257812 53.644531 84.386719 54.996094 83.855469 56.144531 C 83.695312 56.488281 83.550781 56.835938 83.421875 57.191406 C 82.988281 58.378906 81.9375 59.234375 80.683594 59.421875 L 79.804688 59.550781 C 79.457031 59.601562 79.199219 59.902344 79.199219 60.253906 L 79.199219 63.375 C 79.199219 63.726562 79.457031 64.023438 79.804688 64.078125 L 80.683594 64.207031 C 81.9375 64.394531 82.988281 65.25 83.421875 66.4375 C 83.550781 66.792969 83.695312 67.140625 83.855469 67.484375 C 84.386719 68.632812 84.257812 69.984375 83.5 71.003906 L 82.972656 71.71875 C 82.761719 72 82.789062 72.394531 83.039062 72.644531 L 85.246094 74.851562 C 85.496094 75.097656 85.886719 75.128906 86.171875 74.917969 L 86.886719 74.390625 C 87.90625 73.632812 89.257812 73.5 90.40625 74.035156 C 90.75 74.195312 91.097656 74.339844 91.453125 74.46875 C 92.640625 74.902344 93.496094 75.953125 93.683594 77.203125 L 93.8125 78.085938 C 93.863281 78.433594 94.164062 78.691406 94.515625 78.691406 L 97.636719 78.691406 C 97.988281 78.691406 98.289062 78.433594 98.339844 78.085938 L 98.46875 77.203125 C 98.65625 75.953125 99.511719 74.902344 100.699219 74.46875 C 101.054688 74.339844 101.402344 74.195312 101.742188 74.035156 C 102.894531 73.5 104.246094 73.632812 105.265625 74.390625 L 105.980469 74.917969 C 106.265625 75.128906 106.65625 75.097656 106.90625 74.851562 L 109.113281 72.644531 C 109.359375 72.394531 109.390625 72 109.179688 71.71875 L 108.652344 71.003906 C 107.894531 69.984375 107.761719 68.632812 108.296875 67.484375 C 108.457031 67.140625 108.601562 66.792969 108.730469 66.4375 C 109.164062 65.25 110.214844 64.394531 111.464844 64.207031 L 112.347656 64.078125 C 112.695312 64.023438 112.953125 63.726562 112.953125 63.375 L 112.953125 60.253906 C 112.953125 59.902344 112.695312 59.601562 112.347656 59.550781 Z M 93.617188 34.964844 C 91.789062 34.964844 90.308594 33.484375 90.308594 31.65625 C 90.308594 29.828125 91.789062 28.347656 93.617188 28.347656 C 95.445312 28.347656 96.925781 29.828125 96.925781 31.65625 C 96.925781 33.484375 95.445312 34.964844 93.617188 34.964844 Z M 105.375 30.023438 L 104.738281 29.925781 C 103.835938 29.792969 103.074219 29.175781 102.761719 28.316406 C 102.667969 28.058594 102.5625 27.808594 102.449219 27.558594 C 102.0625 26.730469 102.15625 25.753906 102.703125 25.015625 L 103.085938 24.5 C 103.238281 24.296875 103.214844 24.011719 103.039062 23.832031 L 101.441406 22.238281 C 101.261719 22.054688 100.980469 22.035156 100.773438 22.1875 L 100.257812 22.570312 C 99.519531 23.117188 98.542969 23.210938 97.710938 22.824219 C 97.464844 22.710938 97.214844 22.605469 96.957031 22.511719 C 96.097656 22.199219 95.480469 21.4375 95.347656 20.535156 L 95.25 19.898438 C 95.214844 19.648438 95 19.460938 94.746094 19.460938 L 92.488281 19.460938 C 92.234375 19.460938 92.019531 19.648438 91.980469 19.898438 L 91.886719 20.535156 C 91.753906 21.4375 91.136719 22.199219 90.277344 22.511719 C 90.019531 22.605469 89.769531 22.710938 89.519531 22.824219 C 88.6875 23.210938 87.714844 23.117188 86.976562 22.570312 L 86.460938 22.1875 C 86.253906 22.035156 85.972656 22.054688 85.792969 22.238281 L 84.195312 23.832031 C 84.015625 24.011719 83.996094 24.296875 84.148438 24.5 L 84.53125 25.015625 C 85.078125 25.753906 85.171875 26.730469 84.785156 27.558594 C 84.671875 27.808594 84.566406 28.058594 84.472656 28.316406 C 84.160156 29.175781 83.398438 29.792969 82.496094 29.925781 L 81.859375 30.023438 C 81.609375 30.058594 81.421875 30.273438 81.421875 30.527344 L 81.421875 32.785156 C 81.421875 33.039062 81.609375 33.253906 81.859375 33.292969 L 82.496094 33.386719 C 83.398438 33.519531 84.160156 34.136719 84.472656 34.996094 C 84.566406 35.253906 84.671875 35.503906 84.785156 35.753906 C 85.171875 36.582031 85.078125 37.558594 84.53125 38.296875 L 84.148438 38.8125 C 83.996094 39.019531 84.015625 39.300781 84.195312 39.480469 L 85.792969 41.078125 C 85.972656 41.257812 86.253906 41.277344 86.460938 41.125 L 86.976562 40.742188 C 87.714844 40.195312 88.6875 40.101562 89.519531 40.488281 C 89.769531 40.601562 90.019531 40.707031 90.277344 40.800781 C 91.136719 41.113281 91.753906 41.875 91.886719 42.777344 L 91.980469 43.414062 C 92.019531 43.664062 92.234375 43.851562 92.488281 43.851562 L 94.746094 43.851562 C 95 43.851562 95.214844 43.664062 95.25 43.414062 L 95.347656 42.777344 C 95.480469 41.875 96.097656 41.113281 96.957031 40.800781 C 97.214844 40.707031 97.464844 40.601562 97.710938 40.488281 C 98.542969 40.101562 99.519531 40.195312 100.257812 40.742188 L 100.773438 41.125 C 100.980469 41.277344 101.261719 41.257812 101.441406 41.078125 L 103.039062 39.480469 C 103.214844 39.300781 103.238281 39.019531 103.085938 38.8125 L 102.703125 38.296875 C 102.15625 37.558594 102.0625 36.582031 102.449219 35.753906 C 102.5625 35.503906 102.667969 35.253906 102.761719 34.996094 C 103.074219 34.136719 103.835938 33.519531 104.738281 33.386719 L 105.375 33.292969 C 105.625 33.253906 105.8125 33.039062 105.8125 32.785156 L 105.8125 30.527344 C 105.8125 30.273438 105.625 30.058594 105.375 30.023438 " fill-opacity="1" fill-rule="nonzero"/></g></g></g></svg>