<svg xmlns="http://www.w3.org/2000/svg" xmlns:xlink="http://www.w3.org/1999/xlink" width="500" zoomAndPan="magnify"
    viewBox="0 0 375 374.999991" height="500" preserveAspectRatio="xMidYMid meet" version="1.0">
    <defs>
        <clipPath id="00dd5b86ee">
            <path
                d="M 12.882812 12.882812 L 362.117188 12.882812 L 362.117188 362.117188 L 12.882812 362.117188 Z M 12.882812 12.882812 "
                clip-rule="nonzero" />
        </clipPath>
        <clipPath id="ec1db2632d">
            <path
                d="M 187.5 12.882812 C 91.0625 12.882812 12.882812 91.0625 12.882812 187.5 C 12.882812 283.9375 91.0625 362.117188 187.5 362.117188 C 283.9375 362.117188 362.117188 283.9375 362.117188 187.5 C 362.117188 91.0625 283.9375 12.882812 187.5 12.882812 Z M 187.5 12.882812 "
                clip-rule="nonzero" />
        </clipPath>
        <clipPath id="273f28ae8a">
            <path
                d="M 0.882812 0.882812 L 350.117188 0.882812 L 350.117188 350.117188 L 0.882812 350.117188 Z M 0.882812 0.882812 "
                clip-rule="nonzero" />
        </clipPath>
        <clipPath id="a9d59db13c">
            <path
                d="M 175.5 0.882812 C 79.0625 0.882812 0.882812 79.0625 0.882812 175.5 C 0.882812 271.9375 79.0625 350.117188 175.5 350.117188 C 271.9375 350.117188 350.117188 271.9375 350.117188 175.5 C 350.117188 79.0625 271.9375 0.882812 175.5 0.882812 Z M 175.5 0.882812 "
                clip-rule="nonzero" />
        </clipPath>
        <clipPath id="a57ded0c6f">
            <rect x="0" width="351" y="0" height="351" />
        </clipPath>
        <clipPath id="98d195c7ab">
            <path d="M 104 213 L 271 213 L 271 266.175781 L 104 266.175781 Z M 104 213 " clip-rule="nonzero" />
        </clipPath>
    </defs>
    <g clip-path="url(#00dd5b86ee)">
        <g clip-path="url(#ec1db2632d)">
            <g transform="matrix(1, 0, 0, 1, 12, 12)">
                <g clip-path="url(#a57ded0c6f)">
                    <g clip-path="url(#273f28ae8a)">
                        <g clip-path="url(#a9d59db13c)">
                            <path fill="#CB6F6F"
                                d="M 0.882812 0.882812 L 350.117188 0.882812 L 350.117188 350.117188 L 0.882812 350.117188 Z M 0.882812 0.882812 "
                                fill-opacity="1" fill-rule="nonzero" />
                        </g>
                    </g>
                </g>
            </g>
        </g>
    </g>
    <path fill="#ffffff"
        d="M 188.367188 252.828125 C 185.820312 253.117188 184.273438 252.042969 182.453125 250.335938 C 177.738281 245.90625 173.339844 240.957031 169.007812 236.164062 C 154.160156 219.730469 136.902344 197.484375 132.792969 175.324219 C 126.535156 141.617188 152.585938 110.296875 186.757812 109.347656 C 213.40625 108.675781 236.617188 128.445312 242.0625 154.257812 C 249.1875 188.011719 220.421875 221.527344 198.957031 244.011719 C 196.21875 246.882812 192.445312 251.96875 188.367188 252.828125 Z M 186.996094 135.960938 C 172.707031 136.523438 161.328125 148.53125 162.019531 162.902344 C 162.6875 176.796875 174.539062 187.65625 188.414062 187.242188 C 202.328125 186.65625 213.9375 174.816406 213.265625 160.683594 C 212.617188 147.007812 200.890625 135.394531 186.996094 135.960938 Z M 186.996094 135.960938 "
        fill-opacity="1" fill-rule="nonzero" />
    <g clip-path="url(#98d195c7ab)">
        <path fill="#ffffff"
            d="M 268.929688 253.101562 C 272.136719 258.710938 269.464844 264.945312 263.023438 265.957031 C 261.015625 266.273438 258.859375 266.128906 256.824219 266.128906 L 123.8125 266.128906 C 120.421875 266.132812 116.945312 266.316406 113.570312 266.136719 C 108.015625 265.84375 102.855469 260.363281 105.417969 254.691406 C 106.457031 252.394531 108.339844 249.714844 109.679688 247.5 L 124.832031 222.320312 C 127.34375 218.140625 128.71875 214.503906 134.160156 213.765625 C 136.65625 213.445312 142.515625 213.628906 144.964844 213.847656 C 146.449219 215.183594 147.820312 217.609375 149.015625 219.253906 C 156.703125 229.839844 166.1875 240.679688 175.421875 249.964844 C 177.238281 251.792969 179.019531 253.867188 181.0625 255.429688 C 189.894531 262.1875 197.355469 252.5625 202.769531 246.855469 C 212.890625 236.191406 221.621094 225.539062 230.386719 213.761719 C 232.902344 213.664062 240.164062 213.375 242.363281 213.921875 C 247.480469 215.183594 250.457031 222.597656 253.128906 227.023438 Z M 268.929688 253.101562 "
            fill-opacity="1" fill-rule="nonzero" />
    </g>
</svg>