<svg xmlns="http://www.w3.org/2000/svg" xmlns:xlink="http://www.w3.org/1999/xlink" width="500" zoomAndPan="magnify" viewBox="0 0 375 374.999991" height="500" preserveAspectRatio="xMidYMid meet" version="1.0"><defs><clipPath id="d007fd1649"><path d="M 12.882812 12.882812 L 362.117188 12.882812 L 362.117188 362.117188 L 12.882812 362.117188 Z M 12.882812 12.882812 " clip-rule="nonzero"/></clipPath><clipPath id="c58100b21b"><path d="M 187.5 12.882812 C 91.0625 12.882812 12.882812 91.0625 12.882812 187.5 C 12.882812 283.9375 91.0625 362.117188 187.5 362.117188 C 283.9375 362.117188 362.117188 283.9375 362.117188 187.5 C 362.117188 91.0625 283.9375 12.882812 187.5 12.882812 Z M 187.5 12.882812 " clip-rule="nonzero"/></clipPath><clipPath id="712e04a371"><path d="M 0.882812 0.882812 L 350.117188 0.882812 L 350.117188 350.117188 L 0.882812 350.117188 Z M 0.882812 0.882812 " clip-rule="nonzero"/></clipPath><clipPath id="3c2d1fb283"><path d="M 175.5 0.882812 C 79.0625 0.882812 0.882812 79.0625 0.882812 175.5 C 0.882812 271.9375 79.0625 350.117188 175.5 350.117188 C 271.9375 350.117188 350.117188 271.9375 350.117188 175.5 C 350.117188 79.0625 271.9375 0.882812 175.5 0.882812 Z M 175.5 0.882812 " clip-rule="nonzero"/></clipPath><clipPath id="f5c3bbb46c"><rect x="0" width="351" y="0" height="351"/></clipPath><clipPath id="911aa173f5"><path d="M 116.164062 149.726562 L 258.582031 149.726562 L 258.582031 274.050781 L 116.164062 274.050781 Z M 116.164062 149.726562 " clip-rule="nonzero"/></clipPath><clipPath id="7a5b79cd3d"><path d="M 116.164062 100.800781 L 258.582031 100.800781 L 258.582031 136.300781 L 116.164062 136.300781 Z M 116.164062 100.800781 " clip-rule="nonzero"/></clipPath><clipPath id="0aaeff881a"><path d="M 116.164062 139.328125 L 258.582031 139.328125 L 258.582031 160.121094 L 116.164062 160.121094 Z M 116.164062 139.328125 " clip-rule="nonzero"/></clipPath><clipPath id="b082bcf74c"><path d="M 125.613281 139.328125 L 249.378906 139.328125 C 254.597656 139.328125 258.828125 143.558594 258.828125 148.777344 L 258.828125 150.671875 C 258.828125 155.890625 254.597656 160.121094 249.378906 160.121094 L 125.613281 160.121094 C 120.394531 160.121094 116.164062 155.890625 116.164062 150.671875 L 116.164062 148.777344 C 116.164062 143.558594 120.394531 139.328125 125.613281 139.328125 " clip-rule="nonzero"/></clipPath></defs><g clip-path="url(#d007fd1649)"><g clip-path="url(#c58100b21b)"><g transform="matrix(1, 0, 0, 1, 12, 12)"><g clip-path="url(#f5c3bbb46c)"><g clip-path="url(#712e04a371)"><g clip-path="url(#3c2d1fb283)"><path fill="#002060" d="M 0.882812 0.882812 L 350.117188 0.882812 L 350.117188 350.117188 L 0.882812 350.117188 Z M 0.882812 0.882812 " fill-opacity="1" fill-rule="nonzero"/></g></g></g></g></g></g><g clip-path="url(#911aa173f5)"><path fill="#ffffff" d="M 159.191406 116.714844 L 156.902344 121.273438 L 126.347656 121.273438 C 120.714844 121.273438 116.164062 125.828125 116.164062 131.464844 C 116.164062 137.105469 120.714844 141.664062 126.347656 141.664062 L 248.558594 141.664062 C 254.195312 141.664062 258.746094 137.105469 258.746094 131.464844 C 258.746094 125.828125 254.195312 121.273438 248.558594 121.273438 L 218.007812 121.273438 L 215.714844 116.714844 C 213.996094 113.242188 210.464844 111.074219 206.613281 111.074219 L 168.292969 111.074219 C 164.441406 111.074219 160.910156 113.242188 159.191406 116.714844 Z M 248.558594 151.855469 L 126.347656 151.855469 L 133.09375 259.863281 C 133.605469 267.921875 140.289062 274.199219 148.339844 274.199219 L 226.570312 274.199219 C 234.621094 274.199219 241.304688 267.921875 241.8125 259.863281 Z M 248.558594 151.855469 " fill-opacity="1" fill-rule="nonzero"/></g><g clip-path="url(#7a5b79cd3d)"><path fill="#ffffff" d="M 159.191406 106.425781 L 156.902344 110.980469 L 126.347656 110.980469 C 120.714844 110.980469 116.164062 115.539062 116.164062 121.175781 C 116.164062 126.816406 120.714844 131.371094 126.347656 131.371094 L 248.558594 131.371094 C 254.195312 131.371094 258.746094 126.816406 258.746094 121.175781 C 258.746094 115.539062 254.195312 110.980469 248.558594 110.980469 L 218.007812 110.980469 L 215.714844 106.425781 C 213.996094 102.953125 210.464844 100.785156 206.613281 100.785156 L 168.292969 100.785156 C 164.441406 100.785156 160.910156 102.953125 159.191406 106.425781 Z M 248.558594 141.566406 L 126.347656 141.566406 L 133.09375 249.570312 C 133.605469 257.632812 140.289062 263.910156 148.339844 263.910156 L 226.570312 263.910156 C 234.621094 263.910156 241.304688 257.632812 241.8125 249.570312 Z M 248.558594 141.566406 " fill-opacity="1" fill-rule="nonzero"/></g><g clip-path="url(#0aaeff881a)"><g clip-path="url(#b082bcf74c)"><path fill="#ffffff" d="M 116.164062 139.328125 L 258.828125 139.328125 L 258.828125 160.121094 L 116.164062 160.121094 Z M 116.164062 139.328125 " fill-opacity="1" fill-rule="nonzero"/></g></g></svg>