<svg xmlns="http://www.w3.org/2000/svg" xmlns:xlink="http://www.w3.org/1999/xlink" width="500" zoomAndPan="magnify" viewBox="0 0 375 374.999991" height="500" preserveAspectRatio="xMidYMid meet" version="1.2"><defs><clipPath id="d6b1b0c890"><path d="M 12.882812 12.882812 L 362.117188 12.882812 L 362.117188 362.117188 L 12.882812 362.117188 Z M 12.882812 12.882812 "/></clipPath><clipPath id="e0d660af63"><path d="M 187.5 12.882812 C 91.0625 12.882812 12.882812 91.0625 12.882812 187.5 C 12.882812 283.9375 91.0625 362.117188 187.5 362.117188 C 283.9375 362.117188 362.117188 283.9375 362.117188 187.5 C 362.117188 91.0625 283.9375 12.882812 187.5 12.882812 Z M 187.5 12.882812 "/></clipPath><clipPath id="54ef4e14ce"><path d="M 103.546875 157 L 134 157 L 134 188 L 103.546875 188 Z M 103.546875 157 "/></clipPath><clipPath id="963a897d37"><path d="M 169 97.46875 L 200 97.46875 L 200 128 L 169 128 Z M 169 97.46875 "/></clipPath><clipPath id="ffd1674782"><path d="M 241 154 L 271.546875 154 L 271.546875 185 L 241 185 Z M 241 154 "/></clipPath><clipPath id="a5dff41564"><path d="M 103.546875 193 L 271.546875 193 L 271.546875 277 L 103.546875 277 Z M 103.546875 193 "/></clipPath></defs><g id="ec0e0f2aed"><g clip-rule="nonzero" clip-path="url(#d6b1b0c890)"><g clip-rule="nonzero" clip-path="url(#e0d660af63)"><path style=" stroke:none;fill-rule:nonzero;fill:#ffffff;fill-opacity:1;" d="M 12.882812 12.882812 L 362.117188 12.882812 L 362.117188 362.117188 L 12.882812 362.117188 Z M 12.882812 12.882812 "/></g></g><g clip-rule="nonzero" clip-path="url(#54ef4e14ce)"><path style=" stroke:none;fill-rule:nonzero;fill:#002060;fill-opacity:1;" d="M 118.675781 157.269531 L 118.71875 157.269531 C 119.699219 157.269531 120.667969 157.367188 121.628906 157.558594 C 122.589844 157.75 123.523438 158.03125 124.429688 158.40625 C 125.335938 158.78125 126.195312 159.242188 127.011719 159.785156 C 127.828125 160.332031 128.582031 160.949219 129.273438 161.644531 C 129.964844 162.335938 130.585938 163.089844 131.128906 163.90625 C 131.675781 164.722656 132.132812 165.582031 132.511719 166.488281 C 132.886719 167.390625 133.167969 168.324219 133.359375 169.289062 C 133.550781 170.25 133.644531 171.21875 133.644531 172.199219 L 133.644531 172.242188 C 133.644531 173.222656 133.550781 174.191406 133.359375 175.152344 C 133.167969 176.117188 132.886719 177.050781 132.511719 177.953125 C 132.132812 178.859375 131.675781 179.722656 131.128906 180.535156 C 130.585938 181.351562 129.964844 182.105469 129.273438 182.796875 C 128.582031 183.492188 127.828125 184.109375 127.011719 184.65625 C 126.195312 185.199219 125.335938 185.660156 124.429688 186.035156 C 123.523438 186.410156 122.589844 186.691406 121.628906 186.882812 C 120.667969 187.074219 119.699219 187.171875 118.71875 187.171875 L 118.675781 187.171875 C 117.695312 187.171875 116.722656 187.074219 115.761719 186.882812 C 114.800781 186.691406 113.867188 186.410156 112.960938 186.035156 C 112.054688 185.660156 111.195312 185.199219 110.382812 184.65625 C 109.566406 184.109375 108.8125 183.492188 108.117188 182.796875 C 107.425781 182.105469 106.804688 181.351562 106.261719 180.535156 C 105.71875 179.722656 105.257812 178.859375 104.882812 177.953125 C 104.507812 177.050781 104.222656 176.117188 104.03125 175.152344 C 103.839844 174.191406 103.746094 173.222656 103.746094 172.242188 L 103.746094 172.199219 C 103.746094 171.21875 103.839844 170.25 104.03125 169.289062 C 104.222656 168.324219 104.507812 167.390625 104.882812 166.488281 C 105.257812 165.582031 105.71875 164.722656 106.261719 163.90625 C 106.804688 163.089844 107.425781 162.335938 108.117188 161.644531 C 108.8125 160.949219 109.566406 160.332031 110.382812 159.785156 C 111.195312 159.242188 112.054688 158.78125 112.960938 158.40625 C 113.867188 158.03125 114.800781 157.75 115.761719 157.558594 C 116.722656 157.367188 117.695312 157.269531 118.675781 157.269531 Z M 118.675781 157.269531 "/></g><g clip-rule="nonzero" clip-path="url(#963a897d37)"><path style=" stroke:none;fill-rule:nonzero;fill:#002060;fill-opacity:1;" d="M 184.457031 97.46875 L 184.496094 97.46875 C 185.476562 97.46875 186.449219 97.566406 187.410156 97.757812 C 188.371094 97.949219 189.304688 98.230469 190.210938 98.605469 C 191.117188 98.980469 191.976562 99.441406 192.792969 99.984375 C 193.605469 100.53125 194.359375 101.148438 195.054688 101.84375 C 195.746094 102.535156 196.367188 103.289062 196.910156 104.105469 C 197.457031 104.921875 197.914062 105.78125 198.289062 106.6875 C 198.664062 107.589844 198.949219 108.523438 199.140625 109.488281 C 199.332031 110.449219 199.425781 111.417969 199.425781 112.398438 L 199.425781 112.441406 C 199.425781 113.421875 199.332031 114.390625 199.140625 115.355469 C 198.949219 116.316406 198.664062 117.25 198.289062 118.152344 C 197.914062 119.058594 197.457031 119.921875 196.910156 120.734375 C 196.367188 121.550781 195.746094 122.304688 195.054688 122.996094 C 194.359375 123.691406 193.605469 124.308594 192.792969 124.855469 C 191.976562 125.398438 191.117188 125.859375 190.210938 126.234375 C 189.304688 126.609375 188.371094 126.890625 187.410156 127.082031 C 186.449219 127.273438 185.476562 127.371094 184.496094 127.371094 L 184.457031 127.371094 C 183.476562 127.371094 182.503906 127.273438 181.542969 127.082031 C 180.582031 126.890625 179.648438 126.609375 178.742188 126.234375 C 177.835938 125.859375 176.976562 125.398438 176.160156 124.855469 C 175.347656 124.308594 174.59375 123.691406 173.898438 122.996094 C 173.207031 122.304688 172.585938 121.550781 172.042969 120.734375 C 171.5 119.921875 171.039062 119.058594 170.664062 118.152344 C 170.289062 117.25 170.003906 116.316406 169.8125 115.355469 C 169.621094 114.390625 169.527344 113.421875 169.527344 112.441406 L 169.527344 112.398438 C 169.527344 111.417969 169.621094 110.449219 169.8125 109.488281 C 170.003906 108.523438 170.289062 107.589844 170.664062 106.6875 C 171.039062 105.78125 171.5 104.921875 172.042969 104.105469 C 172.585938 103.289062 173.207031 102.535156 173.898438 101.84375 C 174.59375 101.148438 175.347656 100.53125 176.160156 99.984375 C 176.976562 99.441406 177.835938 98.980469 178.742188 98.605469 C 179.648438 98.230469 180.582031 97.949219 181.542969 97.757812 C 182.503906 97.566406 183.476562 97.46875 184.457031 97.46875 Z M 184.457031 97.46875 "/></g><g clip-rule="nonzero" clip-path="url(#ffd1674782)"><path style=" stroke:none;fill-rule:nonzero;fill:#002060;fill-opacity:1;" d="M 256.214844 154.28125 L 256.257812 154.28125 C 257.238281 154.28125 258.210938 154.375 259.171875 154.566406 C 260.132812 154.757812 261.066406 155.042969 261.972656 155.417969 C 262.878906 155.792969 263.738281 156.253906 264.554688 156.796875 C 265.367188 157.339844 266.121094 157.960938 266.816406 158.652344 C 267.507812 159.347656 268.128906 160.101562 268.671875 160.914062 C 269.214844 161.730469 269.675781 162.589844 270.050781 163.496094 C 270.425781 164.402344 270.710938 165.335938 270.902344 166.296875 C 271.09375 167.257812 271.1875 168.230469 271.1875 169.210938 L 271.1875 169.25 C 271.1875 170.230469 271.09375 171.203125 270.902344 172.164062 C 270.710938 173.125 270.425781 174.058594 270.050781 174.964844 C 269.675781 175.871094 269.214844 176.730469 268.671875 177.546875 C 268.128906 178.359375 267.507812 179.113281 266.816406 179.808594 C 266.121094 180.5 265.367188 181.121094 264.554688 181.664062 C 263.738281 182.210938 262.878906 182.667969 261.972656 183.042969 C 261.066406 183.417969 260.132812 183.703125 259.171875 183.894531 C 258.210938 184.085938 257.238281 184.179688 256.257812 184.179688 L 256.214844 184.179688 C 255.238281 184.179688 254.265625 184.085938 253.304688 183.894531 C 252.34375 183.703125 251.410156 183.417969 250.503906 183.042969 C 249.597656 182.667969 248.738281 182.210938 247.921875 181.664062 C 247.105469 181.121094 246.351562 180.5 245.660156 179.808594 C 244.96875 179.113281 244.347656 178.359375 243.804688 177.546875 C 243.257812 176.730469 242.800781 175.871094 242.425781 174.964844 C 242.046875 174.058594 241.765625 173.125 241.574219 172.164062 C 241.382812 171.203125 241.289062 170.230469 241.289062 169.25 L 241.289062 169.210938 C 241.289062 168.230469 241.382812 167.257812 241.574219 166.296875 C 241.765625 165.335938 242.046875 164.402344 242.425781 163.496094 C 242.800781 162.589844 243.257812 161.730469 243.804688 160.914062 C 244.347656 160.101562 244.96875 159.347656 245.660156 158.652344 C 246.351562 157.960938 247.105469 157.339844 247.921875 156.796875 C 248.738281 156.253906 249.597656 155.792969 250.503906 155.417969 C 251.410156 155.042969 252.34375 154.757812 253.304688 154.566406 C 254.265625 154.375 255.238281 154.28125 256.214844 154.28125 Z M 256.214844 154.28125 "/></g><path style=" stroke:none;fill-rule:nonzero;fill:#002060;fill-opacity:1;" d="M 116.28125 144.375 C 115.410156 145.875 114.585938 147.398438 113.808594 148.953125 L 119.160156 151.625 C 119.878906 150.183594 120.644531 148.769531 121.449219 147.378906 C 124.191406 142.6875 127.390625 138.335938 131.054688 134.320312 C 134.71875 130.308594 138.761719 126.722656 143.1875 123.570312 L 146.960938 131.09375 L 160.949219 110.164062 L 136.46875 110.164062 L 140.484375 118.175781 C 135.546875 121.609375 131.035156 125.539062 126.953125 129.957031 C 122.871094 134.375 119.3125 139.183594 116.28125 144.375 Z M 116.28125 144.375 "/><path style=" stroke:none;fill-rule:nonzero;fill:#002060;fill-opacity:1;" d="M 255.609375 145.570312 L 252.667969 121.652344 L 244.882812 126.800781 C 240.144531 122.175781 234.925781 118.175781 229.222656 114.808594 C 223.515625 111.441406 217.496094 108.804688 211.15625 106.890625 L 209.4375 112.617188 C 215.109375 114.328125 220.507812 116.664062 225.632812 119.628906 C 230.761719 122.59375 235.476562 126.109375 239.785156 130.175781 L 233.371094 134.417969 Z M 255.609375 145.570312 "/><path style=" stroke:none;fill-rule:nonzero;fill:#002060;fill-opacity:1;" d="M 151.585938 184.179688 C 151.585938 185.355469 151.644531 186.527344 151.757812 187.699219 C 151.875 188.867188 152.046875 190.027344 152.277344 191.179688 C 152.503906 192.332031 152.789062 193.472656 153.132812 194.597656 C 153.472656 195.722656 153.867188 196.824219 154.316406 197.910156 C 154.765625 198.996094 155.269531 200.058594 155.824219 201.09375 C 156.378906 202.132812 156.980469 203.136719 157.632812 204.113281 C 158.285156 205.09375 158.984375 206.035156 159.730469 206.941406 C 160.476562 207.851562 161.265625 208.722656 162.09375 209.550781 C 162.925781 210.382812 163.796875 211.171875 164.703125 211.917969 C 165.613281 212.664062 166.554688 213.363281 167.53125 214.015625 C 168.511719 214.667969 169.515625 215.269531 170.554688 215.824219 C 171.589844 216.378906 172.648438 216.878906 173.734375 217.332031 C 174.820312 217.78125 175.925781 218.175781 177.050781 218.515625 C 178.175781 218.859375 179.3125 219.144531 180.46875 219.371094 C 181.621094 219.601562 182.78125 219.773438 183.949219 219.886719 C 185.121094 220.003906 186.292969 220.0625 187.46875 220.0625 C 188.640625 220.0625 189.8125 220.003906 190.984375 219.886719 C 192.152344 219.773438 193.3125 219.601562 194.46875 219.371094 C 195.621094 219.144531 196.757812 218.859375 197.882812 218.515625 C 199.007812 218.175781 200.113281 217.78125 201.199219 217.332031 C 202.285156 216.878906 203.34375 216.378906 204.378906 215.824219 C 205.417969 215.269531 206.425781 214.667969 207.402344 214.015625 C 208.378906 213.363281 209.320312 212.664062 210.230469 211.917969 C 211.136719 211.171875 212.007812 210.382812 212.839844 209.550781 C 213.667969 208.722656 214.457031 207.851562 215.203125 206.941406 C 215.949219 206.035156 216.648438 205.09375 217.300781 204.113281 C 217.953125 203.136719 218.554688 202.132812 219.109375 201.09375 C 219.664062 200.058594 220.167969 198.996094 220.617188 197.910156 C 221.066406 196.824219 221.460938 195.722656 221.800781 194.597656 C 222.144531 193.472656 222.429688 192.332031 222.65625 191.179688 C 222.886719 190.027344 223.058594 188.867188 223.175781 187.699219 C 223.289062 186.527344 223.347656 185.355469 223.347656 184.179688 C 223.347656 183.003906 223.289062 181.832031 223.175781 180.664062 C 223.058594 179.496094 222.886719 178.332031 222.65625 177.179688 C 222.429688 176.027344 222.144531 174.890625 221.800781 173.765625 C 221.460938 172.640625 221.066406 171.535156 220.617188 170.449219 C 220.167969 169.363281 219.664062 168.304688 219.109375 167.265625 C 218.554688 166.230469 217.953125 165.222656 217.300781 164.246094 C 216.648438 163.269531 215.949219 162.328125 215.203125 161.417969 C 214.457031 160.511719 213.667969 159.640625 212.839844 158.808594 C 212.007812 157.980469 211.136719 157.191406 210.230469 156.445312 C 209.320312 155.699219 208.378906 155 207.402344 154.347656 C 206.425781 153.695312 205.417969 153.089844 204.378906 152.539062 C 203.34375 151.984375 202.285156 151.480469 201.199219 151.03125 C 200.113281 150.582031 199.007812 150.1875 197.882812 149.84375 C 196.757812 149.503906 195.621094 149.21875 194.46875 148.988281 C 193.3125 148.761719 192.152344 148.589844 190.984375 148.472656 C 189.8125 148.359375 188.640625 148.300781 187.46875 148.300781 C 186.292969 148.300781 185.121094 148.359375 183.949219 148.472656 C 182.78125 148.589844 181.621094 148.761719 180.46875 148.988281 C 179.3125 149.21875 178.175781 149.503906 177.050781 149.84375 C 175.925781 150.1875 174.820312 150.582031 173.734375 151.03125 C 172.652344 151.480469 171.589844 151.984375 170.554688 152.539062 C 169.515625 153.089844 168.511719 153.695312 167.53125 154.347656 C 166.554688 155 165.613281 155.699219 164.703125 156.445312 C 163.796875 157.191406 162.925781 157.980469 162.09375 158.808594 C 161.265625 159.640625 160.476562 160.511719 159.730469 161.417969 C 158.984375 162.328125 158.285156 163.269531 157.632812 164.246094 C 156.980469 165.222656 156.378906 166.230469 155.824219 167.265625 C 155.269531 168.304688 154.765625 169.363281 154.316406 170.449219 C 153.867188 171.535156 153.472656 172.640625 153.132812 173.765625 C 152.789062 174.890625 152.503906 176.027344 152.277344 177.179688 C 152.046875 178.332031 151.875 179.496094 151.757812 180.664062 C 151.644531 181.832031 151.585938 183.003906 151.585938 184.179688 Z M 171.292969 187.75 L 181.84375 195.484375 L 205.671875 166.890625 L 210.265625 170.71875 L 184.636719 201.472656 C 184.394531 201.765625 184.105469 202.003906 183.769531 202.183594 C 183.4375 202.367188 183.082031 202.480469 182.703125 202.527344 C 182.324219 202.574219 181.953125 202.546875 181.585938 202.453125 C 181.21875 202.355469 180.878906 202.195312 180.574219 201.96875 L 167.757812 192.570312 Z M 171.292969 187.75 "/><g clip-rule="nonzero" clip-path="url(#a5dff41564)"><path style=" stroke:none;fill-rule:nonzero;fill:#002060;fill-opacity:1;" d="M 105.332031 209.445312 L 110.769531 209.445312 C 111.628906 209.460938 112.46875 209.609375 113.28125 209.890625 C 114.09375 210.171875 114.84375 210.574219 115.527344 211.097656 C 116.214844 211.621094 116.800781 212.234375 117.289062 212.945312 C 117.773438 213.65625 118.140625 214.425781 118.382812 215.25 C 119.632812 219.171875 121.207031 222.953125 123.109375 226.601562 C 123.527344 227.355469 123.8125 228.15625 123.972656 229.003906 C 124.132812 229.851562 124.15625 230.699219 124.042969 231.554688 C 123.929688 232.410156 123.683594 233.222656 123.308594 234 C 122.929688 234.773438 122.441406 235.472656 121.84375 236.089844 L 117.976562 239.945312 C 124.09375 249.007812 131.691406 256.582031 140.769531 262.679688 L 144.636719 258.824219 C 145.257812 258.222656 145.957031 257.738281 146.734375 257.363281 C 147.511719 256.988281 148.328125 256.742188 149.183594 256.628906 C 150.039062 256.515625 150.894531 256.539062 151.742188 256.699219 C 152.589844 256.855469 153.394531 257.144531 154.148438 257.558594 C 157.808594 259.457031 161.601562 261.03125 165.53125 262.277344 C 166.359375 262.515625 167.125 262.875 167.835938 263.359375 C 168.546875 263.847656 169.167969 264.429688 169.691406 265.113281 C 170.214844 265.796875 170.617188 266.546875 170.902344 267.359375 C 171.183594 268.171875 171.332031 269.007812 171.347656 269.867188 L 171.347656 275.289062 C 176.671875 276.34375 182.042969 276.871094 187.464844 276.871094 C 192.890625 276.871094 198.261719 276.34375 203.585938 275.289062 L 203.585938 269.867188 C 203.597656 269.007812 203.75 268.171875 204.03125 267.359375 C 204.316406 266.546875 204.71875 265.796875 205.242188 265.113281 C 205.765625 264.429688 206.382812 263.847656 207.09375 263.363281 C 207.804688 262.875 208.574219 262.515625 209.402344 262.277344 C 213.332031 261.03125 217.125 259.457031 220.785156 257.558594 C 221.539062 257.144531 222.34375 256.855469 223.191406 256.699219 C 224.039062 256.539062 224.890625 256.515625 225.75 256.628906 C 226.605469 256.742188 227.421875 256.988281 228.199219 257.363281 C 228.976562 257.738281 229.675781 258.222656 230.296875 258.824219 L 234.164062 262.679688 C 243.238281 256.582031 250.835938 249.007812 256.957031 239.945312 L 253.089844 236.089844 C 252.492188 235.472656 252.003906 234.773438 251.625 234 C 251.25 233.222656 251.003906 232.410156 250.890625 231.554688 C 250.777344 230.699219 250.800781 229.851562 250.960938 229.003906 C 251.121094 228.15625 251.40625 227.355469 251.824219 226.601562 C 253.726562 222.953125 255.300781 219.171875 256.550781 215.25 C 256.792969 214.425781 257.160156 213.65625 257.644531 212.945312 C 258.132812 212.234375 258.71875 211.621094 259.40625 211.097656 C 260.089844 210.574219 260.839844 210.171875 261.652344 209.890625 C 262.464844 209.609375 263.304688 209.460938 264.164062 209.445312 L 269.601562 209.445312 C 270.652344 204.140625 271.179688 198.78125 271.1875 193.371094 L 240.902344 193.371094 C 240.714844 194.992188 240.453125 196.605469 240.121094 198.203125 C 239.789062 199.800781 239.382812 201.378906 238.902344 202.941406 C 238.425781 204.503906 237.878906 206.039062 237.261719 207.550781 C 236.644531 209.0625 235.957031 210.539062 235.207031 211.988281 C 234.453125 213.4375 233.636719 214.851562 232.753906 216.226562 C 231.875 217.597656 230.933594 218.929688 229.929688 220.21875 C 228.929688 221.507812 227.871094 222.75 226.753906 223.941406 C 225.640625 225.132812 224.472656 226.273438 223.253906 227.359375 C 222.035156 228.445312 220.769531 229.472656 219.457031 230.445312 C 218.144531 231.414062 216.792969 232.324219 215.394531 233.171875 C 214 234.019531 212.570312 234.804688 211.101562 235.519531 C 209.636719 236.238281 208.140625 236.886719 206.613281 237.46875 C 205.089844 238.050781 203.539062 238.558594 201.96875 239 C 200.394531 239.441406 198.808594 239.808594 197.203125 240.101562 C 195.597656 240.398438 193.980469 240.621094 192.355469 240.769531 C 190.730469 240.917969 189.097656 240.992188 187.46875 240.992188 C 185.835938 240.992188 184.207031 240.917969 182.578125 240.769531 C 180.953125 240.621094 179.335938 240.398438 177.730469 240.101562 C 176.125 239.808594 174.539062 239.441406 172.964844 239 C 171.394531 238.558594 169.84375 238.050781 168.320312 237.46875 C 166.792969 236.886719 165.296875 236.238281 163.832031 235.519531 C 162.363281 234.804688 160.933594 234.019531 159.539062 233.171875 C 158.144531 232.324219 156.789062 231.414062 155.476562 230.445312 C 154.164062 229.472656 152.898438 228.445312 151.679688 227.359375 C 150.460938 226.273438 149.292969 225.132812 148.179688 223.941406 C 147.0625 222.75 146.003906 221.507812 145.003906 220.21875 C 144 218.929688 143.058594 217.597656 142.179688 216.226562 C 141.296875 214.851562 140.480469 213.4375 139.726562 211.988281 C 138.976562 210.539062 138.289062 209.0625 137.671875 207.550781 C 137.054688 206.039062 136.507812 204.503906 136.03125 202.941406 C 135.550781 201.378906 135.148438 199.800781 134.8125 198.203125 C 134.480469 196.605469 134.21875 194.992188 134.03125 193.371094 L 103.746094 193.371094 C 103.753906 198.78125 104.28125 204.140625 105.332031 209.445312 Z M 105.332031 209.445312 "/></g></g></svg>