<svg xmlns="http://www.w3.org/2000/svg" xmlns:xlink="http://www.w3.org/1999/xlink" width="500" zoomAndPan="magnify" viewBox="0 0 375 374.999991" height="500" preserveAspectRatio="xMidYMid meet" version="1.2"><defs><clipPath id="fa8c7c8324"><path d="M 73 90 L 272 90 L 272 234.132812 L 73 234.132812 Z M 73 90 "/></clipPath><clipPath id="5344706daa"><path d="M 160 212 L 185 212 L 185 234.132812 L 160 234.132812 Z M 160 212 "/></clipPath><clipPath id="56f9498b6a"><path d="M 12.882812 12.882812 L 362.117188 12.882812 L 362.117188 362.117188 L 12.882812 362.117188 Z M 12.882812 12.882812 "/></clipPath><clipPath id="321c1a2760"><path d="M 187.5 12.882812 C 91.0625 12.882812 12.882812 91.0625 12.882812 187.5 C 12.882812 283.9375 91.0625 362.117188 187.5 362.117188 C 283.9375 362.117188 362.117188 283.9375 362.117188 187.5 C 362.117188 91.0625 283.9375 12.882812 187.5 12.882812 Z M 187.5 12.882812 "/></clipPath><clipPath id="e6bb24b5fa"><path d="M 184.863281 178.703125 L 266.179688 178.703125 L 266.179688 260.023438 L 184.863281 260.023438 Z M 184.863281 178.703125 "/></clipPath><clipPath id="f0bc9c6dac"><path d="M 225.523438 178.703125 C 203.066406 178.703125 184.863281 196.90625 184.863281 219.363281 C 184.863281 241.816406 203.066406 260.023438 225.523438 260.023438 C 247.976562 260.023438 266.179688 241.816406 266.179688 219.363281 C 266.179688 196.90625 247.976562 178.703125 225.523438 178.703125 Z M 225.523438 178.703125 "/></clipPath><clipPath id="bf0baacffa"><path d="M 193.128906 186.070312 L 279 186.070312 L 279 272 L 193.128906 272 Z M 193.128906 186.070312 "/></clipPath></defs><g id="c0d48416a5"><g clip-rule="nonzero" clip-path="url(#fa8c7c8324)"><path style=" stroke:none;fill-rule:nonzero;fill:#ffffff;fill-opacity:1;" d="M 158.902344 98.203125 L 75.617188 242.457031 C 69.675781 252.75 77.105469 265.617188 88.992188 265.617188 L 255.558594 265.617188 C 267.445312 265.617188 274.875 252.75 268.929688 242.457031 L 185.648438 98.203125 C 179.707031 87.910156 164.847656 87.910156 158.902344 98.203125 Z M 158.902344 98.203125 "/></g><path style=" stroke:none;fill-rule:nonzero;fill:#ffffff;fill-opacity:1;" d="M 168.089844 203.125 L 176.460938 203.125 C 179.535156 203.125 182.121094 200.316406 182.121094 196.972656 L 184.875 153.300781 C 184.875 148.3125 181.566406 144.117188 177.628906 144.117188 L 166.917969 144.117188 C 162.980469 144.117188 159.675781 148.3125 159.675781 153.300781 L 162.429688 196.972656 C 162.429688 200.316406 165.011719 203.125 168.089844 203.125 Z M 168.089844 203.125 "/><g clip-rule="nonzero" clip-path="url(#5344706daa)"><path style=" stroke:none;fill-rule:nonzero;fill:#ffffff;fill-opacity:1;" d="M 172.773438 212.648438 C 164.796875 212.648438 160.0625 218.753906 160.0625 224.363281 C 160.0625 230.964844 164.796875 237.074219 172.773438 237.074219 C 179.753906 237.074219 184.488281 230.964844 184.488281 224.363281 C 184.488281 218.753906 179.753906 212.648438 172.773438 212.648438 Z M 172.773438 212.648438 "/></g><g clip-rule="nonzero" clip-path="url(#56f9498b6a)"><g clip-rule="nonzero" clip-path="url(#321c1a2760)"><path style=" stroke:none;fill-rule:nonzero;fill:#ffffff;fill-opacity:1;" d="M 12.882812 12.882812 L 362.117188 12.882812 L 362.117188 362.117188 L 12.882812 362.117188 Z M 12.882812 12.882812 "/></g></g><path style=" stroke:none;fill-rule:nonzero;fill:#002060;fill-opacity:1;" d="M 162.191406 116.09375 L 103.746094 217.320312 C 99.574219 224.546875 104.789062 233.574219 113.128906 233.574219 L 230.019531 233.574219 C 238.359375 233.574219 243.574219 224.546875 239.402344 217.320312 L 180.960938 116.09375 C 176.789062 108.867188 166.363281 108.867188 162.191406 116.09375 Z M 162.191406 116.09375 "/><path style=" stroke:none;fill-rule:nonzero;fill:#ffffff;fill-opacity:1;" d="M 168.636719 189.71875 L 174.511719 189.71875 C 176.671875 189.71875 178.484375 187.75 178.484375 185.40625 L 180.417969 154.757812 C 180.417969 151.253906 178.097656 148.3125 175.332031 148.3125 L 167.816406 148.3125 C 165.054688 148.3125 162.730469 151.253906 162.730469 154.757812 L 164.664062 185.40625 C 164.664062 187.75 166.480469 189.71875 168.636719 189.71875 Z M 168.636719 189.71875 "/><path style=" stroke:none;fill-rule:nonzero;fill:#ffffff;fill-opacity:1;" d="M 171.925781 196.402344 C 166.328125 196.402344 163.003906 200.6875 163.003906 204.625 C 163.003906 209.257812 166.328125 213.542969 171.925781 213.542969 C 176.820312 213.542969 180.144531 209.257812 180.144531 204.625 C 180.144531 200.6875 176.820312 196.402344 171.925781 196.402344 Z M 171.925781 196.402344 "/><g clip-rule="nonzero" clip-path="url(#e6bb24b5fa)"><g clip-rule="nonzero" clip-path="url(#f0bc9c6dac)"><path style=" stroke:none;fill-rule:nonzero;fill:#ffffff;fill-opacity:1;" d="M 184.863281 178.703125 L 266.179688 178.703125 L 266.179688 260.023438 L 184.863281 260.023438 Z M 184.863281 178.703125 "/></g></g><g clip-rule="nonzero" clip-path="url(#bf0baacffa)"><path style=" stroke:none;fill-rule:evenodd;fill:#002060;fill-opacity:1;" d="M 248.566406 249.140625 L 269.691406 270.257812 C 271.785156 272.347656 275.179688 272.347656 277.269531 270.257812 C 279.363281 268.164062 279.363281 264.765625 277.269531 262.675781 L 256.160156 241.574219 C 260.40625 235.796875 262.917969 228.664062 262.917969 220.945312 C 262.917969 201.699219 247.289062 186.070312 228.039062 186.070312 C 208.789062 186.070312 193.160156 201.699219 193.160156 220.945312 C 193.160156 240.195312 208.789062 255.824219 228.039062 255.824219 C 235.710938 255.824219 242.804688 253.34375 248.566406 249.140625 Z M 228.039062 196.789062 C 241.371094 196.789062 252.195312 207.613281 252.195312 220.945312 C 252.195312 234.28125 241.371094 245.105469 228.039062 245.105469 C 214.707031 245.105469 203.882812 234.28125 203.882812 220.945312 C 203.882812 207.613281 214.707031 196.789062 228.039062 196.789062 Z M 228.039062 196.789062 "/></g></g></svg>