<svg xmlns="http://www.w3.org/2000/svg" xmlns:xlink="http://www.w3.org/1999/xlink" width="500" zoomAndPan="magnify" viewBox="0 0 375 374.999991" height="500" preserveAspectRatio="xMidYMid meet" version="1.2"><defs><clipPath id="03ab49bcec"><path d="M 12.882812 12.882812 L 362.117188 12.882812 L 362.117188 362.117188 L 12.882812 362.117188 Z M 12.882812 12.882812 "/></clipPath><clipPath id="3ac26efe89"><path d="M 187.5 12.882812 C 91.0625 12.882812 12.882812 91.0625 12.882812 187.5 C 12.882812 283.9375 91.0625 362.117188 187.5 362.117188 C 283.9375 362.117188 362.117188 283.9375 362.117188 187.5 C 362.117188 91.0625 283.9375 12.882812 187.5 12.882812 Z M 187.5 12.882812 "/></clipPath><clipPath id="e40d50136d"><path d="M 102.761719 109.433594 L 267 109.433594 L 267 265.433594 L 102.761719 265.433594 Z M 102.761719 109.433594 "/></clipPath></defs><g id="69e65f36f7"><g clip-rule="nonzero" clip-path="url(#03ab49bcec)"><g clip-rule="nonzero" clip-path="url(#3ac26efe89)"><path style=" stroke:none;fill-rule:nonzero;fill:#002060;fill-opacity:1;" d="M 12.882812 12.882812 L 362.117188 12.882812 L 362.117188 362.117188 L 12.882812 362.117188 Z M 12.882812 12.882812 "/></g></g><g clip-rule="nonzero" clip-path="url(#e40d50136d)"><path style=" stroke:none;fill-rule:nonzero;fill:#ffffff;fill-opacity:1;" d="M 264.375 192.132812 L 253.929688 165.023438 C 251.144531 158.691406 246.6875 156.382812 240.445312 158.230469 C 238.90625 158.683594 235.851562 159.566406 233.554688 163.132812 C 233.050781 162.917969 232.523438 162.722656 231.96875 162.558594 L 231.96875 113.726562 C 231.96875 111.371094 230.058594 109.457031 227.695312 109.457031 L 121.582031 109.457031 C 119.226562 109.457031 117.3125 111.371094 117.3125 113.726562 L 117.3125 240.324219 L 107.042969 240.304688 C 107.039062 240.304688 107.039062 240.304688 107.035156 240.304688 C 106.9375 240.304688 106.855469 240.355469 106.761719 240.363281 C 106.671875 240.367188 106.59375 240.332031 106.503906 240.34375 C 106.3125 240.367188 106.160156 240.472656 105.980469 240.519531 C 105.6875 240.597656 105.40625 240.667969 105.144531 240.800781 C 104.894531 240.921875 104.6875 241.085938 104.472656 241.25 C 104.257812 241.417969 104.050781 241.574219 103.871094 241.773438 C 103.683594 241.988281 103.546875 242.222656 103.402344 242.46875 C 103.273438 242.695312 103.140625 242.910156 103.054688 243.160156 C 102.953125 243.441406 102.917969 243.730469 102.875 244.03125 C 102.851562 244.214844 102.765625 244.378906 102.765625 244.574219 C 102.765625 244.660156 102.8125 244.734375 102.816406 244.824219 C 102.824219 244.921875 102.78125 245.011719 102.796875 245.113281 C 104.238281 256.664062 114.121094 265.378906 125.777344 265.378906 L 211.316406 265.378906 C 222.703125 265.378906 231.96875 256.113281 231.96875 244.726562 L 231.96875 236.285156 C 232.378906 236.300781 232.761719 236.40625 233.175781 236.40625 C 240.457031 236.40625 248.296875 233.882812 255.261719 226.589844 C 272.105469 208.960938 264.574219 192.523438 264.375 192.132812 Z M 112.777344 248.859375 L 191.113281 248.992188 C 191.722656 251.890625 193 254.519531 194.6875 256.832031 L 125.777344 256.832031 C 120.160156 256.832031 115.214844 253.621094 112.777344 248.859375 Z M 223.421875 244.726562 C 223.421875 251.40625 217.996094 256.832031 211.316406 256.832031 C 204.640625 256.832031 199.210938 251.40625 199.210938 244.726562 C 199.210938 242.371094 197.300781 240.460938 194.945312 240.453125 L 125.851562 240.339844 L 125.851562 117.996094 L 223.421875 117.996094 L 223.421875 163.476562 C 222.414062 164.070312 221.378906 164.890625 220.390625 166.054688 C 219.234375 165.417969 217.875 164.941406 216.308594 164.820312 C 214.03125 164.636719 211.832031 165.25 209.699219 166.621094 L 202.207031 153.660156 L 203.507812 153.660156 C 205.871094 153.660156 207.78125 151.75 207.78125 149.390625 C 207.78125 147.035156 205.871094 145.121094 203.507812 145.121094 L 197.105469 145.121094 C 197.097656 145.121094 197.09375 145.125 197.085938 145.125 C 195.453125 143.027344 193.21875 141.515625 190.582031 140.871094 C 187.390625 140.09375 184.128906 140.636719 181.367188 142.402344 C 180.195312 143.152344 179.222656 144.085938 178.414062 145.121094 L 141.9375 145.121094 C 139.578125 145.121094 137.667969 147.035156 137.667969 149.390625 C 137.667969 151.75 139.578125 153.660156 141.9375 153.660156 L 175.949219 153.660156 C 176.101562 155.070312 176.5 156.476562 177.179688 157.816406 L 179.394531 162.152344 L 141.9375 162.152344 C 139.578125 162.152344 137.667969 164.066406 137.667969 166.421875 C 137.667969 168.78125 139.578125 170.691406 141.9375 170.691406 L 183.753906 170.691406 L 192.8125 188.445312 C 189.636719 186.910156 185.855469 186.96875 182.71875 188.640625 C 179.304688 190.464844 177.113281 193.859375 176.851562 197.71875 C 176.59375 201.582031 178.3125 205.234375 181.445312 207.496094 L 211.425781 229.113281 C 214.269531 231.238281 218.535156 233.40625 223.421875 234.839844 Z M 249.09375 220.6875 C 234.886719 235.558594 217.277344 222.8125 216.480469 222.226562 L 186.445312 200.570312 C 185.394531 199.8125 185.34375 198.722656 185.375 198.289062 C 185.402344 197.859375 185.59375 196.789062 186.742188 196.175781 C 187.121094 195.96875 187.539062 195.871094 187.957031 195.871094 C 188.421875 195.871094 188.882812 195.996094 189.292969 196.238281 L 201.125 203.289062 C 202.757812 204.261719 204.84375 204.03125 206.230469 202.738281 C 207.617188 201.433594 207.980469 199.375 207.117188 197.675781 L 184.789062 153.933594 C 184.003906 152.394531 184.511719 150.53125 185.964844 149.601562 C 186.742188 149.101562 187.652344 148.945312 188.558594 149.167969 C 189.453125 149.386719 190.199219 149.945312 190.65625 150.742188 L 204.953125 175.472656 C 205.652344 176.683594 206.902344 177.476562 208.296875 177.589844 C 209.757812 177.707031 211.054688 177.125 211.945312 176.046875 C 213.640625 173.984375 215.089844 173.285156 215.648438 173.335938 C 216.476562 173.386719 217.433594 174.46875 217.707031 174.902344 C 218.535156 176.292969 220.011719 177.136719 221.699219 176.976562 C 223.316406 176.855469 224.71875 175.832031 225.335938 174.328125 C 226.203125 172.199219 227.253906 170.855469 228.214844 170.640625 C 229.703125 170.339844 231.835938 171.820312 232.59375 172.519531 C 233.695312 173.574219 235.28125 173.957031 236.75 173.53125 C 238.21875 173.097656 239.339844 171.914062 239.695312 170.425781 C 240.488281 167.113281 241.523438 166.8125 243.054688 166.363281 C 244.59375 165.925781 244.941406 165.800781 246.039062 168.277344 L 256.515625 195.460938 C 256.734375 195.941406 261.71875 207.472656 249.09375 220.6875 Z M 249.09375 220.6875 "/></g><path style=" stroke:none;fill-rule:nonzero;fill:#ffffff;fill-opacity:1;" d="M 141.9375 189.324219 L 175.617188 189.324219 C 177.976562 189.324219 179.886719 187.414062 179.886719 185.054688 C 179.886719 182.699219 177.976562 180.785156 175.617188 180.785156 L 141.9375 180.785156 C 139.578125 180.785156 137.667969 182.699219 137.667969 185.054688 C 137.667969 187.414062 139.578125 189.324219 141.9375 189.324219 Z M 141.9375 189.324219 "/><path style=" stroke:none;fill-rule:nonzero;fill:#ffffff;fill-opacity:1;" d="M 141.9375 207.964844 L 169.066406 207.964844 C 171.421875 207.964844 173.335938 206.054688 173.335938 203.691406 C 173.335938 201.332031 171.421875 199.421875 169.066406 199.421875 L 141.9375 199.421875 C 139.578125 199.421875 137.667969 201.332031 137.667969 203.691406 C 137.667969 206.054688 139.578125 207.964844 141.9375 207.964844 Z M 141.9375 207.964844 "/><path style=" stroke:none;fill-rule:nonzero;fill:#ffffff;fill-opacity:1;" d="M 182.933594 218.050781 L 141.9375 218.050781 C 139.578125 218.050781 137.667969 219.960938 137.667969 222.324219 C 137.667969 224.683594 139.578125 226.597656 141.9375 226.597656 L 182.933594 226.597656 C 185.292969 226.597656 187.203125 224.683594 187.203125 222.324219 C 187.203125 219.960938 185.292969 218.050781 182.933594 218.050781 Z M 182.933594 218.050781 "/></g></svg>