<svg xmlns="http://www.w3.org/2000/svg" xmlns:xlink="http://www.w3.org/1999/xlink" width="500" zoomAndPan="magnify" viewBox="0 0 375 374.999991" height="500" preserveAspectRatio="xMidYMid meet" version="1.2"><defs><clipPath id="7e4c459a60"><path d="M 12.882812 12.882812 L 362.117188 12.882812 L 362.117188 362.117188 L 12.882812 362.117188 Z M 12.882812 12.882812 "/></clipPath><clipPath id="7c440af400"><path d="M 187.5 12.882812 C 91.0625 12.882812 12.882812 91.0625 12.882812 187.5 C 12.882812 283.9375 91.0625 362.117188 187.5 362.117188 C 283.9375 362.117188 362.117188 283.9375 362.117188 187.5 C 362.117188 91.0625 283.9375 12.882812 187.5 12.882812 Z M 187.5 12.882812 "/></clipPath><clipPath id="1c0653fe92"><path d="M 109.648438 217 L 265.648438 217 L 265.648438 283.375 L 109.648438 283.375 Z M 109.648438 217 "/></clipPath><clipPath id="25fb69159c"><path d="M 126 103.375 L 249 103.375 L 249 243 L 126 243 Z M 126 103.375 "/></clipPath><clipPath id="01a28320d2"><path d="M 148.277344 131.25 L 231.6875 131.25 L 231.6875 201.492188 L 148.277344 201.492188 Z M 148.277344 131.25 "/></clipPath><clipPath id="4d3854e4ca"><path d="M 189.960938 131.25 C 166.941406 131.25 148.277344 146.972656 148.277344 166.371094 C 148.277344 185.765625 166.941406 201.492188 189.960938 201.492188 C 212.984375 201.492188 231.648438 185.765625 231.648438 166.371094 C 231.648438 146.972656 212.984375 131.25 189.960938 131.25 Z M 189.960938 131.25 "/></clipPath><clipPath id="138d39aa31"><path d="M 160 151 L 215 151 L 215 193.417969 L 160 193.417969 Z M 160 151 "/></clipPath></defs><g id="fe4e2cb4cd"><g clip-rule="nonzero" clip-path="url(#7e4c459a60)"><g clip-rule="nonzero" clip-path="url(#7c440af400)"><path style=" stroke:none;fill-rule:nonzero;fill:#ffffff;fill-opacity:1;" d="M 12.882812 12.882812 L 362.117188 12.882812 L 362.117188 362.117188 L 12.882812 362.117188 Z M 12.882812 12.882812 "/></g></g><g clip-rule="nonzero" clip-path="url(#1c0653fe92)"><path style=" stroke:none;fill-rule:evenodd;fill:#002060;fill-opacity:1;" d="M 239.726562 217.9375 L 265.152344 261.976562 C 265.296875 262.230469 265.277344 262.554688 265.097656 262.789062 C 264.917969 263.023438 264.609375 263.132812 264.320312 263.050781 C 258.1875 261.40625 237.730469 255.925781 237.730469 255.925781 C 237.730469 255.925781 232.246094 276.382812 230.601562 282.515625 C 230.527344 282.804688 230.285156 283.015625 229.984375 283.058594 C 229.6875 283.09375 229.398438 282.949219 229.253906 282.699219 L 205.574219 241.679688 C 209.980469 239.726562 214.773438 237.671875 219.105469 235.988281 C 228.058594 232.507812 235.269531 226.03125 239.726562 217.9375 Z M 135.277344 217.9375 L 109.84375 261.984375 C 109.699219 262.238281 109.714844 262.5625 109.898438 262.800781 C 110.078125 263.035156 110.386719 263.144531 110.667969 263.0625 C 116.800781 261.414062 137.257812 255.933594 137.257812 255.933594 C 137.257812 255.933594 142.738281 276.394531 144.386719 282.527344 C 144.46875 282.816406 144.703125 283.023438 145 283.070312 C 145.300781 283.105469 145.589844 282.960938 145.734375 282.707031 L 169.394531 241.722656 C 164.773438 239.671875 159.871094 237.554688 155.890625 236 C 146.945312 232.507812 139.738281 226.03125 135.277344 217.9375 Z M 135.277344 217.9375 "/></g><path style=" stroke:none;fill-rule:evenodd;fill:#002060;fill-opacity:1;" d="M 154.144531 177.695312 C 156.1875 178.980469 158.007812 180.871094 159.90625 183.132812 C 162.304688 185.988281 164.546875 189.542969 166.773438 193.757812 C 167.695312 195.214844 169.257812 196.136719 170.96875 196.230469 C 172.6875 196.328125 174.332031 195.585938 175.417969 194.238281 C 178.757812 190.394531 182.175781 186.941406 185.351562 183.519531 C 190.648438 177.824219 195.84375 171.90625 200.941406 167.621094 C 211.371094 158.847656 212.9375 158.394531 217.59375 155.363281 C 220.816406 153.265625 224.351562 149.574219 221.917969 145.214844 C 220.816406 143.234375 215.675781 140.414062 208.882812 145.46875 C 202.941406 149.890625 198.988281 152.722656 193.824219 157.542969 C 189.328125 161.742188 185.023438 166.734375 179.46875 172.476562 C 177.355469 174.664062 173.074219 179.660156 171.113281 182.210938 C 169.386719 180.253906 167.65625 178.519531 165.894531 177.054688 C 162.945312 174.59375 160.070312 172.757812 157.128906 171.636719 C 155.476562 170.8125 153.457031 171.492188 152.632812 173.164062 C 151.800781 174.847656 152.480469 176.871094 154.144531 177.695312 Z M 154.144531 177.695312 "/><g clip-rule="nonzero" clip-path="url(#25fb69159c)"><path style=" stroke:none;fill-rule:evenodd;fill:#002060;fill-opacity:1;" d="M 187.503906 103.445312 C 185.8125 103.382812 184.148438 103.925781 182.816406 104.992188 C 182.816406 104.992188 182.816406 104.992188 182.808594 105.003906 C 170.832031 114.617188 157.527344 119.300781 135.3125 118.234375 C 135.304688 118.234375 135.296875 118.234375 135.285156 118.234375 C 132.773438 118.125 130.320312 119.085938 128.558594 120.886719 C 126.792969 122.683594 125.878906 125.152344 126.042969 127.667969 L 130.375 194.328125 C 131.386719 209.914062 141.335938 223.5 155.890625 229.160156 C 165.0625 232.734375 179.128906 239.292969 183.324219 241.261719 C 185.984375 242.511719 189.066406 242.503906 191.71875 241.234375 L 191.699219 241.246094 C 195.6875 239.34375 208.710938 233.214844 219.105469 229.171875 C 233.660156 223.5 243.609375 209.921875 244.621094 194.339844 C 246.113281 171.355469 248.367188 136.703125 248.953125 127.679688 C 249.117188 125.164062 248.203125 122.703125 246.4375 120.902344 C 244.675781 119.101562 242.222656 118.136719 239.710938 118.253906 C 239.699219 118.253906 239.691406 118.253906 239.683594 118.253906 C 217.46875 119.320312 204.164062 114.636719 192.1875 105.011719 C 190.867188 103.925781 189.195312 103.375 187.503906 103.445312 Z M 187.503906 118.757812 C 199.820312 127.570312 213.769531 132.398438 234.824219 132.191406 L 230.84375 193.433594 C 230.175781 203.664062 223.644531 212.582031 214.101562 216.300781 C 204.5625 220.015625 192.867188 225.425781 187.484375 227.96875 C 181.832031 225.324219 169.359375 219.589844 160.902344 216.300781 C 151.351562 212.582031 144.820312 203.664062 144.160156 193.433594 L 140.179688 132.191406 C 161.226562 132.410156 175.183594 127.578125 187.503906 118.757812 Z M 187.503906 118.757812 "/></g><g clip-rule="nonzero" clip-path="url(#01a28320d2)"><g clip-rule="nonzero" clip-path="url(#4d3854e4ca)"><path style=" stroke:none;fill-rule:nonzero;fill:#ffffff;fill-opacity:1;" d="M 148.277344 131.25 L 231.6875 131.25 L 231.6875 201.492188 L 148.277344 201.492188 Z M 148.277344 131.25 "/></g></g><g clip-rule="nonzero" clip-path="url(#138d39aa31)"><path style=" stroke:none;fill-rule:nonzero;fill:#002060;fill-opacity:1;" d="M 213.402344 152.40625 C 211.664062 150.667969 208.84375 150.667969 207.105469 152.40625 L 178.863281 180.652344 L 167.890625 169.675781 C 166.152344 167.9375 163.332031 167.9375 161.59375 169.675781 C 159.855469 171.414062 159.855469 174.234375 161.59375 175.972656 L 178.863281 193.242188 L 213.402344 158.703125 C 215.140625 156.964844 215.140625 154.144531 213.402344 152.40625 "/></g></g></svg>