<svg xmlns="http://www.w3.org/2000/svg" xmlns:xlink="http://www.w3.org/1999/xlink" width="500" zoomAndPan="magnify" viewBox="0 0 375 374.999991" height="500" preserveAspectRatio="xMidYMid meet" version="1.0"><defs><clipPath id="4a112789c6"><path d="M 12.882812 12.882812 L 362.117188 12.882812 L 362.117188 362.117188 L 12.882812 362.117188 Z M 12.882812 12.882812 " clip-rule="nonzero"/></clipPath><clipPath id="dad6f5ba2c"><path d="M 187.5 12.882812 C 91.0625 12.882812 12.882812 91.0625 12.882812 187.5 C 12.882812 283.9375 91.0625 362.117188 187.5 362.117188 C 283.9375 362.117188 362.117188 283.9375 362.117188 187.5 C 362.117188 91.0625 283.9375 12.882812 187.5 12.882812 Z M 187.5 12.882812 " clip-rule="nonzero"/></clipPath><clipPath id="4ff2c83e0d"><path d="M 0.882812 0.882812 L 350.117188 0.882812 L 350.117188 350.117188 L 0.882812 350.117188 Z M 0.882812 0.882812 " clip-rule="nonzero"/></clipPath><clipPath id="65cf8d608d"><path d="M 175.5 0.882812 C 79.0625 0.882812 0.882812 79.0625 0.882812 175.5 C 0.882812 271.9375 79.0625 350.117188 175.5 350.117188 C 271.9375 350.117188 350.117188 271.9375 350.117188 175.5 C 350.117188 79.0625 271.9375 0.882812 175.5 0.882812 Z M 175.5 0.882812 " clip-rule="nonzero"/></clipPath><clipPath id="630501ae7c"><rect x="0" width="351" y="0" height="351"/></clipPath><clipPath id="ab29697f24"><path d="M 111.953125 96.886719 L 262.703125 96.886719 L 262.703125 278.386719 L 111.953125 278.386719 Z M 111.953125 96.886719 " clip-rule="nonzero"/></clipPath></defs><g clip-path="url(#4a112789c6)"><g clip-path="url(#dad6f5ba2c)"><g transform="matrix(1, 0, 0, 1, 12, 12)"><g clip-path="url(#630501ae7c)"><g clip-path="url(#4ff2c83e0d)"><g clip-path="url(#65cf8d608d)"><path fill="#002060" d="M 0.882812 0.882812 L 350.117188 0.882812 L 350.117188 350.117188 L 0.882812 350.117188 Z M 0.882812 0.882812 " fill-opacity="1" fill-rule="nonzero"/></g></g></g></g></g></g><g clip-path="url(#ab29697f24)"><path fill="#ffffff" d="M 134.640625 96.886719 C 122.195312 96.886719 111.988281 107.09375 111.988281 119.539062 L 111.988281 255.453125 C 111.988281 267.902344 122.195312 278.105469 134.640625 278.105469 L 240.351562 278.105469 C 252.800781 278.105469 263.003906 267.902344 263.003906 255.453125 L 263.003906 119.539062 C 263.003906 107.09375 252.800781 96.886719 240.351562 96.886719 Z M 134.640625 111.988281 L 240.351562 111.988281 C 244.597656 111.988281 247.902344 115.292969 247.902344 119.539062 L 247.902344 255.453125 C 247.902344 259.703125 244.597656 263.003906 240.351562 263.003906 L 134.640625 263.003906 C 130.394531 263.003906 127.089844 259.703125 127.089844 255.453125 L 127.089844 119.539062 C 127.089844 115.292969 130.394531 111.988281 134.640625 111.988281 Z M 142.191406 127.089844 L 142.191406 142.191406 L 232.800781 142.191406 L 232.800781 127.089844 Z M 142.191406 157.292969 L 142.191406 172.394531 L 232.800781 172.394531 L 232.800781 157.292969 Z M 149.742188 187.496094 C 145.554688 187.496094 142.191406 190.859375 142.191406 195.046875 L 142.191406 240.351562 C 142.191406 244.539062 145.554688 247.902344 149.742188 247.902344 L 225.25 247.902344 C 229.4375 247.902344 232.800781 244.539062 232.800781 240.351562 L 232.800781 195.046875 C 232.800781 190.859375 229.4375 187.496094 225.25 187.496094 Z M 157.292969 202.597656 L 217.699219 202.597656 L 217.699219 232.800781 L 157.292969 232.800781 Z M 157.292969 202.597656 " fill-opacity="1" fill-rule="nonzero"/></g></svg>