<svg xmlns="http://www.w3.org/2000/svg" xmlns:xlink="http://www.w3.org/1999/xlink" width="500" zoomAndPan="magnify" viewBox="0 0 375 374.999991" height="500" preserveAspectRatio="xMidYMid meet" version="1.2"><defs><clipPath id="f24489dd3a"><path d="M 12.882812 12.882812 L 362.117188 12.882812 L 362.117188 362.117188 L 12.882812 362.117188 Z M 12.882812 12.882812 "/></clipPath><clipPath id="28ca723164"><path d="M 187.5 12.882812 C 91.0625 12.882812 12.882812 91.0625 12.882812 187.5 C 12.882812 283.9375 91.0625 362.117188 187.5 362.117188 C 283.9375 362.117188 362.117188 283.9375 362.117188 187.5 C 362.117188 91.0625 283.9375 12.882812 187.5 12.882812 Z M 187.5 12.882812 "/></clipPath><clipPath id="c91b4c6e53"><path d="M 118.121094 155.046875 L 166.207031 155.046875 L 166.207031 203.132812 L 118.121094 203.132812 Z M 118.121094 155.046875 "/></clipPath><clipPath id="fc5754dc7a"><path d="M 142.164062 155.046875 C 128.886719 155.046875 118.121094 165.8125 118.121094 179.089844 C 118.121094 192.367188 128.886719 203.132812 142.164062 203.132812 C 155.441406 203.132812 166.207031 192.367188 166.207031 179.089844 C 166.207031 165.8125 155.441406 155.046875 142.164062 155.046875 Z M 142.164062 155.046875 "/></clipPath><clipPath id="bddbff0555"><path d="M 119.976562 98 L 254.976562 98 L 254.976562 259 L 119.976562 259 Z M 119.976562 98 "/></clipPath><clipPath id="c729b08a50"><path d="M 139.898438 140.203125 L 235.101562 140.203125 L 235.101562 155.046875 L 139.898438 155.046875 Z M 139.898438 140.203125 "/></clipPath><clipPath id="989a3d4ce2"><path d="M 163.730469 143.582031 L 196.707031 143.582031 L 196.707031 158.320312 L 163.730469 158.320312 Z M 163.730469 143.582031 "/></clipPath><clipPath id="0e51969c5b"><path d="M 152.480469 121.90625 L 207.953125 121.90625 L 207.953125 149.28125 L 152.480469 149.28125 Z M 152.480469 121.90625 "/></clipPath></defs><g id="90e52f2f62"><g clip-rule="nonzero" clip-path="url(#f24489dd3a)"><g clip-rule="nonzero" clip-path="url(#28ca723164)"><path style=" stroke:none;fill-rule:nonzero;fill:#002060;fill-opacity:1;" d="M 12.882812 12.882812 L 362.117188 12.882812 L 362.117188 362.117188 L 12.882812 362.117188 Z M 12.882812 12.882812 "/></g></g><g clip-rule="nonzero" clip-path="url(#c91b4c6e53)"><g clip-rule="nonzero" clip-path="url(#fc5754dc7a)"><path style=" stroke:none;fill-rule:nonzero;fill:#002060;fill-opacity:1;" d="M 118.121094 155.046875 L 166.207031 155.046875 L 166.207031 203.132812 L 118.121094 203.132812 Z M 118.121094 155.046875 "/></g></g><path style=" stroke:none;fill-rule:nonzero;fill:#ffffff;fill-opacity:1;" d="M 187.472656 208.304688 C 168.886719 208.304688 153.703125 223.441406 153.703125 242.027344 C 153.703125 260.617188 168.886719 275.777344 187.472656 275.777344 C 206.0625 275.777344 221.222656 260.617188 221.222656 242.027344 C 221.222656 223.441406 206.0625 208.304688 187.472656 208.304688 Z M 187.386719 223.507812 C 188.417969 223.484375 189.472656 223.878906 190.394531 224.714844 L 201.535156 235.460938 C 203.226562 237.085938 203.269531 239.742188 201.644531 241.4375 C 200.019531 243.082031 197.359375 243.128906 195.691406 241.523438 L 191.691406 237.679688 L 191.691406 256.308594 C 191.714844 258.660156 189.800781 260.550781 187.472656 260.550781 C 185.144531 260.550781 183.253906 258.640625 183.253906 256.308594 L 183.253906 237.679688 L 179.277344 241.523438 C 177.609375 243.148438 174.925781 243.105469 173.300781 241.4375 C 171.675781 239.742188 171.71875 237.085938 173.390625 235.460938 L 184.550781 224.714844 C 185.363281 223.945312 186.375 223.527344 187.386719 223.507812 Z M 187.386719 223.507812 "/><g clip-rule="nonzero" clip-path="url(#bddbff0555)"><path style=" stroke:none;fill-rule:nonzero;fill:#ffffff;fill-opacity:1;" d="M 130.523438 98.601562 C 124.746094 98.601562 119.976562 103.367188 119.976562 109.148438 L 119.976562 248.355469 C 119.976562 254.136719 124.746094 258.902344 130.523438 258.902344 L 145.289062 258.902344 C 147.617188 258.902344 149.507812 257.011719 149.507812 254.683594 C 149.507812 252.355469 147.617188 250.464844 145.289062 250.464844 L 130.523438 250.464844 C 129.269531 250.464844 128.414062 249.609375 128.414062 248.355469 L 128.414062 109.148438 C 128.414062 107.894531 129.269531 107.039062 130.523438 107.039062 L 217.003906 107.039062 L 217.003906 130.238281 C 217.003906 136.019531 221.769531 140.785156 227.546875 140.785156 L 246.53125 140.785156 L 246.53125 248.355469 C 246.53125 249.609375 245.675781 250.464844 244.421875 250.464844 L 229.65625 250.464844 C 227.328125 250.464844 225.4375 252.355469 225.4375 254.683594 C 225.4375 257.011719 227.328125 258.902344 229.65625 258.902344 L 244.421875 258.902344 C 250.199219 258.902344 254.96875 254.136719 254.96875 248.355469 L 254.96875 135.292969 C 254.96875 134.214844 254.574219 133.207031 253.847656 132.414062 C 241.894531 119.582031 233.480469 110.574219 223.484375 99.941406 C 222.691406 99.085938 221.574219 98.601562 220.40625 98.601562 Z M 130.523438 98.601562 "/></g><path style=" stroke:none;fill-rule:nonzero;fill:#ffffff;fill-opacity:1;" d="M 153.484375 145.027344 C 151.175781 145.027344 149.285156 146.894531 149.285156 149.222656 C 149.285156 151.550781 151.175781 153.417969 153.484375 153.417969 L 200.152344 153.417969 C 202.457031 153.417969 204.347656 151.550781 204.347656 149.222656 C 204.347656 146.894531 202.457031 145.027344 200.152344 145.027344 Z M 153.484375 145.027344 "/><path style=" stroke:none;fill-rule:nonzero;fill:#ffffff;fill-opacity:1;" d="M 153.484375 166.097656 C 151.175781 166.117188 149.285156 167.984375 149.285156 170.316406 C 149.285156 172.644531 151.15625 174.535156 153.484375 174.535156 L 221.441406 174.535156 C 223.792969 174.554688 225.679688 172.644531 225.679688 170.316406 C 225.660156 167.964844 223.769531 166.097656 221.441406 166.097656 Z M 153.484375 166.097656 "/><path style=" stroke:none;fill-rule:nonzero;fill:#ffffff;fill-opacity:1;" d="M 153.484375 187.1875 C 151.15625 187.1875 149.285156 189.078125 149.285156 191.40625 C 149.285156 193.734375 151.175781 195.605469 153.484375 195.625 L 200.152344 195.625 C 202.457031 195.605469 204.347656 193.734375 204.347656 191.40625 C 204.347656 189.078125 202.480469 187.1875 200.152344 187.1875 Z M 153.484375 187.1875 "/><g clip-rule="nonzero" clip-path="url(#c729b08a50)"><path style=" stroke:none;fill-rule:nonzero;fill:#002060;fill-opacity:1;" d="M 139.898438 140.203125 L 235.109375 140.203125 L 235.109375 155.046875 L 139.898438 155.046875 Z M 139.898438 140.203125 "/></g><g clip-rule="nonzero" clip-path="url(#989a3d4ce2)"><path style=" stroke:none;fill-rule:nonzero;fill:#ffffff;fill-opacity:1;" d="M 181.980469 150.691406 C 180.867188 151.230469 179.570312 151.230469 178.457031 150.691406 L 163.734375 143.59375 L 163.734375 151.980469 C 163.734375 155.480469 171.113281 158.320312 180.21875 158.320312 C 189.324219 158.320312 196.703125 155.480469 196.703125 151.980469 L 196.703125 143.59375 L 181.980469 150.691406 "/></g><g clip-rule="nonzero" clip-path="url(#0e51969c5b)"><path style=" stroke:none;fill-rule:nonzero;fill:#ffffff;fill-opacity:1;" d="M 207.277344 134.507812 L 181.980469 122.308594 C 181.421875 122.039062 180.820312 121.902344 180.21875 121.902344 C 179.613281 121.902344 179.011719 122.039062 178.457031 122.308594 L 153.15625 134.507812 C 152.257812 134.941406 152.257812 136.222656 153.15625 136.65625 L 178.457031 148.855469 C 179.011719 149.125 179.613281 149.257812 180.21875 149.257812 C 180.820312 149.257812 181.421875 149.125 181.980469 148.855469 L 207.277344 136.65625 C 208.179688 136.222656 208.179688 134.941406 207.277344 134.507812 "/></g><path style=" stroke:none;fill-rule:nonzero;fill:#ffffff;fill-opacity:1;" d="M 202.679688 145.871094 C 203.1875 145.621094 203.535156 145.097656 203.535156 144.492188 C 203.535156 143.800781 203.074219 143.210938 202.441406 143.023438 L 202.441406 139.050781 C 202.441406 139.03125 202.4375 139.011719 202.433594 138.992188 L 201.527344 139.429688 C 201.539062 139.46875 201.546875 139.511719 201.546875 139.554688 L 201.542969 143.023438 C 200.917969 143.21875 200.460938 143.800781 200.460938 144.492188 C 200.460938 145.132812 200.847656 145.679688 201.402344 145.910156 L 199.789062 152.640625 C 199.679688 153.089844 200.023438 153.523438 200.484375 153.523438 L 203.605469 153.523438 C 204.070312 153.523438 204.410156 153.089844 204.304688 152.640625 L 202.679688 145.871094 "/></g></svg>