<svg xmlns="http://www.w3.org/2000/svg" xmlns:xlink="http://www.w3.org/1999/xlink" width="500" zoomAndPan="magnify" viewBox="0 0 375 374.999991" height="500" preserveAspectRatio="xMidYMid meet" version="1.2"><defs><clipPath id="b9cf63dc60"><path d="M 12.882812 12.882812 L 362.117188 12.882812 L 362.117188 362.117188 L 12.882812 362.117188 Z M 12.882812 12.882812 "/></clipPath><clipPath id="598b44bbd1"><path d="M 187.5 12.882812 C 91.0625 12.882812 12.882812 91.0625 12.882812 187.5 C 12.882812 283.9375 91.0625 362.117188 187.5 362.117188 C 283.9375 362.117188 362.117188 283.9375 362.117188 187.5 C 362.117188 91.0625 283.9375 12.882812 187.5 12.882812 Z M 187.5 12.882812 "/></clipPath><clipPath id="db980940bf"><path d="M 118.121094 155.046875 L 166.207031 155.046875 L 166.207031 203.132812 L 118.121094 203.132812 Z M 118.121094 155.046875 "/></clipPath><clipPath id="b6642469af"><path d="M 142.164062 155.046875 C 128.886719 155.046875 118.121094 165.8125 118.121094 179.089844 C 118.121094 192.367188 128.886719 203.132812 142.164062 203.132812 C 155.441406 203.132812 166.207031 192.367188 166.207031 179.089844 C 166.207031 165.8125 155.441406 155.046875 142.164062 155.046875 Z M 142.164062 155.046875 "/></clipPath><clipPath id="aab0620cc5"><path d="M 124.261719 200.648438 L 250.382812 200.648438 L 250.382812 257.023438 L 124.261719 257.023438 Z M 124.261719 200.648438 "/></clipPath><clipPath id="61dcad87ac"><path d="M 81.246094 117.738281 L 293.40625 117.738281 L 293.40625 222.449219 L 81.246094 222.449219 Z M 81.246094 117.738281 "/></clipPath></defs><g id="6e93d48ec0"><g clip-rule="nonzero" clip-path="url(#b9cf63dc60)"><g clip-rule="nonzero" clip-path="url(#598b44bbd1)"><path style=" stroke:none;fill-rule:nonzero;fill:#002060;fill-opacity:1;" d="M 12.882812 12.882812 L 362.117188 12.882812 L 362.117188 362.117188 L 12.882812 362.117188 Z M 12.882812 12.882812 "/></g></g><g clip-rule="nonzero" clip-path="url(#db980940bf)"><g clip-rule="nonzero" clip-path="url(#b6642469af)"><path style=" stroke:none;fill-rule:nonzero;fill:#002060;fill-opacity:1;" d="M 118.121094 155.046875 L 166.207031 155.046875 L 166.207031 203.132812 L 118.121094 203.132812 Z M 118.121094 155.046875 "/></g></g><g clip-rule="nonzero" clip-path="url(#aab0620cc5)"><path style=" stroke:none;fill-rule:nonzero;fill:#ffffff;fill-opacity:1;" d="M 194.066406 227.847656 C 189.808594 229.902344 184.84375 229.902344 180.582031 227.847656 L 124.277344 200.695312 L 124.277344 232.769531 C 124.277344 246.164062 152.503906 257.023438 187.324219 257.023438 C 222.148438 257.023438 250.375 246.164062 250.375 232.769531 L 250.375 200.695312 L 194.066406 227.847656 "/></g><g clip-rule="nonzero" clip-path="url(#61dcad87ac)"><path style=" stroke:none;fill-rule:nonzero;fill:#ffffff;fill-opacity:1;" d="M 290.824219 165.9375 L 194.066406 119.28125 C 191.9375 118.253906 189.632812 117.738281 187.324219 117.738281 C 185.019531 117.738281 182.710938 118.253906 180.582031 119.28125 L 83.828125 165.9375 C 80.382812 167.597656 80.382812 172.5 83.828125 174.160156 L 180.582031 220.820312 C 182.710938 221.847656 185.019531 222.359375 187.324219 222.359375 C 189.632812 222.359375 191.9375 221.847656 194.066406 220.820312 L 290.824219 174.160156 C 294.265625 172.5 294.265625 167.597656 290.824219 165.9375 "/></g><path style=" stroke:none;fill-rule:nonzero;fill:#ffffff;fill-opacity:1;" d="M 273.230469 209.402344 C 275.167969 208.441406 276.507812 206.449219 276.507812 204.136719 C 276.507812 201.480469 274.746094 199.234375 272.324219 198.507812 L 272.324219 183.3125 C 272.324219 183.238281 272.304688 183.167969 272.296875 183.097656 L 268.832031 184.765625 C 268.875 184.921875 268.902344 185.082031 268.902344 185.25 L 268.890625 198.515625 C 266.492188 199.257812 264.746094 201.492188 264.746094 204.136719 C 264.746094 206.578125 266.234375 208.671875 268.351562 209.558594 L 262.175781 235.296875 C 261.761719 237.019531 263.070312 238.675781 264.839844 238.675781 L 276.777344 238.675781 C 278.550781 238.675781 279.855469 237.019531 279.445312 235.296875 L 273.230469 209.402344 "/></g></svg>