<svg xmlns="http://www.w3.org/2000/svg" xmlns:xlink="http://www.w3.org/1999/xlink" width="500" zoomAndPan="magnify" viewBox="0 0 375 374.999991" height="500" preserveAspectRatio="xMidYMid meet" version="1.0"><defs><clipPath id="9a3bc93892"><path d="M 12.882812 12.882812 L 362.117188 12.882812 L 362.117188 362.117188 L 12.882812 362.117188 Z M 12.882812 12.882812 " clip-rule="nonzero"/></clipPath><clipPath id="636c2e0484"><path d="M 187.5 12.882812 C 91.0625 12.882812 12.882812 91.0625 12.882812 187.5 C 12.882812 283.9375 91.0625 362.117188 187.5 362.117188 C 283.9375 362.117188 362.117188 283.9375 362.117188 187.5 C 362.117188 91.0625 283.9375 12.882812 187.5 12.882812 Z M 187.5 12.882812 " clip-rule="nonzero"/></clipPath><clipPath id="be7dbb2488"><path d="M 0.882812 0.882812 L 350.117188 0.882812 L 350.117188 350.117188 L 0.882812 350.117188 Z M 0.882812 0.882812 " clip-rule="nonzero"/></clipPath><clipPath id="dafb7b6581"><path d="M 175.5 0.882812 C 79.0625 0.882812 0.882812 79.0625 0.882812 175.5 C 0.882812 271.9375 79.0625 350.117188 175.5 350.117188 C 271.9375 350.117188 350.117188 271.9375 350.117188 175.5 C 350.117188 79.0625 271.9375 0.882812 175.5 0.882812 Z M 175.5 0.882812 " clip-rule="nonzero"/></clipPath><clipPath id="3aed46a6e2"><rect x="0" width="351" y="0" height="351"/></clipPath><clipPath id="4295b3cde4"><path d="M 92.261719 98 L 272.261719 98 L 272.261719 277 L 92.261719 277 Z M 92.261719 98 " clip-rule="nonzero"/></clipPath></defs><g clip-path="url(#9a3bc93892)"><g clip-path="url(#636c2e0484)"><g transform="matrix(1, 0, 0, 1, 12, 12)"><g clip-path="url(#3aed46a6e2)"><g clip-path="url(#be7dbb2488)"><g clip-path="url(#dafb7b6581)"><path fill="#ffffff" d="M 0.882812 0.882812 L 350.117188 0.882812 L 350.117188 350.117188 L 0.882812 350.117188 Z M 0.882812 0.882812 " fill-opacity="1" fill-rule="nonzero"/></g></g></g></g></g></g><g clip-path="url(#4295b3cde4)"><path fill="#002060" d="M 270.457031 120.730469 L 249.824219 100.09375 C 248.535156 98.804688 246.785156 98.078125 244.960938 98.078125 L 134.910156 98.078125 C 131.109375 98.078125 128.03125 101.160156 128.03125 104.957031 L 128.03125 132.386719 C 125.082031 133.402344 122.28125 134.996094 119.800781 137.269531 C 114.070312 137.519531 108.945312 139.609375 105.128906 143.316406 C 101.152344 147.171875 98.855469 152.539062 98.5 158.660156 C 94.421875 163.234375 92.25 168.65625 92.335938 174.191406 C 92.417969 179.511719 94.558594 184.617188 98.4375 188.847656 C 98.6875 194.582031 100.777344 199.703125 104.484375 203.519531 C 105.371094 204.4375 106.355469 205.238281 107.394531 205.972656 L 107.394531 249.402344 C 107.394531 251.9375 108.792969 254.269531 111.027344 255.46875 C 113.253906 256.660156 115.96875 256.53125 118.089844 255.125 L 128.03125 248.496094 L 128.03125 270.035156 C 128.03125 273.835938 131.109375 276.914062 134.910156 276.914062 L 265.59375 276.914062 C 269.394531 276.914062 272.472656 273.835938 272.472656 270.035156 L 272.472656 125.59375 C 272.472656 123.769531 271.75 122.019531 270.457031 120.730469 Z M 244.960938 114.683594 L 255.871094 125.59375 L 244.960938 125.59375 Z M 114.359375 193.941406 C 112.269531 191.789062 112.039062 188.722656 112.214844 186.53125 C 112.394531 184.328125 111.503906 182.171875 109.820312 180.742188 C 108.144531 179.316406 106.136719 176.984375 106.09375 173.984375 C 106.054688 171.488281 107.394531 168.933594 109.972656 166.601562 C 111.507812 165.21875 112.332031 163.222656 112.226562 161.160156 C 112.058594 157.6875 112.914062 154.929688 114.707031 153.191406 C 116.863281 151.105469 119.9375 150.898438 122.117188 151.046875 C 124.382812 151.273438 126.476562 150.335938 127.90625 148.652344 C 129.332031 146.976562 131.664062 144.96875 134.664062 144.925781 C 137.152344 144.769531 139.710938 146.226562 142.046875 148.808594 C 143.429688 150.335938 145.410156 151.179688 147.488281 151.058594 C 150.949219 150.902344 153.71875 151.742188 155.460938 153.539062 C 157.546875 155.691406 157.777344 158.757812 157.601562 160.953125 C 157.425781 163.15625 158.3125 165.308594 159.996094 166.738281 C 161.671875 168.164062 163.679688 170.496094 163.722656 173.496094 C 163.761719 175.992188 162.421875 178.546875 159.84375 180.878906 C 158.308594 182.261719 157.484375 184.257812 157.589844 186.320312 C 157.757812 189.792969 156.902344 192.550781 155.109375 194.292969 C 152.960938 196.382812 149.898438 196.597656 147.699219 196.433594 C 145.476562 196.257812 143.34375 197.148438 141.910156 198.828125 C 140.484375 200.503906 138.152344 202.511719 135.152344 202.554688 C 132.65625 202.492188 130.101562 201.25 127.769531 198.675781 C 126.40625 197.164062 124.363281 196.300781 122.328125 196.421875 C 118.851562 196.566406 116.097656 195.734375 114.359375 193.941406 Z M 131.09375 229.921875 L 121.152344 236.546875 L 121.152344 211.148438 C 125.242188 214.367188 130.125 216.3125 135.359375 216.3125 C 140.136719 216.242188 144.710938 214.421875 148.664062 211.257812 L 148.664062 236.546875 L 138.722656 229.921875 C 136.414062 228.382812 133.402344 228.382812 131.09375 229.921875 Z M 258.71875 263.15625 L 141.785156 263.15625 L 141.785156 248.496094 L 151.726562 255.125 C 153.820312 256.519531 156.578125 256.652344 158.789062 255.46875 C 161.023438 254.269531 162.421875 251.9375 162.421875 249.402344 L 162.421875 205.976562 C 163.203125 205.40625 163.988281 204.84375 164.6875 204.164062 C 168.664062 200.308594 170.960938 194.941406 171.316406 188.820312 C 175.394531 184.246094 177.566406 178.824219 177.480469 173.289062 C 177.402344 167.96875 175.257812 162.867188 171.378906 158.632812 C 171.128906 152.902344 169.039062 147.777344 165.332031 143.960938 C 161.476562 139.984375 156.109375 137.6875 149.988281 137.332031 C 147.492188 135.105469 144.6875 133.5625 141.785156 132.554688 L 141.785156 111.835938 L 231.203125 111.835938 L 231.203125 132.46875 C 231.203125 136.269531 234.285156 139.347656 238.082031 139.347656 L 258.71875 139.347656 Z M 238.082031 153.105469 C 246.949219 153.105469 246.933594 166.863281 238.082031 166.863281 L 196.8125 166.863281 C 187.945312 166.863281 187.960938 153.105469 196.8125 153.105469 Z M 238.082031 201.253906 L 196.8125 201.253906 C 187.945312 201.253906 187.960938 187.496094 196.8125 187.496094 L 238.082031 187.496094 C 246.949219 187.496094 246.933594 201.253906 238.082031 201.253906 Z M 238.082031 235.644531 L 196.8125 235.644531 C 187.945312 235.644531 187.960938 221.886719 196.8125 221.886719 L 238.082031 221.886719 C 246.949219 221.886719 246.933594 235.644531 238.082031 235.644531 Z M 238.082031 235.644531 " fill-opacity="1" fill-rule="nonzero"/></g></svg>