<svg xmlns="http://www.w3.org/2000/svg" xmlns:xlink="http://www.w3.org/1999/xlink" width="500" zoomAndPan="magnify" viewBox="0 0 375 374.999991" height="500" preserveAspectRatio="xMidYMid meet" version="1.0"><defs><clipPath id="bba4388fd6"><path d="M 12.882812 12.882812 L 362.117188 12.882812 L 362.117188 362.117188 L 12.882812 362.117188 Z M 12.882812 12.882812 " clip-rule="nonzero"/></clipPath><clipPath id="48278a1157"><path d="M 187.5 12.882812 C 91.0625 12.882812 12.882812 91.0625 12.882812 187.5 C 12.882812 283.9375 91.0625 362.117188 187.5 362.117188 C 283.9375 362.117188 362.117188 283.9375 362.117188 187.5 C 362.117188 91.0625 283.9375 12.882812 187.5 12.882812 Z M 187.5 12.882812 " clip-rule="nonzero"/></clipPath><clipPath id="1abe8f2ecc"><path d="M 0.882812 0.882812 L 350.117188 0.882812 L 350.117188 350.117188 L 0.882812 350.117188 Z M 0.882812 0.882812 " clip-rule="nonzero"/></clipPath><clipPath id="ccac2e395b"><path d="M 175.5 0.882812 C 79.0625 0.882812 0.882812 79.0625 0.882812 175.5 C 0.882812 271.9375 79.0625 350.117188 175.5 350.117188 C 271.9375 350.117188 350.117188 271.9375 350.117188 175.5 C 350.117188 79.0625 271.9375 0.882812 175.5 0.882812 Z M 175.5 0.882812 " clip-rule="nonzero"/></clipPath><clipPath id="970b26c54e"><rect x="0" width="351" y="0" height="351"/></clipPath><clipPath id="806262401e"><path d="M 97.390625 117.777344 L 262 117.777344 L 262 252 L 97.390625 252 Z M 97.390625 117.777344 " clip-rule="nonzero"/></clipPath><clipPath id="c742a65ba9"><path d="M 111 154 L 277.390625 154 L 277.390625 257.277344 L 111 257.277344 Z M 111 154 " clip-rule="nonzero"/></clipPath></defs><g clip-path="url(#bba4388fd6)"><g clip-path="url(#48278a1157)"><g transform="matrix(1, 0, 0, 1, 12, 12)"><g clip-path="url(#970b26c54e)"><g clip-path="url(#1abe8f2ecc)"><g clip-path="url(#ccac2e395b)"><path fill="#ffffff" d="M 0.882812 0.882812 L 350.117188 0.882812 L 350.117188 350.117188 L 0.882812 350.117188 Z M 0.882812 0.882812 " fill-opacity="1" fill-rule="nonzero"/></g></g></g></g></g></g><g clip-path="url(#806262401e)"><path fill="#002060" d="M 103.128906 251.390625 C 100.003906 251.390625 97.472656 248.855469 97.472656 245.734375 L 97.472656 126.523438 C 97.472656 121.691406 101.386719 117.777344 106.21875 117.777344 L 154.007812 117.777344 C 157.164062 117.777344 160.082031 119.484375 161.628906 122.234375 L 164.199219 126.800781 C 164.746094 127.773438 165.777344 128.375 166.890625 128.375 L 252.199219 128.375 C 256.933594 128.375 260.855469 132.226562 260.945312 136.957031 L 261.160156 148.332031 L 136.96875 148.332031 C 130.617188 148.332031 125.128906 153.070312 124.207031 159.355469 L 111.21875 246.566406 C 110.804688 249.335938 108.425781 251.390625 105.621094 251.390625 Z M 103.128906 251.390625 " fill-opacity="1" fill-rule="nonzero"/></g><g clip-path="url(#c742a65ba9)"><path fill="#002060" d="M 136.96875 154.339844 C 133.578125 154.339844 130.648438 156.871094 130.15625 160.226562 L 117.109375 249.144531 C 117.101562 249.183594 117.097656 249.222656 117.089844 249.265625 C 116.464844 252.578125 114.238281 255.253906 111.304688 256.546875 C 110.953125 256.703125 111.058594 257.222656 111.441406 257.222656 L 260.105469 257.222656 C 261.507812 257.222656 262.699219 256.199219 262.902344 254.8125 L 277.136719 159.300781 C 277.140625 159.285156 277.140625 159.269531 277.144531 159.25 C 277.515625 156.652344 275.4375 154.339844 272.8125 154.339844 Z M 136.96875 154.339844 " fill-opacity="1" fill-rule="nonzero"/></g></svg>