<svg xmlns="http://www.w3.org/2000/svg" xmlns:xlink="http://www.w3.org/1999/xlink" width="500" zoomAndPan="magnify" viewBox="0 0 375 374.999991" height="500" preserveAspectRatio="xMidYMid meet" version="1.2"><defs><clipPath id="0e3e72b786"><path d="M 12.882812 12.882812 L 362.117188 12.882812 L 362.117188 362.117188 L 12.882812 362.117188 Z M 12.882812 12.882812 "/></clipPath><clipPath id="b6cae9a862"><path d="M 187.5 12.882812 C 91.0625 12.882812 12.882812 91.0625 12.882812 187.5 C 12.882812 283.9375 91.0625 362.117188 187.5 362.117188 C 283.9375 362.117188 362.117188 283.9375 362.117188 187.5 C 362.117188 91.0625 283.9375 12.882812 187.5 12.882812 Z M 187.5 12.882812 "/></clipPath><clipPath id="170581b585"><path d="M 118.121094 155.046875 L 166.207031 155.046875 L 166.207031 203.132812 L 118.121094 203.132812 Z M 118.121094 155.046875 "/></clipPath><clipPath id="a9acbbe16f"><path d="M 142.164062 155.046875 C 128.886719 155.046875 118.121094 165.8125 118.121094 179.089844 C 118.121094 192.367188 128.886719 203.132812 142.164062 203.132812 C 155.441406 203.132812 166.207031 192.367188 166.207031 179.089844 C 166.207031 165.8125 155.441406 155.046875 142.164062 155.046875 Z M 142.164062 155.046875 "/></clipPath><clipPath id="a5ddc1530b"><path d="M 106 240 L 269 240 L 269 260.917969 L 106 260.917969 Z M 106 240 "/></clipPath><clipPath id="5b139e4e1d"><path d="M 89.394531 114 L 285.894531 114 L 285.894531 142 L 89.394531 142 Z M 89.394531 114 "/></clipPath></defs><g id="aed378dfda"><g clip-rule="nonzero" clip-path="url(#0e3e72b786)"><g clip-rule="nonzero" clip-path="url(#b6cae9a862)"><path style=" stroke:none;fill-rule:nonzero;fill:#002060;fill-opacity:1;" d="M 12.882812 12.882812 L 362.117188 12.882812 L 362.117188 362.117188 L 12.882812 362.117188 Z M 12.882812 12.882812 "/></g></g><g clip-rule="nonzero" clip-path="url(#170581b585)"><g clip-rule="nonzero" clip-path="url(#a9acbbe16f)"><path style=" stroke:none;fill-rule:nonzero;fill:#002060;fill-opacity:1;" d="M 118.121094 155.046875 L 166.207031 155.046875 L 166.207031 203.132812 L 118.121094 203.132812 Z M 118.121094 155.046875 "/></g></g><g clip-rule="nonzero" clip-path="url(#a5ddc1530b)"><path style=" stroke:none;fill-rule:nonzero;fill:#ffffff;fill-opacity:1;" d="M 106.378906 240.980469 L 268.410156 240.980469 L 268.410156 261.171875 L 106.378906 261.171875 Z M 106.378906 240.980469 "/></g><path style=" stroke:none;fill-rule:nonzero;fill:#ffffff;fill-opacity:1;" d="M 106.386719 234 L 268.402344 234 L 268.402344 148.667969 L 106.386719 148.667969 Z M 147.589844 173.460938 C 147.589844 172.753906 147.660156 172.054688 147.796875 171.363281 C 147.9375 170.667969 148.140625 169.996094 148.410156 169.34375 C 148.679688 168.691406 149.011719 168.074219 149.40625 167.488281 C 149.796875 166.898438 150.242188 166.355469 150.742188 165.855469 C 151.242188 165.359375 151.785156 164.910156 152.371094 164.519531 C 152.957031 164.125 153.578125 163.796875 154.230469 163.523438 C 154.882812 163.253906 155.554688 163.050781 156.246094 162.910156 C 156.9375 162.773438 157.636719 162.703125 158.34375 162.703125 L 216.457031 162.703125 C 217.160156 162.703125 217.859375 162.773438 218.554688 162.910156 C 219.246094 163.050781 219.917969 163.253906 220.570312 163.523438 C 221.222656 163.796875 221.839844 164.125 222.429688 164.519531 C 223.015625 164.910156 223.558594 165.359375 224.058594 165.855469 C 224.558594 166.355469 225.003906 166.898438 225.394531 167.488281 C 225.789062 168.074219 226.117188 168.691406 226.390625 169.34375 C 226.660156 169.996094 226.863281 170.667969 227.003906 171.363281 C 227.140625 172.054688 227.210938 172.753906 227.210938 173.460938 L 227.210938 185.960938 C 227.210938 186.667969 227.140625 187.367188 227.003906 188.058594 C 226.863281 188.75 226.660156 189.421875 226.390625 190.074219 C 226.117188 190.726562 225.789062 191.347656 225.394531 191.933594 C 225.003906 192.519531 224.558594 193.0625 224.058594 193.5625 C 223.558594 194.0625 223.015625 194.507812 222.429688 194.902344 C 221.839844 195.292969 221.222656 195.625 220.570312 195.894531 C 219.917969 196.164062 219.246094 196.371094 218.554688 196.507812 C 217.859375 196.648438 217.160156 196.71875 216.457031 196.71875 L 158.332031 196.71875 C 157.628906 196.71875 156.929688 196.648438 156.234375 196.507812 C 155.542969 196.371094 154.871094 196.164062 154.21875 195.894531 C 153.566406 195.625 152.949219 195.292969 152.359375 194.902344 C 151.773438 194.507812 151.230469 194.0625 150.730469 193.5625 C 150.234375 193.0625 149.785156 192.519531 149.394531 191.933594 C 149.003906 191.347656 148.671875 190.726562 148.398438 190.074219 C 148.128906 189.421875 147.925781 188.75 147.789062 188.058594 C 147.648438 187.367188 147.578125 186.667969 147.578125 185.960938 Z M 147.589844 173.460938 "/><path style=" stroke:none;fill-rule:nonzero;fill:#ffffff;fill-opacity:1;" d="M 158.335938 169.683594 L 216.457031 169.683594 C 216.957031 169.683594 217.4375 169.78125 217.902344 169.972656 C 218.363281 170.164062 218.769531 170.4375 219.125 170.789062 C 219.480469 171.144531 219.75 171.554688 219.941406 172.015625 C 220.132812 172.476562 220.230469 172.960938 220.230469 173.460938 L 220.230469 185.960938 C 220.230469 186.460938 220.132812 186.941406 219.941406 187.40625 C 219.75 187.867188 219.480469 188.273438 219.125 188.628906 C 218.769531 188.984375 218.363281 189.253906 217.902344 189.445312 C 217.4375 189.640625 216.957031 189.734375 216.457031 189.734375 L 158.335938 189.734375 C 157.835938 189.734375 157.355469 189.640625 156.890625 189.445312 C 156.429688 189.253906 156.023438 188.984375 155.667969 188.628906 C 155.3125 188.273438 155.042969 187.867188 154.851562 187.40625 C 154.65625 186.941406 154.5625 186.460938 154.5625 185.960938 L 154.5625 173.460938 C 154.5625 172.960938 154.65625 172.476562 154.851562 172.015625 C 155.042969 171.554688 155.3125 171.144531 155.667969 170.789062 C 156.023438 170.4375 156.429688 170.164062 156.890625 169.972656 C 157.355469 169.78125 157.835938 169.683594 158.335938 169.683594 Z M 158.335938 169.683594 "/><g clip-rule="nonzero" clip-path="url(#5b139e4e1d)"><path style=" stroke:none;fill-rule:nonzero;fill:#ffffff;fill-opacity:1;" d="M 89.628906 141.683594 L 102.824219 141.683594 C 102.84375 141.683594 102.867188 141.683594 102.890625 141.683594 C 102.914062 141.683594 102.933594 141.683594 102.957031 141.683594 L 271.835938 141.683594 C 271.855469 141.683594 271.878906 141.683594 271.902344 141.683594 C 271.921875 141.683594 271.945312 141.683594 271.96875 141.683594 L 285.160156 141.683594 L 285.160156 114.015625 L 89.628906 114.015625 Z M 89.628906 141.683594 "/></g></g></svg>