<svg xmlns="http://www.w3.org/2000/svg" xmlns:xlink="http://www.w3.org/1999/xlink" width="500" zoomAndPan="magnify" viewBox="0 0 375 374.999991" height="500" preserveAspectRatio="xMidYMid meet" version="1.0"><defs><clipPath id="6eae5a0a1d"><path d="M 12.882812 12.882812 L 362.117188 12.882812 L 362.117188 362.117188 L 12.882812 362.117188 Z M 12.882812 12.882812 " clip-rule="nonzero"/></clipPath><clipPath id="d9a202d75b"><path d="M 187.5 12.882812 C 91.0625 12.882812 12.882812 91.0625 12.882812 187.5 C 12.882812 283.9375 91.0625 362.117188 187.5 362.117188 C 283.9375 362.117188 362.117188 283.9375 362.117188 187.5 C 362.117188 91.0625 283.9375 12.882812 187.5 12.882812 Z M 187.5 12.882812 " clip-rule="nonzero"/></clipPath><clipPath id="6096298feb"><path d="M 0.882812 0.882812 L 350.117188 0.882812 L 350.117188 350.117188 L 0.882812 350.117188 Z M 0.882812 0.882812 " clip-rule="nonzero"/></clipPath><clipPath id="d26b7532c1"><path d="M 175.5 0.882812 C 79.0625 0.882812 0.882812 79.0625 0.882812 175.5 C 0.882812 271.9375 79.0625 350.117188 175.5 350.117188 C 271.9375 350.117188 350.117188 271.9375 350.117188 175.5 C 350.117188 79.0625 271.9375 0.882812 175.5 0.882812 Z M 175.5 0.882812 " clip-rule="nonzero"/></clipPath><clipPath id="df9a3627a7"><rect x="0" width="351" y="0" height="351"/></clipPath><clipPath id="3f6bf1a430"><path d="M 118.121094 155.046875 L 166.207031 155.046875 L 166.207031 203.132812 L 118.121094 203.132812 Z M 118.121094 155.046875 " clip-rule="nonzero"/></clipPath><clipPath id="5bd833d615"><path d="M 142.164062 155.046875 C 128.886719 155.046875 118.121094 165.8125 118.121094 179.089844 C 118.121094 192.367188 128.886719 203.132812 142.164062 203.132812 C 155.441406 203.132812 166.207031 192.367188 166.207031 179.089844 C 166.207031 165.8125 155.441406 155.046875 142.164062 155.046875 Z M 142.164062 155.046875 " clip-rule="nonzero"/></clipPath><clipPath id="0971f7eb84"><path d="M 0.121094 0.046875 L 48.207031 0.046875 L 48.207031 48.132812 L 0.121094 48.132812 Z M 0.121094 0.046875 " clip-rule="nonzero"/></clipPath><clipPath id="aab58bcd6e"><path d="M 24.164062 0.046875 C 10.886719 0.046875 0.121094 10.8125 0.121094 24.089844 C 0.121094 37.367188 10.886719 48.132812 24.164062 48.132812 C 37.441406 48.132812 48.207031 37.367188 48.207031 24.089844 C 48.207031 10.8125 37.441406 0.046875 24.164062 0.046875 Z M 24.164062 0.046875 " clip-rule="nonzero"/></clipPath><clipPath id="e931326f64"><rect x="0" width="49" y="0" height="49"/></clipPath><clipPath id="6a1010d454"><path d="M 107.371094 250 L 108 250 L 108 252 L 107.371094 252 Z M 107.371094 250 " clip-rule="nonzero"/></clipPath><clipPath id="1e71916d80"><path d="M 107.371094 251 L 108 251 L 108 253 L 107.371094 253 Z M 107.371094 251 " clip-rule="nonzero"/></clipPath><clipPath id="9f79d9eb2e"><path d="M 112 108.070312 L 234 108.070312 L 234 262 L 112 262 Z M 112 108.070312 " clip-rule="nonzero"/></clipPath><clipPath id="00f352e531"><path d="M 107.371094 252 L 108 252 L 108 254 L 107.371094 254 Z M 107.371094 252 " clip-rule="nonzero"/></clipPath><clipPath id="9107c55b09"><path d="M 107.371094 253 L 108 253 L 108 254 L 107.371094 254 Z M 107.371094 253 " clip-rule="nonzero"/></clipPath></defs><g clip-path="url(#6eae5a0a1d)"><g clip-path="url(#d9a202d75b)"><g transform="matrix(1, 0, 0, 1, 12, 12)"><g clip-path="url(#df9a3627a7)"><g clip-path="url(#6096298feb)"><g clip-path="url(#d26b7532c1)"><path fill="#002060" d="M 0.882812 0.882812 L 350.117188 0.882812 L 350.117188 350.117188 L 0.882812 350.117188 Z M 0.882812 0.882812 " fill-opacity="1" fill-rule="nonzero"/></g></g></g></g></g></g><g clip-path="url(#3f6bf1a430)"><g clip-path="url(#5bd833d615)"><g transform="matrix(1, 0, 0, 1, 118, 155)"><g clip-path="url(#e931326f64)"><g clip-path="url(#0971f7eb84)"><g clip-path="url(#aab58bcd6e)"><path fill="#002060" d="M 0.121094 0.046875 L 48.207031 0.046875 L 48.207031 48.132812 L 0.121094 48.132812 Z M 0.121094 0.046875 " fill-opacity="1" fill-rule="nonzero"/></g></g></g></g></g></g><path fill="#ffffff" d="M 249.886719 145.363281 L 262.925781 151.078125 L 266.394531 143.15625 C 267.621094 140.316406 266.324219 137.023438 263.519531 135.761719 L 260.75 134.535156 C 259.386719 133.9375 257.84375 133.902344 256.476562 134.464844 C 255.109375 135.023438 253.988281 136.074219 253.390625 137.441406 Z M 249.886719 145.363281 " fill-opacity="1" fill-rule="nonzero"/><path fill="#ffffff" d="M 202.078125 139.125 C 204.039062 141.089844 206.667969 142.175781 209.4375 142.175781 C 209.4375 142.175781 209.4375 142.175781 209.472656 142.175781 L 229.136719 142.140625 L 199.0625 112.066406 L 199.027344 131.730469 C 199.027344 134.535156 200.113281 137.164062 202.078125 139.125 Z M 202.078125 139.125 " fill-opacity="1" fill-rule="nonzero"/><path fill="#ffffff" d="M 257.84375 154.96875 L 247.644531 150.515625 L 219.359375 215.078125 L 232.394531 220.792969 L 260.683594 156.230469 Z M 257.84375 154.96875 " fill-opacity="1" fill-rule="nonzero"/><path fill="#ffffff" d="M 229.871094 225.804688 L 217.394531 220.335938 L 219.988281 231.378906 Z M 229.871094 225.804688 " fill-opacity="1" fill-rule="nonzero"/><g clip-path="url(#6a1010d454)"><path fill="#ffffff" d="M 107.371094 250.796875 C 107.371094 251.039062 107.371094 251.285156 107.40625 251.53125 C 107.371094 251.285156 107.371094 251.039062 107.371094 250.796875 Z M 107.371094 250.796875 " fill-opacity="1" fill-rule="nonzero"/></g><g clip-path="url(#1e71916d80)"><path fill="#ffffff" d="M 107.441406 252.269531 C 107.441406 252.09375 107.40625 251.917969 107.40625 251.742188 C 107.40625 251.917969 107.441406 252.09375 107.441406 252.269531 Z M 107.441406 252.269531 " fill-opacity="1" fill-rule="nonzero"/></g><path fill="#ffffff" d="M 113.574219 263.519531 C 113.609375 263.554688 113.679688 263.589844 113.714844 263.625 C 113.679688 263.589844 113.644531 263.554688 113.574219 263.519531 Z M 113.574219 263.519531 " fill-opacity="1" fill-rule="nonzero"/><path fill="#ffffff" d="M 115.855469 264.992188 C 116.0625 265.097656 116.238281 265.199219 116.449219 265.304688 C 116.273438 265.199219 116.0625 265.097656 115.855469 264.992188 Z M 115.855469 264.992188 " fill-opacity="1" fill-rule="nonzero"/><g clip-path="url(#9f79d9eb2e)"><path fill="#ffffff" d="M 218.128906 238.457031 C 217.746094 238.457031 217.359375 238.386719 217.007812 238.210938 C 216.484375 237.96875 216.0625 237.617188 215.746094 237.125 L 130.015625 237.125 L 130.015625 231.519531 L 214.273438 231.519531 L 211.609375 220.160156 C 211.472656 219.566406 211.542969 218.933594 211.785156 218.410156 L 213.714844 213.957031 L 130.015625 213.957031 L 130.015625 208.351562 L 216.027344 208.351562 L 216.027344 208.59375 L 233.0625 169.652344 L 233.0625 147.710938 L 209.4375 147.746094 C 209.4375 147.746094 209.402344 147.746094 209.402344 147.746094 C 205.128906 147.746094 201.097656 146.066406 198.046875 143.050781 C 194.996094 140 193.351562 135.972656 193.351562 131.695312 L 193.386719 108.070312 L 123.425781 108.070312 C 117.675781 108.105469 112.980469 112.804688 112.980469 118.550781 L 112.980469 250.832031 C 112.980469 256.648438 117.710938 261.34375 123.496094 261.34375 L 222.582031 261.34375 C 228.402344 261.34375 233.097656 256.613281 233.097656 250.832031 L 233.097656 230.429688 L 219.496094 238.140625 C 219.078125 238.351562 218.585938 238.457031 218.128906 238.457031 Z M 173.054688 162.046875 L 216.0625 162.046875 L 216.0625 167.65625 L 173.054688 167.65625 Z M 130.015625 185.214844 L 216.027344 185.214844 L 216.027344 190.824219 L 130.015625 190.824219 Z M 130.015625 185.214844 " fill-opacity="1" fill-rule="nonzero"/></g><path fill="#ffffff" d="M 115.257812 264.640625 C 115.363281 264.710938 115.46875 264.746094 115.539062 264.816406 C 115.46875 264.78125 115.363281 264.710938 115.257812 264.640625 Z M 115.257812 264.640625 " fill-opacity="1" fill-rule="nonzero"/><path fill="#ffffff" d="M 114.101562 263.902344 C 114.171875 263.972656 114.242188 264.007812 114.3125 264.078125 C 114.242188 264.007812 114.171875 263.9375 114.101562 263.902344 Z M 114.101562 263.902344 " fill-opacity="1" fill-rule="nonzero"/><path fill="#ffffff" d="M 114.664062 264.289062 C 114.734375 264.359375 114.835938 264.394531 114.90625 264.464844 C 114.835938 264.394531 114.734375 264.324219 114.664062 264.289062 Z M 114.664062 264.289062 " fill-opacity="1" fill-rule="nonzero"/><g clip-path="url(#00f352e531)"><path fill="#ffffff" d="M 107.546875 253.109375 C 107.511719 252.933594 107.511719 252.757812 107.476562 252.617188 C 107.476562 252.757812 107.511719 252.933594 107.546875 253.109375 Z M 107.546875 253.109375 " fill-opacity="1" fill-rule="nonzero"/></g><path fill="#ffffff" d="M 120.9375 266.707031 C 120.761719 266.671875 120.585938 266.636719 120.445312 266.601562 C 120.585938 266.671875 120.761719 266.707031 120.9375 266.707031 Z M 120.9375 266.707031 " fill-opacity="1" fill-rule="nonzero"/><path fill="#ffffff" d="M 119.324219 266.394531 C 119.148438 266.359375 118.972656 266.289062 118.761719 266.253906 C 118.972656 266.289062 119.148438 266.324219 119.324219 266.394531 Z M 119.324219 266.394531 " fill-opacity="1" fill-rule="nonzero"/><path fill="#ffffff" d="M 120.199219 266.601562 C 119.953125 266.566406 119.710938 266.496094 119.5 266.429688 C 119.746094 266.496094 119.953125 266.53125 120.199219 266.601562 Z M 120.199219 266.601562 " fill-opacity="1" fill-rule="nonzero"/><path fill="#ffffff" d="M 117.816406 265.902344 C 117.675781 265.867188 117.570312 265.796875 117.429688 265.761719 C 117.535156 265.796875 117.675781 265.832031 117.816406 265.902344 Z M 117.816406 265.902344 " fill-opacity="1" fill-rule="nonzero"/><path fill="#ffffff" d="M 118.519531 266.148438 C 118.378906 266.113281 118.238281 266.042969 118.097656 266.007812 C 118.238281 266.042969 118.378906 266.078125 118.519531 266.148438 Z M 118.519531 266.148438 " fill-opacity="1" fill-rule="nonzero"/><path fill="#ffffff" d="M 121.707031 266.8125 C 121.53125 266.777344 121.390625 266.777344 121.214844 266.742188 C 121.390625 266.777344 121.53125 266.8125 121.707031 266.8125 Z M 121.707031 266.8125 " fill-opacity="1" fill-rule="nonzero"/><path fill="#ffffff" d="M 122.480469 266.882812 C 122.304688 266.882812 122.128906 266.847656 121.953125 266.847656 C 122.164062 266.882812 122.304688 266.882812 122.480469 266.882812 Z M 122.480469 266.882812 " fill-opacity="1" fill-rule="nonzero"/><path fill="#ffffff" d="M 111.753906 261.835938 C 111.789062 261.871094 111.824219 261.90625 111.859375 261.941406 C 111.824219 261.90625 111.789062 261.871094 111.753906 261.835938 Z M 111.753906 261.835938 " fill-opacity="1" fill-rule="nonzero"/><path fill="#ffffff" d="M 111.332031 261.378906 C 111.367188 261.414062 111.367188 261.414062 111.402344 261.449219 C 111.367188 261.414062 111.367188 261.414062 111.332031 261.378906 Z M 111.332031 261.378906 " fill-opacity="1" fill-rule="nonzero"/><path fill="#ffffff" d="M 117.117188 265.621094 C 116.976562 265.550781 116.871094 265.515625 116.730469 265.445312 C 116.871094 265.480469 117.011719 265.550781 117.117188 265.621094 Z M 117.117188 265.621094 " fill-opacity="1" fill-rule="nonzero"/><g clip-path="url(#9107c55b09)"><path fill="#ffffff" d="M 107.652344 253.703125 C 107.652344 253.632812 107.617188 253.566406 107.617188 253.496094 C 107.617188 253.566406 107.617188 253.632812 107.652344 253.703125 Z M 107.652344 253.703125 " fill-opacity="1" fill-rule="nonzero"/></g><path fill="#ffffff" d="M 123.496094 266.917969 C 123.25 266.917969 122.96875 266.917969 122.722656 266.882812 C 123.003906 266.917969 123.25 266.917969 123.496094 266.917969 Z M 123.496094 266.917969 " fill-opacity="1" fill-rule="nonzero"/><path fill="#ffffff" d="M 112.242188 262.328125 C 112.277344 262.363281 112.3125 262.398438 112.3125 262.398438 C 112.3125 262.398438 112.277344 262.363281 112.242188 262.328125 Z M 112.242188 262.328125 " fill-opacity="1" fill-rule="nonzero"/></svg>