<svg width="50" height="50" xmlns="http://www.w3.org/2000/svg" xmlns:xlink="http://www.w3.org/1999/xlink" xml:space="preserve" overflow="hidden"><defs><clipPath id="clip0"><path d="M109 694.718C96.1417 694.718 85.7177 705.142 85.7177 718 85.7177 730.858 96.1417 741.282 109 741.282 121.858 741.282 132.282 730.858 132.282 718 132.282 705.142 121.858 694.718 109 694.718Z"/></clipPath><clipPath id="clip1"><path d="M109 694.718C96.1417 694.718 85.7177 705.142 85.7177 718 85.7177 730.858 96.1417 741.282 109 741.282 121.858 741.282 132.282 730.858 132.282 718 132.282 705.142 121.858 694.718 109 694.718Z"/></clipPath></defs><g transform="translate(-84 -693)"><g><g clip-path="url(#clip0)"><g><g><g clip-path="url(#clip1)"><path d="M85.7177 694.718 132.282 694.718 132.282 741.282 85.7177 741.282Z" fill="#FFFFFF"/></g></g></g></g></g><path d="M108.617 710.725C108.379 710.725 108.141 710.737 107.904 710.76 107.667 710.784 107.432 710.819 107.198 710.865 106.964 710.911 106.733 710.969 106.505 711.039 106.278 711.108 106.053 711.188 105.833 711.279 105.613 711.37 105.398 711.472 105.188 711.584 104.978 711.696 104.773 711.819 104.575 711.951 104.378 712.083 104.186 712.225 104.002 712.377 103.818 712.528 103.642 712.687 103.473 712.856 103.305 713.025 103.145 713.201 102.994 713.385 102.843 713.569 102.701 713.76 102.569 713.958 102.436 714.156 102.314 714.36 102.202 714.57 102.089 714.781 101.987 714.996 101.896 715.216 101.805 715.436 101.725 715.66 101.656 715.888 101.586 716.116 101.529 716.347 101.482 716.581 101.436 716.814 101.401 717.049 101.378 717.286 101.354 717.524 101.343 717.761 101.343 717.999 101.343 718.238 101.354 718.475 101.378 718.713 101.401 718.95 101.436 719.185 101.482 719.419 101.529 719.653 101.586 719.883 101.656 720.111 101.725 720.339 101.805 720.564 101.896 720.783 101.987 721.004 102.089 721.219 102.202 721.429 102.314 721.639 102.436 721.843 102.569 722.041 102.701 722.239 102.843 722.43 102.994 722.615 103.145 722.798 103.305 722.975 103.473 723.143 103.642 723.312 103.818 723.472 104.002 723.623 104.186 723.774 104.378 723.916 104.575 724.048 104.773 724.181 104.978 724.303 105.188 724.415 105.398 724.528 105.613 724.629 105.833 724.72 106.053 724.811 106.278 724.892 106.505 724.961 106.733 725.03 106.964 725.088 107.198 725.134 107.432 725.181 107.667 725.216 107.904 725.239 108.141 725.263 108.379 725.274 108.617 725.274 108.855 725.274 109.093 725.263 109.33 725.239 109.567 725.216 109.803 725.181 110.036 725.134 110.27 725.088 110.501 725.03 110.729 724.961 110.957 724.892 111.181 724.811 111.401 724.72 111.621 724.629 111.836 724.528 112.046 724.415 112.256 724.303 112.46 724.181 112.658 724.048 112.857 723.916 113.048 723.774 113.232 723.623 113.416 723.472 113.592 723.312 113.761 723.143 113.929 722.975 114.089 722.798 114.24 722.615 114.391 722.43 114.533 722.239 114.666 722.041 114.798 721.843 114.92 721.639 115.032 721.429 115.145 721.219 115.246 721.004 115.337 720.783 115.429 720.564 115.509 720.339 115.578 720.111 115.647 719.883 115.705 719.653 115.752 719.419 115.798 719.185 115.833 718.95 115.856 718.713 115.88 718.475 115.892 718.238 115.892 717.999 115.891 717.761 115.879 717.524 115.856 717.287 115.832 717.05 115.797 716.815 115.751 716.581 115.704 716.347 115.646 716.117 115.577 715.889 115.507 715.661 115.427 715.437 115.336 715.217 115.245 714.997 115.143 714.782 115.031 714.572 114.918 714.362 114.796 714.158 114.664 713.96 114.531 713.761 114.39 713.571 114.238 713.386 114.087 713.203 113.928 713.026 113.759 712.858 113.591 712.69 113.414 712.53 113.23 712.379 113.046 712.227 112.855 712.085 112.657 711.953 112.459 711.821 112.255 711.698 112.045 711.586 111.835 711.474 111.62 711.372 111.4 711.281 111.18 711.19 110.956 711.109 110.728 711.04 110.5 710.971 110.269 710.913 110.036 710.866 109.802 710.819 109.567 710.784 109.33 710.761 109.093 710.737 108.855 710.725 108.617 710.725ZM106.58 715.821C106.58 715.688 106.593 715.555 106.62 715.424 106.646 715.293 106.684 715.166 106.736 715.043 106.787 714.919 106.85 714.802 106.924 714.691 106.998 714.58 107.083 714.477 107.178 714.383 107.272 714.289 107.375 714.204 107.486 714.13 107.597 714.056 107.715 713.993 107.838 713.942 107.961 713.891 108.089 713.853 108.22 713.827 108.351 713.801 108.483 713.788 108.617 713.788 108.751 713.788 108.883 713.802 109.014 713.828 109.145 713.854 109.272 713.893 109.396 713.944 109.519 713.995 109.636 714.058 109.747 714.132 109.858 714.206 109.961 714.291 110.055 714.385 110.15 714.48 110.234 714.583 110.308 714.694 110.382 714.805 110.445 714.922 110.496 715.046 110.547 715.17 110.585 715.297 110.611 715.428 110.637 715.559 110.65 715.691 110.65 715.825 110.65 715.959 110.637 716.091 110.61 716.222 110.584 716.353 110.546 716.48 110.494 716.604 110.443 716.727 110.38 716.844 110.306 716.955 110.232 717.066 110.147 717.169 110.053 717.264 109.958 717.358 109.855 717.442 109.744 717.516 109.633 717.59 109.516 717.653 109.392 717.704 109.269 717.755 109.141 717.793 109.01 717.819 108.879 717.845 108.747 717.858 108.613 717.858 108.48 717.858 108.347 717.845 108.216 717.819 108.085 717.793 107.958 717.754 107.834 717.703 107.711 717.652 107.594 717.589 107.483 717.514 107.372 717.44 107.269 717.355 107.175 717.261 107.08 717.166 106.996 717.064 106.922 716.952 106.848 716.841 106.785 716.723 106.734 716.6 106.683 716.477 106.645 716.349 106.619 716.218 106.593 716.087 106.58 715.955 106.58 715.821ZM108.617 724.508C108.177 724.508 107.742 724.464 107.311 724.375 106.881 724.287 106.463 724.156 106.059 723.982 105.655 723.809 105.272 723.597 104.911 723.345 104.551 723.094 104.218 722.809 103.916 722.491 103.942 722.356 103.974 722.222 104.011 722.09 104.049 721.958 104.093 721.827 104.142 721.699 104.191 721.57 104.246 721.444 104.306 721.32 104.366 721.196 104.431 721.075 104.501 720.957 104.571 720.839 104.647 720.725 104.727 720.613 104.807 720.501 104.892 720.393 104.982 720.289 105.072 720.184 105.166 720.084 105.264 719.987 105.362 719.891 105.464 719.799 105.57 719.712 105.677 719.625 105.786 719.542 105.899 719.464 106.013 719.386 106.13 719.313 106.249 719.245 106.369 719.177 106.491 719.115 106.616 719.057 106.741 718.999 106.868 718.948 106.997 718.902 107.127 718.855 107.258 718.814 107.391 718.779 107.525 718.744 107.658 718.715 107.794 718.691 107.93 718.668 108.066 718.65 108.203 718.638 108.34 718.627 108.477 718.62 108.615 718.621 108.752 718.621 108.89 718.627 109.027 718.639 109.164 718.651 109.3 718.668 109.435 718.692 109.571 718.716 109.705 718.745 109.838 718.78 109.971 718.815 110.102 718.856 110.232 718.903 110.361 718.949 110.489 719.001 110.614 719.059 110.738 719.116 110.86 719.179 110.98 719.247 111.099 719.315 111.216 719.388 111.329 719.466 111.443 719.544 111.552 719.627 111.658 719.715 111.765 719.802 111.867 719.894 111.965 719.991 112.063 720.086 112.157 720.187 112.246 720.292 112.336 720.396 112.421 720.504 112.501 720.616 112.581 720.728 112.656 720.843 112.727 720.961 112.797 721.079 112.862 721.2 112.922 721.324 112.982 721.447 113.036 721.574 113.085 721.703 113.134 721.831 113.177 721.961 113.215 722.094 113.253 722.226 113.285 722.359 113.311 722.494 113.008 722.813 112.677 723.097 112.317 723.347 111.956 723.598 111.574 723.81 111.171 723.983 110.767 724.156 110.351 724.287 109.92 724.375 109.491 724.464 109.056 724.508 108.617 724.508Z" fill="#002060"/><g><path d="M97.638 717.999C97.6391 718.479 97.6708 718.957 97.7344 719.432 97.7973 719.907 97.8917 720.377 98.0161 720.84 98.1407 721.303 98.2948 721.756 98.4781 722.199 98.662 722.642 98.874 723.071 99.1136 723.486 99.3531 723.902 99.6188 724.299 99.9104 724.68 100.202 725.061 100.517 725.421 100.856 725.76 101.195 726.1 101.554 726.416 101.934 726.709 102.314 727.002 102.711 727.268 103.126 727.509 103.17 727.534 103.217 727.549 103.267 727.556 103.317 727.563 103.367 727.559 103.416 727.545 103.465 727.532 103.509 727.51 103.549 727.48 103.589 727.448 103.621 727.411 103.647 727.368 103.672 727.324 103.688 727.277 103.695 727.227 103.702 727.177 103.698 727.127 103.685 727.078 103.672 727.029 103.651 726.985 103.62 726.944 103.59 726.904 103.553 726.871 103.509 726.846 103.277 726.711 103.049 726.568 102.828 726.416 102.607 726.264 102.392 726.103 102.183 725.934 101.975 725.765 101.773 725.588 101.579 725.403 101.384 725.218 101.197 725.025 101.018 724.825 100.839 724.626 100.667 724.419 100.504 724.206 100.341 723.993 100.186 723.773 100.041 723.548 99.8948 723.322 99.7579 723.092 99.6303 722.855 99.5027 722.619 99.3849 722.378 99.276 722.133 99.1677 721.887 99.0688 721.637 98.9797 721.384 98.8907 721.131 98.812 720.875 98.7432 720.615 98.6745 720.355 98.6161 720.094 98.5683 719.829 98.5197 719.565 98.4823 719.299 98.4552 719.032 98.4281 718.765 98.4115 718.497 98.4057 718.229 98.3995 717.96 98.4041 717.692 98.4193 717.425 98.4344 717.156 98.4604 716.889 98.4964 716.623 98.5328 716.357 98.5792 716.093 98.6364 715.83 98.6932 715.568 98.7609 715.308 98.8385 715.051 98.9161 714.794 99.0036 714.541 99.1011 714.291 99.1984 714.04 99.3057 713.794 99.4229 713.553 99.5396 713.311 99.6661 713.074 99.8016 712.842 99.9369 712.61 100.082 712.384 100.235 712.164 100.389 711.944 100.551 711.73 100.721 711.522 100.891 711.315 101.069 711.114 101.256 710.921 101.442 710.727 101.635 710.541 101.836 710.363 102.036 710.185 102.244 710.015 102.458 709.853 102.672 709.691 102.893 709.537 103.119 709.393 103.345 709.248 103.577 709.113 103.814 708.987 104.051 708.861 104.293 708.744 104.539 708.637 104.785 708.53 105.035 708.432 105.289 708.345 105.543 708.257 105.799 708.18 106.059 708.113 106.32 708.045 106.582 707.989 106.846 707.942 107.11 707.895 107.377 707.859 107.644 707.834L106.689 708.789C106.653 708.824 106.624 708.866 106.604 708.913 106.583 708.96 106.573 709.009 106.572 709.06 106.572 709.111 106.581 709.161 106.601 709.209 106.62 709.256 106.648 709.298 106.684 709.334 106.721 709.371 106.763 709.398 106.81 709.418 106.858 709.437 106.907 709.447 106.959 709.446 107.01 709.446 107.059 709.436 107.106 709.416 107.154 709.395 107.195 709.367 107.231 709.33L108.886 707.675C108.922 707.639 108.949 707.597 108.969 707.549 108.998 707.478 109.006 707.405 108.991 707.329 108.975 707.253 108.941 707.187 108.886 707.133L107.231 705.477C107.195 705.442 107.153 705.416 107.107 705.397 107.06 705.379 107.011 705.369 106.961 705.37 106.911 705.37 106.863 705.38 106.817 705.399 106.77 705.419 106.73 705.446 106.694 705.482 106.658 705.517 106.631 705.558 106.611 705.605 106.592 705.651 106.582 705.699 106.582 705.75 106.581 705.799 106.591 705.848 106.609 705.895 106.628 705.941 106.655 705.982 106.689 706.019L107.73 707.06C107.56 707.073 107.391 707.092 107.222 707.114 107.053 707.135 106.884 707.161 106.717 707.191 106.549 707.22 106.382 707.254 106.216 707.291 106.049 707.329 105.884 707.37 105.72 707.415 105.556 707.46 105.393 707.509 105.231 707.561 105.069 707.614 104.908 707.67 104.749 707.731 104.59 707.791 104.431 707.855 104.275 707.922 104.119 707.99 103.964 708.06 103.811 708.135 103.658 708.21 103.506 708.288 103.357 708.37 103.207 708.452 103.06 708.537 102.915 708.625 102.769 708.714 102.625 708.806 102.484 708.901 102.343 708.996 102.204 709.095 102.068 709.196 101.931 709.298 101.797 709.403 101.665 709.511 101.533 709.619 101.404 709.73 101.277 709.844 101.151 709.958 101.027 710.075 100.906 710.194 100.784 710.314 100.666 710.436 100.551 710.561 100.435 710.687 100.322 710.815 100.213 710.945 100.103 711.075 99.9969 711.208 99.8932 711.344 99.7901 711.479 99.6901 711.617 99.5927 711.757 99.4959 711.897 99.4021 712.039 99.312 712.183 99.2213 712.328 99.1344 712.475 99.0511 712.623 98.9677 712.771 98.8875 712.921 98.8109 713.074 98.7344 713.226 98.6615 713.38 98.5917 713.535 98.5224 713.691 98.4568 713.848 98.3948 714.007 98.3323 714.165 98.274 714.325 98.2193 714.486 98.1645 714.648 98.114 714.81 98.0667 714.974 98.0197 715.138 97.9765 715.303 97.9369 715.468 97.8973 715.634 97.862 715.801 97.8303 715.968 97.7984 716.135 97.7708 716.303 97.7469 716.472 97.7229 716.641 97.7027 716.81 97.6869 716.979 97.6708 717.149 97.6588 717.319 97.6505 717.489 97.6421 717.659 97.638 717.829 97.638 717.999Z" fill="#002060"/></g><g><path d="M114.108 708.491C114.064 708.465 114.017 708.448 113.966 708.441 113.916 708.434 113.866 708.437 113.817 708.451 113.767 708.464 113.722 708.485 113.682 708.517 113.641 708.547 113.608 708.585 113.583 708.629 113.557 708.673 113.541 708.721 113.535 708.771 113.528 708.822 113.532 708.872 113.545 708.921 113.558 708.97 113.581 709.015 113.612 709.055 113.643 709.096 113.681 709.128 113.725 709.154 113.958 709.288 114.184 709.431 114.406 709.583 114.627 709.735 114.842 709.896 115.051 710.065 115.259 710.234 115.46 710.411 115.655 710.596 115.85 710.781 116.037 710.974 116.216 711.173 116.396 711.373 116.567 711.58 116.73 711.793 116.893 712.006 117.047 712.226 117.193 712.451 117.339 712.677 117.476 712.908 117.604 713.144 117.731 713.38 117.849 713.621 117.958 713.867 118.067 714.112 118.166 714.361 118.254 714.615 118.343 714.868 118.422 715.125 118.491 715.384 118.559 715.644 118.618 715.906 118.666 716.17 118.714 716.434 118.752 716.699 118.779 716.967 118.806 717.234 118.822 717.502 118.829 717.77 118.834 718.039 118.83 718.307 118.815 718.575 118.799 718.843 118.774 719.11 118.737 719.376 118.702 719.642 118.655 719.907 118.598 720.169 118.541 720.431 118.473 720.691 118.396 720.948 118.318 721.205 118.231 721.459 118.133 721.709 118.035 721.959 117.928 722.205 117.811 722.447 117.694 722.689 117.568 722.925 117.432 723.157 117.297 723.389 117.153 723.615 116.999 723.835 116.845 724.055 116.683 724.269 116.513 724.477 116.343 724.684 116.165 724.885 115.979 725.079 115.792 725.272 115.599 725.458 115.398 725.636 115.197 725.815 114.99 725.984 114.775 726.146 114.561 726.308 114.341 726.461 114.115 726.606 113.889 726.751 113.657 726.886 113.42 727.013 113.183 727.139 112.942 727.255 112.695 727.363 112.449 727.47 112.199 727.567 111.945 727.655 111.691 727.742 111.434 727.819 111.175 727.886 110.915 727.954 110.652 728.011 110.388 728.057 110.123 728.104 109.858 728.14 109.59 728.166L110.545 727.211C110.58 727.175 110.606 727.133 110.625 727.087 110.644 727.04 110.653 726.992 110.652 726.942 110.652 726.892 110.642 726.843 110.622 726.797 110.603 726.751 110.575 726.71 110.54 726.675 110.505 726.639 110.464 726.611 110.417 726.592 110.371 726.572 110.323 726.563 110.273 726.562 110.222 726.562 110.174 726.571 110.128 726.59 110.081 726.608 110.04 726.635 110.004 726.67L108.348 728.325C108.312 728.361 108.284 728.403 108.265 728.449 108.235 728.521 108.228 728.595 108.243 728.67 108.258 728.746 108.293 728.812 108.348 728.867L110.004 730.522C110.039 730.559 110.081 730.587 110.128 730.608 110.175 730.628 110.224 730.639 110.275 730.639 110.327 730.639 110.376 730.63 110.424 730.61 110.471 730.591 110.513 730.563 110.549 730.527 110.586 730.491 110.614 730.448 110.633 730.401 110.653 730.354 110.662 730.304 110.661 730.253 110.661 730.202 110.651 730.152 110.631 730.105 110.61 730.058 110.582 730.016 110.545 729.981L109.504 728.94C109.793 728.916 110.081 728.881 110.368 728.835 110.655 728.789 110.939 728.731 111.221 728.663 111.503 728.594 111.782 728.514 112.057 728.423 112.333 728.332 112.605 728.23 112.872 728.118 113.14 728.005 113.403 727.882 113.66 727.749 113.918 727.616 114.17 727.472 114.417 727.319 114.664 727.166 114.903 727.003 115.137 726.83 115.37 726.658 115.597 726.477 115.816 726.286 116.035 726.096 116.246 725.897 116.45 725.69 116.653 725.483 116.848 725.268 117.034 725.046 117.221 724.823 117.398 724.593 117.566 724.357 117.734 724.12 117.893 723.877 118.042 723.628 118.191 723.379 118.33 723.125 118.458 722.864 118.587 722.604 118.705 722.339 118.813 722.069 118.92 721.8 119.017 721.527 119.103 721.249 119.189 720.972 119.264 720.692 119.328 720.408 119.392 720.125 119.444 719.84 119.485 719.553 119.527 719.265 119.556 718.977 119.575 718.687 119.593 718.397 119.599 718.107 119.595 717.817 119.59 717.527 119.573 717.237 119.546 716.948 119.518 716.659 119.479 716.372 119.429 716.086 119.378 715.801 119.316 715.517 119.243 715.236 119.17 714.955 119.086 714.678 118.991 714.403 118.896 714.129 118.79 713.859 118.674 713.593 118.557 713.327 118.431 713.066 118.293 712.81 118.156 712.555 118.009 712.305 117.852 712.06 117.695 711.816 117.529 711.579 117.353 711.347 117.177 711.117 116.993 710.893 116.799 710.677 116.605 710.46 116.404 710.252 116.193 710.052 115.983 709.852 115.766 709.66 115.54 709.477 115.315 709.294 115.083 709.12 114.844 708.955 114.605 708.791 114.359 708.635 114.108 708.491Z" fill="#002060"/></g></g></svg>