<svg width="99" height="98" xmlns="http://www.w3.org/2000/svg" xmlns:xlink="http://www.w3.org/1999/xlink" xml:space="preserve" overflow="hidden"><defs><clipPath id="clip0"><path d="M1027.5 339.367C1002.04 339.367 981.401 359.798 981.401 385 981.401 410.202 1002.04 430.633 1027.5 430.633 1052.96 430.633 1073.6 410.202 1073.6 385 1073.6 359.798 1052.96 339.367 1027.5 339.367Z"/></clipPath><clipPath id="clip1"><path d="M1027.5 339.367C1002.04 339.367 981.401 359.798 981.401 385 981.401 410.202 1002.04 430.633 1027.5 430.633 1052.96 430.633 1073.6 410.202 1073.6 385 1073.6 359.798 1052.96 339.367 1027.5 339.367Z"/></clipPath><clipPath id="clip2"><path d="M1015.53 376.519C1012.03 376.519 1009.18 379.332 1009.18 382.802 1009.18 386.272 1012.03 389.085 1015.53 389.085 1019.04 389.085 1021.88 386.272 1021.88 382.802 1021.88 379.332 1019.04 376.519 1015.53 376.519Z"/></clipPath><clipPath id="clip3"><path d="M1015.53 376.519C1012.03 376.519 1009.18 379.332 1009.18 382.802 1009.18 386.272 1012.03 389.085 1015.53 389.085 1019.04 389.085 1021.88 386.272 1021.88 382.802 1021.88 379.332 1019.04 376.519 1015.53 376.519Z"/></clipPath></defs><g transform="translate(-978 -336)"><g><g clip-path="url(#clip0)"><g><g><g clip-path="url(#clip1)"><path d="M0.230708 0.230708 91.4972 0.230708 91.4972 91.4972 0.230708 91.4972Z" fill="#002060" transform="matrix(1.0102 0 0 1 981.168 339.136)"/></g></g></g></g></g><g><g clip-path="url(#clip2)"><g><g><g clip-path="url(#clip3)"><path d="M0.0316459 0.01225 12.5981 0.01225 12.5981 12.5787 0.0316459 12.5787Z" fill="#002060" transform="matrix(1.0102 0 0 1 1009.15 376.507)"/></g></g></g></g></g><path d="M48.2497 34.7411C47.7822 34.7411 47.3168 34.7644 46.8521 34.8104 46.3867 34.8553 45.9262 34.9249 45.4678 35.0155 45.0094 35.1065 44.5573 35.2199 44.1102 35.3555 43.6641 35.4914 43.224 35.6485 42.7933 35.8272 42.3616 36.0057 41.9398 36.2049 41.5285 36.4254 41.1161 36.6449 40.716 36.8849 40.3279 37.1441 39.9401 37.4033 39.5653 37.6819 39.2042 37.978 38.8438 38.2741 38.4975 38.5874 38.168 38.9172 37.8372 39.2481 37.5238 39.593 37.2277 39.9545 36.9316 40.3148 36.6541 40.6893 36.3949 41.0785 36.1353 41.4663 35.8954 41.8664 35.6751 42.2777 35.4546 42.6901 35.2554 43.1119 35.0769 43.5426 34.8982 43.9746 34.7411 44.4133 34.6052 44.8605 34.4693 45.3076 34.3562 45.76 34.2652 46.2181 34.1746 46.6754 34.1061 47.137 34.0601 47.6013 34.0141 48.067 33.9916 48.5325 33.9916 48.999 33.9916 49.4665 34.0141 49.9319 34.0601 50.3966 34.1061 50.862 34.1746 51.3225 34.2652 51.7809 34.3562 52.2392 34.4693 52.6913 34.6052 53.1385 34.7411 53.5846 34.8982 54.0247 35.0769 54.4553 35.2554 54.8871 35.4546 55.3089 35.6751 55.7202 35.8954 56.1326 36.1353 56.5327 36.3949 56.9208 36.6541 57.3086 36.9316 57.6833 37.2277 58.0445 37.5238 58.4049 37.8372 58.7509 38.168 59.0807 38.4975 59.4115 38.8438 59.7249 39.2042 60.021 39.5653 60.317 39.9401 60.5946 40.3279 60.8538 40.716 61.1141 41.1161 61.3532 41.5285 61.5735 41.9398 61.7941 42.3616 61.9932 42.7933 62.1717 43.224 62.3505 43.6641 62.5078 44.1102 62.6434 44.5573 62.7793 45.0094 62.8925 45.4678 62.9834 45.9262 63.0741 46.3867 63.1426 46.8521 63.1886 47.3168 63.2346 47.7822 63.257 48.2497 63.257 48.7162 63.257 49.1816 63.2346 49.6473 63.1886 50.1117 63.1426 50.5732 63.0741 51.0313 62.9834 51.4887 62.8925 51.941 62.7793 52.3882 62.6434 52.8353 62.5078 53.2741 62.3505 53.7061 62.1717 54.1368 61.9932 54.5586 61.7941 54.9709 61.5735 55.3823 61.3532 55.7824 61.1141 56.1705 60.8538 56.5593 60.5946 56.9338 60.317 57.2942 60.021 57.6556 59.7249 58.0006 59.4115 58.3314 59.0807 58.6612 58.7509 58.9746 58.4049 59.2707 58.0445 59.5668 57.6833 59.8453 57.3086 60.1046 56.9208 60.3638 56.5327 60.6037 56.1326 60.8232 55.7202 61.0438 55.3089 61.243 54.8871 61.4214 54.4553 61.6012 54.0247 61.7572 53.5846 61.8931 53.1385 62.0288 52.6913 62.1422 52.2392 62.2331 51.7809 62.3249 51.3225 62.3933 50.862 62.4383 50.3966 62.4843 49.9319 62.5078 49.4665 62.5078 48.999 62.5068 48.5325 62.4832 48.067 62.4372 47.6024 62.3912 47.138 62.3228 46.6765 62.231 46.2181 62.1401 45.7608 62.0259 45.3087 61.89 44.8615 61.7544 44.4154 61.5971 43.9764 61.4186 43.5447 61.2398 43.114 61.0396 42.6922 60.8201 42.2809 60.5998 41.8695 60.3599 41.4694 60.1007 41.0813 59.8412 40.6925 59.5636 40.3188 59.2665 39.9573 58.9704 39.5972 58.6581 39.251 58.3272 38.9214 57.9977 38.5916 57.6514 38.2783 57.2913 37.9822 56.9299 37.6851 56.5562 37.4075 56.1673 37.148 55.7793 36.8888 55.3792 36.6489 54.9678 36.4286 54.5565 36.209 54.1347 36.0089 53.704 35.8301 53.2723 35.6516 52.8332 35.4943 52.3871 35.3587 51.94 35.2228 51.4879 35.1086 51.0306 35.0176 50.5722 34.9259 50.1107 34.8574 49.6463 34.8114 49.1816 34.7654 48.7162 34.7419 48.2497 34.7411ZM44.2573 44.7298C44.2573 44.4674 44.2827 44.2082 44.3347 43.951 44.3859 43.6947 44.4614 43.4456 44.5626 43.2036 44.6624 42.9619 44.786 42.7322 44.931 42.5148 45.0769 42.2963 45.2423 42.0951 45.4281 41.9103 45.6139 41.7255 45.8149 41.5601 46.0326 41.4153 46.2508 41.2692 46.4805 41.1467 46.7225 41.0466 46.9645 40.9468 47.2146 40.8712 47.4707 40.8211 47.7281 40.7701 47.9873 40.7445 48.2497 40.7445 48.511 40.7445 48.7703 40.7711 49.0274 40.8221 49.2838 40.8731 49.5339 40.9496 49.7759 41.0497 50.0179 41.1498 50.2473 41.2734 50.4648 41.4192 50.6825 41.5643 50.8834 41.7308 51.0682 41.9155 51.254 42.1013 51.4184 42.3023 51.5642 42.5208 51.7092 42.7382 51.8318 42.9679 51.9319 43.2109 52.032 43.4527 52.1075 43.702 52.1585 43.9591 52.2094 44.2152 52.234 44.4748 52.234 44.7371 52.234 44.9992 52.2084 45.2588 52.1564 45.5149 52.1054 45.772 52.0299 46.0213 51.9288 46.2631 51.8287 46.5051 51.7053 46.7348 51.5603 46.9522 51.4142 47.1696 51.2488 47.3709 51.0632 47.5567 50.8785 47.7414 50.6762 47.9066 50.4588 48.0516 50.2403 48.1967 50.0106 48.3192 49.7686 48.4191 49.5269 48.5191 49.2768 48.5947 49.0204 48.6459 48.7632 48.6969 48.504 48.7225 48.2416 48.7214 47.9803 48.7214 47.7208 48.6958 47.4636 48.6449 47.2075 48.5936 46.9574 48.5171 46.7154 48.4172 46.4734 48.3171 46.2437 48.1935 46.0263 48.0474 45.8089 47.9027 45.6079 47.7362 45.4221 47.5514 45.2373 47.3656 45.0719 47.1647 44.9269 46.9462 44.7818 46.7288 44.6595 46.498 44.5594 46.256 44.4593 46.014 44.3838 45.765 44.3329 45.5078 44.2816 45.2504 44.2573 44.9911 44.2573 44.7298ZM48.2497 61.7562C47.3871 61.7562 46.5346 61.6694 45.6905 61.4959 44.8461 61.3224 44.0276 61.0652 43.2352 60.7252 42.4431 60.3853 41.6939 59.97 40.9865 59.4769 40.279 58.9848 39.6278 58.4263 39.0346 57.8017 39.0855 57.5372 39.149 57.2749 39.2225 57.0156 39.297 56.7574 39.3827 56.5011 39.4786 56.2499 39.5748 55.9977 39.6819 55.7508 39.7992 55.5077 39.9166 55.2649 40.0441 55.0279 40.1821 54.7964 40.3198 54.5646 40.468 54.3401 40.6251 54.1206 40.7824 53.9021 40.9486 53.6896 41.1242 53.4855 41.3009 53.2814 41.4846 53.0844 41.6774 52.8954 41.8695 52.7068 42.0694 52.527 42.2777 52.3555 42.486 52.1841 42.7013 52.0226 42.923 51.8694 43.1456 51.7166 43.3743 51.5736 43.6079 51.4409 43.8429 51.3071 44.0828 51.1845 44.3276 51.0724 44.5728 50.959 44.8218 50.8578 45.0748 50.7671 45.3291 50.6762 45.5865 50.5954 45.8468 50.5272 46.1081 50.4577 46.3705 50.4005 46.6368 50.3548 46.9023 50.3088 47.1686 50.274 47.438 50.2505 47.7067 50.228 47.9751 50.2157 48.2445 50.2168 48.5142 50.2168 48.7836 50.228 49.052 50.2515 49.3207 50.275 49.588 50.3098 49.8535 50.3558 50.1188 50.4026 50.3822 50.4598 50.6425 50.5293 50.9028 50.5975 51.1602 50.6783 51.4142 50.7692 51.6674 50.861 51.9175 50.9621 52.1627 51.0752 52.4065 51.1876 52.6464 51.3112 52.8813 51.444 53.115 51.5775 53.3436 51.7205 53.5652 51.8736 53.7876 52.0268 54.0022 52.1891 54.2105 52.3605 54.4185 52.5322 54.6187 52.7128 54.8105 52.9017 55.0036 53.0893 55.1873 53.2864 55.3629 53.4918 55.5386 53.6959 55.7048 53.9081 55.8621 54.1266 56.0192 54.3461 56.1663 54.5716 56.304 54.8034 56.442 55.0352 56.5695 55.272 56.6869 55.515 56.8042 55.7568 56.9106 56.005 57.0065 56.2572 57.1024 56.5081 57.1871 56.7645 57.2615 57.0237 57.3352 57.283 57.3985 57.5443 57.4494 57.8088 56.8562 58.4326 56.2071 58.99 55.5007 59.4808 54.7943 59.9729 54.045 60.3873 53.2548 60.7273 52.4637 61.0663 51.647 61.3224 50.8037 61.4959 49.9617 61.6694 49.1103 61.7562 48.2497 61.7562Z" fill="#FFFFFF" transform="matrix(1.0102 0 0 1 978 336)"/><g><path d="M26.7305 48.999C26.7326 49.9392 26.7948 50.8753 26.9194 51.8062 27.0428 52.7384 27.2278 53.658 27.4716 54.5656 27.7157 55.4732 28.0178 56.3612 28.3771 57.2299 28.7375 58.0975 29.153 58.9388 29.6227 59.7533 30.092 60.5671 30.6128 61.347 31.1844 62.0933 31.7562 62.8394 32.3737 63.5458 33.0383 64.2104 33.7018 64.876 34.4061 65.4956 35.1504 66.0693 35.8954 66.6431 36.6745 67.1658 37.487 67.6373 37.5727 67.6864 37.6657 67.717 37.7637 67.7292 37.8617 67.7426 37.9587 67.7353 38.0546 67.7089 38.1505 67.6833 38.2372 67.6404 38.3159 67.5803 38.3946 67.5189 38.4578 67.4465 38.508 67.3608 38.5569 67.275 38.5885 67.182 38.6018 67.084 38.6151 66.986 38.6089 66.8891 38.5835 66.7931 38.5579 66.6972 38.515 66.6105 38.4557 66.5308 38.3956 66.4521 38.3232 66.3878 38.2372 66.3379 37.782 66.0745 37.337 65.7938 36.9031 65.4956 36.4693 65.1974 36.0486 64.882 35.6393 64.5504 35.2309 64.2195 34.836 63.8725 34.4542 63.51 34.0734 63.1468 33.7068 62.7699 33.3548 62.3779 33.0035 61.987 32.6677 61.5819 32.3481 61.1643 32.0288 60.7456 31.7253 60.316 31.4397 59.8738 31.1538 59.4319 30.8854 58.9798 30.6353 58.5162 30.3852 58.0539 30.1545 57.5811 29.941 57.1003 29.7288 56.6184 29.5348 56.1294 29.3603 55.6334 29.1857 55.1372 29.0315 54.6341 28.8967 54.1255 28.7621 53.6162 28.6476 53.1037 28.5538 52.5852 28.4587 52.0675 28.3852 51.547 28.3322 51.0232 28.2791 50.4995 28.2465 49.9748 28.2352 49.4492 28.223 48.9224 28.2321 48.3966 28.2619 47.8721 28.2914 47.3463 28.3424 46.8226 28.4129 46.3009 28.4843 45.7793 28.5752 45.2616 28.6873 44.7473 28.7987 44.2338 28.9314 43.7242 29.0835 43.2201 29.2356 42.7168 29.4071 42.2197 29.5981 41.7297 29.7889 41.2387 29.9992 40.7568 30.229 40.2832 30.4576 39.8094 30.7056 39.345 30.9711 38.8906 31.2364 38.4364 31.5202 37.9934 31.8215 37.5614 32.1215 37.1297 32.439 36.7113 32.7728 36.3039 33.1068 35.8965 33.4559 35.5034 33.8212 35.1248 34.1855 34.7451 34.5645 34.3808 34.9586 34.0316 35.3513 33.6825 35.7588 33.3485 36.1785 33.0312 36.5979 32.7148 37.0296 32.4134 37.4739 32.1307 37.9169 31.8469 38.3711 31.5816 38.8354 31.3344 39.3001 31.0874 39.7736 30.8577 40.2566 30.6484 40.7385 30.4383 41.2285 30.2472 41.7266 30.0758 42.2236 29.9044 42.727 29.7523 43.2363 29.6206 43.7467 29.4889 44.2602 29.3775 44.7789 29.2866 45.2964 29.1949 45.818 29.1243 46.3417 29.0744L44.4706 30.9455C44.3992 31.015 44.343 31.0966 44.3031 31.1886 44.2633 31.2813 44.243 31.3773 44.2419 31.4784 44.2409 31.5785 44.2592 31.6754 44.2981 31.7693 44.3357 31.8623 44.3909 31.9438 44.4614 32.0154 44.5328 32.0868 44.6156 32.1409 44.7084 32.1798 44.8014 32.2174 44.8984 32.236 44.9992 32.2349 45.0993 32.2339 45.1963 32.2146 45.2883 32.1746 45.3811 32.1349 45.4618 32.0787 45.5321 32.0063L48.7766 28.7621C48.8469 28.6915 48.901 28.61 48.9389 28.517 48.9969 28.3771 49.0112 28.2331 48.9817 28.0842 48.9519 27.9352 48.8837 27.8074 48.7766 27.7003L45.5321 24.4551C45.4618 24.3867 45.38 24.3346 45.2893 24.2979 45.1973 24.2621 45.1025 24.2438 45.0045 24.2448 44.9054 24.2458 44.8116 24.2652 44.7207 24.303 44.6297 24.3407 44.5503 24.3949 44.4797 24.4643 44.4105 24.5337 44.3572 24.6143 44.3185 24.7052 44.2806 24.796 44.2612 24.89 44.2602 24.989 44.2592 25.087 44.2777 25.1819 44.3132 25.2738 44.3501 25.3646 44.4031 25.4453 44.4706 25.5167L46.5103 27.5573C46.1784 27.584 45.8457 27.6198 45.5149 27.6627 45.184 27.7045 44.8534 27.7554 44.5247 27.8137 44.1959 27.8717 43.8692 27.9371 43.5436 28.0108 43.217 28.0842 42.8934 28.1647 42.5717 28.2525 42.2492 28.3413 41.9296 28.4373 41.6121 28.5405 41.2949 28.6434 40.9802 28.7537 40.6679 28.8721 40.3556 28.9897 40.0452 29.1151 39.7389 29.2469 39.4328 29.3796 39.1294 29.5184 38.8294 29.6655 38.5294 29.8113 38.2323 29.9645 37.9393 30.1247 37.6464 30.2851 37.3573 30.4524 37.0725 30.6259 36.7868 30.7994 36.5059 30.9792 36.2294 31.1661 35.9527 31.3529 35.6801 31.5458 35.4128 31.7449 35.1441 31.9438 34.882 32.15 34.6235 32.3614 34.3643 32.5728 34.1111 32.7903 33.8631 33.0137 33.615 33.2374 33.372 33.4661 33.1352 33.7008 32.8974 33.9354 32.6656 34.1753 32.439 34.4205 32.2125 34.6664 31.9919 34.9165 31.7776 35.1718 31.562 35.4279 31.354 35.6882 31.1507 35.9537 30.9487 36.2192 30.7527 36.4887 30.5616 36.7633 30.3719 37.038 30.1882 37.3166 30.0115 37.5993 29.8338 37.8831 29.6634 38.1701 29.5001 38.4609 29.3368 38.7518 29.1794 39.0458 29.0294 39.345 28.8794 39.643 28.7365 39.9443 28.5998 40.2495 28.4639 40.5548 28.3353 40.8618 28.2138 41.1733 28.0912 41.4835 27.977 41.7971 27.8699 42.1133 27.7625 42.4298 27.6634 42.7484 27.5707 43.069 27.4787 43.3905 27.394 43.7132 27.3164 44.0378 27.2388 44.3624 27.1695 44.689 27.1073 45.0168 27.0449 45.3455 26.9908 45.674 26.944 46.0049 26.8969 46.3357 26.8572 46.6673 26.8264 46.9992 26.7948 47.3319 26.7712 47.6649 26.755 47.9986 26.7386 48.3312 26.7305 48.6652 26.7305 48.999Z" fill="#FFFFFF" transform="matrix(1.0102 0 0 1 978 336)"/></g><g><path d="M59.0122 30.3617C58.9254 30.3105 58.8327 30.2789 58.7336 30.2648 58.6346 30.2514 58.5376 30.2574 58.4407 30.283 58.3437 30.3087 58.2559 30.3515 58.1762 30.4127 58.0968 30.4728 58.0322 30.5465 57.9823 30.6332 57.9324 30.72 57.9008 30.8128 57.8885 30.9118 57.8751 31.0109 57.8822 31.1089 57.9078 31.2048 57.9345 31.3017 57.9781 31.3895 58.0395 31.4682 58.1007 31.5479 58.1741 31.6111 58.2611 31.6611 58.7174 31.9245 59.1614 32.2052 59.5952 32.5033 60.0291 32.8015 60.4506 33.1159 60.859 33.4475 61.2673 33.7794 61.6624 34.1265 62.0442 34.4889 62.426 34.8512 62.7924 35.229 63.1436 35.62 63.4959 36.012 63.8307 36.4163 64.1513 36.8347 64.4707 37.2523 64.7728 37.683 65.0587 38.1241 65.3446 38.566 65.613 39.0194 65.8631 39.4817 66.1132 39.9453 66.345 40.4168 66.5574 40.8987 66.7707 41.3795 66.9646 41.8685 67.1381 42.3655 67.3127 42.8618 67.4669 43.3641 67.6017 43.8734 67.7363 44.3817 67.8508 44.8952 67.9456 45.4127 68.0394 45.9304 68.1131 46.451 68.1662 46.9747 68.2192 47.4984 68.2519 48.0231 68.2642 48.5497 68.2754 49.0755 68.2663 49.6013 68.2365 50.1269 68.207 50.6527 68.157 51.1764 68.0854 51.697 68.0151 52.2186 67.9231 52.7373 67.8118 53.2509 67.6997 53.7652 67.568 54.2748 67.4159 54.7778 67.2638 55.2822 67.0921 55.7793 66.9013 56.2692 66.7095 56.7593 66.4991 57.2422 66.2705 57.716 66.0408 58.1895 65.7938 58.6531 65.5272 59.1073 65.262 59.5615 64.9792 60.0045 64.6779 60.4365 64.3769 60.8682 64.0593 61.2879 63.7256 61.6951 63.3916 62.1014 63.0425 62.4945 62.6782 62.8742 62.3126 63.2529 61.9339 63.6174 61.5398 63.9673 61.1468 64.3165 60.7407 64.6494 60.3199 64.9669 59.9005 65.2842 59.4688 65.5845 59.0255 65.8683 58.5815 66.151 58.1273 66.4166 57.6627 66.6646 57.1983 66.9115 56.7255 67.1402 56.2429 67.3506 55.7599 67.5607 55.2699 67.7517 54.7729 67.9231 54.2748 68.0946 53.7714 68.2459 53.2621 68.3773 52.7525 68.5091 52.2382 68.6214 51.7205 68.7124 51.202 68.8031 50.6814 68.8747 50.1567 68.9246L52.0278 67.0534C52.0963 66.9829 52.1483 66.9013 52.1851 66.8104 52.2217 66.7187 52.2392 66.6238 52.2382 66.5255 52.2371 66.4278 52.2175 66.3327 52.1799 66.242 52.142 66.151 52.0879 66.0713 52.0187 66.0021 51.9492 65.9315 51.8687 65.8785 51.7777 65.8398 51.6878 65.8019 51.593 65.7826 51.4949 65.7815 51.3959 65.7805 51.301 65.7988 51.2101 65.8356 51.1181 65.8714 51.0376 65.9245 50.9671 65.9927L47.7218 69.2371C47.6515 69.3074 47.5974 69.3892 47.5595 69.481 47.5015 69.6208 47.4871 69.7658 47.5167 69.9137 47.5465 70.0629 47.6147 70.1915 47.7218 70.2987L50.9671 73.5429C51.0366 73.6153 51.1181 73.6714 51.2101 73.7114 51.3029 73.7511 51.399 73.7715 51.4999 73.7726 51.6 73.7726 51.697 73.7543 51.791 73.7164 51.8838 73.6788 51.9656 73.6236 52.037 73.552 52.1086 73.4817 52.1627 73.3989 52.2013 73.3061 52.2392 73.2131 52.2575 73.1161 52.2565 73.0152 52.2554 72.9151 52.2361 72.8182 52.1961 72.7252 52.1564 72.6334 52.1002 72.5516 52.0278 72.4821L49.9881 70.4416C50.5547 70.3956 51.1192 70.3272 51.6818 70.2365 52.2431 70.1455 52.8006 70.0332 53.3528 69.8986 53.9052 69.7637 54.4522 69.6067 54.9924 69.429 55.5323 69.2502 56.0652 69.0513 56.5899 68.8308 57.1136 68.6102 57.6292 68.3692 58.1344 68.1079 58.6398 67.8466 59.1337 67.5659 59.6167 67.2648 60.1007 66.9646 60.57 66.6452 61.0284 66.3073 61.4857 65.9694 61.93 65.614 62.3596 65.2406 62.7895 64.8679 63.2029 64.4788 63.602 64.0727 64 63.6663 64.3829 63.2458 64.7474 62.8099 65.1128 62.373 65.4609 61.9227 65.7896 61.4593 66.1194 60.9957 66.4307 60.5191 66.7226 60.0311 67.0137 59.5432 67.2863 59.0441 67.5385 58.5334 67.7904 58.0231 68.0222 57.5046 68.2336 56.9759 68.4437 56.448 68.6337 55.912 68.802 55.3679 68.9706 54.8249 69.1174 54.2758 69.2431 53.7202 69.3678 53.1659 69.4708 52.6067 69.5515 52.0432 69.632 51.4795 69.6903 50.914 69.7261 50.3464 69.7616 49.7788 69.775 49.2104 69.7658 48.6417 69.7556 48.0731 69.724 47.5054 69.6699 46.9389 69.6158 46.3723 69.5392 45.8089 69.4402 45.2486 69.3411 44.689 69.2196 44.1337 69.0767 43.5826 68.9337 43.0322 68.7686 42.4881 68.5828 41.95 68.3959 41.4122 68.1887 40.8832 67.961 40.3616 67.7324 39.8411 67.4841 39.3296 67.2147 38.8284 66.9463 38.3271 66.6583 37.8361 66.3502 37.3584 66.0429 36.8796 65.7162 36.4142 65.372 35.9608 65.0271 35.5087 64.6656 35.0696 64.2859 34.646 63.9062 34.2224 63.5111 33.8142 63.0987 33.4211 62.6873 33.0291 62.2606 32.6533 61.8187 32.294 61.3775 31.9357 60.9223 31.5947 60.4537 31.2722 59.9851 30.9497 59.5043 30.6455 59.0122 30.3617Z" fill="#FFFFFF" transform="matrix(1.0102 0 0 1 978 336)"/></g></g></svg>