<svg xmlns="http://www.w3.org/2000/svg" xmlns:xlink="http://www.w3.org/1999/xlink" width="500" zoomAndPan="magnify" viewBox="0 0 375 374.999991" height="500" preserveAspectRatio="xMidYMid meet" version="1.0"><defs><clipPath id="cbdf14d3ca"><path d="M 12.882812 12.882812 L 362.117188 12.882812 L 362.117188 362.117188 L 12.882812 362.117188 Z M 12.882812 12.882812 " clip-rule="nonzero"/></clipPath><clipPath id="6a3d5ad0a6"><path d="M 187.5 12.882812 C 91.0625 12.882812 12.882812 91.0625 12.882812 187.5 C 12.882812 283.9375 91.0625 362.117188 187.5 362.117188 C 283.9375 362.117188 362.117188 283.9375 362.117188 187.5 C 362.117188 91.0625 283.9375 12.882812 187.5 12.882812 Z M 187.5 12.882812 " clip-rule="nonzero"/></clipPath><clipPath id="1946b25dfc"><path d="M 0.882812 0.882812 L 350.117188 0.882812 L 350.117188 350.117188 L 0.882812 350.117188 Z M 0.882812 0.882812 " clip-rule="nonzero"/></clipPath><clipPath id="4fead1437e"><path d="M 175.5 0.882812 C 79.0625 0.882812 0.882812 79.0625 0.882812 175.5 C 0.882812 271.9375 79.0625 350.117188 175.5 350.117188 C 271.9375 350.117188 350.117188 271.9375 350.117188 175.5 C 350.117188 79.0625 271.9375 0.882812 175.5 0.882812 Z M 175.5 0.882812 " clip-rule="nonzero"/></clipPath><clipPath id="73e0c243a3"><rect x="0" width="351" y="0" height="351"/></clipPath><clipPath id="e152c7dc90"><path d="M 118.121094 155.046875 L 166.207031 155.046875 L 166.207031 203.132812 L 118.121094 203.132812 Z M 118.121094 155.046875 " clip-rule="nonzero"/></clipPath><clipPath id="eca2f6efe8"><path d="M 142.164062 155.046875 C 128.886719 155.046875 118.121094 165.8125 118.121094 179.089844 C 118.121094 192.367188 128.886719 203.132812 142.164062 203.132812 C 155.441406 203.132812 166.207031 192.367188 166.207031 179.089844 C 166.207031 165.8125 155.441406 155.046875 142.164062 155.046875 Z M 142.164062 155.046875 " clip-rule="nonzero"/></clipPath><clipPath id="f4c894cf35"><path d="M 0.121094 0.046875 L 48.207031 0.046875 L 48.207031 48.132812 L 0.121094 48.132812 Z M 0.121094 0.046875 " clip-rule="nonzero"/></clipPath><clipPath id="023fc97b50"><path d="M 24.164062 0.046875 C 10.886719 0.046875 0.121094 10.8125 0.121094 24.089844 C 0.121094 37.367188 10.886719 48.132812 24.164062 48.132812 C 37.441406 48.132812 48.207031 37.367188 48.207031 24.089844 C 48.207031 10.8125 37.441406 0.046875 24.164062 0.046875 Z M 24.164062 0.046875 " clip-rule="nonzero"/></clipPath><clipPath id="8794a2c308"><rect x="0" width="49" y="0" height="49"/></clipPath><clipPath id="36075fd653"><path d="M 99 99 L 275.929688 99 L 275.929688 252 L 99 252 Z M 99 99 " clip-rule="nonzero"/></clipPath><clipPath id="37aeace8e4"><path d="M 149 140 L 275.929688 140 L 275.929688 275.929688 L 149 275.929688 Z M 149 140 " clip-rule="nonzero"/></clipPath></defs><g clip-path="url(#cbdf14d3ca)"><g clip-path="url(#6a3d5ad0a6)"><g transform="matrix(1, 0, 0, 1, 12, 12)"><g clip-path="url(#73e0c243a3)"><g clip-path="url(#1946b25dfc)"><g clip-path="url(#4fead1437e)"><path fill="#002060" d="M 0.882812 0.882812 L 350.117188 0.882812 L 350.117188 350.117188 L 0.882812 350.117188 Z M 0.882812 0.882812 " fill-opacity="1" fill-rule="nonzero"/></g></g></g></g></g></g><g clip-path="url(#e152c7dc90)"><g clip-path="url(#eca2f6efe8)"><g transform="matrix(1, 0, 0, 1, 118, 155)"><g clip-path="url(#8794a2c308)"><g clip-path="url(#f4c894cf35)"><g clip-path="url(#023fc97b50)"><path fill="#002060" d="M 0.121094 0.046875 L 48.207031 0.046875 L 48.207031 48.132812 L 0.121094 48.132812 Z M 0.121094 0.046875 " fill-opacity="1" fill-rule="nonzero"/></g></g></g></g></g></g><g clip-path="url(#36075fd653)"><path fill="#ffffff" d="M 261.851562 99.25 L 113.878906 99.25 C 112.917969 99.25 111.964844 99.34375 111.023438 99.53125 C 110.082031 99.71875 109.167969 99.996094 108.28125 100.363281 C 107.394531 100.730469 106.550781 101.179688 105.753906 101.714844 C 104.953125 102.25 104.214844 102.855469 103.535156 103.535156 C 102.855469 104.214844 102.25 104.953125 101.71875 105.75 C 101.183594 106.550781 100.734375 107.394531 100.367188 108.28125 C 100 109.167969 99.722656 110.082031 99.535156 111.023438 C 99.347656 111.964844 99.253906 112.917969 99.257812 113.878906 L 99.257812 236.625 C 99.257812 237.582031 99.351562 238.53125 99.539062 239.472656 C 99.726562 240.414062 100.003906 241.328125 100.375 242.214844 C 100.742188 243.101562 101.191406 243.941406 101.726562 244.738281 C 102.257812 245.539062 102.863281 246.273438 103.542969 246.953125 C 104.222656 247.632812 104.960938 248.238281 105.757812 248.769531 C 106.558594 249.300781 107.398438 249.753906 108.285156 250.121094 C 109.171875 250.488281 110.085938 250.761719 111.027344 250.949219 C 111.96875 251.136719 112.917969 251.230469 113.878906 251.230469 L 174.382812 251.230469 L 174.382812 231.339844 L 114.035156 231.339844 L 114.035156 119.726562 L 261.976562 119.726562 L 261.976562 149.742188 L 276.453125 149.742188 L 276.453125 113.878906 C 276.453125 112.917969 276.359375 111.96875 276.171875 111.027344 C 275.984375 110.085938 275.710938 109.171875 275.34375 108.285156 C 274.976562 107.398438 274.527344 106.554688 273.996094 105.757812 C 273.460938 104.960938 272.855469 104.222656 272.179688 103.542969 C 271.5 102.863281 270.765625 102.257812 269.964844 101.722656 C 269.167969 101.1875 268.328125 100.738281 267.441406 100.367188 C 266.554688 100 265.644531 99.722656 264.703125 99.535156 C 263.761719 99.34375 262.8125 99.25 261.851562 99.25 Z M 261.851562 99.25 " fill-opacity="1" fill-rule="nonzero"/></g><path fill="#ffffff" d="M 269.625 185.242188 C 269.625 186 269.589844 186.753906 269.515625 187.507812 C 269.441406 188.261719 269.328125 189.007812 269.179688 189.75 C 269.035156 190.492188 268.851562 191.226562 268.628906 191.953125 C 268.410156 192.675781 268.15625 193.386719 267.867188 194.085938 C 267.578125 194.785156 267.253906 195.46875 266.894531 196.136719 C 266.539062 196.804688 266.152344 197.453125 265.730469 198.082031 C 265.308594 198.714844 264.859375 199.320312 264.378906 199.90625 C 263.898438 200.492188 263.390625 201.050781 262.855469 201.585938 C 262.320312 202.121094 261.757812 202.628906 261.175781 203.109375 C 260.589844 203.589844 259.980469 204.039062 259.351562 204.460938 C 258.722656 204.882812 258.074219 205.269531 257.40625 205.628906 C 256.738281 205.984375 256.054688 206.308594 255.355469 206.597656 C 254.65625 206.886719 253.945312 207.140625 253.21875 207.363281 C 252.496094 207.582031 251.761719 207.765625 251.019531 207.914062 C 250.277344 208.058594 249.527344 208.171875 248.777344 208.246094 C 248.023438 208.320312 247.265625 208.355469 246.511719 208.355469 C 245.753906 208.355469 244.996094 208.320312 244.246094 208.246094 C 243.492188 208.171875 242.742188 208.058594 242 207.914062 C 241.257812 207.765625 240.523438 207.582031 239.800781 207.363281 C 239.074219 207.140625 238.363281 206.886719 237.664062 206.597656 C 236.964844 206.308594 236.28125 205.984375 235.613281 205.628906 C 234.945312 205.269531 234.296875 204.882812 233.667969 204.460938 C 233.039062 204.039062 232.429688 203.589844 231.84375 203.109375 C 231.261719 202.628906 230.699219 202.121094 230.164062 201.585938 C 229.628906 201.050781 229.121094 200.492188 228.640625 199.90625 C 228.160156 199.320312 227.710938 198.714844 227.289062 198.082031 C 226.871094 197.453125 226.480469 196.804688 226.125 196.136719 C 225.765625 195.46875 225.445312 194.785156 225.152344 194.085938 C 224.863281 193.386719 224.609375 192.675781 224.390625 191.953125 C 224.171875 191.226562 223.984375 190.492188 223.839844 189.75 C 223.691406 189.007812 223.578125 188.261719 223.503906 187.507812 C 223.429688 186.753906 223.394531 186 223.394531 185.242188 C 223.394531 184.484375 223.429688 183.730469 223.503906 182.976562 C 223.578125 182.222656 223.691406 181.472656 223.839844 180.730469 C 223.984375 179.988281 224.171875 179.253906 224.390625 178.53125 C 224.609375 177.804688 224.863281 177.09375 225.152344 176.394531 C 225.445312 175.695312 225.765625 175.011719 226.125 174.34375 C 226.480469 173.675781 226.871094 173.027344 227.289062 172.398438 C 227.710938 171.769531 228.160156 171.160156 228.640625 170.578125 C 229.121094 169.992188 229.628906 169.429688 230.164062 168.894531 C 230.699219 168.359375 231.261719 167.851562 231.84375 167.371094 C 232.429688 166.890625 233.039062 166.441406 233.667969 166.019531 C 234.296875 165.601562 234.945312 165.210938 235.613281 164.855469 C 236.28125 164.5 236.964844 164.175781 237.664062 163.886719 C 238.363281 163.59375 239.074219 163.339844 239.800781 163.121094 C 240.523438 162.902344 241.257812 162.71875 242 162.570312 C 242.742188 162.421875 243.492188 162.3125 244.246094 162.238281 C 244.996094 162.164062 245.753906 162.125 246.511719 162.125 C 247.265625 162.125 248.023438 162.164062 248.777344 162.238281 C 249.527344 162.3125 250.277344 162.421875 251.019531 162.570312 C 251.761719 162.71875 252.496094 162.902344 253.21875 163.121094 C 253.945312 163.339844 254.65625 163.59375 255.355469 163.886719 C 256.054688 164.175781 256.738281 164.5 257.40625 164.855469 C 258.074219 165.210938 258.722656 165.601562 259.351562 166.019531 C 259.980469 166.441406 260.589844 166.890625 261.175781 167.371094 C 261.757812 167.851562 262.320312 168.359375 262.855469 168.894531 C 263.390625 169.429688 263.898438 169.992188 264.378906 170.578125 C 264.859375 171.160156 265.308594 171.769531 265.730469 172.398438 C 266.152344 173.027344 266.539062 173.675781 266.894531 174.34375 C 267.253906 175.011719 267.578125 175.695312 267.867188 176.394531 C 268.15625 177.09375 268.410156 177.804688 268.628906 178.53125 C 268.851562 179.253906 269.035156 179.988281 269.179688 180.730469 C 269.328125 181.472656 269.441406 182.222656 269.515625 182.976562 C 269.589844 183.730469 269.625 184.484375 269.625 185.242188 Z M 269.625 185.242188 " fill-opacity="1" fill-rule="nonzero"/><g clip-path="url(#37aeace8e4)"><path fill="#ffffff" d="M 246.511719 216.703125 C 245.878906 216.703125 245.292969 216.851562 244.671875 216.886719 C 244.207031 216.808594 243.742188 216.761719 243.269531 216.746094 L 203.65625 216.746094 L 191.800781 192.445312 C 191.539062 191.917969 191.238281 191.414062 190.898438 190.933594 C 190.554688 190.457031 190.179688 190.007812 189.765625 189.585938 C 189.355469 189.167969 188.910156 188.78125 188.4375 188.433594 C 187.964844 188.082031 187.46875 187.773438 186.945312 187.503906 C 186.421875 187.234375 185.882812 187.007812 185.324219 186.820312 C 184.761719 186.636719 184.195312 186.5 183.613281 186.402344 C 183.03125 186.308594 182.449219 186.261719 181.859375 186.261719 C 181.269531 186.261719 180.6875 186.304688 180.105469 186.398438 L 156.820312 142.285156 C 156.589844 141.851562 156.285156 141.476562 155.910156 141.164062 C 155.53125 140.847656 155.105469 140.621094 154.636719 140.472656 C 154.167969 140.328125 153.6875 140.277344 153.199219 140.324219 C 152.710938 140.367188 152.25 140.507812 151.8125 140.734375 C 151.378906 140.964844 151.003906 141.265625 150.691406 141.644531 C 150.375 142.023438 150.148438 142.445312 150 142.914062 C 149.855469 143.382812 149.804688 143.863281 149.851562 144.351562 C 149.894531 144.84375 150.03125 145.304688 150.261719 145.738281 L 173.539062 189.925781 C 172.792969 190.746094 172.1875 191.660156 171.71875 192.664062 C 171.246094 193.671875 170.933594 194.722656 170.777344 195.820312 C 170.621094 196.917969 170.628906 198.015625 170.800781 199.109375 C 170.976562 200.207031 171.304688 201.253906 171.789062 202.25 L 186.722656 232.785156 C 187.179688 233.71875 187.757812 234.574219 188.457031 235.347656 C 189.152344 236.121094 189.941406 236.78125 190.824219 237.332031 C 191.707031 237.882812 192.652344 238.300781 193.652344 238.589844 C 194.652344 238.875 195.671875 239.019531 196.714844 239.015625 L 217.65625 239.015625 C 216.945312 241.53125 216.574219 244.089844 216.539062 246.703125 L 216.539062 275.769531 L 276.472656 275.769531 L 276.472656 246.671875 C 276.472656 245.691406 276.425781 244.710938 276.332031 243.734375 C 276.234375 242.757812 276.089844 241.789062 275.898438 240.828125 C 275.707031 239.863281 275.46875 238.914062 275.183594 237.972656 C 274.902344 237.035156 274.570312 236.109375 274.195312 235.203125 C 273.820312 234.296875 273.402344 233.410156 272.9375 232.546875 C 272.476562 231.679688 271.972656 230.839844 271.425781 230.023438 C 270.882812 229.207031 270.296875 228.417969 269.675781 227.660156 C 269.050781 226.902344 268.394531 226.175781 267.699219 225.480469 C 267.007812 224.785156 266.28125 224.128906 265.519531 223.503906 C 264.761719 222.882812 263.976562 222.296875 263.160156 221.753906 C 262.34375 221.207031 261.503906 220.703125 260.636719 220.242188 C 259.769531 219.777344 258.886719 219.359375 257.976562 218.984375 C 257.070312 218.609375 256.148438 218.277344 255.210938 217.992188 C 254.269531 217.707031 253.320312 217.46875 252.355469 217.277344 C 251.394531 217.085938 250.425781 216.941406 249.449219 216.847656 C 248.46875 216.75 247.492188 216.703125 246.511719 216.703125 Z M 246.511719 216.703125 " fill-opacity="1" fill-rule="nonzero"/></g></svg>