<svg xmlns="http://www.w3.org/2000/svg" xmlns:xlink="http://www.w3.org/1999/xlink" width="500" zoomAndPan="magnify" viewBox="0 0 375 374.999991" height="500" preserveAspectRatio="xMidYMid meet" version="1.2"><defs><clipPath id="6f13b4fc07"><path d="M 12.882812 12.882812 L 362.117188 12.882812 L 362.117188 362.117188 L 12.882812 362.117188 Z M 12.882812 12.882812 "/></clipPath><clipPath id="cc0568f226"><path d="M 187.5 12.882812 C 91.0625 12.882812 12.882812 91.0625 12.882812 187.5 C 12.882812 283.9375 91.0625 362.117188 187.5 362.117188 C 283.9375 362.117188 362.117188 283.9375 362.117188 187.5 C 362.117188 91.0625 283.9375 12.882812 187.5 12.882812 Z M 187.5 12.882812 "/></clipPath><clipPath id="a607c46598"><path d="M 118.121094 155.046875 L 166.207031 155.046875 L 166.207031 203.132812 L 118.121094 203.132812 Z M 118.121094 155.046875 "/></clipPath><clipPath id="c7dcf5daed"><path d="M 142.164062 155.046875 C 128.886719 155.046875 118.121094 165.8125 118.121094 179.089844 C 118.121094 192.367188 128.886719 203.132812 142.164062 203.132812 C 155.441406 203.132812 166.207031 192.367188 166.207031 179.089844 C 166.207031 165.8125 155.441406 155.046875 142.164062 155.046875 Z M 142.164062 155.046875 "/></clipPath><clipPath id="c80b332e32"><path d="M 160 245 L 214 245 L 214 275.929688 L 160 275.929688 Z M 160 245 "/></clipPath><clipPath id="af9635cbb5"><path d="M 222 245 L 275.929688 245 L 275.929688 275.929688 L 222 275.929688 Z M 222 245 "/></clipPath><clipPath id="eec282efc6"><path d="M 98.929688 245 L 153 245 L 153 275.929688 L 98.929688 275.929688 Z M 98.929688 245 "/></clipPath><clipPath id="27c59c6bce"><path d="M 174 98.929688 L 201 98.929688 L 201 126 L 174 126 Z M 174 98.929688 "/></clipPath></defs><g id="dd5625ca31"><g clip-rule="nonzero" clip-path="url(#6f13b4fc07)"><g clip-rule="nonzero" clip-path="url(#cc0568f226)"><path style=" stroke:none;fill-rule:nonzero;fill:#002060;fill-opacity:1;" d="M 12.882812 12.882812 L 362.117188 12.882812 L 362.117188 362.117188 L 12.882812 362.117188 Z M 12.882812 12.882812 "/></g></g><g clip-rule="nonzero" clip-path="url(#a607c46598)"><g clip-rule="nonzero" clip-path="url(#c7dcf5daed)"><path style=" stroke:none;fill-rule:nonzero;fill:#002060;fill-opacity:1;" d="M 118.121094 155.046875 L 166.207031 155.046875 L 166.207031 203.132812 L 118.121094 203.132812 Z M 118.121094 155.046875 "/></g></g><path style=" stroke:none;fill-rule:nonzero;fill:#ffffff;fill-opacity:1;" d="M 129.90625 205.574219 L 129.90625 196.28125 C 129.90625 193.847656 131.875 191.855469 134.328125 191.855469 L 183.003906 191.855469 L 183.003906 205.574219 C 184.421875 205.285156 185.902344 205.128906 187.429688 205.128906 C 188.933594 205.128906 190.417969 205.285156 191.855469 205.574219 L 191.855469 191.855469 L 242.742188 191.855469 C 245.175781 191.855469 247.167969 193.847656 247.167969 196.28125 L 247.167969 205.574219 C 248.582031 205.285156 250.066406 205.128906 251.59375 205.128906 C 253.097656 205.128906 254.578125 205.285156 256.015625 205.574219 L 256.015625 196.28125 C 256.015625 188.957031 250.042969 183.003906 242.742188 183.003906 L 191.855469 183.003906 L 191.855469 169.730469 L 183.003906 169.730469 L 183.003906 183.003906 L 134.328125 183.003906 C 127.007812 183.003906 121.054688 188.957031 121.054688 196.28125 L 121.054688 205.574219 C 122.472656 205.285156 123.953125 205.128906 125.480469 205.128906 C 126.984375 205.128906 128.464844 205.285156 129.90625 205.574219 Z M 129.90625 205.574219 "/><g clip-rule="nonzero" clip-path="url(#c80b332e32)"><path style=" stroke:none;fill-rule:nonzero;fill:#ffffff;fill-opacity:1;" d="M 200.0625 245.375 C 196.480469 247.898438 192.121094 249.378906 187.429688 249.378906 C 182.71875 249.378906 178.359375 247.898438 174.773438 245.375 C 166.832031 247.121094 160.878906 254.203125 160.878906 262.65625 L 160.878906 271.503906 C 160.878906 273.9375 162.847656 275.929688 165.304688 275.929688 L 209.554688 275.929688 C 211.988281 275.929688 213.980469 273.9375 213.980469 271.503906 L 213.980469 262.65625 C 213.980469 254.203125 208.007812 247.121094 200.0625 245.375 Z M 200.0625 245.375 "/></g><g clip-rule="nonzero" clip-path="url(#af9635cbb5)"><path style=" stroke:none;fill-rule:nonzero;fill:#ffffff;fill-opacity:1;" d="M 263.605469 245.796875 C 260.132812 248.050781 256.015625 249.378906 251.59375 249.378906 C 246.703125 249.378906 242.1875 247.765625 238.515625 245.066406 C 229.710938 246.0625 222.828125 253.5625 222.828125 262.65625 L 222.828125 271.503906 C 222.828125 273.9375 224.800781 275.929688 227.253906 275.929688 L 271.503906 275.929688 C 273.9375 275.929688 275.929688 273.9375 275.929688 271.503906 L 275.929688 262.65625 C 275.929688 254.777344 270.730469 248.074219 263.605469 245.796875 Z M 263.605469 245.796875 "/></g><g clip-rule="nonzero" clip-path="url(#eec282efc6)"><path style=" stroke:none;fill-rule:nonzero;fill:#ffffff;fill-opacity:1;" d="M 138.113281 245.375 C 134.527344 247.898438 130.171875 249.378906 125.480469 249.378906 C 120.765625 249.378906 116.410156 247.898438 112.824219 245.375 C 104.882812 247.121094 98.929688 254.203125 98.929688 262.65625 L 98.929688 271.503906 C 98.929688 273.9375 100.898438 275.929688 103.355469 275.929688 L 147.605469 275.929688 C 150.039062 275.929688 152.03125 273.9375 152.03125 271.503906 L 152.03125 262.65625 C 152.03125 254.203125 146.054688 247.121094 138.113281 245.375 Z M 138.113281 245.375 "/></g><path style=" stroke:none;fill-rule:nonzero;fill:#ffffff;fill-opacity:1;" d="M 200.703125 227.253906 C 200.703125 228.125 200.621094 228.988281 200.449219 229.84375 C 200.28125 230.699219 200.027344 231.53125 199.695312 232.335938 C 199.359375 233.140625 198.953125 233.90625 198.46875 234.628906 C 197.984375 235.355469 197.433594 236.023438 196.816406 236.640625 C 196.199219 237.257812 195.53125 237.808594 194.804688 238.292969 C 194.082031 238.777344 193.316406 239.1875 192.511719 239.519531 C 191.703125 239.851562 190.875 240.105469 190.019531 240.273438 C 189.164062 240.445312 188.300781 240.53125 187.429688 240.53125 C 186.558594 240.53125 185.695312 240.445312 184.839844 240.273438 C 183.984375 240.105469 183.15625 239.851562 182.351562 239.519531 C 181.542969 239.1875 180.78125 238.777344 180.054688 238.292969 C 179.328125 237.808594 178.660156 237.257812 178.042969 236.640625 C 177.425781 236.023438 176.875 235.355469 176.390625 234.628906 C 175.90625 233.90625 175.5 233.140625 175.164062 232.335938 C 174.832031 231.53125 174.578125 230.699219 174.410156 229.84375 C 174.238281 228.988281 174.15625 228.125 174.15625 227.253906 C 174.15625 226.382812 174.238281 225.519531 174.410156 224.664062 C 174.578125 223.808594 174.832031 222.980469 175.164062 222.175781 C 175.5 221.371094 175.90625 220.605469 176.390625 219.878906 C 176.875 219.15625 177.425781 218.484375 178.042969 217.867188 C 178.660156 217.25 179.328125 216.703125 180.054688 216.21875 C 180.78125 215.734375 181.542969 215.324219 182.351562 214.992188 C 183.15625 214.65625 183.984375 214.40625 184.839844 214.234375 C 185.695312 214.066406 186.558594 213.980469 187.429688 213.980469 C 188.300781 213.980469 189.164062 214.066406 190.019531 214.234375 C 190.875 214.40625 191.703125 214.65625 192.511719 214.992188 C 193.316406 215.324219 194.082031 215.734375 194.804688 216.21875 C 195.53125 216.703125 196.199219 217.25 196.816406 217.867188 C 197.433594 218.484375 197.984375 219.15625 198.46875 219.878906 C 198.953125 220.605469 199.359375 221.371094 199.695312 222.175781 C 200.027344 222.980469 200.28125 223.808594 200.449219 224.664062 C 200.621094 225.519531 200.703125 226.382812 200.703125 227.253906 Z M 200.703125 227.253906 "/><path style=" stroke:none;fill-rule:nonzero;fill:#ffffff;fill-opacity:1;" d="M 165.304688 160.878906 L 209.554688 160.878906 C 211.988281 160.878906 213.980469 158.886719 213.980469 156.453125 L 213.980469 147.605469 C 213.980469 139.152344 208.007812 132.074219 200.0625 130.324219 C 196.480469 132.847656 192.121094 134.328125 187.429688 134.328125 C 182.71875 134.328125 178.359375 132.847656 174.773438 130.324219 C 166.832031 132.074219 160.878906 139.152344 160.878906 147.605469 L 160.878906 156.453125 C 160.878906 158.886719 162.847656 160.878906 165.304688 160.878906 Z M 165.304688 160.878906 "/><g clip-rule="nonzero" clip-path="url(#27c59c6bce)"><path style=" stroke:none;fill-rule:nonzero;fill:#ffffff;fill-opacity:1;" d="M 200.703125 112.203125 C 200.703125 113.078125 200.621094 113.941406 200.449219 114.792969 C 200.28125 115.648438 200.027344 116.480469 199.695312 117.285156 C 199.359375 118.089844 198.953125 118.855469 198.46875 119.578125 C 197.984375 120.304688 197.433594 120.976562 196.816406 121.589844 C 196.199219 122.207031 195.53125 122.757812 194.804688 123.242188 C 194.082031 123.726562 193.316406 124.136719 192.511719 124.46875 C 191.703125 124.804688 190.875 125.054688 190.019531 125.226562 C 189.164062 125.394531 188.300781 125.480469 187.429688 125.480469 C 186.558594 125.480469 185.695312 125.394531 184.839844 125.226562 C 183.984375 125.054688 183.15625 124.804688 182.351562 124.46875 C 181.542969 124.136719 180.78125 123.726562 180.054688 123.242188 C 179.328125 122.757812 178.660156 122.207031 178.042969 121.589844 C 177.425781 120.976562 176.875 120.304688 176.390625 119.578125 C 175.90625 118.855469 175.5 118.089844 175.164062 117.285156 C 174.832031 116.480469 174.578125 115.648438 174.410156 114.792969 C 174.238281 113.941406 174.15625 113.078125 174.15625 112.203125 C 174.15625 111.332031 174.238281 110.46875 174.410156 109.613281 C 174.578125 108.761719 174.832031 107.929688 175.164062 107.125 C 175.5 106.320312 175.90625 105.554688 176.390625 104.828125 C 176.875 104.105469 177.425781 103.433594 178.042969 102.816406 C 178.660156 102.203125 179.328125 101.652344 180.054688 101.167969 C 180.78125 100.683594 181.542969 100.273438 182.351562 99.941406 C 183.15625 99.605469 183.984375 99.355469 184.839844 99.183594 C 185.695312 99.015625 186.558594 98.929688 187.429688 98.929688 C 188.300781 98.929688 189.164062 99.015625 190.019531 99.183594 C 190.875 99.355469 191.703125 99.605469 192.511719 99.941406 C 193.316406 100.273438 194.082031 100.683594 194.804688 101.167969 C 195.53125 101.652344 196.199219 102.203125 196.816406 102.816406 C 197.433594 103.433594 197.984375 104.105469 198.46875 104.828125 C 198.953125 105.554688 199.359375 106.320312 199.695312 107.125 C 200.027344 107.929688 200.28125 108.761719 200.449219 109.613281 C 200.621094 110.46875 200.703125 111.332031 200.703125 112.203125 Z M 200.703125 112.203125 "/></g><path style=" stroke:none;fill-rule:nonzero;fill:#ffffff;fill-opacity:1;" d="M 264.867188 227.253906 C 264.867188 228.125 264.78125 228.988281 264.613281 229.84375 C 264.441406 230.699219 264.191406 231.53125 263.855469 232.335938 C 263.523438 233.140625 263.113281 233.90625 262.628906 234.628906 C 262.144531 235.355469 261.59375 236.023438 260.980469 236.640625 C 260.363281 237.257812 259.691406 237.808594 258.96875 238.292969 C 258.242188 238.777344 257.476562 239.1875 256.671875 239.519531 C 255.867188 239.851562 255.035156 240.105469 254.183594 240.273438 C 253.328125 240.445312 252.464844 240.53125 251.59375 240.53125 C 250.71875 240.53125 249.855469 240.445312 249.003906 240.273438 C 248.148438 240.105469 247.316406 239.851562 246.511719 239.519531 C 245.707031 239.1875 244.941406 238.777344 244.21875 238.292969 C 243.492188 237.808594 242.820312 237.257812 242.207031 236.640625 C 241.589844 236.023438 241.039062 235.355469 240.554688 234.628906 C 240.070312 233.90625 239.660156 233.140625 239.328125 232.335938 C 238.996094 231.53125 238.742188 230.699219 238.574219 229.84375 C 238.402344 228.988281 238.316406 228.125 238.316406 227.253906 C 238.316406 226.382812 238.402344 225.519531 238.574219 224.664062 C 238.742188 223.808594 238.996094 222.980469 239.328125 222.175781 C 239.660156 221.371094 240.070312 220.605469 240.554688 219.878906 C 241.039062 219.15625 241.589844 218.484375 242.207031 217.867188 C 242.820312 217.25 243.492188 216.703125 244.21875 216.21875 C 244.941406 215.734375 245.707031 215.324219 246.511719 214.992188 C 247.316406 214.65625 248.148438 214.40625 249.003906 214.234375 C 249.855469 214.066406 250.71875 213.980469 251.59375 213.980469 C 252.464844 213.980469 253.328125 214.066406 254.183594 214.234375 C 255.035156 214.40625 255.867188 214.65625 256.671875 214.992188 C 257.476562 215.324219 258.242188 215.734375 258.96875 216.21875 C 259.691406 216.703125 260.363281 217.25 260.980469 217.867188 C 261.59375 218.484375 262.144531 219.15625 262.628906 219.878906 C 263.113281 220.605469 263.523438 221.371094 263.855469 222.175781 C 264.191406 222.980469 264.441406 223.808594 264.613281 224.664062 C 264.78125 225.519531 264.867188 226.382812 264.867188 227.253906 Z M 264.867188 227.253906 "/><path style=" stroke:none;fill-rule:nonzero;fill:#ffffff;fill-opacity:1;" d="M 138.753906 227.253906 C 138.753906 228.125 138.667969 228.988281 138.5 229.84375 C 138.328125 230.699219 138.078125 231.53125 137.746094 232.335938 C 137.410156 233.140625 137 233.90625 136.515625 234.628906 C 136.035156 235.355469 135.484375 236.023438 134.867188 236.640625 C 134.25 237.257812 133.578125 237.808594 132.855469 238.292969 C 132.128906 238.777344 131.363281 239.1875 130.558594 239.519531 C 129.753906 239.851562 128.925781 240.105469 128.070312 240.273438 C 127.214844 240.445312 126.351562 240.53125 125.480469 240.53125 C 124.609375 240.53125 123.746094 240.445312 122.890625 240.273438 C 122.035156 240.105469 121.203125 239.851562 120.398438 239.519531 C 119.59375 239.1875 118.828125 238.777344 118.105469 238.292969 C 117.378906 237.808594 116.710938 237.257812 116.09375 236.640625 C 115.476562 236.023438 114.925781 235.355469 114.441406 234.628906 C 113.957031 233.90625 113.550781 233.140625 113.214844 232.335938 C 112.882812 231.53125 112.628906 230.699219 112.460938 229.84375 C 112.289062 228.988281 112.203125 228.125 112.203125 227.253906 C 112.203125 226.382812 112.289062 225.519531 112.460938 224.664062 C 112.628906 223.808594 112.882812 222.980469 113.214844 222.175781 C 113.550781 221.371094 113.957031 220.605469 114.441406 219.878906 C 114.925781 219.15625 115.476562 218.484375 116.09375 217.867188 C 116.710938 217.25 117.378906 216.703125 118.105469 216.21875 C 118.828125 215.734375 119.59375 215.324219 120.398438 214.992188 C 121.203125 214.65625 122.035156 214.40625 122.890625 214.234375 C 123.746094 214.066406 124.609375 213.980469 125.480469 213.980469 C 126.351562 213.980469 127.214844 214.066406 128.070312 214.234375 C 128.925781 214.40625 129.753906 214.65625 130.558594 214.992188 C 131.363281 215.324219 132.128906 215.734375 132.855469 216.21875 C 133.578125 216.703125 134.25 217.25 134.867188 217.867188 C 135.484375 218.484375 136.035156 219.15625 136.515625 219.878906 C 137 220.605469 137.410156 221.371094 137.746094 222.175781 C 138.078125 222.980469 138.328125 223.808594 138.5 224.664062 C 138.667969 225.519531 138.753906 226.382812 138.753906 227.253906 Z M 138.753906 227.253906 "/></g></svg>