<svg xmlns="http://www.w3.org/2000/svg" xmlns:xlink="http://www.w3.org/1999/xlink" width="500" zoomAndPan="magnify" viewBox="0 0 375 374.999991" height="500" preserveAspectRatio="xMidYMid meet" version="1.2"><defs><clipPath id="d4879a04a9"><path d="M 12.882812 12.882812 L 362.117188 12.882812 L 362.117188 362.117188 L 12.882812 362.117188 Z M 12.882812 12.882812 "/></clipPath><clipPath id="eb04509796"><path d="M 187.5 12.882812 C 91.0625 12.882812 12.882812 91.0625 12.882812 187.5 C 12.882812 283.9375 91.0625 362.117188 187.5 362.117188 C 283.9375 362.117188 362.117188 283.9375 362.117188 187.5 C 362.117188 91.0625 283.9375 12.882812 187.5 12.882812 Z M 187.5 12.882812 "/></clipPath><clipPath id="561b47537b"><path d="M 155 98.929688 L 220 98.929688 L 220 163 L 155 163 Z M 155 98.929688 "/></clipPath><clipPath id="e66b1582ef"><path d="M 128 171 L 247 171 L 247 235.429688 L 128 235.429688 Z M 128 171 "/></clipPath><clipPath id="47195470f9"><path d="M 82.667969 189 L 133 189 L 133 235.429688 L 82.667969 235.429688 Z M 82.667969 189 "/></clipPath><clipPath id="329fac87dd"><path d="M 242 189 L 292.667969 189 L 292.667969 235.429688 L 242 235.429688 Z M 242 189 "/></clipPath><clipPath id="881e04675a"><path d="M 146.902344 194.875 L 228.097656 194.875 L 228.097656 276.070312 L 146.902344 276.070312 Z M 146.902344 194.875 "/></clipPath><clipPath id="660710f21a"><path d="M 187.5 194.875 C 165.078125 194.875 146.902344 213.050781 146.902344 235.472656 C 146.902344 257.894531 165.078125 276.070312 187.5 276.070312 C 209.921875 276.070312 228.097656 257.894531 228.097656 235.472656 C 228.097656 213.050781 209.921875 194.875 187.5 194.875 Z M 187.5 194.875 "/></clipPath><clipPath id="03151258ed"><path d="M 157.6875 205.660156 L 217.6875 205.660156 L 217.6875 265.660156 L 157.6875 265.660156 Z M 157.6875 205.660156 "/></clipPath></defs><g id="111c36053c"><g clip-rule="nonzero" clip-path="url(#d4879a04a9)"><g clip-rule="nonzero" clip-path="url(#eb04509796)"><path style=" stroke:none;fill-rule:nonzero;fill:#ffffff;fill-opacity:1;" d="M 12.882812 12.882812 L 362.117188 12.882812 L 362.117188 362.117188 L 12.882812 362.117188 Z M 12.882812 12.882812 "/></g></g><g clip-rule="nonzero" clip-path="url(#561b47537b)"><path style=" stroke:none;fill-rule:nonzero;fill:#002060;fill-opacity:1;" d="M 219.324219 130.78125 C 219.324219 131.824219 219.269531 132.863281 219.167969 133.902344 C 219.066406 134.941406 218.914062 135.96875 218.710938 136.992188 C 218.507812 138.015625 218.253906 139.027344 217.949219 140.023438 C 217.648438 141.023438 217.296875 142.003906 216.898438 142.96875 C 216.5 143.933594 216.054688 144.875 215.5625 145.792969 C 215.070312 146.714844 214.535156 147.605469 213.953125 148.476562 C 213.375 149.34375 212.753906 150.179688 212.09375 150.984375 C 211.429688 151.792969 210.730469 152.5625 209.992188 153.300781 C 209.257812 154.039062 208.484375 154.738281 207.679688 155.398438 C 206.871094 156.0625 206.035156 156.683594 205.167969 157.261719 C 204.300781 157.839844 203.40625 158.378906 202.488281 158.867188 C 201.566406 159.359375 200.625 159.804688 199.660156 160.207031 C 198.695312 160.605469 197.714844 160.957031 196.71875 161.257812 C 195.71875 161.5625 194.710938 161.8125 193.6875 162.019531 C 192.664062 162.222656 191.632812 162.375 190.59375 162.476562 C 189.554688 162.578125 188.515625 162.628906 187.472656 162.628906 C 186.429688 162.628906 185.390625 162.578125 184.351562 162.476562 C 183.3125 162.375 182.28125 162.222656 181.257812 162.019531 C 180.234375 161.8125 179.226562 161.5625 178.226562 161.257812 C 177.230469 160.957031 176.246094 160.605469 175.285156 160.207031 C 174.320312 159.804688 173.378906 159.359375 172.457031 158.867188 C 171.539062 158.378906 170.644531 157.839844 169.777344 157.261719 C 168.910156 156.683594 168.074219 156.0625 167.265625 155.398438 C 166.460938 154.738281 165.6875 154.039062 164.949219 153.300781 C 164.214844 152.5625 163.515625 151.792969 162.851562 150.984375 C 162.191406 150.179688 161.570312 149.34375 160.988281 148.476562 C 160.410156 147.605469 159.875 146.714844 159.382812 145.792969 C 158.890625 144.875 158.445312 143.933594 158.046875 142.96875 C 157.648438 142.003906 157.296875 141.023438 156.992188 140.023438 C 156.691406 139.027344 156.4375 138.015625 156.234375 136.992188 C 156.03125 135.96875 155.878906 134.941406 155.777344 133.902344 C 155.671875 132.863281 155.621094 131.824219 155.621094 130.78125 C 155.621094 129.738281 155.671875 128.695312 155.777344 127.65625 C 155.878906 126.621094 156.03125 125.589844 156.234375 124.566406 C 156.4375 123.542969 156.691406 122.53125 156.992188 121.535156 C 157.296875 120.535156 157.648438 119.554688 158.046875 118.589844 C 158.445312 117.628906 158.890625 116.6875 159.382812 115.765625 C 159.875 114.847656 160.410156 113.953125 160.988281 113.085938 C 161.570312 112.21875 162.191406 111.378906 162.851562 110.574219 C 163.515625 109.769531 164.214844 108.996094 164.949219 108.257812 C 165.6875 107.519531 166.460938 106.820312 167.265625 106.160156 C 168.074219 105.496094 168.910156 104.878906 169.777344 104.296875 C 170.644531 103.71875 171.539062 103.183594 172.457031 102.691406 C 173.378906 102.199219 174.320312 101.753906 175.285156 101.355469 C 176.246094 100.953125 177.230469 100.605469 178.226562 100.300781 C 179.226562 100 180.234375 99.746094 181.257812 99.542969 C 182.28125 99.339844 183.3125 99.183594 184.351562 99.082031 C 185.390625 98.980469 186.429688 98.929688 187.472656 98.929688 C 188.515625 98.929688 189.554688 98.980469 190.59375 99.082031 C 191.632812 99.183594 192.664062 99.339844 193.6875 99.542969 C 194.710938 99.746094 195.71875 100 196.71875 100.300781 C 197.714844 100.605469 198.695312 100.953125 199.660156 101.355469 C 200.625 101.753906 201.566406 102.199219 202.488281 102.691406 C 203.40625 103.183594 204.300781 103.71875 205.167969 104.296875 C 206.035156 104.878906 206.871094 105.496094 207.679688 106.160156 C 208.484375 106.820312 209.257812 107.519531 209.992188 108.257812 C 210.730469 108.996094 211.429688 109.769531 212.09375 110.574219 C 212.753906 111.378906 213.375 112.21875 213.953125 113.085938 C 214.535156 113.953125 215.070312 114.847656 215.5625 115.765625 C 216.054688 116.6875 216.5 117.628906 216.898438 118.589844 C 217.296875 119.554688 217.648438 120.535156 217.949219 121.535156 C 218.253906 122.53125 218.507812 123.542969 218.710938 124.566406 C 218.914062 125.589844 219.066406 126.621094 219.167969 127.65625 C 219.269531 128.695312 219.324219 129.738281 219.324219 130.78125 Z M 219.324219 130.78125 "/></g><path style=" stroke:none;fill-rule:nonzero;fill:#002060;fill-opacity:1;" d="M 273.921875 158.078125 C 273.921875 158.824219 273.886719 159.566406 273.8125 160.308594 C 273.738281 161.050781 273.628906 161.789062 273.484375 162.519531 C 273.339844 163.25 273.160156 163.972656 272.941406 164.683594 C 272.726562 165.398438 272.476562 166.097656 272.191406 166.785156 C 271.90625 167.472656 271.585938 168.148438 271.234375 168.804688 C 270.886719 169.460938 270.503906 170.097656 270.089844 170.71875 C 269.675781 171.339844 269.230469 171.9375 268.757812 172.511719 C 268.285156 173.089844 267.785156 173.640625 267.257812 174.167969 C 266.730469 174.691406 266.179688 175.191406 265.605469 175.664062 C 265.027344 176.136719 264.429688 176.582031 263.8125 176.996094 C 263.191406 177.410156 262.554688 177.792969 261.898438 178.144531 C 261.238281 178.496094 260.566406 178.8125 259.878906 179.097656 C 259.191406 179.382812 258.488281 179.632812 257.777344 179.851562 C 257.0625 180.066406 256.339844 180.246094 255.609375 180.394531 C 254.878906 180.539062 254.144531 180.648438 253.402344 180.71875 C 252.660156 180.792969 251.917969 180.828125 251.171875 180.828125 C 250.425781 180.828125 249.683594 180.792969 248.941406 180.71875 C 248.199219 180.648438 247.464844 180.539062 246.734375 180.394531 C 246.003906 180.246094 245.28125 180.066406 244.570312 179.851562 C 243.855469 179.632812 243.15625 179.382812 242.464844 179.097656 C 241.777344 178.8125 241.105469 178.496094 240.449219 178.144531 C 239.792969 177.792969 239.152344 177.410156 238.53125 176.996094 C 237.914062 176.582031 237.316406 176.136719 236.738281 175.664062 C 236.164062 175.191406 235.613281 174.691406 235.085938 174.167969 C 234.558594 173.640625 234.058594 173.089844 233.585938 172.511719 C 233.113281 171.9375 232.671875 171.339844 232.257812 170.71875 C 231.84375 170.097656 231.460938 169.460938 231.109375 168.804688 C 230.757812 168.148438 230.4375 167.472656 230.152344 166.785156 C 229.867188 166.097656 229.617188 165.398438 229.402344 164.683594 C 229.1875 163.972656 229.003906 163.25 228.859375 162.519531 C 228.714844 161.789062 228.605469 161.050781 228.53125 160.308594 C 228.457031 159.566406 228.421875 158.824219 228.421875 158.078125 C 228.421875 157.335938 228.457031 156.589844 228.53125 155.851562 C 228.605469 155.109375 228.714844 154.371094 228.859375 153.640625 C 229.003906 152.910156 229.1875 152.1875 229.402344 151.476562 C 229.617188 150.761719 229.867188 150.0625 230.152344 149.375 C 230.4375 148.683594 230.757812 148.011719 231.109375 147.355469 C 231.460938 146.699219 231.84375 146.058594 232.257812 145.441406 C 232.671875 144.820312 233.113281 144.222656 233.585938 143.648438 C 234.058594 143.070312 234.558594 142.519531 235.085938 141.992188 C 235.613281 141.464844 236.164062 140.964844 236.738281 140.492188 C 237.316406 140.019531 237.914062 139.578125 238.53125 139.164062 C 239.152344 138.75 239.792969 138.367188 240.449219 138.015625 C 241.105469 137.664062 241.777344 137.347656 242.464844 137.0625 C 243.15625 136.777344 243.855469 136.527344 244.570312 136.308594 C 245.28125 136.09375 246.003906 135.914062 246.734375 135.765625 C 247.464844 135.621094 248.199219 135.511719 248.941406 135.4375 C 249.683594 135.367188 250.425781 135.328125 251.171875 135.328125 C 251.917969 135.328125 252.660156 135.367188 253.402344 135.4375 C 254.144531 135.511719 254.878906 135.621094 255.609375 135.765625 C 256.339844 135.914062 257.0625 136.09375 257.777344 136.308594 C 258.488281 136.527344 259.191406 136.777344 259.878906 137.0625 C 260.566406 137.347656 261.238281 137.664062 261.898438 138.015625 C 262.554688 138.367188 263.191406 138.75 263.8125 139.164062 C 264.429688 139.578125 265.027344 140.019531 265.605469 140.492188 C 266.179688 140.964844 266.730469 141.464844 267.257812 141.992188 C 267.785156 142.519531 268.285156 143.070312 268.757812 143.648438 C 269.230469 144.222656 269.675781 144.820312 270.089844 145.441406 C 270.503906 146.058594 270.886719 146.699219 271.234375 147.355469 C 271.585938 148.011719 271.90625 148.683594 272.191406 149.375 C 272.476562 150.0625 272.726562 150.761719 272.941406 151.476562 C 273.160156 152.1875 273.339844 152.910156 273.484375 153.640625 C 273.628906 154.371094 273.738281 155.109375 273.8125 155.851562 C 273.886719 156.589844 273.921875 157.335938 273.921875 158.078125 Z M 273.921875 158.078125 "/><path style=" stroke:none;fill-rule:nonzero;fill:#002060;fill-opacity:1;" d="M 147.167969 158.078125 C 147.167969 158.824219 147.132812 159.566406 147.058594 160.308594 C 146.984375 161.050781 146.875 161.789062 146.730469 162.519531 C 146.585938 163.25 146.40625 163.972656 146.1875 164.683594 C 145.972656 165.398438 145.722656 166.097656 145.4375 166.785156 C 145.152344 167.472656 144.832031 168.148438 144.480469 168.804688 C 144.132812 169.460938 143.75 170.097656 143.335938 170.71875 C 142.921875 171.339844 142.476562 171.9375 142.003906 172.511719 C 141.53125 173.089844 141.03125 173.640625 140.503906 174.167969 C 139.976562 174.691406 139.425781 175.191406 138.851562 175.664062 C 138.273438 176.136719 137.675781 176.582031 137.058594 176.996094 C 136.4375 177.410156 135.800781 177.792969 135.144531 178.144531 C 134.484375 178.496094 133.8125 178.8125 133.125 179.097656 C 132.4375 179.382812 131.734375 179.632812 131.023438 179.851562 C 130.308594 180.066406 129.585938 180.246094 128.855469 180.394531 C 128.125 180.539062 127.390625 180.648438 126.648438 180.71875 C 125.90625 180.792969 125.164062 180.828125 124.417969 180.828125 C 123.671875 180.828125 122.929688 180.792969 122.1875 180.71875 C 121.445312 180.648438 120.710938 180.539062 119.980469 180.394531 C 119.25 180.246094 118.527344 180.066406 117.816406 179.851562 C 117.101562 179.632812 116.402344 179.382812 115.710938 179.097656 C 115.023438 178.8125 114.351562 178.496094 113.695312 178.144531 C 113.039062 177.792969 112.398438 177.410156 111.78125 176.996094 C 111.160156 176.582031 110.5625 176.136719 109.984375 175.664062 C 109.410156 175.191406 108.859375 174.691406 108.332031 174.167969 C 107.804688 173.640625 107.304688 173.089844 106.832031 172.511719 C 106.359375 171.9375 105.917969 171.339844 105.503906 170.71875 C 105.089844 170.097656 104.707031 169.460938 104.355469 168.804688 C 104.003906 168.148438 103.683594 167.472656 103.398438 166.785156 C 103.113281 166.097656 102.863281 165.398438 102.648438 164.683594 C 102.433594 163.972656 102.25 163.25 102.105469 162.519531 C 101.960938 161.789062 101.851562 161.050781 101.777344 160.308594 C 101.703125 159.566406 101.667969 158.824219 101.667969 158.078125 C 101.667969 157.335938 101.703125 156.589844 101.777344 155.851562 C 101.851562 155.109375 101.960938 154.371094 102.105469 153.640625 C 102.25 152.910156 102.433594 152.1875 102.648438 151.476562 C 102.863281 150.761719 103.113281 150.0625 103.398438 149.375 C 103.683594 148.683594 104.003906 148.011719 104.355469 147.355469 C 104.707031 146.699219 105.089844 146.058594 105.503906 145.441406 C 105.917969 144.820312 106.359375 144.222656 106.832031 143.648438 C 107.304688 143.070312 107.804688 142.519531 108.332031 141.992188 C 108.859375 141.464844 109.410156 140.964844 109.984375 140.492188 C 110.5625 140.019531 111.160156 139.578125 111.78125 139.164062 C 112.398438 138.75 113.039062 138.367188 113.695312 138.015625 C 114.351562 137.664062 115.023438 137.347656 115.710938 137.0625 C 116.402344 136.777344 117.101562 136.527344 117.816406 136.308594 C 118.527344 136.09375 119.25 135.914062 119.980469 135.765625 C 120.710938 135.621094 121.445312 135.511719 122.1875 135.4375 C 122.929688 135.367188 123.671875 135.328125 124.417969 135.328125 C 125.164062 135.328125 125.90625 135.367188 126.648438 135.4375 C 127.390625 135.511719 128.125 135.621094 128.855469 135.765625 C 129.585938 135.914062 130.308594 136.09375 131.023438 136.308594 C 131.734375 136.527344 132.4375 136.777344 133.125 137.0625 C 133.8125 137.347656 134.484375 137.664062 135.144531 138.015625 C 135.800781 138.367188 136.4375 138.75 137.058594 139.164062 C 137.675781 139.578125 138.273438 140.019531 138.851562 140.492188 C 139.425781 140.964844 139.976562 141.464844 140.503906 141.992188 C 141.03125 142.519531 141.53125 143.070312 142.003906 143.648438 C 142.476562 144.222656 142.921875 144.820312 143.335938 145.441406 C 143.75 146.058594 144.132812 146.699219 144.480469 147.355469 C 144.832031 148.011719 145.152344 148.683594 145.4375 149.375 C 145.722656 150.0625 145.972656 150.761719 146.1875 151.476562 C 146.40625 152.1875 146.585938 152.910156 146.730469 153.640625 C 146.875 154.371094 146.984375 155.109375 147.058594 155.851562 C 147.132812 156.589844 147.167969 157.335938 147.167969 158.078125 Z M 147.167969 158.078125 "/><g clip-rule="nonzero" clip-path="url(#e66b1582ef)"><path style=" stroke:none;fill-rule:nonzero;fill:#002060;fill-opacity:1;" d="M 187.472656 171.730469 C 154.859375 171.730469 128.324219 198.265625 128.324219 230.878906 C 128.324219 233.390625 130.359375 235.429688 132.871094 235.429688 L 242.074219 235.429688 C 244.585938 235.429688 246.621094 233.390625 246.621094 230.878906 C 246.621094 198.265625 220.085938 171.730469 187.472656 171.730469 Z M 187.472656 171.730469 "/></g><g clip-rule="nonzero" clip-path="url(#47195470f9)"><path style=" stroke:none;fill-rule:nonzero;fill:#002060;fill-opacity:1;" d="M 132.261719 190.914062 C 129.476562 190.320312 126.648438 189.929688 123.773438 189.929688 C 101.195312 189.929688 82.824219 208.300781 82.824219 230.878906 C 82.824219 233.390625 84.859375 235.429688 87.371094 235.429688 L 120.058594 235.429688 C 119.550781 234 119.222656 232.480469 119.222656 230.878906 C 119.222656 215.945312 124.101562 202.160156 132.261719 190.914062 Z M 132.261719 190.914062 "/></g><g clip-rule="nonzero" clip-path="url(#329fac87dd)"><path style=" stroke:none;fill-rule:nonzero;fill:#002060;fill-opacity:1;" d="M 251.171875 189.929688 C 248.296875 189.929688 245.464844 190.320312 242.683594 190.914062 C 250.84375 202.160156 255.722656 215.945312 255.722656 230.878906 C 255.722656 232.480469 255.394531 234 254.886719 235.429688 L 287.574219 235.429688 C 290.085938 235.429688 292.121094 233.390625 292.121094 230.878906 C 292.121094 208.300781 273.75 189.929688 251.171875 189.929688 Z M 251.171875 189.929688 "/></g><g clip-rule="nonzero" clip-path="url(#881e04675a)"><g clip-rule="nonzero" clip-path="url(#660710f21a)"><path style=" stroke:none;fill-rule:nonzero;fill:#ffffff;fill-opacity:1;" d="M 146.902344 194.875 L 228.097656 194.875 L 228.097656 276.070312 L 146.902344 276.070312 Z M 146.902344 194.875 "/></g></g><g clip-rule="nonzero" clip-path="url(#03151258ed)"><path style=" stroke:none;fill-rule:nonzero;fill:#002060;fill-opacity:1;" d="M 215.140625 240.132812 C 216.3125 240.132812 217.269531 239.175781 217.269531 238.007812 L 217.269531 232.863281 C 217.269531 231.695312 216.3125 230.738281 215.140625 230.738281 L 212.933594 230.738281 C 211.761719 230.738281 210.523438 229.824219 210.179688 228.703125 L 208.296875 224.128906 C 207.742188 223.097656 207.964844 221.578125 208.792969 220.75 L 210.355469 219.1875 C 211.183594 218.359375 211.183594 217.007812 210.355469 216.179688 L 206.71875 212.542969 C 205.894531 211.714844 204.539062 211.714844 203.710938 212.542969 L 202.148438 214.105469 C 201.320312 214.933594 199.800781 215.15625 198.769531 214.605469 L 194.195312 212.71875 C 193.078125 212.375 192.164062 211.136719 192.164062 209.96875 L 192.164062 207.761719 C 192.164062 206.589844 191.207031 205.632812 190.035156 205.632812 L 184.894531 205.632812 C 183.722656 205.632812 182.765625 206.589844 182.765625 207.761719 L 182.765625 209.96875 C 182.765625 211.136719 181.851562 212.375 180.734375 212.71875 L 176.160156 214.605469 C 175.128906 215.15625 173.609375 214.933594 172.78125 214.105469 L 171.21875 212.542969 C 170.390625 211.714844 169.035156 211.714844 168.210938 212.542969 L 164.574219 216.179688 C 163.746094 217.007812 163.746094 218.359375 164.574219 219.1875 L 166.136719 220.75 C 166.964844 221.578125 167.1875 223.097656 166.632812 224.128906 L 164.75 228.703125 C 164.40625 229.824219 163.167969 230.738281 161.996094 230.738281 L 159.789062 230.738281 C 158.621094 230.738281 157.664062 231.695312 157.664062 232.863281 L 157.664062 238.007812 C 157.664062 239.175781 158.621094 240.132812 159.789062 240.132812 L 161.996094 240.132812 C 163.167969 240.132812 164.40625 241.050781 164.75 242.167969 L 166.636719 246.742188 C 167.1875 247.773438 166.964844 249.292969 166.136719 250.121094 L 164.574219 251.683594 C 163.746094 252.511719 163.746094 253.863281 164.574219 254.691406 L 168.210938 258.328125 C 169.035156 259.15625 170.390625 259.15625 171.21875 258.328125 L 172.78125 256.765625 C 173.609375 255.9375 175.128906 255.714844 176.160156 256.265625 L 180.734375 258.152344 C 181.851562 258.496094 182.765625 259.734375 182.765625 260.902344 L 182.765625 263.113281 C 182.765625 264.28125 183.722656 265.238281 184.894531 265.238281 L 190.035156 265.238281 C 191.207031 265.238281 192.164062 264.28125 192.164062 263.113281 L 192.164062 260.902344 C 192.164062 259.734375 193.078125 258.496094 194.195312 258.152344 L 198.769531 256.265625 C 199.800781 255.714844 201.320312 255.9375 202.148438 256.765625 L 203.714844 258.328125 C 204.539062 259.15625 205.894531 259.15625 206.722656 258.328125 L 210.355469 254.691406 C 211.183594 253.867188 211.183594 252.511719 210.355469 251.683594 L 208.792969 250.121094 C 207.964844 249.292969 207.742188 247.773438 208.296875 246.742188 L 210.179688 242.167969 C 210.523438 241.050781 211.761719 240.132812 212.933594 240.132812 Z M 187.464844 247.695312 C 180.691406 247.695312 175.203125 242.207031 175.203125 235.4375 C 175.203125 228.664062 180.691406 223.175781 187.464844 223.175781 C 194.234375 223.175781 199.726562 228.664062 199.726562 235.4375 C 199.726562 242.207031 194.234375 247.695312 187.464844 247.695312 Z M 187.464844 247.695312 "/></g></g></svg>