<svg xmlns="http://www.w3.org/2000/svg" xmlns:xlink="http://www.w3.org/1999/xlink" width="500" zoomAndPan="magnify" viewBox="0 0 375 374.999991" height="500" preserveAspectRatio="xMidYMid meet" version="1.2"><defs><clipPath id="3f91b5ed29"><path d="M 12.882812 12.882812 L 362.117188 12.882812 L 362.117188 362.117188 L 12.882812 362.117188 Z M 12.882812 12.882812 "/></clipPath><clipPath id="a4f02b9cff"><path d="M 187.5 12.882812 C 91.0625 12.882812 12.882812 91.0625 12.882812 187.5 C 12.882812 283.9375 91.0625 362.117188 187.5 362.117188 C 283.9375 362.117188 362.117188 283.9375 362.117188 187.5 C 362.117188 91.0625 283.9375 12.882812 187.5 12.882812 Z M 187.5 12.882812 "/></clipPath><clipPath id="85f875f8a8"><path d="M 88 88 L 286 88 L 286 263.679688 L 88 263.679688 Z M 88 88 "/></clipPath></defs><g id="54914ba5dc"><g clip-rule="nonzero" clip-path="url(#3f91b5ed29)"><g clip-rule="nonzero" clip-path="url(#a4f02b9cff)"><path style=" stroke:none;fill-rule:nonzero;fill:#ffffff;fill-opacity:1;" d="M 12.882812 12.882812 L 362.117188 12.882812 L 362.117188 362.117188 L 12.882812 362.117188 Z M 12.882812 12.882812 "/></g></g><g clip-rule="nonzero" clip-path="url(#85f875f8a8)"><path style=" stroke:none;fill-rule:nonzero;fill:#002060;fill-opacity:1;" d="M 173.972656 96.230469 L 90.871094 240.164062 C 84.941406 250.4375 92.351562 263.273438 104.214844 263.273438 L 270.414062 263.273438 C 282.273438 263.273438 289.6875 250.4375 283.757812 240.164062 L 200.65625 96.230469 C 194.726562 85.957031 179.902344 85.957031 173.972656 96.230469 Z M 173.972656 96.230469 "/></g><path style=" stroke:none;fill-rule:nonzero;fill:#ffffff;fill-opacity:1;" d="M 183.136719 200.917969 L 191.488281 200.917969 C 194.558594 200.917969 197.140625 198.117188 197.140625 194.78125 L 199.886719 151.207031 C 199.886719 146.226562 196.585938 142.042969 192.65625 142.042969 L 181.96875 142.042969 C 178.042969 142.042969 174.742188 146.226562 174.742188 151.207031 L 177.488281 194.78125 C 177.488281 198.117188 180.070312 200.917969 183.136719 200.917969 Z M 183.136719 200.917969 "/><path style=" stroke:none;fill-rule:nonzero;fill:#ffffff;fill-opacity:1;" d="M 187.8125 210.421875 C 179.855469 210.421875 175.128906 216.515625 175.128906 222.109375 C 175.128906 228.699219 179.855469 234.792969 187.8125 234.792969 C 194.777344 234.792969 199.5 228.699219 199.5 222.109375 C 199.5 216.515625 194.777344 210.421875 187.8125 210.421875 Z M 187.8125 210.421875 "/></g></svg>