<svg xmlns="http://www.w3.org/2000/svg" xmlns:xlink="http://www.w3.org/1999/xlink" width="500" zoomAndPan="magnify" viewBox="0 0 375 374.999991" height="500" preserveAspectRatio="xMidYMid meet" version="1.2"><defs><clipPath id="2cd4b227dd"><path d="M 12.882812 12.882812 L 362.117188 12.882812 L 362.117188 362.117188 L 12.882812 362.117188 Z M 12.882812 12.882812 "/></clipPath><clipPath id="9bafc53201"><path d="M 187.5 12.882812 C 91.0625 12.882812 12.882812 91.0625 12.882812 187.5 C 12.882812 283.9375 91.0625 362.117188 187.5 362.117188 C 283.9375 362.117188 362.117188 283.9375 362.117188 187.5 C 362.117188 91.0625 283.9375 12.882812 187.5 12.882812 Z M 187.5 12.882812 "/></clipPath><clipPath id="fcae0ac9d0"><path d="M 220 127 L 272.984375 127 L 272.984375 249 L 220 249 Z M 220 127 "/></clipPath><clipPath id="9255e33771"><path d="M 102.230469 129 L 155 129 L 155 247 L 102.230469 247 Z M 102.230469 129 "/></clipPath><clipPath id="ac9cf0452f"><path d="M 181.660156 163.925781 L 193.300781 163.925781 L 193.300781 197.777344 L 181.660156 197.777344 Z M 181.660156 163.925781 "/></clipPath><clipPath id="89b20c5838"><path d="M 182.46875 201.015625 L 192.511719 201.015625 L 192.511719 210.96875 L 182.46875 210.96875 Z M 182.46875 201.015625 "/></clipPath></defs><g id="40aa29a809"><g clip-rule="nonzero" clip-path="url(#2cd4b227dd)"><g clip-rule="nonzero" clip-path="url(#9bafc53201)"><path style=" stroke:none;fill-rule:nonzero;fill:#002060;fill-opacity:1;" d="M 12.882812 12.882812 L 362.117188 12.882812 L 362.117188 362.117188 L 12.882812 362.117188 Z M 12.882812 12.882812 "/></g></g><path style=" stroke:none;fill-rule:nonzero;fill:#ffffff;fill-opacity:1;" d="M 176.785156 154.996094 L 198.011719 154.996094 C 199.035156 154.996094 200.050781 155.097656 201.054688 155.296875 C 202.058594 155.496094 203.03125 155.792969 203.980469 156.183594 C 204.925781 156.574219 205.824219 157.054688 206.675781 157.625 C 207.527344 158.191406 208.3125 158.839844 209.039062 159.5625 C 209.761719 160.289062 210.40625 161.074219 210.976562 161.925781 C 211.546875 162.777344 212.027344 163.675781 212.417969 164.621094 C 212.808594 165.566406 213.105469 166.542969 213.304688 167.546875 C 213.503906 168.550781 213.605469 169.566406 213.605469 170.589844 L 213.605469 204.917969 C 213.605469 205.941406 213.503906 206.957031 213.304688 207.960938 C 213.105469 208.964844 212.808594 209.9375 212.417969 210.886719 C 212.027344 211.832031 211.546875 212.730469 210.976562 213.582031 C 210.40625 214.433594 209.761719 215.21875 209.039062 215.945312 C 208.3125 216.667969 207.527344 217.3125 206.675781 217.882812 C 205.824219 218.453125 204.925781 218.933594 203.980469 219.324219 C 203.03125 219.714844 202.058594 220.011719 201.054688 220.210938 C 200.050781 220.410156 199.035156 220.511719 198.011719 220.511719 L 176.785156 220.511719 C 175.761719 220.511719 174.746094 220.410156 173.742188 220.210938 C 172.738281 220.011719 171.765625 219.714844 170.820312 219.324219 C 169.871094 218.933594 168.972656 218.453125 168.125 217.882812 C 167.273438 217.3125 166.484375 216.667969 165.761719 215.945312 C 165.035156 215.21875 164.390625 214.433594 163.820312 213.582031 C 163.253906 212.730469 162.773438 211.832031 162.378906 210.886719 C 161.988281 209.9375 161.691406 208.964844 161.492188 207.960938 C 161.292969 206.957031 161.195312 205.941406 161.195312 204.917969 L 161.195312 170.589844 C 161.195312 169.566406 161.292969 168.550781 161.492188 167.546875 C 161.691406 166.542969 161.988281 165.566406 162.378906 164.621094 C 162.773438 163.675781 163.253906 162.777344 163.820312 161.925781 C 164.390625 161.074219 165.035156 160.289062 165.761719 159.5625 C 166.484375 158.839844 167.273438 158.191406 168.125 157.625 C 168.972656 157.054688 169.871094 156.574219 170.820312 156.183594 C 171.765625 155.792969 172.738281 155.496094 173.742188 155.296875 C 174.746094 155.097656 175.761719 154.996094 176.785156 154.996094 Z M 176.785156 154.996094 "/><g clip-rule="nonzero" clip-path="url(#fcae0ac9d0)"><path style=" stroke:none;fill-rule:nonzero;fill:#ffffff;fill-opacity:1;" d="M 269.027344 128.136719 C 268.511719 127.882812 267.96875 127.699219 267.402344 127.589844 C 266.835938 127.480469 266.265625 127.445312 265.691406 127.484375 C 265.117188 127.527344 264.554688 127.640625 264.011719 127.828125 C 263.464844 128.015625 262.957031 128.273438 262.476562 128.59375 L 223.167969 156.832031 C 222.3125 157.441406 221.636719 158.214844 221.152344 159.152344 C 220.667969 160.089844 220.421875 161.082031 220.417969 162.136719 L 220.417969 213.371094 C 220.421875 214.421875 220.667969 215.417969 221.152344 216.355469 C 221.636719 217.289062 222.3125 218.066406 223.167969 218.675781 L 262.476562 246.914062 C 263.617188 247.710938 264.886719 248.101562 266.277344 248.089844 C 267.339844 248.097656 268.34375 247.855469 269.292969 247.371094 C 269.824219 247.09375 270.3125 246.75 270.75 246.339844 C 271.191406 245.929688 271.566406 245.464844 271.878906 244.953125 C 272.191406 244.4375 272.425781 243.890625 272.589844 243.3125 C 272.75 242.730469 272.828125 242.140625 272.828125 241.539062 L 272.828125 133.964844 C 272.816406 133.351562 272.722656 132.75 272.542969 132.160156 C 272.363281 131.574219 272.101562 131.019531 271.765625 130.503906 C 271.429688 129.988281 271.03125 129.53125 270.566406 129.128906 C 270.097656 128.726562 269.585938 128.394531 269.027344 128.136719 Z M 269.027344 128.136719 "/></g><g clip-rule="nonzero" clip-path="url(#9255e33771)"><path style=" stroke:none;fill-rule:nonzero;fill:#ffffff;fill-opacity:1;" d="M 151.824219 157.617188 L 112.515625 130.363281 C 112.023438 130.019531 111.492188 129.75 110.925781 129.554688 C 110.359375 129.359375 109.773438 129.242188 109.175781 129.207031 C 108.578125 129.171875 107.984375 129.214844 107.398438 129.34375 C 106.808594 129.46875 106.25 129.675781 105.71875 129.953125 C 105.191406 130.234375 104.707031 130.582031 104.269531 130.996094 C 103.835938 131.410156 103.464844 131.875 103.15625 132.390625 C 102.847656 132.90625 102.617188 133.453125 102.460938 134.03125 C 102.300781 134.609375 102.226562 135.199219 102.230469 135.800781 L 102.230469 239.707031 C 102.230469 240.308594 102.308594 240.898438 102.472656 241.476562 C 102.632812 242.058594 102.871094 242.605469 103.179688 243.117188 C 103.492188 243.632812 103.871094 244.09375 104.308594 244.503906 C 104.75 244.917969 105.234375 245.261719 105.769531 245.535156 C 106.710938 246.042969 107.714844 246.285156 108.78125 246.257812 C 110.136719 246.25 111.378906 245.878906 112.515625 245.144531 L 151.824219 217.890625 C 152.707031 217.277344 153.394531 216.5 153.894531 215.550781 C 154.390625 214.601562 154.640625 213.589844 154.640625 212.519531 L 154.640625 162.988281 C 154.640625 161.917969 154.390625 160.90625 153.894531 159.957031 C 153.394531 159.007812 152.707031 158.226562 151.824219 157.617188 Z M 151.824219 157.617188 "/></g><g clip-rule="nonzero" clip-path="url(#ac9cf0452f)"><path style=" stroke:none;fill-rule:nonzero;fill:#002060;fill-opacity:1;" d="M 187.480469 197.621094 C 185.484375 197.621094 183.824219 196.082031 183.675781 194.09375 L 181.667969 167.289062 C 181.535156 165.472656 182.972656 163.925781 184.792969 163.925781 L 190.171875 163.925781 C 191.992188 163.925781 193.429688 165.472656 193.292969 167.289062 L 191.285156 194.09375 C 191.136719 196.082031 189.476562 197.621094 187.480469 197.621094 "/></g><g clip-rule="nonzero" clip-path="url(#89b20c5838)"><path style=" stroke:none;fill-rule:nonzero;fill:#002060;fill-opacity:1;" d="M 192.394531 206.054688 C 192.394531 203.34375 190.195312 201.144531 187.480469 201.144531 C 184.769531 201.144531 182.566406 203.34375 182.566406 206.054688 C 182.566406 208.769531 184.769531 210.96875 187.480469 210.96875 C 190.195312 210.96875 192.394531 208.769531 192.394531 206.054688 "/></g></g></svg>