<svg width="1053" height="878" xmlns="http://www.w3.org/2000/svg" xmlns:xlink="http://www.w3.org/1999/xlink" xml:space="preserve" overflow="hidden"><g transform="translate(-333 -420)"><path d="M1183.91 256.041 1183.91 926.584C1183.91 947.154 1167.23 963.825 1146.66 963.825L974.23 963.825 974.23 888.436 1108.51 888.436 1108.51 294.19 206.948 294.19 206.948 888.436 801.537 888.436 801.537 963.825 168.8 963.825C148.23 963.825 131.553 947.154 131.546 926.584L131.546 256.041C131.539 235.474 148.206 218.795 168.774 218.787 168.782 218.787 168.791 218.787 168.8 218.787L1146.66 218.787C1167.23 218.78 1183.91 235.448 1183.91 256.015 1183.91 256.024 1183.91 256.033 1183.91 256.041Z" fill="#002060" transform="matrix(1 0 0 1.00007 201.77 201.224)"/><path d="M427.748 787.474C401.439 758.048 391.481 724.017 373.92 726.477 349.36 729.949 328.892 802.142 348.847 817.48 358.476 824.886 380.168 821.111 427.748 787.474ZM1108.51 294.177 1108.51 888.436 974.23 888.436 974.23 778.24 999.079 790.25C1004.18 792.728 1010.33 790.599 1012.81 785.495 1014.18 782.665 1014.18 779.361 1012.81 776.53L993.949 737.447C992.449 734.337 992.607 730.682 994.37 727.713 1000.11 717.949 1004.47 707.435 1007.31 696.471 1008.17 693.134 1010.64 690.447 1013.89 689.315L1054.86 675.029C1060.22 673.15 1063.04 667.28 1061.16 661.919 1060.13 658.967 1057.81 656.647 1054.86 655.613L1013.89 641.327C1010.64 640.184 1008.17 637.495 1007.31 634.157 1004.47 623.194 1000.11 612.68 994.37 602.915 992.607 599.951 992.449 596.3 993.949 593.194L1012.81 554.112C1015.29 549.005 1013.15 542.86 1008.04 540.387 1005.21 539.016 1001.91 539.017 999.079 540.391L960.01 559.255C956.896 560.744 953.245 560.581 950.276 558.821 940.51 553.093 929.995 548.749 919.034 545.916 915.701 545.049 913.015 542.585 911.864 539.339L897.579 498.362C895.722 493.001 889.87 490.159 884.508 492.016 881.532 493.047 879.193 495.386 878.162 498.362L863.876 539.339C862.734 542.59 860.045 545.058 856.707 545.916 845.745 548.767 835.231 553.123 825.465 558.86 822.501 560.621 818.853 560.784 815.744 559.295L776.661 540.405C771.526 537.975 765.393 540.168 762.963 545.304 761.644 548.092 761.646 551.325 762.967 554.112L781.831 593.194C783.317 596.303 783.159 599.947 781.41 602.915 775.672 612.682 771.311 623.196 768.453 634.157 767.598 637.497 765.13 640.188 761.876 641.327L720.873 655.613C715.511 657.492 712.688 663.361 714.566 668.723 715.601 671.674 717.921 673.995 720.873 675.029L761.862 689.302C765.117 690.431 767.588 693.119 768.44 696.458 771.29 707.424 775.646 717.942 781.384 727.713 783.133 730.686 783.291 734.334 781.805 737.448L762.967 776.53C760.499 781.639 762.639 787.781 767.748 790.25 770.572 791.615 773.864 791.615 776.688 790.25L801.55 778.24 801.55 888.436 206.961 888.436 206.961 294.19Z" fill="#FFFFFF" transform="matrix(1 0 0 1.00007 201.77 201.224)"/><path d="M1054.86 655.613C1060.22 657.492 1063.04 663.361 1061.16 668.723 1060.13 671.674 1057.81 673.995 1054.86 675.029L1013.89 689.302C1010.64 690.433 1008.17 693.12 1007.31 696.458 1004.47 707.421 1000.11 717.936 994.37 727.7 992.607 730.669 992.449 734.324 993.949 737.434L1012.81 776.517C1015.29 781.623 1013.15 787.768 1008.04 790.241 1005.21 791.612 1001.91 791.611 999.079 790.237L974.23 778.227 960.01 771.373C956.896 769.884 953.245 770.047 950.276 771.807 940.51 777.532 930.001 781.883 919.047 784.738 915.707 785.593 913.016 788.062 911.878 791.316L897.579 832.292C895.7 837.654 889.83 840.477 884.469 838.598 881.517 837.564 879.197 835.244 878.162 832.292L863.876 791.329C862.738 788.075 860.047 785.606 856.707 784.751 845.749 781.894 835.237 777.543 825.465 771.82 822.501 770.06 818.853 769.897 815.744 771.386L801.524 778.24 776.661 790.25C771.543 792.7 765.409 790.537 762.959 785.419 761.613 782.608 761.617 779.338 762.967 776.53L781.831 737.447C783.317 734.334 783.16 730.686 781.41 727.713 775.669 717.947 771.309 707.433 768.453 696.471 767.601 693.132 765.13 690.445 761.876 689.315L720.873 675.029C715.511 673.15 712.688 667.28 714.566 661.919 715.601 658.967 717.921 656.647 720.873 655.613L761.836 641.327C765.09 640.188 767.559 637.497 768.413 634.157 771.276 623.195 775.641 612.681 781.384 602.915 783.133 599.947 783.291 596.303 781.805 593.194L762.967 554.112C760.495 548.996 762.638 542.846 767.754 540.374 770.575 539.01 773.864 539.007 776.688 540.365L815.77 559.255C818.879 560.744 822.527 560.581 825.491 558.821 835.251 553.099 845.756 548.757 856.707 545.916 860.045 545.058 862.734 542.59 863.876 539.339L878.162 498.362C880.019 493.001 885.871 490.159 891.232 492.016 894.209 493.047 896.548 495.386 897.579 498.362L911.864 539.339C913.015 542.585 915.701 545.049 919.034 545.916 929.997 548.762 940.512 553.118 950.276 558.86 953.245 560.621 956.896 560.784 960.01 559.295L999.079 540.431C1004.18 537.953 1010.33 540.082 1012.81 545.186 1014.18 548.016 1014.18 551.32 1012.81 554.151L993.949 593.233C992.449 596.339 992.607 599.99 994.37 602.955 1000.11 612.719 1004.47 623.234 1007.31 634.197 1008.17 637.535 1010.64 640.224 1013.89 641.366Z" fill="#737373" transform="matrix(1 0 0 1.00007 201.77 201.224)"/><path d="M974.23 963.825 974.23 1096.69 887.87 978.295 801.524 1096.69 801.524 778.24 815.744 771.386C818.853 769.897 822.501 770.06 825.465 771.82 835.237 777.543 845.749 781.894 856.707 784.752 860.047 785.606 862.738 788.075 863.876 791.329L878.162 832.292C880.041 837.654 885.911 840.477 891.272 838.598 894.224 837.564 896.544 835.244 897.579 832.292L911.878 791.329C913.016 788.075 915.707 785.606 919.047 784.751 930.001 781.896 940.51 777.545 950.276 771.82 953.245 770.06 956.896 769.897 960.01 771.386L974.23 778.24 974.23 963.825Z" fill="#002060" transform="matrix(1 0 0 1.00007 201.77 201.224)"/><path d="M373.92 726.477C391.481 724.017 401.387 758.048 427.748 787.474 380.195 821.111 358.476 824.886 348.821 817.48 328.865 802.142 349.36 729.949 373.92 726.477Z" fill="#FFFFFF" transform="matrix(1 0 0 1.00007 201.77 201.224)"/><path d="M679.409 381.984 304.279 381.984C297.014 381.984 291.125 376.094 291.125 368.829 291.125 361.564 297.014 355.674 304.279 355.674L679.409 355.674C686.674 355.674 692.564 361.564 692.564 368.829 692.564 376.094 686.674 381.984 679.409 381.984Z" fill="#737373" transform="matrix(1 0 0 1.00007 201.77 201.224)"/><path d="M639.945 476.697 304.279 476.697C297.014 476.697 291.125 470.807 291.125 463.542 291.125 456.277 297.014 450.388 304.279 450.388L639.945 450.388C647.211 450.388 653.1 456.277 653.1 463.542 653.1 470.807 647.211 476.697 639.945 476.697Z" fill="#737373" transform="matrix(1 0 0 1.00007 201.77 201.224)"/><path d="M574.172 571.41 304.279 571.41C297.014 571.41 291.125 565.52 291.125 558.255 291.125 550.99 297.014 545.101 304.279 545.101L574.172 545.101C581.438 545.101 587.327 550.99 587.327 558.255 587.327 565.52 581.438 571.41 574.172 571.41Z" fill="#737373" transform="matrix(1 0 0 1.00007 201.77 201.224)"/><path d="M521.554 666.123 304.279 666.123C297.014 666.123 291.125 660.234 291.125 652.969 291.125 645.703 297.014 639.814 304.279 639.814L521.554 639.814C528.819 639.814 534.709 645.703 534.709 652.969 534.709 660.234 528.819 666.123 521.554 666.123Z" fill="#737373" transform="matrix(1 0 0 1.00007 201.77 201.224)"/><path d="M519.726 841.224C498.007 841.224 478.078 836.962 460.188 828.425 444.082 820.657 429.714 809.713 417.948 796.249 413.401 790.582 414.308 782.303 419.975 777.756 425.225 773.543 432.809 773.973 437.549 778.753 447.001 789.614 458.549 798.456 471.501 804.746 494.521 815.704 522.317 817.901 554.138 811.179 561.262 809.754 568.192 814.374 569.617 821.498 571.022 828.521 566.55 835.377 559.558 836.923 546.465 839.733 533.116 841.174 519.726 841.224Z" fill="#737373" transform="matrix(1 0 0 1.00007 201.77 201.224)"/><path d="M359.305 833.818C352.677 833.989 346.186 831.912 340.889 827.925 321.091 812.705 328.747 776.622 331.575 765.848 337.745 742.42 351.636 716.361 372.131 713.453 391.297 710.823 402.518 728.226 414.397 746.721 420.842 756.772 428.169 768.164 437.601 778.687 442.455 784.093 442.007 792.41 436.601 797.264 436.225 797.601 435.83 797.917 435.418 798.209 401.426 822.163 376.919 833.818 359.305 833.818ZM375.656 739.526C371.907 740.249 362.357 752.023 356.964 772.544 351.57 793.065 354.661 805.431 356.858 807.062 356.95 807.127 366.395 812.573 408.477 784.699 402.084 776.293 396.756 768.006 392.205 760.915 387.035 752.878 379.234 740.749 375.656 739.526Z" fill="#737373" transform="matrix(1 0 0 1.00007 201.77 201.224)"/><path d="M427.762 800.629C420.497 800.639 414.599 794.758 414.589 787.492 414.583 783.212 416.661 779.196 420.158 776.727 434.839 766.348 451.729 753.22 470.448 737.724 475.906 732.928 484.217 733.464 489.013 738.921 493.809 744.379 493.273 752.69 487.816 757.486 487.626 757.652 487.432 757.813 487.234 757.969 468.028 773.899 450.572 787.448 435.339 798.209 433.123 799.778 430.477 800.623 427.762 800.629Z" fill="#737373" transform="matrix(1 0 0 1.00007 201.77 201.224)"/></g></svg>