<svg xmlns="http://www.w3.org/2000/svg" xmlns:xlink="http://www.w3.org/1999/xlink" width="500" zoomAndPan="magnify" viewBox="0 0 375 374.999991" height="500" preserveAspectRatio="xMidYMid meet" version="1.2"><defs><clipPath id="d96f5bd36c"><path d="M 12.882812 12.882812 L 362.117188 12.882812 L 362.117188 362.117188 L 12.882812 362.117188 Z M 12.882812 12.882812 "/></clipPath><clipPath id="c0bf058883"><path d="M 187.5 12.882812 C 91.0625 12.882812 12.882812 91.0625 12.882812 187.5 C 12.882812 283.9375 91.0625 362.117188 187.5 362.117188 C 283.9375 362.117188 362.117188 283.9375 362.117188 187.5 C 362.117188 91.0625 283.9375 12.882812 187.5 12.882812 Z M 187.5 12.882812 "/></clipPath><clipPath id="f40dca2c1a"><path d="M 104.15625 107.28125 L 270.65625 107.28125 L 270.65625 267.78125 L 104.15625 267.78125 Z M 104.15625 107.28125 "/></clipPath></defs><g id="be435c4f53"><g clip-rule="nonzero" clip-path="url(#d96f5bd36c)"><g clip-rule="nonzero" clip-path="url(#c0bf058883)"><path style=" stroke:none;fill-rule:nonzero;fill:#002060;fill-opacity:1;" d="M 12.882812 12.882812 L 362.117188 12.882812 L 362.117188 362.117188 L 12.882812 362.117188 Z M 12.882812 12.882812 "/></g></g><g clip-rule="nonzero" clip-path="url(#f40dca2c1a)"><path style=" stroke:none;fill-rule:evenodd;fill:#ffffff;fill-opacity:1;" d="M 155.570312 176.835938 C 164.503906 183.296875 167.910156 194.921875 164.261719 205.03125 C 164.714844 205.046875 165.175781 205.054688 165.632812 205.054688 C 170.03125 205.054688 174.28125 204.382812 178.277344 203.132812 C 178.707031 201.75 179.742188 200.648438 181.132812 200.144531 L 185.960938 198.375 C 186.117188 198.320312 186.195312 198.191406 186.171875 198.027344 L 183.710938 181.96875 C 183.683594 181.804688 183.570312 181.703125 183.40625 181.695312 L 178.261719 181.460938 C 176.597656 181.378906 175.136719 180.457031 174.351562 178.988281 C 173.671875 177.710938 172.914062 176.46875 172.097656 175.289062 C 171.148438 173.921875 170.996094 172.199219 171.683594 170.679688 L 173.820312 166.003906 C 173.886719 165.851562 173.851562 165.707031 173.714844 165.609375 L 160.554688 156.085938 C 160.421875 155.992188 160.269531 156 160.148438 156.113281 L 156.371094 159.605469 C 155.148438 160.734375 153.460938 161.128906 151.867188 160.65625 C 150.828125 160.351562 149.761719 160.085938 148.691406 159.867188 C 147.054688 159.535156 145.753906 158.398438 145.199219 156.828125 L 143.5 151.96875 C 143.449219 151.8125 143.316406 151.734375 143.15625 151.753906 L 127.066406 153.992188 C 126.902344 154.011719 126.800781 154.125 126.789062 154.289062 L 126.480469 159.425781 C 126.378906 161.089844 125.433594 162.539062 123.953125 163.304688 C 123.6875 163.441406 123.425781 163.585938 123.164062 163.726562 C 123.296875 168.582031 124.246094 173.234375 125.878906 177.554688 C 134.34375 170.789062 146.578125 170.335938 155.570312 176.835938 Z M 218.894531 127.757812 C 228.601562 127.757812 236.5 135.65625 236.5 145.363281 C 236.5 152.652344 231.960938 159.164062 225.28125 161.769531 C 225.285156 162.039062 225.289062 162.308594 225.289062 162.574219 C 225.289062 166.921875 224.820312 171.160156 223.929688 175.246094 L 224.132812 175.246094 L 224.761719 172.125 C 225.03125 170.765625 225.980469 169.675781 227.292969 169.214844 C 227.976562 168.972656 228.664062 168.695312 229.332031 168.390625 C 230.601562 167.816406 232.039062 167.945312 233.179688 168.742188 L 235.792969 170.5625 L 243.355469 163.308594 L 241.648438 160.621094 C 240.902344 159.449219 240.832031 158.007812 241.460938 156.765625 C 241.898438 155.902344 242.289062 155.003906 242.625 154.097656 C 243.105469 152.792969 244.203125 151.859375 245.574219 151.605469 L 248.699219 151.023438 L 248.847656 140.546875 L 245.738281 139.875 C 244.378906 139.582031 243.300781 138.617188 242.859375 137.300781 C 242.550781 136.386719 242.183594 135.472656 241.773438 134.597656 C 241.179688 133.34375 241.292969 131.902344 242.070312 130.75 L 243.851562 128.113281 L 236.496094 120.652344 L 233.832031 122.394531 C 232.667969 123.160156 231.226562 123.25 229.976562 122.640625 C 229.105469 122.210938 228.199219 121.832031 227.292969 121.515625 C 225.980469 121.054688 225.03125 119.964844 224.761719 118.601562 L 224.132812 115.480469 L 213.65625 115.480469 L 213.03125 118.601562 C 212.753906 119.964844 211.8125 121.054688 210.5 121.515625 C 210.097656 121.65625 209.695312 121.8125 209.300781 121.976562 C 211.15625 123.96875 212.878906 126.09375 214.449219 128.328125 C 215.890625 127.949219 217.386719 127.757812 218.894531 127.757812 Z M 199.496094 176.367188 L 195.558594 178.945312 C 195.507812 178.980469 195.46875 178.976562 195.425781 178.933594 L 184.996094 168.355469 C 184.953125 168.308594 184.949219 168.269531 184.984375 168.21875 L 187.617188 164.320312 C 188.507812 163 188.632812 161.355469 187.953125 159.917969 C 187.398438 158.738281 186.90625 157.507812 186.488281 156.265625 C 185.980469 154.757812 184.75 153.65625 183.199219 153.324219 L 178.597656 152.328125 C 178.535156 152.3125 178.511719 152.285156 178.511719 152.222656 L 178.71875 137.371094 C 178.722656 137.308594 178.75 137.273438 178.8125 137.265625 L 183.4375 136.402344 C 185 136.109375 186.257812 135.046875 186.808594 133.554688 C 187.257812 132.328125 187.789062 131.113281 188.378906 129.945312 C 188.859375 128.996094 188.976562 127.945312 188.746094 126.949219 C 192.417969 129.339844 195.699219 132.28125 198.472656 135.65625 C 197.039062 138.671875 196.285156 142 196.285156 145.363281 C 196.285156 153.621094 200.851562 161.246094 208.03125 165.191406 C 207.78125 169.265625 206.957031 173.1875 205.632812 176.878906 C 205.046875 176.628906 204.472656 176.367188 203.90625 176.089844 C 202.480469 175.386719 200.832031 175.492188 199.496094 176.367188 Z M 230.894531 210.523438 L 213.578125 227.835938 L 243.726562 263.148438 C 246.535156 266.4375 250.179688 267.25 252.742188 267.351562 C 257.292969 267.53125 262.007812 265.640625 265.355469 262.292969 C 268.699219 258.949219 270.585938 254.238281 270.410156 249.683594 C 270.308594 247.121094 269.496094 243.476562 266.203125 240.667969 Z M 214.597656 196.609375 L 227.570312 207.6875 L 210.746094 224.511719 L 199.671875 211.535156 C 205.484375 207.484375 210.539062 202.421875 214.597656 196.609375 Z M 110.335938 162.574219 C 110.335938 132.082031 135.140625 107.277344 165.632812 107.277344 C 196.125 107.277344 220.933594 132.082031 220.933594 162.574219 C 220.933594 193.066406 196.125 217.875 165.632812 217.875 C 135.140625 217.875 110.335938 193.066406 110.335938 162.574219 Z M 212.472656 162.574219 C 212.472656 188.402344 191.460938 209.414062 165.628906 209.414062 C 139.800781 209.414062 118.789062 188.402344 118.789062 162.574219 C 118.789062 136.75 139.800781 115.734375 165.628906 115.734375 C 191.460938 115.730469 212.472656 136.75 212.472656 162.574219 Z M 150.867188 220.382812 C 150.554688 220.863281 150.230469 221.34375 150.066406 221.535156 C 149.035156 222.414062 148.542969 223.726562 148.742188 225.074219 L 149.210938 228.222656 L 139.355469 231.773438 L 137.703125 229.046875 C 136.984375 227.859375 135.734375 227.160156 134.339844 227.167969 C 133.367188 227.175781 132.394531 227.125 131.429688 227.019531 C 130.042969 226.867188 128.71875 227.4375 127.882812 228.554688 L 125.96875 231.097656 L 116.519531 226.566406 L 117.304688 223.480469 C 117.644531 222.132812 117.257812 220.742188 116.273438 219.757812 C 115.597656 219.078125 114.941406 218.347656 114.339844 217.585938 C 113.476562 216.496094 112.140625 215.957031 110.757812 216.140625 L 107.601562 216.5625 L 104.191406 206.65625 L 106.9375 205.046875 C 108.136719 204.347656 108.859375 203.097656 108.871094 201.707031 C 108.878906 200.738281 108.941406 199.757812 109.058594 198.800781 C 109.230469 197.421875 108.675781 196.089844 107.574219 195.234375 L 105.058594 193.285156 L 109.671875 183.988281 C 109.746094 183.960938 109.832031 183.941406 109.921875 183.917969 C 111.765625 188.707031 114.207031 193.199219 117.152344 197.304688 C 116.222656 200.765625 116.363281 204.445312 117.589844 207.847656 C 120.171875 215.015625 126.957031 219.484375 134.171875 219.484375 C 136.148438 219.484375 138.15625 219.152344 140.121094 218.445312 C 140.871094 218.171875 141.601562 217.84375 142.304688 217.476562 C 145.0625 218.65625 147.921875 219.625 150.867188 220.382812 Z M 150.867188 220.382812 "/></g></g></svg>