<svg xmlns="http://www.w3.org/2000/svg" xmlns:xlink="http://www.w3.org/1999/xlink" width="500" zoomAndPan="magnify" viewBox="0 0 375 374.999991" height="500" preserveAspectRatio="xMidYMid meet" version="1.0"><defs><g/><clipPath id="f2a0ef1b4d"><path d="M 12.882812 12.882812 L 362.117188 12.882812 L 362.117188 362.117188 L 12.882812 362.117188 Z M 12.882812 12.882812 " clip-rule="nonzero"/></clipPath><clipPath id="d46a5b7824"><path d="M 187.5 12.882812 C 91.0625 12.882812 12.882812 91.0625 12.882812 187.5 C 12.882812 283.9375 91.0625 362.117188 187.5 362.117188 C 283.9375 362.117188 362.117188 283.9375 362.117188 187.5 C 362.117188 91.0625 283.9375 12.882812 187.5 12.882812 Z M 187.5 12.882812 " clip-rule="nonzero"/></clipPath><clipPath id="0adbb6575e"><path d="M 0.882812 0.882812 L 350.117188 0.882812 L 350.117188 350.117188 L 0.882812 350.117188 Z M 0.882812 0.882812 " clip-rule="nonzero"/></clipPath><clipPath id="401f54f0ef"><path d="M 175.5 0.882812 C 79.0625 0.882812 0.882812 79.0625 0.882812 175.5 C 0.882812 271.9375 79.0625 350.117188 175.5 350.117188 C 271.9375 350.117188 350.117188 271.9375 350.117188 175.5 C 350.117188 79.0625 271.9375 0.882812 175.5 0.882812 Z M 175.5 0.882812 " clip-rule="nonzero"/></clipPath><clipPath id="bc0e1a35d8"><rect x="0" width="351" y="0" height="351"/></clipPath></defs><g clip-path="url(#f2a0ef1b4d)"><g clip-path="url(#d46a5b7824)"><g transform="matrix(1, 0, 0, 1, 12, 12)"><g clip-path="url(#bc0e1a35d8)"><g clip-path="url(#0adbb6575e)"><g clip-path="url(#401f54f0ef)"><path fill="#ffffff" d="M 0.882812 0.882812 L 350.117188 0.882812 L 350.117188 350.117188 L 0.882812 350.117188 Z M 0.882812 0.882812 " fill-opacity="1" fill-rule="nonzero"/></g></g></g></g></g></g><g fill="#002060" fill-opacity="1"><g transform="translate(99.050899, 221.382935)"><g><path d="M 27.390625 1.3125 C 22.253906 1.3125 17.34375 -0.148438 12.65625 -3.078125 C 10.300781 -4.546875 8.375 -6.597656 6.875 -9.234375 C 5.375 -11.878906 4.625 -14.925781 4.625 -18.375 C 4.625 -24.894531 6.785156 -30.207031 11.109375 -34.3125 C 15.429688 -38.425781 20.640625 -40.8125 26.734375 -41.46875 C 22.617188 -42.570312 19.332031 -44.476562 16.875 -47.1875 C 14.425781 -49.90625 13.203125 -53.351562 13.203125 -57.53125 C 13.203125 -63.832031 15.675781 -68.832031 20.625 -72.53125 C 25.570312 -76.238281 31.234375 -78.09375 37.609375 -78.09375 C 43.992188 -78.09375 49.3125 -76.734375 53.5625 -74.015625 C 57.820312 -71.304688 59.953125 -67.644531 59.953125 -63.03125 C 59.953125 -61.414062 59.675781 -59.835938 59.125 -58.296875 C 58.570312 -56.753906 58.003906 -55.65625 57.421875 -55 L 56.65625 -53.90625 C 54.300781 -53.90625 51.710938 -54.304688 48.890625 -55.109375 C 46.066406 -55.910156 44 -56.9375 42.6875 -58.1875 L 44 -69.515625 C 42.894531 -70.617188 41.039062 -71.171875 38.4375 -71.171875 C 35.84375 -71.171875 33.789062 -69.832031 32.28125 -67.15625 C 30.78125 -64.476562 30.03125 -61.414062 30.03125 -57.96875 C 30.03125 -54.519531 30.429688 -51.914062 31.234375 -50.15625 C 32.046875 -48.394531 33.1875 -47.039062 34.65625 -46.09375 C 36.925781 -44.625 39.601562 -43.597656 42.6875 -43.015625 L 41.796875 -36.953125 C 36.515625 -36.953125 31.929688 -35.394531 28.046875 -32.28125 C 24.160156 -29.164062 22.21875 -25.039062 22.21875 -19.90625 C 22.21875 -16.675781 23.257812 -14.015625 25.34375 -11.921875 C 27.4375 -9.835938 30.132812 -8.796875 33.4375 -8.796875 C 39.445312 -8.796875 45.609375 -11.84375 51.921875 -17.9375 L 56.3125 -13.859375 C 47.8125 -3.742188 38.171875 1.3125 27.390625 1.3125 Z M 27.390625 1.3125 "/></g></g></g><g fill="#002060" fill-opacity="1"><g transform="translate(155.696884, 221.382935)"><g><path d="M 37.625 -7.484375 C 38.0625 -7.484375 39.523438 -8.140625 42.015625 -9.453125 L 43.125 -10.015625 L 45.09375 -6.15625 C 44.507812 -5.570312 43.738281 -4.875 42.78125 -4.0625 C 41.832031 -3.257812 39.984375 -2.160156 37.234375 -0.765625 C 34.484375 0.617188 31.878906 1.3125 29.421875 1.3125 C 26.960938 1.3125 24.984375 0.671875 23.484375 -0.609375 C 21.984375 -1.890625 20.753906 -4 19.796875 -6.9375 L 17.265625 -14.734375 C 11.765625 -8.796875 7.660156 -3.484375 4.953125 1.203125 C 4.441406 1.203125 3.175781 0.835938 1.15625 0.109375 C -0.863281 -0.617188 -2.347656 -1.242188 -3.296875 -1.765625 C -1.171875 -5.503906 4.945312 -12.140625 15.0625 -21.671875 C 12.5 -29.367188 10.445312 -34.757812 8.90625 -37.84375 C 8.613281 -38.425781 6.851562 -40.515625 3.625 -44.109375 L 3.953125 -45.4375 L 10.671875 -46.859375 C 14.554688 -47.441406 18.003906 -47.804688 21.015625 -47.953125 C 22.546875 -46.710938 23.769531 -44.40625 24.6875 -41.03125 C 25.601562 -37.65625 26.320312 -35.085938 26.84375 -33.328125 C 32.269531 -39.265625 35.828125 -44.253906 37.515625 -48.296875 C 39.566406 -47.992188 41.582031 -47.222656 43.5625 -45.984375 L 44.546875 -45.4375 C 41.984375 -40.59375 36.78125 -34.25 28.9375 -26.40625 C 29.738281 -23.613281 30.46875 -21.300781 31.125 -19.46875 C 33.914062 -11.476562 36.082031 -7.484375 37.625 -7.484375 Z M 37.625 -7.484375 "/></g></g></g><g fill="#002060" fill-opacity="1"><g transform="translate(198.703835, 221.382935)"><g/></g></g><g fill="#002060" fill-opacity="1"><g transform="translate(220.702274, 221.382935)"><g><path d="M 55.4375 -6.703125 C 49.207031 -1.359375 43.726562 1.3125 39 1.3125 C 34.269531 1.3125 31.535156 -1.03125 30.796875 -5.71875 C 28.597656 -3.519531 26.140625 -1.796875 23.421875 -0.546875 C 20.710938 0.691406 18.332031 1.3125 16.28125 1.3125 C 12.757812 1.3125 9.75 -0.222656 7.25 -3.296875 C 4.757812 -6.378906 3.515625 -11.144531 3.515625 -17.59375 C 3.515625 -27.28125 5.566406 -34.890625 9.671875 -40.421875 C 13.785156 -45.960938 18.425781 -48.734375 23.59375 -48.734375 C 28.757812 -48.734375 33.101562 -47.554688 36.625 -45.203125 C 38.90625 -57.085938 40.046875 -66.441406 40.046875 -73.265625 L 39.484375 -77.875 C 44.984375 -79.78125 50.375 -80.734375 55.65625 -80.734375 C 56.25 -79.492188 56.546875 -78.066406 56.546875 -76.453125 C 56.546875 -71.097656 54.929688 -60.222656 51.703125 -43.828125 C 48.472656 -27.441406 46.859375 -16.316406 46.859375 -10.453125 C 46.859375 -8.691406 47.257812 -7.8125 48.0625 -7.8125 C 48.507812 -7.8125 49.90625 -8.507812 52.25 -9.90625 L 53.34375 -10.5625 Z M 28.9375 -42.234375 C 26.363281 -42.234375 24.140625 -39.703125 22.265625 -34.640625 C 20.398438 -29.585938 19.46875 -24.582031 19.46875 -19.625 C 19.46875 -14.675781 19.816406 -11.503906 20.515625 -10.109375 C 21.210938 -8.722656 22.257812 -8.03125 23.65625 -8.03125 C 26.070312 -8.03125 28.453125 -9.019531 30.796875 -11 C 31.015625 -13.9375 32.664062 -23.691406 35.75 -40.265625 C 33.257812 -41.578125 30.988281 -42.234375 28.9375 -42.234375 Z M 28.9375 -42.234375 "/></g></g></g></svg>