<svg xmlns="http://www.w3.org/2000/svg" xmlns:xlink="http://www.w3.org/1999/xlink" width="500" zoomAndPan="magnify" viewBox="0 0 375 374.999991" height="500" preserveAspectRatio="xMidYMid meet" version="1.0"><defs><clipPath id="8a199f7275"><path d="M 12.882812 12.882812 L 362.117188 12.882812 L 362.117188 362.117188 L 12.882812 362.117188 Z M 12.882812 12.882812 " clip-rule="nonzero"/></clipPath><clipPath id="1506ea1a58"><path d="M 187.5 12.882812 C 91.0625 12.882812 12.882812 91.0625 12.882812 187.5 C 12.882812 283.9375 91.0625 362.117188 187.5 362.117188 C 283.9375 362.117188 362.117188 283.9375 362.117188 187.5 C 362.117188 91.0625 283.9375 12.882812 187.5 12.882812 Z M 187.5 12.882812 " clip-rule="nonzero"/></clipPath><clipPath id="77eeca8716"><path d="M 0.882812 0.882812 L 350.117188 0.882812 L 350.117188 350.117188 L 0.882812 350.117188 Z M 0.882812 0.882812 " clip-rule="nonzero"/></clipPath><clipPath id="c02067a4ce"><path d="M 175.5 0.882812 C 79.0625 0.882812 0.882812 79.0625 0.882812 175.5 C 0.882812 271.9375 79.0625 350.117188 175.5 350.117188 C 271.9375 350.117188 350.117188 271.9375 350.117188 175.5 C 350.117188 79.0625 271.9375 0.882812 175.5 0.882812 Z M 175.5 0.882812 " clip-rule="nonzero"/></clipPath><clipPath id="1c48e23e33"><rect x="0" width="351" y="0" height="351"/></clipPath><clipPath id="972cbf0600"><path d="M 0.707031 0.609375 L 142.640625 0.609375 L 142.640625 142.542969 L 0.707031 142.542969 Z M 0.707031 0.609375 " clip-rule="nonzero"/></clipPath><clipPath id="2a51144761"><path d="M 89 164 L 114 164 L 114 188.519531 L 89 188.519531 Z M 89 164 " clip-rule="nonzero"/></clipPath><clipPath id="d2a8dab90a"><path d="M 150 164 L 174 164 L 174 188.519531 L 150 188.519531 Z M 150 164 " clip-rule="nonzero"/></clipPath><clipPath id="0d15f5a6f1"><path d="M 69 126 L 188.28125 126 L 188.28125 174 L 69 174 Z M 69 126 " clip-rule="nonzero"/></clipPath><clipPath id="77aafdc44e"><path d="M 61.582031 113.472656 L 170 113.472656 L 170 150 L 61.582031 150 Z M 61.582031 113.472656 " clip-rule="nonzero"/></clipPath><clipPath id="a28c45906b"><rect x="0" width="189" y="0" height="189"/></clipPath></defs><g clip-path="url(#8a199f7275)"><g clip-path="url(#1506ea1a58)"><g transform="matrix(1, 0, 0, 1, 12, 12)"><g clip-path="url(#1c48e23e33)"><g clip-path="url(#77eeca8716)"><g clip-path="url(#c02067a4ce)"><path fill="#002060" d="M 0.882812 0.882812 L 350.117188 0.882812 L 350.117188 350.117188 L 0.882812 350.117188 Z M 0.882812 0.882812 " fill-opacity="1" fill-rule="nonzero"/></g></g></g></g></g></g><g transform="matrix(1, 0, 0, 1, 93, 93)"><g clip-path="url(#a28c45906b)"><path fill="#ffffff" d="M 110.324219 32.230469 L 47.082031 32.230469 C 44.753906 32.230469 42.867188 34.117188 42.867188 36.445312 C 42.867188 38.773438 44.753906 40.660156 47.082031 40.660156 L 110.324219 40.660156 C 112.648438 40.660156 114.535156 38.773438 114.535156 36.445312 C 114.535156 34.117188 112.648438 32.230469 110.324219 32.230469 Z M 110.324219 32.230469 " fill-opacity="1" fill-rule="nonzero"/><path fill="#ffffff" d="M 30.078125 33.492188 C 29.234375 34.261719 28.808594 35.316406 28.808594 36.445312 C 28.808594 37.007812 28.953125 37.570312 29.167969 38.054688 C 29.375 38.550781 29.652344 39.042969 30.078125 39.394531 C 30.847656 40.234375 31.902344 40.65625 33.03125 40.65625 C 34.15625 40.65625 35.207031 40.234375 36.050781 39.394531 C 36.398438 39.042969 36.683594 38.550781 36.964844 38.054688 C 37.109375 37.570312 37.246094 37.007812 37.246094 36.445312 C 37.246094 35.316406 36.824219 34.261719 36.050781 33.492188 C 34.4375 31.875 31.554688 31.875 30.078125 33.492188 Z M 30.078125 33.492188 " fill-opacity="1" fill-rule="nonzero"/><path fill="#ffffff" d="M 110.324219 67.363281 L 47.082031 67.363281 C 44.753906 67.363281 42.867188 69.25 42.867188 71.578125 C 42.867188 73.902344 44.753906 75.789062 47.082031 75.789062 L 110.324219 75.789062 C 112.648438 75.789062 114.535156 73.902344 114.535156 71.578125 C 114.535156 69.25 112.648438 67.363281 110.324219 67.363281 Z M 110.324219 67.363281 " fill-opacity="1" fill-rule="nonzero"/><path fill="#ffffff" d="M 30.078125 68.625 C 29.234375 69.394531 28.808594 70.449219 28.808594 71.578125 C 28.808594 72.136719 28.953125 72.703125 29.167969 73.1875 C 29.375 73.683594 29.652344 74.175781 30.078125 74.523438 C 30.847656 75.367188 31.902344 75.785156 33.03125 75.785156 C 34.15625 75.785156 35.207031 75.367188 36.050781 74.523438 C 36.398438 74.175781 36.683594 73.683594 36.964844 73.1875 C 37.109375 72.699219 37.246094 72.136719 37.246094 71.578125 C 37.246094 70.449219 36.824219 69.394531 36.050781 68.625 C 34.4375 67.003906 31.554688 67.074219 30.078125 68.625 Z M 30.078125 68.625 " fill-opacity="1" fill-rule="nonzero"/><path fill="#ffffff" d="M 110.324219 102.496094 L 47.082031 102.496094 C 44.753906 102.496094 42.867188 104.382812 42.867188 106.710938 C 42.867188 109.039062 44.753906 110.925781 47.082031 110.925781 L 110.324219 110.925781 C 112.648438 110.925781 114.535156 109.039062 114.535156 106.710938 C 114.535156 104.382812 112.648438 102.496094 110.324219 102.496094 Z M 110.324219 102.496094 " fill-opacity="1" fill-rule="nonzero"/><path fill="#ffffff" d="M 30.078125 103.757812 C 29.234375 104.527344 28.808594 105.585938 28.808594 106.710938 C 28.808594 107.273438 28.953125 107.835938 29.167969 108.320312 C 29.375 108.816406 29.652344 109.308594 30.078125 109.660156 C 30.847656 110.5 31.902344 110.921875 33.03125 110.921875 C 34.15625 110.921875 35.207031 110.5 36.050781 109.660156 C 36.398438 109.308594 36.683594 108.816406 36.964844 108.320312 C 37.109375 107.835938 37.246094 107.273438 37.246094 106.710938 C 37.246094 105.585938 36.824219 104.527344 36.050781 103.757812 C 34.4375 102.140625 31.554688 102.140625 30.078125 103.757812 Z M 30.078125 103.757812 " fill-opacity="1" fill-rule="nonzero"/><g clip-path="url(#972cbf0600)"><path fill="#ffffff" d="M 118.402344 0.609375 L 24.945312 0.609375 C 11.578125 0.609375 0.707031 11.480469 0.707031 24.84375 L 0.707031 118.304688 C 0.707031 131.671875 11.578125 142.542969 24.945312 142.542969 L 118.40625 142.542969 C 131.773438 142.542969 142.644531 131.671875 142.644531 118.304688 L 142.644531 24.84375 C 142.644531 11.476562 131.773438 0.609375 118.40625 0.609375 Z M 134.214844 118.304688 C 134.214844 127.019531 127.117188 134.117188 118.402344 134.117188 L 24.945312 134.117188 C 16.230469 134.117188 9.136719 127.019531 9.136719 118.304688 L 9.136719 24.84375 C 9.136719 16.128906 16.230469 9.035156 24.945312 9.035156 L 118.40625 9.035156 C 127.121094 9.035156 134.21875 16.128906 134.21875 24.84375 L 134.21875 118.304688 Z M 134.214844 118.304688 " fill-opacity="1" fill-rule="nonzero"/></g><g clip-path="url(#2a51144761)"><path fill="#ffffff" d="M 101.332031 164.957031 C 94.824219 164.957031 89.632812 170.269531 89.632812 176.65625 C 89.632812 183.164062 94.8125 188.359375 101.332031 188.359375 C 107.855469 188.359375 113.035156 183.046875 113.035156 176.65625 C 113.035156 170.136719 107.855469 164.957031 101.332031 164.957031 Z M 101.332031 180.773438 C 99.074219 180.773438 97.082031 178.914062 97.082031 176.523438 C 97.082031 174.132812 98.941406 172.273438 101.332031 172.273438 C 103.722656 172.273438 105.585938 174.132812 105.585938 176.523438 C 105.585938 178.914062 103.722656 180.773438 101.332031 180.773438 Z M 101.332031 180.773438 " fill-opacity="1" fill-rule="nonzero"/></g><g clip-path="url(#d2a8dab90a)"><path fill="#ffffff" d="M 162.097656 164.957031 C 155.589844 164.957031 150.398438 170.269531 150.398438 176.65625 C 150.398438 183.164062 155.578125 188.359375 162.097656 188.359375 C 168.621094 188.359375 173.800781 183.046875 173.800781 176.65625 C 173.800781 170.136719 168.605469 164.957031 162.097656 164.957031 Z M 162.097656 180.773438 C 159.839844 180.773438 157.847656 178.914062 157.847656 176.523438 C 157.847656 174.132812 159.707031 172.273438 162.097656 172.273438 C 164.488281 172.273438 166.347656 174.132812 166.347656 176.523438 C 166.347656 178.914062 164.488281 180.773438 162.097656 180.773438 Z M 162.097656 180.773438 " fill-opacity="1" fill-rule="nonzero"/></g><g clip-path="url(#0d15f5a6f1)"><path fill="#ffffff" d="M 185.101562 147.664062 L 174.464844 144.476562 L 171.011719 126.929688 L 152.125 126.929688 L 149.46875 154.449219 L 69.164062 148.859375 L 75.273438 169.871094 C 75.804688 171.863281 77.664062 173.191406 79.65625 173.191406 L 84.835938 173.191406 C 86.433594 165.472656 93.21875 159.761719 101.320312 159.761719 C 109.421875 159.761719 116.210938 165.472656 117.804688 173.191406 L 145.589844 173.191406 C 147.183594 165.605469 153.96875 159.761719 162.070312 159.761719 C 170.171875 159.761719 176.960938 165.472656 178.554688 173.191406 L 183.601562 173.191406 C 186.125 173.191406 188.117188 171.199219 188.117188 168.675781 L 188.117188 152.058594 C 188.289062 150.054688 186.960938 148.328125 185.101562 147.664062 Z M 155.578125 143.8125 L 156.375 131.710938 L 167.011719 131.710938 L 169.003906 143.8125 C 169.003906 143.8125 155.578125 143.8125 155.578125 143.8125 Z M 155.578125 143.8125 " fill-opacity="1" fill-rule="nonzero"/></g><g clip-path="url(#77aafdc44e)"><path fill="#ffffff" d="M 147.476562 121.871094 L 169.949219 121.871094 L 169.949219 115.757812 C 169.949219 114.5625 168.886719 113.5 167.691406 113.5 L 140.554688 113.5 C 139.625 113.5 138.695312 113.898438 138.03125 114.695312 L 132.851562 120.941406 C 132.1875 121.738281 131.390625 122.136719 130.328125 122.136719 L 64.238281 122.136719 C 62.777344 122.136719 61.582031 123.597656 62.113281 125.058594 L 67.691406 143.929688 L 144.9375 149.375 Z M 147.476562 121.871094 " fill-opacity="1" fill-rule="nonzero"/></g></g></g></svg>