<svg xmlns="http://www.w3.org/2000/svg" xmlns:xlink="http://www.w3.org/1999/xlink" width="500" zoomAndPan="magnify" viewBox="0 0 375 374.999991" height="500" preserveAspectRatio="xMidYMid meet" version="1.0"><defs><clipPath id="1ecd7f5823"><path d="M 12.882812 12.882812 L 362.117188 12.882812 L 362.117188 362.117188 L 12.882812 362.117188 Z M 12.882812 12.882812 " clip-rule="nonzero"/></clipPath><clipPath id="77be7efa5d"><path d="M 187.5 12.882812 C 91.0625 12.882812 12.882812 91.0625 12.882812 187.5 C 12.882812 283.9375 91.0625 362.117188 187.5 362.117188 C 283.9375 362.117188 362.117188 283.9375 362.117188 187.5 C 362.117188 91.0625 283.9375 12.882812 187.5 12.882812 Z M 187.5 12.882812 " clip-rule="nonzero"/></clipPath><clipPath id="3e535dfd9d"><path d="M 0.882812 0.882812 L 350.117188 0.882812 L 350.117188 350.117188 L 0.882812 350.117188 Z M 0.882812 0.882812 " clip-rule="nonzero"/></clipPath><clipPath id="160581cb2a"><path d="M 175.5 0.882812 C 79.0625 0.882812 0.882812 79.0625 0.882812 175.5 C 0.882812 271.9375 79.0625 350.117188 175.5 350.117188 C 271.9375 350.117188 350.117188 271.9375 350.117188 175.5 C 350.117188 79.0625 271.9375 0.882812 175.5 0.882812 Z M 175.5 0.882812 " clip-rule="nonzero"/></clipPath><clipPath id="2ced74816d"><rect x="0" width="351" y="0" height="351"/></clipPath><clipPath id="0460377c18"><path d="M 96 224 L 156 224 L 156 282.960938 L 96 282.960938 Z M 96 224 " clip-rule="nonzero"/></clipPath><clipPath id="328963aab8"><path d="M 131 162 L 244 162 L 244 198.242188 L 131 198.242188 Z M 131 162 " clip-rule="nonzero"/></clipPath></defs><g clip-path="url(#1ecd7f5823)"><g clip-path="url(#77be7efa5d)"><g transform="matrix(1, 0, 0, 1, 12, 12)"><g clip-path="url(#2ced74816d)"><g clip-path="url(#3e535dfd9d)"><g clip-path="url(#160581cb2a)"><path fill="#002060" d="M 0.882812 0.882812 L 350.117188 0.882812 L 350.117188 350.117188 L 0.882812 350.117188 Z M 0.882812 0.882812 " fill-opacity="1" fill-rule="nonzero"/></g></g></g></g></g></g><g clip-path="url(#0460377c18)"><path fill="#ffffff" d="M 154.617188 260.726562 C 154.617188 260.695312 154.585938 260.664062 154.554688 260.632812 L 119.949219 225.996094 C 119.890625 225.9375 119.824219 225.886719 119.757812 225.835938 C 119.507812 225.617188 119.238281 225.421875 118.949219 225.25 C 118.660156 225.082031 118.359375 224.941406 118.046875 224.828125 C 117.734375 224.714844 117.410156 224.632812 117.082031 224.578125 C 116.75 224.527344 116.417969 224.507812 116.085938 224.515625 C 115.75 224.527344 115.421875 224.566406 115.097656 224.640625 C 114.769531 224.714844 114.453125 224.816406 114.148438 224.949219 C 113.839844 225.078125 113.550781 225.238281 113.273438 225.425781 C 112.996094 225.613281 112.738281 225.824219 112.503906 226.0625 L 97.191406 241.371094 C 96.378906 242.402344 96.046875 243.566406 96.195312 244.871094 C 96.328125 246.277344 96.894531 247.472656 97.898438 248.464844 L 130.765625 281.367188 C 131.816406 282.394531 133.066406 282.992188 134.523438 283.167969 C 134.59375 283.191406 134.671875 283.203125 134.746094 283.199219 C 135.671875 283.277344 136.570312 283.15625 137.4375 282.835938 C 138.308594 282.515625 139.070312 282.027344 139.722656 281.367188 L 154.039062 267.148438 C 154.453125 266.742188 154.785156 266.277344 155.039062 265.753906 C 155.289062 265.234375 155.445312 264.683594 155.507812 264.105469 C 155.570312 263.53125 155.53125 262.960938 155.394531 262.398438 C 155.257812 261.832031 155.03125 261.308594 154.714844 260.824219 Z M 135.421875 276.90625 C 135.148438 276.90625 134.875 276.878906 134.609375 276.828125 C 134.339844 276.773438 134.078125 276.695312 133.824219 276.589844 C 133.570312 276.484375 133.332031 276.355469 133.101562 276.203125 C 132.875 276.050781 132.664062 275.878906 132.472656 275.683594 C 132.277344 275.492188 132.105469 275.28125 131.953125 275.050781 C 131.800781 274.824219 131.671875 274.582031 131.566406 274.332031 C 131.460938 274.078125 131.382812 273.816406 131.328125 273.546875 C 131.277344 273.277344 131.25 273.007812 131.25 272.734375 C 131.25 272.460938 131.277344 272.1875 131.328125 271.917969 C 131.382812 271.652344 131.460938 271.390625 131.566406 271.136719 C 131.671875 270.882812 131.800781 270.644531 131.953125 270.414062 C 132.105469 270.1875 132.277344 269.976562 132.472656 269.78125 C 132.664062 269.589844 132.875 269.417969 133.101562 269.265625 C 133.332031 269.113281 133.570312 268.984375 133.824219 268.878906 C 134.078125 268.773438 134.339844 268.695312 134.609375 268.640625 C 134.875 268.585938 135.148438 268.5625 135.421875 268.5625 C 135.695312 268.5625 135.96875 268.585938 136.234375 268.640625 C 136.503906 268.695312 136.765625 268.773438 137.019531 268.878906 C 137.273438 268.984375 137.511719 269.113281 137.738281 269.265625 C 137.96875 269.417969 138.179688 269.589844 138.371094 269.78125 C 138.566406 269.976562 138.738281 270.1875 138.890625 270.414062 C 139.042969 270.644531 139.171875 270.882812 139.277344 271.136719 C 139.382812 271.390625 139.460938 271.652344 139.515625 271.917969 C 139.566406 272.1875 139.59375 272.460938 139.59375 272.734375 C 139.59375 273.007812 139.566406 273.277344 139.515625 273.546875 C 139.460938 273.816406 139.382812 274.078125 139.277344 274.332031 C 139.171875 274.582031 139.042969 274.824219 138.890625 275.050781 C 138.738281 275.28125 138.566406 275.492188 138.371094 275.683594 C 138.179688 275.878906 137.96875 276.050781 137.738281 276.203125 C 137.511719 276.355469 137.273438 276.484375 137.019531 276.589844 C 136.765625 276.695312 136.503906 276.773438 136.234375 276.828125 C 135.96875 276.878906 135.695312 276.90625 135.421875 276.90625 Z M 135.421875 276.90625 " fill-opacity="1" fill-rule="nonzero"/></g><path fill="#ffffff" d="M 262.5625 185.578125 L 235.878906 211.613281 C 234.984375 212.496094 234.511719 213.566406 234.46875 214.824219 C 233.949219 229.441406 224.675781 229.933594 224.675781 229.933594 L 187.46875 229.933594 C 184.730469 229.332031 187.238281 226.890625 187.238281 226.890625 L 220.320312 226.28125 C 221.234375 226.269531 222.132812 226.144531 223.015625 225.914062 C 223.898438 225.679688 224.738281 225.339844 225.539062 224.902344 C 226.339844 224.460938 227.074219 223.929688 227.746094 223.308594 C 228.414062 222.691406 229 221.996094 229.5 221.234375 C 229.75 220.894531 229.96875 220.535156 230.148438 220.152344 C 230.332031 219.773438 230.476562 219.378906 230.582031 218.96875 C 230.6875 218.558594 230.753906 218.144531 230.78125 217.722656 C 230.804688 217.304688 230.789062 216.882812 230.734375 216.464844 C 230.679688 216.046875 230.585938 215.636719 230.449219 215.238281 C 230.316406 214.835938 230.144531 214.453125 229.9375 214.085938 C 229.726562 213.71875 229.484375 213.375 229.210938 213.054688 C 228.9375 212.734375 228.632812 212.441406 228.300781 212.179688 C 227.183594 211.117188 225.910156 210.292969 224.480469 209.707031 C 223.054688 209.121094 221.570312 208.8125 220.027344 208.777344 L 179.496094 207.722656 C 141.832031 189.917969 124.484375 224.511719 124.484375 224.511719 L 157.347656 257.253906 C 159.214844 255 161.429688 253.160156 163.988281 251.742188 C 166.550781 250.324219 169.28125 249.421875 172.183594 249.035156 L 231.207031 248.160156 C 232.101562 248.148438 232.953125 247.945312 233.757812 247.554688 C 234.5625 247.160156 235.246094 246.613281 235.808594 245.914062 L 274.203125 197.90625 C 278.769531 182.613281 262.5625 185.578125 262.5625 185.578125 Z M 262.5625 185.578125 " fill-opacity="1" fill-rule="nonzero"/><path fill="#ffffff" d="M 188.085938 189.246094 C 186.363281 189.445312 185.316406 188.71875 184.085938 187.5625 C 180.898438 184.566406 177.921875 181.21875 174.992188 177.976562 C 164.949219 166.859375 153.277344 151.8125 150.492188 136.824219 C 146.261719 114.023438 163.882812 92.839844 186.996094 92.195312 C 205.023438 91.742188 220.722656 105.113281 224.40625 122.574219 C 229.222656 145.40625 209.769531 168.078125 195.25 183.285156 C 193.394531 185.226562 190.84375 188.664062 188.085938 189.246094 Z M 187.160156 110.199219 C 177.492188 110.578125 169.796875 118.699219 170.265625 128.421875 C 170.714844 137.820312 178.730469 145.164062 188.117188 144.886719 C 197.527344 144.488281 205.382812 136.480469 204.925781 126.921875 C 204.488281 117.671875 196.554688 109.8125 187.160156 110.199219 Z M 187.160156 110.199219 " fill-opacity="1" fill-rule="nonzero"/><g clip-path="url(#328963aab8)"><path fill="#ffffff" d="M 242.578125 189.433594 C 244.746094 193.226562 242.941406 197.445312 238.585938 198.128906 C 237.222656 198.34375 235.765625 198.246094 234.390625 198.246094 L 144.417969 198.246094 C 142.128906 198.246094 139.777344 198.371094 137.492188 198.25 C 133.734375 198.050781 130.246094 194.34375 131.976562 190.507812 C 132.679688 188.953125 133.953125 187.140625 134.859375 185.644531 L 145.113281 168.613281 C 146.808594 165.785156 147.738281 163.324219 151.417969 162.824219 C 153.109375 162.609375 157.074219 162.734375 158.726562 162.882812 C 159.730469 163.785156 160.660156 165.425781 161.46875 166.539062 C 166.667969 173.699219 173.085938 181.03125 179.328125 187.3125 C 180.558594 188.546875 181.761719 189.949219 183.144531 191.007812 C 189.117188 195.578125 194.164062 189.066406 197.828125 185.207031 C 204.671875 177.992188 210.578125 170.789062 216.507812 162.824219 C 218.210938 162.757812 223.121094 162.5625 224.609375 162.929688 C 228.070312 163.785156 230.085938 168.800781 231.890625 171.792969 Z M 242.578125 189.433594 " fill-opacity="1" fill-rule="nonzero"/></g></svg>