<svg xmlns="http://www.w3.org/2000/svg" xmlns:xlink="http://www.w3.org/1999/xlink" width="500" zoomAndPan="magnify" viewBox="0 0 375 374.999991" height="500" preserveAspectRatio="xMidYMid meet" version="1.0"><defs><g/><clipPath id="886b986f05"><path d="M 12.882812 12.882812 L 362.117188 12.882812 L 362.117188 362.117188 L 12.882812 362.117188 Z M 12.882812 12.882812 " clip-rule="nonzero"/></clipPath><clipPath id="8ba8fda4aa"><path d="M 187.5 12.882812 C 91.0625 12.882812 12.882812 91.0625 12.882812 187.5 C 12.882812 283.9375 91.0625 362.117188 187.5 362.117188 C 283.9375 362.117188 362.117188 283.9375 362.117188 187.5 C 362.117188 91.0625 283.9375 12.882812 187.5 12.882812 Z M 187.5 12.882812 " clip-rule="nonzero"/></clipPath><clipPath id="41bafc4304"><path d="M 0.882812 0.882812 L 350.117188 0.882812 L 350.117188 350.117188 L 0.882812 350.117188 Z M 0.882812 0.882812 " clip-rule="nonzero"/></clipPath><clipPath id="c7bbde922a"><path d="M 175.5 0.882812 C 79.0625 0.882812 0.882812 79.0625 0.882812 175.5 C 0.882812 271.9375 79.0625 350.117188 175.5 350.117188 C 271.9375 350.117188 350.117188 271.9375 350.117188 175.5 C 350.117188 79.0625 271.9375 0.882812 175.5 0.882812 Z M 175.5 0.882812 " clip-rule="nonzero"/></clipPath><clipPath id="dbd4080eef"><rect x="0" width="351" y="0" height="351"/></clipPath></defs><g clip-path="url(#886b986f05)"><g clip-path="url(#8ba8fda4aa)"><g transform="matrix(1, 0, 0, 1, 12, 12)"><g clip-path="url(#dbd4080eef)"><g clip-path="url(#41bafc4304)"><g clip-path="url(#c7bbde922a)"><path fill="#002060" d="M 0.882812 0.882812 L 350.117188 0.882812 L 350.117188 350.117188 L 0.882812 350.117188 Z M 0.882812 0.882812 " fill-opacity="1" fill-rule="nonzero"/></g></g></g></g></g></g><g fill="#ffffff" fill-opacity="1"><g transform="translate(91.011837, 224.382917)"><g><path d="M 29.875 1.4375 C 24.28125 1.4375 18.921875 -0.160156 13.796875 -3.359375 C 11.234375 -4.960938 9.132812 -7.203125 7.5 -10.078125 C 5.863281 -12.960938 5.046875 -16.285156 5.046875 -20.046875 C 5.046875 -27.160156 7.40625 -32.957031 12.125 -37.4375 C 16.84375 -41.914062 22.519531 -44.515625 29.15625 -45.234375 C 24.675781 -46.441406 21.097656 -48.523438 18.421875 -51.484375 C 15.742188 -54.441406 14.40625 -58.203125 14.40625 -62.765625 C 14.40625 -69.640625 17.101562 -75.097656 22.5 -79.140625 C 27.894531 -83.179688 34.070312 -85.203125 41.03125 -85.203125 C 48 -85.203125 53.800781 -83.71875 58.4375 -80.75 C 63.082031 -77.789062 65.40625 -73.796875 65.40625 -68.765625 C 65.40625 -67.003906 65.101562 -65.28125 64.5 -63.59375 C 63.894531 -61.914062 63.273438 -60.71875 62.640625 -60 L 61.796875 -58.796875 C 59.234375 -58.796875 56.410156 -59.234375 53.328125 -60.109375 C 50.253906 -60.992188 48 -62.117188 46.5625 -63.484375 L 48 -75.84375 C 46.800781 -77.039062 44.78125 -77.640625 41.9375 -77.640625 C 39.101562 -77.640625 36.863281 -76.175781 35.21875 -73.25 C 33.582031 -70.332031 32.765625 -66.992188 32.765625 -63.234375 C 32.765625 -59.472656 33.203125 -56.632812 34.078125 -54.71875 C 34.960938 -52.800781 36.203125 -51.320312 37.796875 -50.28125 C 40.273438 -48.675781 43.195312 -47.554688 46.5625 -46.921875 L 45.59375 -40.3125 C 39.832031 -40.3125 34.832031 -38.613281 30.59375 -35.21875 C 26.351562 -31.820312 24.234375 -27.320312 24.234375 -21.71875 C 24.234375 -18.195312 25.375 -15.296875 27.65625 -13.015625 C 29.9375 -10.734375 32.878906 -9.59375 36.484375 -9.59375 C 43.035156 -9.59375 49.753906 -12.914062 56.640625 -19.5625 L 61.4375 -15.125 C 52.15625 -4.082031 41.632812 1.4375 29.875 1.4375 Z M 29.875 1.4375 "/></g></g></g><g fill="#ffffff" fill-opacity="1"><g transform="translate(152.805785, 224.382917)"><g><path d="M 41.046875 -8.15625 C 41.523438 -8.15625 43.125 -8.875 45.84375 -10.3125 L 47.046875 -10.921875 L 49.203125 -6.71875 C 48.554688 -6.082031 47.710938 -5.320312 46.671875 -4.4375 C 45.640625 -3.5625 43.625 -2.363281 40.625 -0.84375 C 37.625 0.675781 34.78125 1.4375 32.09375 1.4375 C 29.414062 1.4375 27.253906 0.738281 25.609375 -0.65625 C 23.972656 -2.0625 22.632812 -4.363281 21.59375 -7.5625 L 18.84375 -16.078125 C 12.84375 -9.597656 8.363281 -3.800781 5.40625 1.3125 C 4.84375 1.3125 3.457031 0.910156 1.25 0.109375 C -0.945312 -0.679688 -2.5625 -1.359375 -3.59375 -1.921875 C -1.28125 -6.003906 5.394531 -13.242188 16.4375 -23.640625 C 13.632812 -32.035156 11.394531 -37.914062 9.71875 -41.28125 C 9.394531 -41.914062 7.472656 -44.195312 3.953125 -48.125 L 4.3125 -49.5625 L 11.640625 -51.125 C 15.878906 -51.757812 19.640625 -52.15625 22.921875 -52.3125 C 24.597656 -50.957031 25.9375 -48.4375 26.9375 -44.75 C 27.9375 -41.070312 28.71875 -38.273438 29.28125 -36.359375 C 35.195312 -42.835938 39.078125 -48.28125 40.921875 -52.6875 C 43.160156 -52.363281 45.359375 -51.519531 47.515625 -50.15625 L 48.59375 -49.5625 C 45.800781 -44.28125 40.125 -37.359375 31.5625 -28.796875 C 32.4375 -25.753906 33.234375 -23.234375 33.953125 -21.234375 C 36.992188 -12.515625 39.359375 -8.15625 41.046875 -8.15625 Z M 41.046875 -8.15625 "/></g></g></g><g fill="#ffffff" fill-opacity="1"><g transform="translate(199.721192, 224.382917)"><g/></g></g><g fill="#ffffff" fill-opacity="1"><g transform="translate(223.718844, 224.382917)"><g><path d="M 60.484375 -7.3125 C 53.679688 -1.476562 47.695312 1.4375 42.53125 1.4375 C 37.375 1.4375 34.394531 -1.117188 33.59375 -6.234375 C 31.195312 -3.835938 28.519531 -1.957031 25.5625 -0.59375 C 22.601562 0.757812 20.003906 1.4375 17.765625 1.4375 C 13.921875 1.4375 10.640625 -0.238281 7.921875 -3.59375 C 5.203125 -6.957031 3.84375 -12.160156 3.84375 -19.203125 C 3.84375 -29.765625 6.082031 -38.0625 10.5625 -44.09375 C 15.039062 -50.132812 20.097656 -53.15625 25.734375 -53.15625 C 31.378906 -53.15625 36.117188 -51.875 39.953125 -49.3125 C 42.441406 -62.28125 43.6875 -72.484375 43.6875 -79.921875 L 43.078125 -84.953125 C 49.078125 -87.035156 54.957031 -88.078125 60.71875 -88.078125 C 61.363281 -86.722656 61.6875 -85.164062 61.6875 -83.40625 C 61.6875 -77.5625 59.925781 -65.695312 56.40625 -47.8125 C 52.882812 -29.9375 51.125 -17.800781 51.125 -11.40625 C 51.125 -9.476562 51.5625 -8.515625 52.4375 -8.515625 C 52.914062 -8.515625 54.4375 -9.273438 57 -10.796875 L 58.203125 -11.515625 Z M 31.5625 -46.078125 C 28.757812 -46.078125 26.335938 -43.316406 24.296875 -37.796875 C 22.253906 -32.273438 21.234375 -26.8125 21.234375 -21.40625 C 21.234375 -16.007812 21.613281 -12.550781 22.375 -11.03125 C 23.132812 -9.519531 24.273438 -8.765625 25.796875 -8.765625 C 28.441406 -8.765625 31.039062 -9.84375 33.59375 -12 C 33.832031 -15.195312 35.632812 -25.835938 39 -43.921875 C 36.28125 -45.359375 33.800781 -46.078125 31.5625 -46.078125 Z M 31.5625 -46.078125 "/></g></g></g></svg>