<svg xmlns="http://www.w3.org/2000/svg" xmlns:xlink="http://www.w3.org/1999/xlink" width="500" zoomAndPan="magnify" viewBox="0 0 375 374.999991" height="500" preserveAspectRatio="xMidYMid meet" version="1.0"><defs><clipPath id="4ccbd2ee85"><path d="M 12.882812 12.882812 L 362.117188 12.882812 L 362.117188 362.117188 L 12.882812 362.117188 Z M 12.882812 12.882812 " clip-rule="nonzero"/></clipPath><clipPath id="e55acc7f09"><path d="M 187.5 12.882812 C 91.0625 12.882812 12.882812 91.0625 12.882812 187.5 C 12.882812 283.9375 91.0625 362.117188 187.5 362.117188 C 283.9375 362.117188 362.117188 283.9375 362.117188 187.5 C 362.117188 91.0625 283.9375 12.882812 187.5 12.882812 Z M 187.5 12.882812 " clip-rule="nonzero"/></clipPath><clipPath id="112fe65f48"><path d="M 0.882812 0.882812 L 350.117188 0.882812 L 350.117188 350.117188 L 0.882812 350.117188 Z M 0.882812 0.882812 " clip-rule="nonzero"/></clipPath><clipPath id="12b26b8064"><path d="M 175.5 0.882812 C 79.0625 0.882812 0.882812 79.0625 0.882812 175.5 C 0.882812 271.9375 79.0625 350.117188 175.5 350.117188 C 271.9375 350.117188 350.117188 271.9375 350.117188 175.5 C 350.117188 79.0625 271.9375 0.882812 175.5 0.882812 Z M 175.5 0.882812 " clip-rule="nonzero"/></clipPath><clipPath id="a59eaee438"><rect x="0" width="351" y="0" height="351"/></clipPath><clipPath id="0748f5249b"><path d="M 111.285156 109 L 274.035156 109 L 274.035156 272 L 111.285156 272 Z M 111.285156 109 " clip-rule="nonzero"/></clipPath><clipPath id="6295d72f53"><path d="M 182 109 L 274.035156 109 L 274.035156 201 L 182 201 Z M 182 109 " clip-rule="nonzero"/></clipPath><clipPath id="20cd12ea62"><path d="M 111.285156 197 L 186 197 L 186 272 L 111.285156 272 Z M 111.285156 197 " clip-rule="nonzero"/></clipPath></defs><g clip-path="url(#4ccbd2ee85)"><g clip-path="url(#e55acc7f09)"><g transform="matrix(1, 0, 0, 1, 12, 12)"><g clip-path="url(#a59eaee438)"><g clip-path="url(#112fe65f48)"><g clip-path="url(#12b26b8064)"><path fill="#002060" d="M 0.882812 0.882812 L 350.117188 0.882812 L 350.117188 350.117188 L 0.882812 350.117188 Z M 0.882812 0.882812 " fill-opacity="1" fill-rule="nonzero"/></g></g></g></g></g></g><g clip-path="url(#0748f5249b)"><path fill="#ffffff" d="M 264.21875 233.179688 L 245.988281 233.179688 L 166.410156 153.601562 L 175.691406 144.316406 C 179.65625 140.351562 179.660156 133.925781 175.703125 129.953125 L 160.871094 115.082031 C 156.601562 110.8125 150.65625 108.679688 144.660156 109.238281 L 123.0625 111.167969 C 118.183594 111.628906 114.273438 115.488281 113.867188 120.417969 L 111.882812 142.015625 C 111.335938 148.042969 113.496094 153.996094 117.777344 158.269531 L 132.601562 173.058594 C 136.570312 177.023438 143 177.015625 146.96875 173.046875 L 156.25 163.765625 L 235.828125 243.339844 L 235.828125 261.535156 C 235.828125 270.589844 246.78125 275.128906 253.183594 268.722656 L 271.398438 250.507812 C 277.792969 244.113281 273.265625 233.179688 264.21875 233.179688 Z M 245.992188 261.535156 L 245.941406 261.535156 L 245.992188 243.339844 L 264.183594 243.339844 Z M 245.992188 261.535156 " fill-opacity="1" fill-rule="nonzero"/></g><g clip-path="url(#6295d72f53)"><path fill="#ffffff" d="M 220.074219 143.132812 C 218.09375 145.113281 218.09375 148.316406 220.074219 150.296875 L 221.601562 151.773438 L 200.308594 173.113281 L 210.472656 183.277344 L 231.761719 161.933594 L 233.238281 163.460938 C 235.21875 165.441406 238.421875 165.441406 240.402344 163.460938 L 241.925781 161.933594 C 253.308594 174.179688 264.082031 187.089844 274.144531 200.859375 C 269.773438 181.550781 262.40625 165.1875 252.191406 151.671875 L 252.597656 151.261719 C 254.578125 149.28125 254.578125 146.082031 252.597656 144.097656 L 239.4375 130.9375 C 237.453125 128.957031 234.253906 128.957031 232.269531 130.9375 L 231.863281 131.34375 C 218.398438 121.28125 202.085938 114.015625 182.929688 109.644531 C 196.496094 119.554688 209.351562 130.226562 221.601562 141.609375 Z M 220.074219 143.132812 " fill-opacity="1" fill-rule="nonzero"/></g><g clip-path="url(#20cd12ea62)"><path fill="#ffffff" d="M 113.3125 260.058594 C 111.328125 262.042969 111.328125 265.292969 113.3125 267.277344 L 116.257812 270.222656 C 118.242188 272.207031 121.492188 272.207031 123.476562 270.222656 L 185.925781 207.820312 L 175.765625 197.660156 Z M 113.3125 260.058594 " fill-opacity="1" fill-rule="nonzero"/></g></svg>