<svg xmlns="http://www.w3.org/2000/svg" xmlns:xlink="http://www.w3.org/1999/xlink" width="500" zoomAndPan="magnify" viewBox="0 0 375 374.999991" height="500" preserveAspectRatio="xMidYMid meet" version="1.0"><defs><clipPath id="d676216730"><path d="M 12.882812 12.882812 L 362.117188 12.882812 L 362.117188 362.117188 L 12.882812 362.117188 Z M 12.882812 12.882812 " clip-rule="nonzero"/></clipPath><clipPath id="232d7a608d"><path d="M 187.5 12.882812 C 91.0625 12.882812 12.882812 91.0625 12.882812 187.5 C 12.882812 283.9375 91.0625 362.117188 187.5 362.117188 C 283.9375 362.117188 362.117188 283.9375 362.117188 187.5 C 362.117188 91.0625 283.9375 12.882812 187.5 12.882812 Z M 187.5 12.882812 " clip-rule="nonzero"/></clipPath><clipPath id="51bb0794b4"><path d="M 0.882812 0.882812 L 350.117188 0.882812 L 350.117188 350.117188 L 0.882812 350.117188 Z M 0.882812 0.882812 " clip-rule="nonzero"/></clipPath><clipPath id="987119a187"><path d="M 175.5 0.882812 C 79.0625 0.882812 0.882812 79.0625 0.882812 175.5 C 0.882812 271.9375 79.0625 350.117188 175.5 350.117188 C 271.9375 350.117188 350.117188 271.9375 350.117188 175.5 C 350.117188 79.0625 271.9375 0.882812 175.5 0.882812 Z M 175.5 0.882812 " clip-rule="nonzero"/></clipPath><clipPath id="b2ed737d2f"><rect x="0" width="351" y="0" height="351"/></clipPath><clipPath id="de27877875"><path d="M 82.191406 122.078125 L 290 122.078125 L 290 252.578125 L 82.191406 252.578125 Z M 82.191406 122.078125 " clip-rule="nonzero"/></clipPath><clipPath id="71ff3645c3"><path d="M 123.460938 151.441406 L 217.210938 151.441406 L 217.210938 242 L 123.460938 242 Z M 123.460938 151.441406 " clip-rule="nonzero"/></clipPath></defs><g clip-path="url(#d676216730)"><g clip-path="url(#232d7a608d)"><g transform="matrix(1, 0, 0, 1, 12, 12)"><g clip-path="url(#b2ed737d2f)"><g clip-path="url(#51bb0794b4)"><g clip-path="url(#987119a187)"><path fill="#ffffff" d="M 0.882812 0.882812 L 350.117188 0.882812 L 350.117188 350.117188 L 0.882812 350.117188 Z M 0.882812 0.882812 " fill-opacity="1" fill-rule="nonzero"/></g></g></g></g></g></g><g clip-path="url(#de27877875)"><path fill="#002060" d="M 281.421875 160.289062 C 280.792969 158.761719 279.308594 157.765625 277.65625 157.765625 L 255.90625 157.765625 C 253.65625 157.765625 251.832031 159.59375 251.832031 161.847656 L 251.832031 176.863281 L 245.136719 176.863281 L 245.136719 154.421875 C 245.136719 152.171875 243.308594 150.34375 241.054688 150.34375 L 223.703125 150.34375 L 213.769531 139.9375 C 213 139.132812 211.933594 138.671875 210.820312 138.671875 L 186.074219 138.671875 L 186.074219 131.59375 L 200.214844 131.59375 C 202.839844 131.59375 204.96875 129.464844 204.96875 126.839844 C 204.96875 124.207031 202.839844 122.078125 200.214844 122.078125 L 145.050781 122.078125 C 142.421875 122.078125 140.292969 124.207031 140.292969 126.839844 C 140.292969 129.464844 142.421875 131.59375 145.050781 131.59375 L 157.414062 131.59375 L 157.414062 138.671875 L 137.09375 138.671875 C 135.871094 138.671875 134.71875 139.21875 133.941406 140.164062 L 122.964844 153.527344 L 106.851562 153.527344 C 104.605469 153.527344 102.78125 155.355469 102.78125 157.601562 L 102.78125 178.375 L 94.652344 178.375 L 94.652344 157.601562 C 94.652344 154.226562 91.910156 151.484375 88.535156 151.484375 C 85.15625 151.484375 82.417969 154.226562 82.417969 157.601562 L 82.417969 217.015625 C 82.417969 220.394531 85.15625 223.125 88.535156 223.125 C 91.910156 223.125 94.652344 220.394531 94.652344 217.015625 L 94.652344 193.070312 L 102.78125 193.070312 L 102.78125 227.621094 C 102.78125 229.863281 104.59375 231.6875 106.839844 231.695312 L 135.8125 231.820312 L 162.753906 252.097656 C 163.457031 252.628906 164.316406 252.917969 165.203125 252.917969 L 237.34375 252.917969 C 239.589844 252.917969 241.417969 251.09375 241.421875 248.84375 L 241.46875 224.824219 L 253.980469 224.820312 L 253.976562 240.964844 C 253.976562 242.050781 254.410156 243.089844 255.179688 243.855469 C 255.949219 244.621094 257.011719 245.050781 258.078125 245.039062 L 277.683594 244.914062 C 279.347656 244.910156 280.835938 243.886719 281.445312 242.339844 C 292.585938 214.171875 292.582031 187.335938 281.421875 160.289062 " fill-opacity="1" fill-rule="nonzero"/></g><g clip-path="url(#71ff3645c3)"><path fill="#ffffff" d="M 149.257812 197.109375 C 145.554688 197.109375 142.554688 194.109375 142.554688 190.40625 C 142.554688 186.703125 145.554688 183.703125 149.257812 183.703125 C 152.960938 183.703125 155.960938 186.703125 155.960938 190.40625 C 155.960938 194.109375 152.960938 197.109375 149.257812 197.109375 Z M 174.128906 186.949219 L 172.78125 186.746094 C 170.871094 186.460938 169.265625 185.15625 168.601562 183.339844 C 168.402344 182.796875 168.183594 182.261719 167.941406 181.742188 C 167.121094 179.980469 167.324219 177.917969 168.480469 176.359375 L 169.289062 175.265625 C 169.609375 174.832031 169.566406 174.230469 169.183594 173.851562 L 165.8125 170.476562 C 165.429688 170.097656 164.828125 170.054688 164.398438 170.375 L 163.304688 171.183594 C 161.746094 172.339844 159.679688 172.539062 157.921875 171.722656 C 157.398438 171.480469 156.867188 171.257812 156.324219 171.0625 C 154.507812 170.398438 153.199219 168.792969 152.914062 166.878906 L 152.714844 165.535156 C 152.636719 165.003906 152.179688 164.609375 151.640625 164.609375 L 146.871094 164.609375 C 146.335938 164.609375 145.878906 165.003906 145.796875 165.535156 L 145.597656 166.878906 C 145.3125 168.792969 144.007812 170.398438 142.191406 171.0625 C 141.648438 171.257812 141.113281 171.480469 140.59375 171.722656 C 138.832031 172.539062 136.769531 172.339844 135.210938 171.183594 L 134.117188 170.375 C 133.683594 170.054688 133.082031 170.097656 132.703125 170.476562 L 129.328125 173.851562 C 128.949219 174.230469 128.90625 174.832031 129.222656 175.265625 L 130.035156 176.359375 C 131.191406 177.917969 131.390625 179.980469 130.574219 181.742188 C 130.332031 182.261719 130.109375 182.796875 129.910156 183.339844 C 129.25 185.15625 127.644531 186.460938 125.730469 186.746094 L 124.386719 186.949219 C 123.855469 187.027344 123.460938 187.484375 123.460938 188.019531 L 123.460938 192.789062 C 123.460938 193.328125 123.855469 193.785156 124.386719 193.863281 L 125.730469 194.066406 C 127.644531 194.347656 129.25 195.65625 129.910156 197.472656 C 130.109375 198.015625 130.332031 198.550781 130.574219 199.070312 C 131.390625 200.832031 131.191406 202.894531 130.035156 204.453125 L 129.222656 205.546875 C 128.90625 205.980469 128.949219 206.578125 129.328125 206.960938 L 132.703125 210.332031 C 133.082031 210.714844 133.683594 210.757812 134.117188 210.4375 L 135.210938 209.628906 C 136.769531 208.472656 138.832031 208.269531 140.59375 209.089844 C 141.113281 209.332031 141.648438 209.550781 142.191406 209.75 C 144.007812 210.414062 145.3125 212.019531 145.597656 213.933594 L 145.796875 215.277344 C 145.878906 215.808594 146.335938 216.203125 146.871094 216.203125 L 151.640625 216.203125 C 152.179688 216.203125 152.636719 215.808594 152.714844 215.277344 L 152.914062 213.933594 C 153.199219 212.019531 154.507812 210.414062 156.324219 209.75 C 156.867188 209.550781 157.398438 209.332031 157.921875 209.089844 C 159.679688 208.269531 161.746094 208.472656 163.304688 209.628906 L 164.398438 210.4375 C 164.828125 210.757812 165.429688 210.714844 165.8125 210.332031 L 169.183594 206.960938 C 169.566406 206.578125 169.609375 205.980469 169.289062 205.546875 L 168.480469 204.453125 C 167.324219 202.894531 167.121094 200.832031 167.941406 199.070312 C 168.183594 198.550781 168.402344 198.015625 168.601562 197.472656 C 169.265625 195.65625 170.871094 194.347656 172.78125 194.066406 L 174.128906 193.863281 C 174.660156 193.785156 175.054688 193.328125 175.054688 192.789062 L 175.054688 188.019531 C 175.054688 187.484375 174.660156 187.027344 174.128906 186.949219 Z M 191.4375 222.90625 C 187.734375 222.90625 184.734375 219.90625 184.734375 216.203125 C 184.734375 212.5 187.734375 209.5 191.4375 209.5 C 195.140625 209.5 198.140625 212.5 198.140625 216.203125 C 198.140625 219.90625 195.140625 222.90625 191.4375 222.90625 Z M 216.308594 212.742188 L 214.964844 212.542969 C 213.050781 212.261719 211.445312 210.953125 210.78125 209.136719 C 210.582031 208.59375 210.363281 208.058594 210.121094 207.539062 C 209.304688 205.777344 209.503906 203.714844 210.660156 202.15625 L 211.46875 201.0625 C 211.789062 200.628906 211.746094 200.027344 211.367188 199.648438 L 207.992188 196.273438 C 207.613281 195.894531 207.011719 195.851562 206.578125 196.171875 L 205.484375 196.980469 C 203.925781 198.136719 201.863281 198.339844 200.101562 197.519531 C 199.582031 197.277344 199.046875 197.058594 198.503906 196.859375 C 196.6875 196.195312 195.378906 194.589844 195.097656 192.675781 L 194.898438 191.332031 C 194.816406 190.800781 194.359375 190.40625 193.824219 190.40625 L 189.050781 190.40625 C 188.515625 190.40625 188.058594 190.800781 187.980469 191.332031 L 187.777344 192.675781 C 187.496094 194.589844 186.1875 196.195312 184.371094 196.859375 C 183.828125 197.058594 183.292969 197.277344 182.773438 197.519531 C 181.011719 198.339844 178.949219 198.136719 177.390625 196.980469 L 176.296875 196.171875 C 175.863281 195.851562 175.261719 195.894531 174.882812 196.273438 L 171.511719 199.648438 C 171.128906 200.027344 171.085938 200.628906 171.40625 201.0625 L 172.214844 202.15625 C 173.371094 203.714844 173.570312 205.777344 172.753906 207.539062 C 172.511719 208.058594 172.292969 208.59375 172.09375 209.136719 C 171.429688 210.953125 169.824219 212.261719 167.910156 212.542969 L 166.566406 212.742188 C 166.035156 212.824219 165.640625 213.28125 165.640625 213.816406 L 165.640625 218.589844 C 165.640625 219.125 166.035156 219.582031 166.566406 219.660156 L 167.910156 219.863281 C 169.824219 220.144531 171.429688 221.453125 172.09375 223.269531 C 172.292969 223.8125 172.511719 224.347656 172.753906 224.867188 C 173.570312 226.628906 173.371094 228.691406 172.214844 230.25 L 171.40625 231.34375 C 171.085938 231.777344 171.128906 232.378906 171.511719 232.757812 L 174.882812 236.128906 C 175.261719 236.511719 175.863281 236.554688 176.296875 236.234375 L 177.390625 235.425781 C 178.949219 234.269531 181.011719 234.070312 182.773438 234.886719 C 183.292969 235.128906 183.828125 235.347656 184.371094 235.546875 C 186.1875 236.210938 187.496094 237.816406 187.777344 239.730469 L 187.980469 241.074219 C 188.058594 241.605469 188.515625 242 189.050781 242 L 193.824219 242 C 194.359375 242 194.816406 241.605469 194.898438 241.074219 L 195.097656 239.730469 C 195.378906 237.816406 196.6875 236.210938 198.503906 235.546875 C 199.046875 235.347656 199.582031 235.128906 200.101562 234.886719 C 201.863281 234.070312 203.925781 234.269531 205.484375 235.425781 L 206.578125 236.234375 C 207.011719 236.554688 207.613281 236.511719 207.992188 236.128906 L 211.367188 232.757812 C 211.746094 232.378906 211.789062 231.777344 211.46875 231.34375 L 210.660156 230.25 C 209.503906 228.691406 209.304688 226.628906 210.121094 224.867188 C 210.363281 224.347656 210.582031 223.8125 210.78125 223.269531 C 211.445312 221.453125 213.050781 220.144531 214.964844 219.863281 L 216.308594 219.660156 C 216.839844 219.582031 217.234375 219.125 217.234375 218.589844 L 217.234375 213.816406 C 217.234375 213.28125 216.839844 212.824219 216.308594 212.742188 Z M 187.679688 175.160156 C 184.886719 175.160156 182.621094 172.894531 182.621094 170.105469 C 182.621094 167.308594 184.886719 165.046875 187.679688 165.046875 C 190.472656 165.046875 192.734375 167.308594 192.734375 170.105469 C 192.734375 172.894531 190.472656 175.160156 187.679688 175.160156 Z M 205.652344 167.605469 L 204.679688 167.460938 C 203.296875 167.253906 202.136719 166.308594 201.65625 165 C 201.515625 164.605469 201.355469 164.21875 201.179688 163.84375 C 200.589844 162.570312 200.734375 161.078125 201.566406 159.953125 L 202.152344 159.164062 C 202.386719 158.851562 202.351562 158.414062 202.078125 158.140625 L 199.640625 155.703125 C 199.367188 155.429688 198.933594 155.398438 198.621094 155.628906 L 197.828125 156.214844 C 196.703125 157.050781 195.210938 157.195312 193.941406 156.601562 C 193.5625 156.429688 193.175781 156.269531 192.785156 156.125 C 191.472656 155.644531 190.527344 154.484375 190.324219 153.101562 L 190.175781 152.132812 C 190.121094 151.746094 189.789062 151.464844 189.402344 151.464844 L 185.953125 151.464844 C 185.566406 151.464844 185.238281 151.746094 185.179688 152.132812 L 185.035156 153.101562 C 184.828125 154.484375 183.886719 155.644531 182.574219 156.125 C 182.179688 156.269531 181.792969 156.429688 181.417969 156.601562 C 180.144531 157.195312 178.652344 157.050781 177.527344 156.214844 L 176.738281 155.628906 C 176.425781 155.398438 175.992188 155.429688 175.714844 155.703125 L 173.28125 158.140625 C 173.003906 158.414062 172.972656 158.851562 173.203125 159.164062 L 173.789062 159.953125 C 174.625 161.078125 174.769531 162.570312 174.179688 163.84375 C 174.003906 164.21875 173.84375 164.605469 173.699219 165 C 173.21875 166.308594 172.0625 167.253906 170.679688 167.460938 L 169.707031 167.605469 C 169.324219 167.660156 169.039062 167.992188 169.039062 168.378906 L 169.039062 171.828125 C 169.039062 172.214844 169.324219 172.546875 169.707031 172.601562 L 170.679688 172.746094 C 172.0625 172.953125 173.21875 173.898438 173.699219 175.207031 C 173.84375 175.601562 174.003906 175.988281 174.179688 176.363281 C 174.769531 177.636719 174.625 179.128906 173.789062 180.253906 L 173.203125 181.042969 C 172.972656 181.355469 173.003906 181.792969 173.28125 182.066406 L 175.714844 184.503906 C 175.992188 184.777344 176.425781 184.808594 176.738281 184.578125 L 177.527344 183.992188 C 178.652344 183.15625 180.144531 183.011719 181.417969 183.601562 C 181.792969 183.777344 182.179688 183.9375 182.574219 184.082031 C 183.886719 184.5625 184.828125 185.722656 185.035156 187.105469 L 185.179688 188.074219 C 185.238281 188.460938 185.566406 188.742188 185.953125 188.742188 L 189.402344 188.742188 C 189.789062 188.742188 190.121094 188.460938 190.175781 188.074219 L 190.324219 187.105469 C 190.527344 185.722656 191.472656 184.5625 192.785156 184.082031 C 193.175781 183.9375 193.5625 183.777344 193.941406 183.601562 C 195.210938 183.011719 196.703125 183.15625 197.828125 183.992188 L 198.621094 184.578125 C 198.933594 184.808594 199.367188 184.777344 199.640625 184.503906 L 202.078125 182.066406 C 202.351562 181.792969 202.386719 181.355469 202.152344 181.042969 L 201.566406 180.253906 C 200.734375 179.128906 200.589844 177.636719 201.179688 176.363281 C 201.355469 175.988281 201.515625 175.601562 201.65625 175.207031 C 202.136719 173.898438 203.296875 172.953125 204.679688 172.746094 L 205.652344 172.601562 C 206.035156 172.546875 206.320312 172.214844 206.320312 171.828125 L 206.320312 168.378906 C 206.320312 167.992188 206.035156 167.660156 205.652344 167.605469 " fill-opacity="1" fill-rule="nonzero"/></g></svg>