<svg xmlns="http://www.w3.org/2000/svg" xmlns:xlink="http://www.w3.org/1999/xlink" width="500" zoomAndPan="magnify" viewBox="0 0 375 374.999991" height="500" preserveAspectRatio="xMidYMid meet" version="1.2"><defs><clipPath id="5c831af247"><path d="M 12.882812 12.882812 L 362.117188 12.882812 L 362.117188 362.117188 L 12.882812 362.117188 Z M 12.882812 12.882812 "/></clipPath><clipPath id="79d9858d59"><path d="M 187.5 12.882812 C 91.0625 12.882812 12.882812 91.0625 12.882812 187.5 C 12.882812 283.9375 91.0625 362.117188 187.5 362.117188 C 283.9375 362.117188 362.117188 283.9375 362.117188 187.5 C 362.117188 91.0625 283.9375 12.882812 187.5 12.882812 Z M 187.5 12.882812 "/></clipPath><clipPath id="e2080720a8"><path d="M 97.46875 97.46875 L 277.46875 97.46875 L 277.46875 277.46875 L 97.46875 277.46875 Z M 97.46875 97.46875 "/></clipPath></defs><g id="8f0df709e9"><g clip-rule="nonzero" clip-path="url(#5c831af247)"><g clip-rule="nonzero" clip-path="url(#79d9858d59)"><path style=" stroke:none;fill-rule:nonzero;fill:#ffffff;fill-opacity:1;" d="M 12.882812 12.882812 L 362.117188 12.882812 L 362.117188 362.117188 L 12.882812 362.117188 Z M 12.882812 12.882812 "/></g></g><g clip-rule="nonzero" clip-path="url(#e2080720a8)"><path style=" stroke:none;fill-rule:evenodd;fill:#002060;fill-opacity:1;" d="M 115.347656 187.46875 C 115.347656 171.816406 120.214844 157.03125 129.449219 144.542969 L 133.488281 151.042969 C 126.867188 160.839844 123.109375 172.070312 122.488281 183.941406 L 131.101562 183.941406 C 133.046875 183.941406 134.625 185.519531 134.625 187.46875 C 134.625 189.417969 133.046875 191 131.101562 191 L 122.492188 191 C 124.265625 224.152344 150.863281 250.804688 183.953125 252.582031 L 183.953125 243.953125 C 183.953125 242.003906 185.527344 240.421875 187.472656 240.421875 C 189.417969 240.421875 190.996094 242.003906 190.996094 243.953125 L 190.996094 252.582031 C 202.84375 251.957031 214.054688 248.195312 223.832031 241.5625 L 230.316406 245.605469 C 217.855469 254.859375 203.097656 259.734375 187.472656 259.734375 C 147.703125 259.734375 115.347656 227.316406 115.347656 187.46875 Z M 245.496094 230.394531 L 241.460938 223.898438 C 248.082031 214.101562 251.835938 202.871094 252.457031 191 L 243.84375 191 C 241.898438 191 240.320312 189.417969 240.320312 187.46875 C 240.320312 185.519531 241.898438 183.941406 243.84375 183.941406 L 252.457031 183.941406 C 250.683594 150.789062 224.082031 124.136719 190.996094 122.359375 L 190.996094 130.988281 C 190.996094 132.9375 189.417969 134.519531 187.472656 134.519531 C 185.527344 134.519531 183.953125 132.9375 183.953125 130.988281 L 183.953125 122.359375 C 172.101562 122.980469 160.894531 126.746094 151.117188 133.378906 L 144.632812 129.332031 C 157.09375 120.082031 171.851562 115.203125 187.472656 115.203125 C 227.242188 115.203125 259.597656 147.621094 259.597656 187.46875 C 259.597656 203.121094 254.730469 217.910156 245.496094 230.394531 Z M 142.980469 136.617188 L 138.214844 133.644531 Z M 169.722656 153.292969 L 201.6875 173.230469 L 208.371094 183.988281 L 248.03125 247.835938 C 248.03125 247.835938 248.03125 247.835938 248.035156 247.835938 L 238.226562 232.050781 C 238.226562 232.050781 238.226562 232.050781 238.226562 232.046875 L 248.546875 248.660156 L 173.261719 201.710938 L 136.363281 142.3125 L 136.601562 142.695312 L 126.402344 126.277344 L 127.226562 126.792969 Z M 97.648438 187.46875 C 97.648438 211.511719 106.992188 234.109375 123.957031 251.109375 C 140.925781 268.109375 163.480469 277.46875 187.472656 277.46875 C 209.148438 277.46875 229.90625 269.695312 246.230469 255.53125 L 257.671875 262.667969 C 258.246094 263.027344 258.890625 263.199219 259.53125 263.199219 C 260.441406 263.199219 261.34375 262.847656 262.023438 262.167969 C 263.183594 261.007812 263.390625 259.199219 262.523438 257.804688 L 255.402344 246.34375 C 269.539062 229.984375 277.296875 209.1875 277.296875 187.46875 C 277.296875 163.429688 267.953125 140.828125 250.988281 123.832031 C 234.023438 106.832031 211.464844 97.46875 187.472656 97.46875 C 165.796875 97.46875 145.042969 105.242188 128.714844 119.40625 L 117.277344 112.273438 C 115.886719 111.40625 114.082031 111.613281 112.921875 112.773438 C 111.765625 113.933594 111.558594 115.742188 112.421875 117.132812 L 119.542969 128.597656 C 105.40625 144.953125 97.648438 165.753906 97.648438 187.46875 Z M 195.035156 179.910156 C 199.199219 184.082031 199.199219 190.875 195.035156 195.046875 C 192.953125 197.136719 190.214844 198.179688 187.480469 198.179688 C 184.746094 198.179688 182.007812 197.136719 179.925781 195.046875 C 177.910156 193.027344 176.796875 190.339844 176.796875 187.480469 C 176.796875 184.621094 177.910156 181.929688 179.925781 179.910156 C 184.09375 175.734375 190.871094 175.734375 195.035156 179.910156 "/></g></g></svg>