<svg xmlns="http://www.w3.org/2000/svg" xmlns:xlink="http://www.w3.org/1999/xlink" width="500" zoomAndPan="magnify" viewBox="0 0 375 374.999991" height="500" preserveAspectRatio="xMidYMid meet" version="1.2"><defs><clipPath id="a4a457defb"><path d="M 70 69.816406 L 305 69.816406 L 305 305.316406 L 70 305.316406 Z M 70 69.816406 "/></clipPath><clipPath id="0236388aa1"><path d="M 12.882812 12.882812 L 362.117188 12.882812 L 362.117188 362.117188 L 12.882812 362.117188 Z M 12.882812 12.882812 "/></clipPath><clipPath id="fe2d466bc7"><path d="M 187.5 12.882812 C 91.0625 12.882812 12.882812 91.0625 12.882812 187.5 C 12.882812 283.9375 91.0625 362.117188 187.5 362.117188 C 283.9375 362.117188 362.117188 283.9375 362.117188 187.5 C 362.117188 91.0625 283.9375 12.882812 187.5 12.882812 Z M 187.5 12.882812 "/></clipPath><clipPath id="a4e67d9843"><path d="M 110.566406 98.433594 L 219 98.433594 L 219 207 L 110.566406 207 Z M 110.566406 98.433594 "/></clipPath><clipPath id="dbaeac3ba0"><path d="M 132 142 L 284 142 L 284 276.867188 L 132 276.867188 Z M 132 142 "/></clipPath></defs><g id="3d43d5cb35"><g clip-rule="nonzero" clip-path="url(#a4a457defb)"><path style=" stroke:none;fill-rule:evenodd;fill:#ffffff;fill-opacity:1;" d="M 93.191406 187.496094 C 93.191406 167.027344 99.554688 147.691406 111.628906 131.367188 L 116.910156 139.863281 C 108.253906 152.671875 103.34375 167.355469 102.53125 182.878906 L 113.792969 182.878906 C 116.335938 182.878906 118.398438 184.945312 118.398438 187.496094 C 118.398438 190.042969 116.335938 192.109375 113.792969 192.109375 L 102.53125 192.109375 C 104.847656 235.457031 139.628906 270.304688 182.894531 272.628906 L 182.894531 261.347656 C 182.894531 258.796875 184.957031 256.730469 187.5 256.730469 C 190.042969 256.730469 192.105469 258.796875 192.105469 261.347656 L 192.105469 272.628906 C 207.597656 271.816406 222.253906 266.894531 235.039062 258.222656 L 243.519531 263.511719 C 227.222656 275.609375 207.925781 281.984375 187.5 281.984375 C 135.5 281.984375 93.191406 239.597656 93.191406 187.496094 Z M 263.367188 243.621094 L 258.089844 235.125 C 266.746094 222.316406 271.65625 207.632812 272.46875 192.109375 L 261.207031 192.109375 C 258.664062 192.109375 256.601562 190.042969 256.601562 187.496094 C 256.601562 184.945312 258.664062 182.878906 261.207031 182.878906 L 272.46875 182.878906 C 270.148438 139.53125 235.367188 104.683594 192.105469 102.359375 L 192.105469 113.640625 C 192.105469 116.191406 190.042969 118.257812 187.5 118.257812 C 184.957031 118.257812 182.894531 116.191406 182.894531 113.640625 L 182.894531 102.359375 C 167.402344 103.171875 152.746094 108.09375 139.960938 116.765625 L 131.480469 111.476562 C 147.773438 99.378906 167.074219 93.003906 187.5 93.003906 C 239.5 93.003906 281.804688 135.390625 281.804688 187.496094 C 281.804688 207.960938 275.441406 227.296875 263.367188 243.621094 Z M 129.320312 121 L 123.089844 117.113281 Z M 164.285156 142.808594 L 206.085938 168.875 L 214.824219 182.941406 L 266.683594 266.425781 C 266.683594 266.425781 266.683594 266.425781 266.683594 266.429688 L 253.863281 245.789062 C 253.863281 245.785156 253.859375 245.785156 253.859375 245.78125 L 267.351562 267.503906 L 168.914062 206.117188 L 120.667969 128.449219 L 120.980469 128.949219 L 107.644531 107.484375 L 108.722656 108.15625 Z M 70.050781 187.496094 C 70.050781 218.925781 82.265625 248.480469 104.449219 270.707031 C 126.632812 292.933594 156.128906 305.175781 187.5 305.175781 C 215.839844 305.175781 242.980469 295.011719 264.328125 276.488281 L 279.289062 285.820312 C 280.039062 286.285156 280.882812 286.515625 281.71875 286.515625 C 282.910156 286.515625 284.089844 286.054688 284.976562 285.164062 C 286.492188 283.644531 286.761719 281.285156 285.632812 279.460938 L 276.320312 264.472656 C 294.804688 243.085938 304.949219 215.890625 304.949219 187.496094 C 304.949219 156.0625 292.730469 126.507812 270.546875 104.28125 C 248.367188 82.054688 218.871094 69.816406 187.5 69.816406 C 159.15625 69.816406 132.015625 79.976562 110.671875 98.5 L 95.710938 89.171875 C 93.894531 88.035156 91.535156 88.308594 90.019531 89.824219 C 88.507812 91.34375 88.234375 93.703125 89.367188 95.527344 L 98.675781 110.515625 C 80.195312 131.902344 70.050781 159.097656 70.050781 187.496094 Z M 197.386719 177.609375 C 202.832031 183.066406 202.832031 191.945312 197.386719 197.402344 C 194.664062 200.132812 191.085938 201.496094 187.507812 201.496094 C 183.929688 201.496094 180.355469 200.132812 177.628906 197.402344 C 174.992188 194.761719 173.539062 191.246094 173.539062 187.507812 C 173.539062 183.769531 174.992188 180.253906 177.628906 177.609375 C 183.078125 172.152344 191.941406 172.152344 197.386719 177.609375 "/></g><g clip-rule="nonzero" clip-path="url(#0236388aa1)"><g clip-rule="nonzero" clip-path="url(#fe2d466bc7)"><path style=" stroke:none;fill-rule:nonzero;fill:#002060;fill-opacity:1;" d="M 12.882812 12.882812 L 362.117188 12.882812 L 362.117188 362.117188 L 12.882812 362.117188 Z M 12.882812 12.882812 "/></g></g><g clip-rule="nonzero" clip-path="url(#a4e67d9843)"><path style=" stroke:none;fill-rule:nonzero;fill:#ffffff;fill-opacity:1;" d="M 216.492188 120.539062 L 207.632812 111.679688 C 205.53125 109.582031 202.246094 109.304688 199.960938 111.042969 L 191.195312 117.617188 C 187.90625 116.246094 186.996094 115.882812 183.707031 114.511719 L 182.15625 103.734375 C 181.699219 100.8125 179.234375 98.714844 176.3125 98.714844 L 163.710938 98.714844 C 160.789062 98.714844 158.320312 100.8125 157.957031 103.734375 L 156.3125 114.511719 C 153.023438 115.882812 152.203125 116.246094 148.917969 117.617188 L 140.152344 111.042969 C 137.777344 109.304688 134.492188 109.582031 132.480469 111.679688 L 123.53125 120.539062 C 121.523438 122.636719 121.246094 125.835938 122.980469 128.207031 L 129.558594 136.976562 C 128.1875 140.261719 127.824219 141.175781 126.453125 144.464844 L 115.585938 146.015625 C 112.757812 146.472656 110.566406 148.9375 110.566406 151.859375 L 110.566406 164.371094 C 110.566406 167.292969 112.757812 169.847656 115.585938 170.214844 L 126.453125 171.765625 C 127.824219 175.054688 128.1875 175.964844 129.558594 179.253906 L 122.980469 188.019531 C 121.246094 190.394531 121.523438 193.683594 123.53125 195.691406 L 132.480469 204.640625 C 134.492188 206.648438 137.777344 206.921875 140.152344 205.1875 L 148.917969 198.613281 C 152.203125 199.980469 153.023438 200.347656 156.222656 201.71875 L 169.003906 180.347656 C 157.226562 179.800781 147.820312 170.03125 147.820312 158.160156 C 147.820312 145.832031 157.773438 135.878906 170.011719 135.878906 C 178.136719 135.878906 185.257812 140.261719 189.097656 146.746094 C 193.023438 140.261719 199.871094 136.425781 207.449219 136.425781 C 208.546875 136.425781 209.640625 136.519531 210.644531 136.699219 L 217.039062 128.207031 C 218.773438 125.835938 218.589844 122.636719 216.492188 120.539062 Z M 216.492188 120.539062 "/></g><path style=" stroke:none;fill-rule:nonzero;fill:#ffffff;fill-opacity:1;" d="M 218.191406 151.640625 C 215.921875 147.839844 211.921875 145.570312 207.496094 145.570312 C 203.066406 145.570312 199.066406 147.839844 196.796875 151.640625 L 157.179688 217.929688 C 154.847656 221.828125 154.792969 226.519531 157.035156 230.46875 C 159.28125 234.425781 163.332031 236.785156 167.878906 236.785156 L 247.113281 236.785156 C 251.65625 236.785156 255.710938 234.425781 257.953125 230.46875 C 260.195312 226.519531 260.140625 221.828125 257.808594 217.929688 Z M 201.34375 171.84375 C 201.34375 168.457031 204.109375 165.691406 207.496094 165.691406 C 210.878906 165.691406 213.648438 168.457031 213.648438 171.84375 L 213.648438 197.402344 C 213.648438 200.785156 210.878906 203.554688 207.496094 203.554688 C 204.109375 203.554688 201.34375 200.785156 201.34375 197.402344 Z M 207.496094 224.878906 C 203.347656 224.878906 199.988281 221.519531 199.988281 217.375 C 199.988281 213.230469 203.347656 209.867188 207.496094 209.867188 C 211.640625 209.867188 215.003906 213.230469 215.003906 217.375 C 215.003906 221.519531 211.640625 224.878906 207.496094 224.878906 Z M 207.496094 224.878906 "/><g clip-rule="nonzero" clip-path="url(#dbaeac3ba0)"><path style=" stroke:none;fill-rule:nonzero;fill:#ffffff;fill-opacity:1;" d="M 197.636719 148.277344 L 133.828125 258.800781 C 129.273438 266.6875 134.964844 276.546875 144.074219 276.546875 L 271.691406 276.546875 C 280.796875 276.546875 286.492188 266.6875 281.9375 258.800781 L 218.128906 148.277344 C 213.574219 140.390625 202.191406 140.390625 197.636719 148.277344 Z M 197.636719 148.277344 "/></g><path style=" stroke:none;fill-rule:nonzero;fill:#002060;fill-opacity:1;" d="M 204.675781 228.664062 L 211.089844 228.664062 C 213.445312 228.664062 215.425781 226.515625 215.425781 223.953125 L 217.535156 190.492188 C 217.535156 186.667969 215.003906 183.457031 211.984375 183.457031 L 203.78125 183.457031 C 200.761719 183.457031 198.230469 186.667969 198.230469 190.492188 L 200.339844 223.953125 C 200.339844 226.515625 202.320312 228.664062 204.675781 228.664062 Z M 204.675781 228.664062 "/><path style=" stroke:none;fill-rule:nonzero;fill:#002060;fill-opacity:1;" d="M 208.265625 235.960938 C 202.152344 235.960938 198.527344 240.640625 198.527344 244.9375 C 198.527344 249.996094 202.152344 254.675781 208.265625 254.675781 C 213.613281 254.675781 217.238281 249.996094 217.238281 244.9375 C 217.238281 240.640625 213.613281 235.960938 208.265625 235.960938 Z M 208.265625 235.960938 "/></g></svg>