<svg xmlns="http://www.w3.org/2000/svg" xmlns:xlink="http://www.w3.org/1999/xlink" width="500" zoomAndPan="magnify" viewBox="0 0 375 374.999991" height="500" preserveAspectRatio="xMidYMid meet" version="1.2"><defs><clipPath id="3ef1f5f854"><path d="M 12.882812 12.882812 L 362.117188 12.882812 L 362.117188 362.117188 L 12.882812 362.117188 Z M 12.882812 12.882812 "/></clipPath><clipPath id="934994bde8"><path d="M 187.5 12.882812 C 91.0625 12.882812 12.882812 91.0625 12.882812 187.5 C 12.882812 283.9375 91.0625 362.117188 187.5 362.117188 C 283.9375 362.117188 362.117188 283.9375 362.117188 187.5 C 362.117188 91.0625 283.9375 12.882812 187.5 12.882812 Z M 187.5 12.882812 "/></clipPath><clipPath id="7475fba40a"><path d="M 148 94.902344 L 188 94.902344 L 188 131 L 148 131 Z M 148 94.902344 "/></clipPath><clipPath id="856532b5f8"><path d="M 112 143 L 311 143 L 311 287.191406 L 112 287.191406 Z M 112 143 "/></clipPath><clipPath id="3a2344c17d"><path d="M 199 265 L 224 265 L 224 287.191406 L 199 287.191406 Z M 199 265 "/></clipPath><clipPath id="f112c67e88"><path d="M 143 152 L 282 152 L 282 275.921875 L 143 275.921875 Z M 143 152 "/></clipPath></defs><g id="b2cf91c59b"><g clip-rule="nonzero" clip-path="url(#3ef1f5f854)"><g clip-rule="nonzero" clip-path="url(#934994bde8)"><path style=" stroke:none;fill-rule:nonzero;fill:#ffffff;fill-opacity:1;" d="M 12.882812 12.882812 L 362.117188 12.882812 L 362.117188 362.117188 L 12.882812 362.117188 Z M 12.882812 12.882812 "/></g></g><path style=" stroke:none;fill-rule:nonzero;fill:#002060;fill-opacity:1;" d="M 199.183594 161.882812 C 197.789062 177.851562 184.382812 190.371094 168.054688 190.371094 C 151.734375 190.371094 138.328125 177.851562 136.9375 161.882812 L 114.632812 161.882812 C 114.894531 164.722656 115.816406 166.890625 120.175781 167.789062 C 127.453125 169.273438 132.5625 181.257812 128.925781 187.160156 C 126.6875 190.796875 126.257812 193.546875 129.609375 196.761719 C 132.894531 199.914062 135.742188 202.746094 140.390625 198.914062 C 141.703125 197.832031 143.722656 197.613281 144.816406 197.210938 C 150.511719 197.25 158.96875 202.421875 159.945312 206.375 C 160.90625 210.339844 162.425781 212.894531 167.195312 212.699219 C 171.636719 212.507812 175.164062 212.726562 176.527344 206.824219 C 178.242188 199.472656 189.839844 194.703125 195.972656 198.390625 C 200.074219 200.859375 202.898438 200.289062 206.046875 196.941406 C 208.96875 193.828125 210.417969 191.429688 207.640625 187.035156 C 203.46875 180.417969 207.691406 169.757812 215.222656 167.886719 C 219.296875 166.863281 220.902344 165.027344 221.425781 161.882812 Z M 199.183594 161.882812 "/><path style=" stroke:none;fill-rule:nonzero;fill:#002060;fill-opacity:1;" d="M 225.675781 155.886719 L 225.675781 158.171875 L 110.375 158.171875 L 110.375 155.886719 C 110.375 155.710938 110.386719 155.535156 110.402344 155.363281 C 110.667969 152.417969 113.144531 150.109375 116.15625 150.109375 L 116.417969 150.109375 C 116.878906 148.996094 117.152344 147.742188 117.3125 146.300781 C 118.421875 136.1875 122.144531 127.355469 128.257812 119.835938 C 128.257812 119.835938 128.265625 119.820312 128.289062 119.796875 C 128.710938 119.316406 132.949219 114.578125 139.078125 110.0625 C 139.082031 110.058594 139.089844 110.054688 139.097656 110.050781 C 139.339844 109.871094 139.589844 109.695312 139.839844 109.515625 L 139.847656 109.527344 C 140.828125 112.136719 144.820312 125.828125 147.46875 135.179688 L 147.574219 135.5 C 148.761719 138.550781 152.605469 143.824219 159.507812 144.226562 L 176.457031 144.230469 L 176.558594 144.226562 C 183.464844 143.824219 187.304688 138.550781 188.492188 135.5 L 188.597656 135.179688 C 191.246094 125.828125 195.238281 112.136719 196.222656 109.527344 L 196.246094 109.496094 C 197.089844 110.097656 197.90625 110.707031 198.675781 111.3125 C 202.070312 113.96875 204.746094 116.5625 206.308594 118.179688 C 207.304688 119.207031 207.855469 119.835938 207.855469 119.835938 L 207.78125 119.917969 C 213.699219 127.214844 217.367188 135.777344 218.585938 145.589844 C 218.804688 147.351562 219.191406 148.835938 219.886719 150.113281 L 219.90625 150.113281 C 221.992188 150.113281 223.820312 151.21875 224.835938 152.875 C 225.367188 153.75 225.675781 154.785156 225.675781 155.886719 Z M 225.675781 155.886719 "/><g clip-rule="nonzero" clip-path="url(#7475fba40a)"><path style=" stroke:none;fill-rule:nonzero;fill:#002060;fill-opacity:1;" d="M 150.46875 111.640625 C 152.199219 117.558594 153.902344 125.578125 154.253906 126.800781 C 154.566406 127.484375 156.21875 130.636719 159.820312 130.894531 L 176.234375 130.894531 C 179.835938 130.636719 181.488281 127.484375 181.800781 126.800781 C 182.152344 125.582031 183.855469 117.558594 185.585938 111.640625 C 186.40625 108.835938 187.113281 106.449219 187.710938 104.496094 C 187.089844 104.214844 186.464844 103.949219 185.832031 103.699219 C 185.136719 103.261719 184.253906 102.929688 183.164062 102.710938 C 183.117188 102.699219 183.0625 102.691406 183.015625 102.679688 C 182.566406 102.546875 182.074219 102.429688 181.550781 102.335938 C 181.347656 102.300781 181.148438 102.261719 180.949219 102.226562 C 178.628906 101.613281 176.617188 100.496094 176.574219 97.019531 C 176.566406 96.355469 174.65625 95.234375 173.566406 95.160156 C 173.25 95.136719 172.9375 95.117188 172.617188 95.101562 C 172.523438 95.078125 172.425781 95.070312 172.335938 95.0625 C 168.773438 94.828125 165.160156 94.929688 161.597656 95.226562 C 160.507812 95.320312 158.613281 96.472656 158.613281 97.132812 C 158.621094 100.839844 156.359375 101.898438 153.851562 102.527344 C 153.84375 102.53125 153.835938 102.53125 153.828125 102.53125 C 153.789062 102.539062 153.753906 102.542969 153.714844 102.554688 C 153.355469 102.621094 153.011719 102.699219 152.6875 102.792969 C 152.683594 102.792969 152.679688 102.792969 152.675781 102.792969 C 152.488281 102.835938 152.296875 102.871094 152.105469 102.914062 C 150.851562 103.1875 149.882812 103.597656 149.152344 104.152344 C 148.882812 104.269531 148.617188 104.390625 148.351562 104.515625 C 148.941406 106.464844 149.652344 108.851562 150.46875 111.640625 Z M 150.46875 111.640625 "/></g><g clip-rule="nonzero" clip-path="url(#856532b5f8)"><path style=" stroke:none;fill-rule:nonzero;fill:#ffffff;fill-opacity:1;" d="M 198.289062 151.261719 L 115.003906 295.511719 C 109.0625 305.804688 116.492188 318.671875 128.378906 318.671875 L 294.945312 318.671875 C 306.832031 318.671875 314.261719 305.804688 308.316406 295.511719 L 225.035156 151.261719 C 219.09375 140.964844 204.234375 140.964844 198.289062 151.261719 Z M 198.289062 151.261719 "/></g><path style=" stroke:none;fill-rule:nonzero;fill:#ffffff;fill-opacity:1;" d="M 207.476562 256.179688 L 215.847656 256.179688 C 218.925781 256.179688 221.507812 253.371094 221.507812 250.03125 L 224.261719 206.359375 C 224.261719 201.367188 220.957031 197.175781 217.019531 197.175781 L 206.308594 197.175781 C 202.371094 197.175781 199.0625 201.367188 199.0625 206.359375 L 201.816406 250.03125 C 201.816406 253.371094 204.402344 256.179688 207.476562 256.179688 Z M 207.476562 256.179688 "/><g clip-rule="nonzero" clip-path="url(#3a2344c17d)"><path style=" stroke:none;fill-rule:nonzero;fill:#ffffff;fill-opacity:1;" d="M 212.160156 265.703125 C 204.183594 265.703125 199.449219 271.808594 199.449219 277.417969 C 199.449219 284.023438 204.183594 290.128906 212.160156 290.128906 C 219.140625 290.128906 223.875 284.023438 223.875 277.417969 C 223.875 271.808594 219.140625 265.703125 212.160156 265.703125 Z M 212.160156 265.703125 "/></g><g clip-rule="nonzero" clip-path="url(#f112c67e88)"><path style=" stroke:none;fill-rule:nonzero;fill:#002060;fill-opacity:1;" d="M 203.113281 157.917969 L 144.667969 259.144531 C 140.496094 266.371094 145.710938 275.398438 154.050781 275.398438 L 270.941406 275.398438 C 279.28125 275.398438 284.496094 266.371094 280.324219 259.144531 L 221.882812 157.917969 C 217.710938 150.691406 207.285156 150.691406 203.113281 157.917969 Z M 203.113281 157.917969 "/></g><path style=" stroke:none;fill-rule:nonzero;fill:#ffffff;fill-opacity:1;" d="M 209.558594 231.542969 L 215.433594 231.542969 C 217.59375 231.542969 219.40625 229.574219 219.40625 227.226562 L 221.339844 196.582031 C 221.339844 193.078125 219.019531 190.136719 216.253906 190.136719 L 208.738281 190.136719 C 205.976562 190.136719 203.652344 193.078125 203.652344 196.582031 L 205.585938 227.226562 C 205.585938 229.574219 207.402344 231.542969 209.558594 231.542969 Z M 209.558594 231.542969 "/><path style=" stroke:none;fill-rule:nonzero;fill:#ffffff;fill-opacity:1;" d="M 212.847656 238.226562 C 207.25 238.226562 203.925781 242.511719 203.925781 246.445312 C 203.925781 251.082031 207.25 255.367188 212.847656 255.367188 C 217.742188 255.367188 221.066406 251.082031 221.066406 246.445312 C 221.066406 242.511719 217.742188 238.226562 212.847656 238.226562 Z M 212.847656 238.226562 "/></g></svg>