<svg xmlns="http://www.w3.org/2000/svg" xmlns:xlink="http://www.w3.org/1999/xlink" width="500" zoomAndPan="magnify" viewBox="0 0 375 374.999991" height="500" preserveAspectRatio="xMidYMid meet" version="1.2"><defs><clipPath id="cc7a9f7ab7"><path d="M 12.882812 12.882812 L 362.117188 12.882812 L 362.117188 362.117188 L 12.882812 362.117188 Z M 12.882812 12.882812 "/></clipPath><clipPath id="713a298bc9"><path d="M 187.5 12.882812 C 91.0625 12.882812 12.882812 91.0625 12.882812 187.5 C 12.882812 283.9375 91.0625 362.117188 187.5 362.117188 C 283.9375 362.117188 362.117188 283.9375 362.117188 187.5 C 362.117188 91.0625 283.9375 12.882812 187.5 12.882812 Z M 187.5 12.882812 "/></clipPath><clipPath id="8eb83c1b2e"><path d="M 160 109.433594 L 215 109.433594 L 215 207 L 160 207 Z M 160 109.433594 "/></clipPath><clipPath id="3c86bf129b"><path d="M 112.363281 259 L 262.363281 259 L 262.363281 265.433594 L 112.363281 265.433594 Z M 112.363281 259 "/></clipPath></defs><g id="f01fd3e52a"><g clip-rule="nonzero" clip-path="url(#cc7a9f7ab7)"><g clip-rule="nonzero" clip-path="url(#713a298bc9)"><path style=" stroke:none;fill-rule:nonzero;fill:#002060;fill-opacity:1;" d="M 12.882812 12.882812 L 362.117188 12.882812 L 362.117188 362.117188 L 12.882812 362.117188 Z M 12.882812 12.882812 "/></g></g><g clip-rule="nonzero" clip-path="url(#8eb83c1b2e)"><path style=" stroke:none;fill-rule:nonzero;fill:#ffffff;fill-opacity:1;" d="M 172.644531 159.535156 C 173.472656 160.070312 173.914062 160.945312 174.011719 161.871094 L 175.570312 206.707031 L 199.15625 206.707031 L 200.714844 161.871094 C 200.765625 160.945312 201.25 160.070312 202.082031 159.535156 C 212.265625 153.003906 216.894531 140.574219 213.484375 129.027344 C 210.074219 117.429688 199.449219 109.484375 187.410156 109.484375 C 175.375 109.484375 164.703125 117.429688 161.339844 128.976562 C 157.878906 140.574219 162.460938 153.050781 172.644531 159.535156 Z M 172.644531 159.535156 "/></g><path style=" stroke:none;fill-rule:nonzero;fill:#ffffff;fill-opacity:1;" d="M 258.609375 226.832031 C 258.5625 218.9375 252.175781 212.601562 244.28125 212.554688 L 130.441406 212.554688 C 122.546875 212.554688 116.164062 218.9375 116.117188 226.832031 L 116.117188 246.179688 L 258.609375 246.179688 Z M 258.609375 226.832031 "/><g clip-rule="nonzero" clip-path="url(#3c86bf129b)"><path style=" stroke:none;fill-rule:nonzero;fill:#ffffff;fill-opacity:1;" d="M 115.285156 265.234375 L 259.4375 265.234375 C 261.097656 265.234375 262.363281 263.96875 262.363281 262.3125 C 262.363281 260.652344 261.097656 259.386719 259.4375 259.386719 L 115.285156 259.386719 C 113.628906 259.386719 112.363281 260.652344 112.363281 262.3125 C 112.363281 263.96875 113.628906 265.234375 115.285156 265.234375 Z M 115.285156 265.234375 "/></g></g></svg>