<svg xmlns="http://www.w3.org/2000/svg" xmlns:xlink="http://www.w3.org/1999/xlink" width="500" zoomAndPan="magnify" viewBox="0 0 375 374.999991" height="500" preserveAspectRatio="xMidYMid meet" version="1.2"><defs><clipPath id="45aa74097a"><path d="M 12.882812 12.882812 L 362.117188 12.882812 L 362.117188 362.117188 L 12.882812 362.117188 Z M 12.882812 12.882812 "/></clipPath><clipPath id="614498b4fa"><path d="M 187.5 12.882812 C 91.0625 12.882812 12.882812 91.0625 12.882812 187.5 C 12.882812 283.9375 91.0625 362.117188 187.5 362.117188 C 283.9375 362.117188 362.117188 283.9375 362.117188 187.5 C 362.117188 91.0625 283.9375 12.882812 187.5 12.882812 Z M 187.5 12.882812 "/></clipPath><clipPath id="5b8e0b5e10"><path d="M 96.789062 97.46875 L 278.289062 97.46875 L 278.289062 277.46875 L 96.789062 277.46875 Z M 96.789062 97.46875 "/></clipPath><clipPath id="f4fdca18bb"><path d="M 118.121094 155.046875 L 166.207031 155.046875 L 166.207031 203.132812 L 118.121094 203.132812 Z M 118.121094 155.046875 "/></clipPath><clipPath id="0c0aa10747"><path d="M 142.164062 155.046875 C 128.886719 155.046875 118.121094 165.8125 118.121094 179.089844 C 118.121094 192.367188 128.886719 203.132812 142.164062 203.132812 C 155.441406 203.132812 166.207031 192.367188 166.207031 179.089844 C 166.207031 165.8125 155.441406 155.046875 142.164062 155.046875 Z M 142.164062 155.046875 "/></clipPath><clipPath id="efc2775220"><path d="M 123 166.464844 L 162.574219 166.464844 L 162.574219 197 L 123 197 Z M 123 166.464844 "/></clipPath></defs><g id="61b391d4c9"><g clip-rule="nonzero" clip-path="url(#45aa74097a)"><g clip-rule="nonzero" clip-path="url(#614498b4fa)"><path style=" stroke:none;fill-rule:nonzero;fill:#ffffff;fill-opacity:1;" d="M 12.882812 12.882812 L 362.117188 12.882812 L 362.117188 362.117188 L 12.882812 362.117188 Z M 12.882812 12.882812 "/></g></g><g clip-rule="nonzero" clip-path="url(#5b8e0b5e10)"><path style=" stroke:none;fill-rule:evenodd;fill:#002060;fill-opacity:1;" d="M 141.75 131.941406 C 130.714844 137.171875 116.171875 143.128906 99.871094 144.609375 C 98.121094 144.789062 96.820312 146.179688 96.847656 147.8125 C 97.273438 164.171875 97.664062 184.945312 100.78125 194.167969 C 106.253906 211.34375 121.039062 225.339844 138.816406 231.359375 L 138.816406 263.925781 C 138.816406 271.363281 144.925781 277.46875 152.363281 277.46875 L 264.574219 277.46875 C 272.042969 277.46875 278.121094 271.390625 278.121094 263.925781 L 278.121094 141.707031 C 278.121094 139.347656 277.304688 137.351562 275.640625 135.6875 L 239.898438 99.949219 C 238.265625 98.316406 236.242188 97.46875 233.914062 97.46875 L 152.363281 97.46875 C 144.894531 97.46875 138.816406 103.546875 138.816406 111.046875 L 138.816406 115.519531 C 138.816406 116.457031 139.574219 117.214844 140.511719 117.214844 L 148.433594 117.214844 C 149.371094 117.214844 150.125 116.457031 150.125 115.519531 L 150.125 111.046875 C 150.125 109.804688 151.15625 108.808594 152.363281 108.808594 L 232.160156 108.808594 L 232.160156 131.488281 C 232.160156 138.078125 237.511719 143.429688 244.101562 143.429688 L 266.8125 143.429688 L 266.8125 263.925781 C 266.8125 265.132812 265.78125 266.160156 264.574219 266.160156 L 152.363281 266.160156 C 151.125 266.160156 150.125 265.164062 150.125 263.925781 L 150.125 231.511719 C 150.125 230.875 149.765625 230.300781 149.21875 230 C 165.304688 223.253906 177.761719 210.222656 183.085938 194.199219 C 186.953125 182.527344 186.742188 164.203125 187.015625 147.8125 C 187.046875 146.179688 185.746094 144.789062 183.992188 144.640625 C 167.632812 143.15625 153 137.171875 141.933594 131.941406 Z M 196.085938 210.828125 L 254.324219 210.828125 C 255.019531 210.828125 255.5625 210.253906 255.5625 209.558594 L 255.5625 204.691406 C 255.5625 203.996094 255.019531 203.421875 254.324219 203.421875 L 196.085938 203.421875 C 195.390625 203.421875 194.847656 203.996094 194.847656 204.691406 L 194.847656 209.558594 C 194.847656 210.253906 195.390625 210.828125 196.085938 210.828125 Z M 200.351562 173.726562 L 254.324219 173.726562 C 255.019531 173.726562 255.5625 174.300781 255.5625 174.996094 L 255.5625 179.894531 C 255.5625 180.589844 255.019531 181.164062 254.324219 181.164062 L 200.351562 181.164062 C 199.683594 181.164062 199.109375 180.589844 199.109375 179.894531 L 199.109375 174.996094 C 199.109375 174.300781 199.683594 173.726562 200.351562 173.726562 Z M 201.195312 166.320312 L 254.324219 166.320312 C 255.019531 166.320312 255.5625 165.746094 255.5625 165.050781 L 255.5625 160.179688 C 255.5625 159.484375 255.019531 158.910156 254.324219 158.910156 L 201.195312 158.910156 C 200.53125 158.910156 199.988281 159.484375 199.988281 160.179688 L 199.988281 165.050781 C 199.988281 165.746094 200.53125 166.320312 201.195312 166.320312 Z M 167.148438 233.082031 L 254.324219 233.082031 C 255.019531 233.082031 255.5625 233.65625 255.5625 234.351562 L 255.5625 239.21875 C 255.5625 239.914062 255.019531 240.492188 254.324219 240.492188 L 167.148438 240.492188 C 166.484375 240.492188 165.941406 239.914062 165.941406 239.21875 L 165.941406 234.351562 C 165.941406 233.65625 166.484375 233.082031 167.148438 233.082031 Z M 186.019531 218.234375 L 254.324219 218.234375 C 255.019531 218.234375 255.5625 218.808594 255.5625 219.507812 L 255.5625 224.40625 C 255.5625 225.101562 255.019531 225.675781 254.324219 225.675781 L 186.019531 225.675781 C 185.351562 225.675781 184.777344 225.101562 184.777344 224.40625 L 184.777344 219.507812 C 184.777344 218.808594 185.351562 218.234375 186.019531 218.234375 Z M 199.777344 195.980469 L 254.324219 195.980469 C 255.019531 195.980469 255.5625 195.40625 255.5625 194.710938 L 255.5625 189.84375 C 255.5625 189.148438 255.019531 188.574219 254.324219 188.574219 L 199.777344 188.574219 C 199.078125 188.574219 198.535156 189.148438 198.535156 189.84375 L 198.535156 194.710938 C 198.535156 195.40625 199.078125 195.980469 199.777344 195.980469 Z M 132.042969 175.117188 L 138.484375 181.921875 L 153.421875 167.316406 C 154.632812 166.109375 156.628906 166.136719 157.835938 167.347656 L 162.191406 171.824219 C 163.371094 173.03125 163.339844 174.996094 162.128906 176.207031 L 142.65625 195.257812 L 140.390625 197.492188 C 139.785156 198.097656 139.03125 198.402344 138.152344 198.371094 C 137.277344 198.339844 136.550781 198.007812 135.945312 197.371094 L 133.769531 195.042969 L 122.972656 183.585938 C 121.792969 182.34375 121.886719 180.347656 123.125 179.199219 L 127.628906 174.96875 C 128.265625 174.363281 129.019531 174.089844 129.867188 174.121094 C 130.714844 174.152344 131.441406 174.484375 132.042969 175.117188 Z M 141.8125 144.640625 C 133.558594 148.539062 122.671875 153.015625 110.515625 154.105469 C 109.214844 154.222656 108.21875 155.28125 108.25 156.523438 C 108.582031 168.707031 108.882812 184.21875 111.210938 191.113281 C 115.476562 204.539062 127.359375 215.363281 141.449219 219.507812 C 141.960938 219.65625 142.445312 219.625 142.960938 219.476562 C 157.082031 215.152344 168.238281 204.539062 172.683594 191.144531 C 175.554688 182.4375 175.40625 168.738281 175.617188 156.492188 C 175.617188 155.28125 174.648438 154.253906 173.347656 154.132812 C 161.132812 153.015625 150.21875 148.570312 141.933594 144.640625 Z M 141.8125 144.640625 "/></g><g clip-rule="nonzero" clip-path="url(#f4fdca18bb)"><g clip-rule="nonzero" clip-path="url(#0c0aa10747)"><path style=" stroke:none;fill-rule:nonzero;fill:#ffffff;fill-opacity:1;" d="M 118.121094 155.046875 L 166.207031 155.046875 L 166.207031 203.132812 L 118.121094 203.132812 Z M 118.121094 155.046875 "/></g></g><g clip-rule="nonzero" clip-path="url(#efc2775220)"><path style=" stroke:none;fill-rule:nonzero;fill:#002060;fill-opacity:1;" d="M 161.207031 167.710938 C 159.960938 166.464844 157.941406 166.464844 156.695312 167.710938 L 136.453125 187.957031 L 128.585938 180.089844 C 127.339844 178.84375 125.320312 178.84375 124.074219 180.089844 C 122.828125 181.335938 122.828125 183.355469 124.074219 184.605469 L 134.195312 194.726562 L 136.453125 196.980469 L 161.207031 172.226562 C 162.453125 170.980469 162.453125 168.957031 161.207031 167.710938 "/></g></g></svg>