<svg xmlns="http://www.w3.org/2000/svg" xmlns:xlink="http://www.w3.org/1999/xlink" width="500" zoomAndPan="magnify" viewBox="0 0 375 374.999991" height="500" preserveAspectRatio="xMidYMid meet" version="1.2"><defs><clipPath id="66584ff65a"><path d="M 12.882812 12.882812 L 362.117188 12.882812 L 362.117188 362.117188 L 12.882812 362.117188 Z M 12.882812 12.882812 "/></clipPath><clipPath id="e27fc00fc9"><path d="M 187.5 12.882812 C 91.0625 12.882812 12.882812 91.0625 12.882812 187.5 C 12.882812 283.9375 91.0625 362.117188 187.5 362.117188 C 283.9375 362.117188 362.117188 283.9375 362.117188 187.5 C 362.117188 91.0625 283.9375 12.882812 187.5 12.882812 Z M 187.5 12.882812 "/></clipPath><clipPath id="09c22f3350"><path d="M 96 99 L 278.875 99 L 278.875 275.929688 L 96 275.929688 Z M 96 99 "/></clipPath></defs><g id="b6c9648f00"><g clip-rule="nonzero" clip-path="url(#66584ff65a)"><g clip-rule="nonzero" clip-path="url(#e27fc00fc9)"><path style=" stroke:none;fill-rule:nonzero;fill:#ffffff;fill-opacity:1;" d="M 12.882812 12.882812 L 362.117188 12.882812 L 362.117188 362.117188 L 12.882812 362.117188 Z M 12.882812 12.882812 "/></g></g><g clip-rule="nonzero" clip-path="url(#09c22f3350)"><path style=" stroke:none;fill-rule:nonzero;fill:#002060;fill-opacity:1;" d="M 270.054688 139.980469 C 268.144531 139.738281 266.019531 139.585938 263.777344 139.496094 L 263.777344 134.488281 C 263.777344 133.183594 263.503906 131.941406 263.015625 130.789062 L 271.089844 116.347656 C 274.183594 110.792969 272.179688 103.785156 266.65625 100.691406 C 263.988281 99.203125 260.863281 98.839844 257.917969 99.65625 C 254.976562 100.476562 252.519531 102.449219 251 105.121094 L 240.988281 123.019531 C 222.9375 122.109375 204.519531 126.964844 187.617188 136.976562 C 175.421875 129.695312 156.519531 121.6875 133.550781 123.019531 C 128.632812 123.292969 123.660156 124.023438 118.804688 125.113281 C 114.464844 126.117188 111.429688 129.9375 111.429688 134.460938 L 111.429688 139.375 L 105.9375 139.375 C 100.660156 139.375 96.351562 143.683594 96.351562 148.964844 L 96.351562 247.875 C 96.351562 253.125 100.597656 257.433594 105.816406 257.464844 C 113.222656 257.496094 120.65625 257.738281 127.875 258.160156 C 145.59375 259.195312 162.828125 264.382812 179.121094 273.574219 C 181.761719 275.0625 184.765625 275.851562 187.800781 275.851562 C 190.621094 275.851562 193.414062 275.183594 195.871094 273.910156 C 214.804688 264.167969 231.824219 259.011719 247.90625 258.132812 C 254.792969 257.738281 261.863281 257.523438 268.902344 257.496094 C 274.121094 257.464844 278.371094 253.15625 278.371094 247.90625 L 278.371094 149.507812 C 278.371094 144.683594 274.789062 140.589844 270.027344 140.011719 Z M 256.28125 108.09375 C 256.980469 106.820312 258.164062 105.910156 259.558594 105.515625 C 260.953125 105.121094 262.410156 105.300781 263.683594 106 C 266.292969 107.457031 267.234375 110.761719 265.777344 113.402344 L 257.007812 129.121094 C 257.007812 129.121094 256.980469 129.179688 256.949219 129.210938 L 244.722656 151.117188 L 235.222656 145.808594 L 256.28125 108.0625 Z M 190.863281 142.105469 C 205.730469 133.308594 221.8125 128.875 237.621094 129.058594 L 228.429688 145.535156 C 228.429688 145.535156 228.367188 145.777344 228.304688 145.898438 C 228.277344 145.988281 228.214844 146.050781 228.183594 146.109375 C 219.355469 147.566406 210.375 151.148438 201.453125 156.761719 C 200.027344 157.640625 199.601562 159.523438 200.511719 160.949219 C 201.089844 161.859375 202.0625 162.375 203.09375 162.375 C 203.640625 162.375 204.214844 162.222656 204.699219 161.917969 C 211.984375 157.335938 219.234375 154.242188 226.394531 152.664062 L 222.664062 166.195312 C 222.421875 167.105469 222.359375 168.046875 222.480469 168.925781 C 215.503906 170.808594 208.464844 173.875 201.453125 178.273438 C 200.027344 179.152344 199.601562 181.035156 200.511719 182.460938 C 201.089844 183.371094 202.089844 183.886719 203.09375 183.886719 C 203.640625 183.886719 204.214844 183.734375 204.699219 183.429688 C 212.042969 178.820312 219.417969 175.722656 226.605469 174.144531 C 227.425781 174.480469 228.277344 174.722656 229.125 174.722656 C 230.644531 174.722656 232.128906 174.144531 233.34375 173.144531 C 240.078125 172.597656 244.113281 173.691406 244.144531 173.691406 C 244.417969 173.78125 244.722656 173.8125 244.996094 173.8125 C 246.300781 173.8125 247.511719 172.964844 247.90625 171.628906 C 248.390625 170.019531 247.453125 168.320312 245.84375 167.867188 C 245.691406 167.835938 243.296875 167.167969 239.199219 166.957031 L 248.089844 157.398438 C 248.089844 157.398438 248.121094 157.335938 248.148438 157.308594 C 248.269531 157.15625 248.421875 157.003906 248.515625 156.820312 L 257.675781 140.375 L 257.675781 142.441406 C 257.675781 142.441406 257.675781 142.5 257.675781 142.53125 L 257.675781 231.550781 C 257.675781 232.613281 257.222656 233.585938 256.402344 234.253906 C 255.582031 234.921875 254.550781 235.195312 253.550781 235.011719 C 250.273438 234.375 246.84375 233.890625 243.296875 233.617188 C 221.691406 232.007812 203.457031 238.683594 190.835938 245.570312 L 190.835938 142.105469 Z M 117.5 134.488281 C 117.5 132.851562 118.589844 131.425781 120.167969 131.0625 C 124.691406 130.03125 129.332031 129.363281 133.914062 129.089844 C 155.488281 127.84375 173.359375 135.492188 184.828125 142.378906 L 184.828125 245.753906 C 172.175781 238.804688 153.726562 231.917969 131.882812 233.523438 C 128.453125 233.765625 124.992188 234.253906 121.625 234.890625 C 120.59375 235.070312 119.59375 234.828125 118.773438 234.160156 C 117.953125 233.496094 117.5 232.492188 117.5 231.429688 Z M 130.394531 150.023438 C 129.9375 148.417969 130.847656 146.746094 132.425781 146.261719 C 133.1875 146.050781 151.664062 140.863281 176.847656 156.730469 C 178.273438 157.609375 178.699219 159.492188 177.789062 160.917969 C 177.210938 161.828125 176.210938 162.34375 175.207031 162.34375 C 174.664062 162.34375 174.085938 162.191406 173.601562 161.886719 C 150.90625 147.597656 134.308594 152.058594 134.125 152.117188 C 132.519531 152.574219 130.847656 151.664062 130.363281 150.054688 Z M 130.394531 171.507812 C 129.9375 169.898438 130.847656 168.230469 132.425781 167.746094 C 133.1875 167.5 151.632812 162.34375 176.847656 178.183594 C 178.273438 179.0625 178.699219 180.941406 177.789062 182.367188 C 177.210938 183.277344 176.210938 183.796875 175.207031 183.796875 C 174.664062 183.796875 174.085938 183.644531 173.601562 183.339844 C 150.90625 169.050781 134.308594 173.539062 134.125 173.570312 C 132.519531 174.023438 130.847656 173.113281 130.363281 171.507812 Z M 130.394531 192.988281 C 129.9375 191.378906 130.847656 189.710938 132.425781 189.226562 C 133.1875 188.984375 151.632812 183.824219 176.847656 199.664062 C 178.273438 200.542969 178.699219 202.425781 177.789062 203.851562 C 177.210938 204.761719 176.210938 205.277344 175.207031 205.277344 C 174.664062 205.277344 174.085938 205.125 173.601562 204.820312 C 150.90625 190.53125 134.308594 195.019531 134.125 195.050781 C 132.519531 195.507812 130.847656 194.597656 130.363281 192.988281 Z M 130.394531 214.5 C 129.910156 212.890625 130.847656 211.195312 132.457031 210.738281 C 133.214844 210.496094 151.664062 205.335938 176.878906 221.175781 C 178.304688 222.054688 178.726562 223.9375 177.816406 225.363281 C 177.242188 226.273438 176.242188 226.789062 175.238281 226.789062 C 174.691406 226.789062 174.117188 226.636719 173.632812 226.332031 C 150.753906 211.921875 134.339844 216.535156 134.1875 216.5625 C 132.578125 217.050781 130.910156 216.109375 130.425781 214.5 Z M 200.511719 203.882812 C 199.632812 202.453125 200.058594 200.605469 201.453125 199.695312 C 226.636719 183.855469 245.085938 189.015625 245.875 189.257812 C 247.480469 189.742188 248.390625 191.410156 247.9375 193.019531 C 247.480469 194.625 245.78125 195.539062 244.175781 195.082031 C 243.871094 194.992188 227.304688 190.621094 204.699219 204.851562 C 204.183594 205.15625 203.640625 205.308594 203.09375 205.308594 C 202.089844 205.308594 201.089844 204.792969 200.511719 203.882812 Z M 204.699219 226.332031 C 204.183594 226.636719 203.640625 226.789062 203.09375 226.789062 C 202.089844 226.789062 201.089844 226.273438 200.511719 225.363281 C 199.632812 223.9375 200.058594 222.085938 201.453125 221.175781 C 226.636719 205.335938 245.085938 210.496094 245.875 210.738281 C 247.480469 211.222656 248.390625 212.890625 247.9375 214.5 C 247.453125 216.109375 245.8125 217.019531 244.175781 216.5625 C 243.933594 216.503906 227.335938 212.074219 204.699219 226.332031 Z M 204.699219 226.332031 "/></g></g></svg>