<svg xmlns="http://www.w3.org/2000/svg" xmlns:xlink="http://www.w3.org/1999/xlink" width="500" zoomAndPan="magnify" viewBox="0 0 375 374.999991" height="500" preserveAspectRatio="xMidYMid meet" version="1.2"><defs><clipPath id="ce185eb913"><path d="M 12.882812 12.882812 L 362.117188 12.882812 L 362.117188 362.117188 L 12.882812 362.117188 Z M 12.882812 12.882812 "/></clipPath><clipPath id="889e8cac39"><path d="M 187.5 12.882812 C 91.0625 12.882812 12.882812 91.0625 12.882812 187.5 C 12.882812 283.9375 91.0625 362.117188 187.5 362.117188 C 283.9375 362.117188 362.117188 283.9375 362.117188 187.5 C 362.117188 91.0625 283.9375 12.882812 187.5 12.882812 Z M 187.5 12.882812 "/></clipPath><clipPath id="1bef10e1ca"><path d="M 118.121094 155.046875 L 166.207031 155.046875 L 166.207031 203.132812 L 118.121094 203.132812 Z M 118.121094 155.046875 "/></clipPath><clipPath id="3e488a87d8"><path d="M 142.164062 155.046875 C 128.886719 155.046875 118.121094 165.8125 118.121094 179.089844 C 118.121094 192.367188 128.886719 203.132812 142.164062 203.132812 C 155.441406 203.132812 166.207031 192.367188 166.207031 179.089844 C 166.207031 165.8125 155.441406 155.046875 142.164062 155.046875 Z M 142.164062 155.046875 "/></clipPath><clipPath id="d0789fa24b"><path d="M 175 132 L 288.945312 132 L 288.945312 201 L 175 201 Z M 175 132 "/></clipPath><clipPath id="17586d9b75"><path d="M 223 237 L 288.945312 237 L 288.945312 275 L 223 275 Z M 223 237 "/></clipPath></defs><g id="5d67c4da77"><g clip-rule="nonzero" clip-path="url(#ce185eb913)"><g clip-rule="nonzero" clip-path="url(#889e8cac39)"><path style=" stroke:none;fill-rule:nonzero;fill:#002060;fill-opacity:1;" d="M 12.882812 12.882812 L 362.117188 12.882812 L 362.117188 362.117188 L 12.882812 362.117188 Z M 12.882812 12.882812 "/></g></g><g clip-rule="nonzero" clip-path="url(#1bef10e1ca)"><g clip-rule="nonzero" clip-path="url(#3e488a87d8)"><path style=" stroke:none;fill-rule:nonzero;fill:#002060;fill-opacity:1;" d="M 118.121094 155.046875 L 166.207031 155.046875 L 166.207031 203.132812 L 118.121094 203.132812 Z M 118.121094 155.046875 "/></g></g><g clip-rule="nonzero" clip-path="url(#d0789fa24b)"><path style=" stroke:none;fill-rule:evenodd;fill:#ffffff;fill-opacity:1;" d="M 177.714844 132.550781 C 175.335938 132.652344 174.402344 135.710938 176.339844 137.113281 L 202.015625 156.277344 C 201.429688 158.753906 202.398438 161.34375 204.453125 162.84375 L 222.140625 176.046875 C 224.398438 177.722656 227.484375 177.722656 229.730469 176.046875 L 239.085938 169.066406 L 239.085938 199.570312 C 241.257812 197.007812 244.007812 194.886719 247.292969 193.476562 C 250.132812 192.25 253.109375 191.675781 256.007812 191.652344 C 257.917969 191.640625 259.796875 191.910156 261.621094 192.371094 L 270.941406 177.808594 L 270.941406 173.234375 L 274.328125 177.339844 L 264.152344 193.191406 C 268.03125 194.675781 271.574219 197.191406 274.15625 200.625 C 274.589844 200.230469 274.976562 199.796875 275.296875 199.300781 L 287.507812 180.300781 C 288.996094 177.96875 288.808594 174.957031 287.058594 172.835938 L 271.269531 153.734375 C 270.066406 152.285156 268.28125 151.4375 266.386719 151.4375 L 243.652344 151.4375 C 242.289062 151.429688 240.949219 151.875 239.84375 152.695312 L 225.945312 163.066406 L 212.039062 152.695312 C 210.851562 151.789062 209.386719 151.328125 207.886719 151.390625 C 206.898438 151.4375 205.917969 151.726562 205.050781 152.222656 L 179.378906 133.054688 C 178.90625 132.699219 178.3125 132.523438 177.714844 132.550781 Z M 177.714844 132.550781 "/></g><path style=" stroke:none;fill-rule:evenodd;fill:#ffffff;fill-opacity:1;" d="M 241.613281 139.402344 C 244.8125 146.804688 253.402344 150.214844 260.816406 147.015625 C 268.203125 143.832031 271.613281 135.242188 268.414062 127.855469 C 265.214844 120.453125 256.636719 117.046875 249.238281 120.226562 C 241.824219 123.425781 238.429688 132.003906 241.613281 139.402344 Z M 241.613281 139.402344 "/><path style=" stroke:none;fill-rule:nonzero;fill:#ffffff;fill-opacity:1;" d="M 104.742188 237.429688 C 97.117188 237.429688 90.9375 242.75 88.503906 248.167969 C 85.972656 253.804688 85.753906 259.683594 86.484375 263.414062 C 87.214844 267.144531 87.871094 269.054688 89.136719 270.851562 C 90.339844 272.539062 92.507812 274.097656 94.480469 274.65625 L 142.488281 274.65625 C 144.460938 274.097656 146.613281 272.539062 147.816406 270.851562 C 149.09375 269.054688 149.753906 267.144531 150.484375 263.414062 C 151.203125 259.683594 150.988281 253.808594 148.464844 248.167969 C 146.035156 242.75 139.859375 237.429688 132.234375 237.429688 Z M 104.742188 237.429688 "/><path style=" stroke:none;fill-rule:evenodd;fill:#ffffff;fill-opacity:1;" d="M 102.277344 221.117188 C 106.144531 230.082031 116.554688 234.207031 125.542969 230.339844 C 134.492188 226.472656 138.621094 216.058594 134.75 207.109375 C 130.875 198.132812 120.472656 194.007812 111.511719 197.875 C 102.523438 201.742188 98.40625 212.140625 102.277344 221.117188 Z M 102.277344 221.117188 "/><path style=" stroke:none;fill-rule:nonzero;fill:#ffffff;fill-opacity:1;" d="M 173.574219 237.429688 C 165.949219 237.429688 159.765625 242.75 157.335938 248.167969 C 154.808594 253.820312 154.582031 259.683594 155.316406 263.414062 C 156.058594 267.144531 156.703125 269.054688 157.980469 270.851562 C 159.171875 272.539062 161.339844 274.097656 163.3125 274.65625 L 211.320312 274.65625 C 213.289062 274.097656 215.449219 272.539062 216.652344 270.851562 C 217.925781 269.054688 218.582031 267.144531 219.316406 263.414062 C 220.046875 259.683594 219.824219 253.820312 217.296875 248.167969 C 214.867188 242.75 208.691406 237.429688 201.070312 237.429688 Z M 187.207031 196.421875 C 184.917969 196.449219 182.585938 196.910156 180.34375 197.871094 C 171.355469 201.738281 167.242188 212.140625 171.109375 221.105469 C 174.976562 230.078125 185.386719 234.203125 194.363281 230.339844 C 203.328125 226.46875 207.453125 216.058594 203.585938 207.105469 C 200.675781 200.378906 194.089844 196.375 187.207031 196.421875 Z M 187.207031 196.421875 "/><g clip-rule="nonzero" clip-path="url(#17586d9b75)"><path style=" stroke:none;fill-rule:nonzero;fill:#ffffff;fill-opacity:1;" d="M 242.40625 237.429688 C 234.785156 237.429688 228.597656 242.75 226.167969 248.167969 C 223.636719 253.804688 223.417969 259.683594 224.148438 263.414062 C 224.882812 267.144531 225.539062 269.054688 226.8125 270.851562 C 228.003906 272.539062 230.175781 274.097656 232.144531 274.65625 L 280.152344 274.65625 C 282.125 274.097656 284.277344 272.539062 285.480469 270.851562 C 286.761719 269.054688 287.417969 267.144531 288.148438 263.414062 C 288.882812 259.683594 288.65625 253.808594 286.128906 248.167969 C 283.699219 242.75 277.523438 237.429688 269.902344 237.429688 Z M 242.40625 237.429688 "/></g><path style=" stroke:none;fill-rule:evenodd;fill:#ffffff;fill-opacity:1;" d="M 239.941406 221.117188 C 243.804688 230.082031 254.222656 234.207031 263.207031 230.339844 C 272.15625 226.472656 276.285156 216.058594 272.417969 207.109375 C 268.535156 198.132812 258.136719 194.007812 249.175781 197.875 C 240.1875 201.742188 236.074219 212.140625 239.941406 221.117188 Z M 239.941406 221.117188 "/><path style=" stroke:none;fill-rule:evenodd;fill:#ffffff;fill-opacity:1;" d="M 125.28125 99.789062 C 123.546875 99.789062 122.148438 101.199219 122.148438 102.9375 L 122.148438 188.023438 C 122.148438 189.757812 123.546875 191.15625 125.28125 191.171875 L 234.265625 191.171875 L 234.265625 184.875 L 128.429688 184.875 L 128.429688 106.097656 L 246.1875 106.097656 L 246.1875 115.902344 L 252.484375 115.902344 L 252.484375 102.933594 C 252.484375 101.199219 251.070312 99.785156 249.335938 99.785156 L 125.28125 99.785156 Z M 125.28125 99.789062 "/></g></svg>