<svg xmlns="http://www.w3.org/2000/svg" xmlns:xlink="http://www.w3.org/1999/xlink" width="500" zoomAndPan="magnify" viewBox="0 0 375 374.999991" height="500" preserveAspectRatio="xMidYMid meet" version="1.0"><defs><clipPath id="2cafc6e446"><path d="M 12.882812 12.882812 L 362.117188 12.882812 L 362.117188 362.117188 L 12.882812 362.117188 Z M 12.882812 12.882812 " clip-rule="nonzero"/></clipPath><clipPath id="9a7222479a"><path d="M 187.5 12.882812 C 91.0625 12.882812 12.882812 91.0625 12.882812 187.5 C 12.882812 283.9375 91.0625 362.117188 187.5 362.117188 C 283.9375 362.117188 362.117188 283.9375 362.117188 187.5 C 362.117188 91.0625 283.9375 12.882812 187.5 12.882812 Z M 187.5 12.882812 " clip-rule="nonzero"/></clipPath><clipPath id="584f26eb64"><path d="M 0.882812 0.882812 L 350.117188 0.882812 L 350.117188 350.117188 L 0.882812 350.117188 Z M 0.882812 0.882812 " clip-rule="nonzero"/></clipPath><clipPath id="b99a611e3f"><path d="M 175.5 0.882812 C 79.0625 0.882812 0.882812 79.0625 0.882812 175.5 C 0.882812 271.9375 79.0625 350.117188 175.5 350.117188 C 271.9375 350.117188 350.117188 271.9375 350.117188 175.5 C 350.117188 79.0625 271.9375 0.882812 175.5 0.882812 Z M 175.5 0.882812 " clip-rule="nonzero"/></clipPath><clipPath id="6dad6d21df"><rect x="0" width="351" y="0" height="351"/></clipPath><clipPath id="5a62958bee"><path d="M 104 88.789062 L 270.359375 88.789062 L 270.359375 269.539062 L 104 269.539062 Z M 104 88.789062 " clip-rule="nonzero"/></clipPath></defs><g clip-path="url(#2cafc6e446)"><g clip-path="url(#9a7222479a)"><g transform="matrix(1, 0, 0, 1, 12, 12)"><g clip-path="url(#6dad6d21df)"><g clip-path="url(#584f26eb64)"><g clip-path="url(#b99a611e3f)"><path fill="#ffffff" d="M 0.882812 0.882812 L 350.117188 0.882812 L 350.117188 350.117188 L 0.882812 350.117188 Z M 0.882812 0.882812 " fill-opacity="1" fill-rule="nonzero"/></g></g></g></g></g></g><g clip-path="url(#5a62958bee)"><path fill="#002060" d="M 176.78125 88.855469 C 153.929688 88.855469 135.339844 108.21875 135.339844 132.027344 C 135.339844 155.832031 153.929688 175.199219 176.78125 175.199219 C 199.636719 175.199219 218.226562 155.832031 218.226562 132.027344 C 218.226562 108.21875 199.636719 88.855469 176.78125 88.855469 Z M 176.78125 179.144531 C 144.066406 179.144531 115.472656 197.25 105.632812 224.203125 C 100.238281 239 111.304688 254.632812 126.886719 254.632812 L 185.121094 254.632812 C 170.214844 225.507812 185.738281 196.101562 207.191406 184.730469 C 197.84375 181.140625 187.542969 179.144531 176.78125 179.144531 Z M 228.101562 192.460938 C 226.398438 192.460938 224.949219 193.691406 224.664062 195.367188 L 223.625 201.417969 C 221.070312 202.109375 218.652344 203.105469 216.414062 204.390625 L 211.402344 200.859375 C 210.007812 199.875 208.117188 200.039062 206.914062 201.242188 L 201.957031 206.199219 C 200.753906 207.40625 200.597656 209.296875 201.578125 210.6875 L 205.113281 215.691406 C 203.824219 217.933594 202.824219 220.347656 202.132812 222.902344 L 196.089844 223.941406 C 194.410156 224.230469 193.179688 225.6875 193.179688 227.386719 L 193.179688 234.394531 C 193.179688 236.097656 194.414062 237.550781 196.089844 237.835938 L 202.132812 238.875 C 202.824219 241.425781 203.824219 243.84375 205.113281 246.085938 L 201.578125 251.097656 C 200.597656 252.488281 200.753906 254.382812 201.957031 255.582031 L 206.914062 260.542969 C 208.121094 261.742188 210.011719 261.898438 211.402344 260.917969 L 216.414062 257.386719 C 218.652344 258.671875 221.070312 259.675781 223.625 260.367188 L 224.664062 266.417969 C 224.953125 268.09375 226.402344 269.316406 228.101562 269.316406 L 235.109375 269.316406 C 236.8125 269.316406 238.269531 268.09375 238.558594 266.417969 L 239.597656 260.367188 C 242.148438 259.675781 244.566406 258.671875 246.808594 257.386719 L 251.8125 260.917969 C 253.203125 261.898438 255.097656 261.742188 256.296875 260.542969 L 261.257812 255.582031 C 262.457031 254.378906 262.621094 252.488281 261.640625 251.097656 L 258.105469 246.085938 C 259.394531 243.84375 260.390625 241.425781 261.082031 238.875 L 267.132812 237.835938 C 268.808594 237.546875 270.03125 236.09375 270.03125 234.394531 L 270.03125 227.386719 C 270.03125 225.683594 268.808594 224.226562 267.132812 223.941406 L 261.082031 222.902344 C 260.390625 220.347656 259.394531 217.933594 258.105469 215.691406 L 261.640625 210.6875 C 262.621094 209.292969 262.457031 207.402344 261.257812 206.199219 L 256.296875 201.242188 C 255.09375 200.039062 253.203125 199.875 251.8125 200.859375 L 246.808594 204.390625 C 244.566406 203.105469 242.148438 202.109375 239.597656 201.417969 L 238.558594 195.367188 C 238.269531 193.691406 236.808594 192.460938 235.109375 192.460938 Z M 231.609375 220.09375 C 237.570312 220.09375 242.402344 224.925781 242.402344 230.886719 C 242.402344 236.847656 237.570312 241.679688 231.609375 241.679688 C 225.648438 241.679688 220.816406 236.847656 220.816406 230.886719 C 220.816406 224.925781 225.648438 220.09375 231.609375 220.09375 Z M 231.609375 220.09375 " fill-opacity="1" fill-rule="nonzero"/></g></svg>